<?xml version="1.0" encoding="UTF-8" standalone="no"?>
<!DOCTYPE svg PUBLIC "-//W3C//DTD SVG 1.1//EN" "http://www.w3.org/Graphics/SVG/1.1/DTD/svg11.dtd">
<svg width="100%" height="100%" viewBox="0 0 16 16" version="1.1" xmlns="http://www.w3.org/2000/svg" xmlns:xlink="http://www.w3.org/1999/xlink" xml:space="preserve" xmlns:serif="http://www.serif.com/" style="fill-rule:evenodd;clip-rule:evenodd;stroke-linejoin:round;stroke-miterlimit:2;">
    <rect id="ArtBoard1" x="0" y="0" width="16" height="16" style="fill:none;"/>
    <g id="ArtBoard11" serif:id="ArtBoard1">
        <g transform="matrix(0.184974,0,0,0.184974,-3008.3,-2583.05)">
            <path d="M16274.1,13994.9C16271.7,13994.7 16269.7,13995.3 16268.1,13996.9C16266.6,13998.5 16265.8,14000.4 16265.8,14002.5L16265.8,14010.2C16265.8,14013 16266.7,14015.1 16268.5,14016.5C16270,14017.8 16271.9,14018.5 16274.1,14018.5C16276.3,14018.5 16278.2,14017.7 16279.6,14016.2C16280.9,14014.8 16281.9,14013.6 16282.4,14012.5L16339.6,14018.5C16342.1,14018.7 16344.1,14018 16345.6,14016.3C16347.1,14014.7 16347.8,14012.9 16347.8,14010.8L16347.8,14003.2C16347.7,14000.2 16346.9,13998 16345.3,13996.7C16343.8,13995.5 16341.9,13994.9 16339.6,13994.9C16337.3,13995 16335.6,13995.7 16334.2,13997C16332.8,13998.5 16331.8,13999.7 16331.2,14000.8L16274.1,13994.9Z" style="fill:rgb(255,61,0);fill-rule:nonzero;"/>
        </g>
    </g>
</svg>
