<?xml version="1.0" encoding="UTF-8" standalone="no"?><!DOCTYPE svg PUBLIC "-//W3C//DTD SVG 1.1//EN" "http://www.w3.org/Graphics/SVG/1.1/DTD/svg11.dtd"><svg width="100%" height="100%" viewBox="0 0 1213 413" version="1.1" xmlns="http://www.w3.org/2000/svg" xmlns:xlink="http://www.w3.org/1999/xlink" xml:space="preserve" xmlns:serif="http://www.serif.com/" style="fill-rule:evenodd;clip-rule:evenodd;stroke-linejoin:round;stroke-miterlimit:2;"><rect id="Rejoin-Screen-SS" serif:id="Rejoin Screen SS" x="-1638.79" y="-5808.33" width="4500" height="8000" style="fill:none;"/><g id="Rejoin-Screen-SS1" serif:id="Rejoin Screen SS"><g id="Logo"></g><path d="M668.6,16.343l-196.784,340.84c-72.169,-63.045 -89.656,-168.337 -41.742,-251.326c47.914,-82.99 147.843,-120.491 238.526,-89.514Zm-34.93,14.669c-72.254,-12.382 -146.116,21.119 -183.749,86.303c-37.634,65.184 -29.716,145.9 17.133,202.283l166.616,-288.586Z" style="fill:#ff3d00;"/><path d="M541.723,395.933l196.784,-340.84c72.169,63.046 89.656,168.337 41.742,251.327c-47.914,82.99 -147.843,120.491 -238.526,89.513Zm34.93,-14.669c72.255,12.382 146.116,-21.119 183.75,-86.303c37.634,-65.183 29.715,-145.9 -17.134,-202.282l-166.616,288.585Z" style="fill:#ff3d00;"/><rect x="2.972" y="194.68" width="401.841" height="22.917" style="fill:#ff3d00;"/><rect x="805.17" y="194.68" width="402.19" height="22.917" style="fill:#ff3d00;"/></g></svg>