<?xml version="1.0" encoding="UTF-8" standalone="no"?><!DOCTYPE svg PUBLIC "-//W3C//DTD SVG 1.1//EN" "http://www.w3.org/Graphics/SVG/1.1/DTD/svg11.dtd"><svg width="100%" height="100%" viewBox="0 0 1042 1042" version="1.1" xmlns="http://www.w3.org/2000/svg" xmlns:xlink="http://www.w3.org/1999/xlink" xml:space="preserve" xmlns:serif="http://www.serif.com/" style="fill-rule:evenodd;clip-rule:evenodd;stroke-linejoin:round;stroke-miterlimit:2;"><rect id="Sprache-Screen-Choir---Sprache" serif:id="Sprache Screen Choir + Sprache" x="-1729.68" y="-5660.52" width="4500" height="8000" style="fill:none;"/><g id="Sprache-Screen-Choir---Sprache1" serif:id="Sprache Screen Choir + Sprache"><g id="Logo"></g><path d="M450.809,330.709l19.8,-12.027l119.23,196.286c2.245,3.695 2.245,8.332 0,12.027l-117.181,192.913l-19.8,-12.027l113.528,-186.899l-115.577,-190.273Z" style="fill:#79ea04;"/><path d="M520.324,1.484c285.788,-0 517.811,232.023 517.811,517.811c0,285.788 -232.023,517.811 -517.811,517.811c-285.788,-0 -517.811,-232.023 -517.811,-517.811c-0,-285.788 232.023,-517.811 517.811,-517.811Zm0,22.916c-273.14,0 -494.894,221.755 -494.894,494.895c-0,273.14 221.754,494.894 494.894,494.894c273.14,0 494.894,-221.754 494.894,-494.894c0,-273.14 -221.754,-494.895 -494.894,-494.895Z" style="fill:#79ea04;"/></g></svg>
