
<svg width="100%" height="100%" viewBox="0 0 129 128" version="1.1" xmlns="http://www.w3.org/2000/svg" xmlns:xlink="http://www.w3.org/1999/xlink" xml:space="preserve" xmlns:serif="http://www.serif.com/" style="fill-rule:evenodd;clip-rule:evenodd;stroke-linecap:round;stroke-miterlimit:1.5;">
    <g transform="matrix(1,0,0,1,-5245,-1014)">
        <g id="Start-Soundsystem" serif:id="Start Soundsystem" transform="matrix(1,0,0,1,4768.92,57.1464)">
            <rect x="0" y="0" width="1080" height="1920" style="fill:none;"/>
            <g transform="matrix(0.744037,0,0,0.744037,1068.84,-6349.37)">
                <g transform="matrix(1,0,0,1,-2921.25,6570.33)">
                    <circle cx="2210.48" cy="3335.52" r="81.923" style="fill:none;stroke:rgb(121,234,4);stroke-width:6.91px;"/>
                </g>
                <g transform="matrix(2.99132,0,0,1.98107,-7324.13,3378.32)">
                    <ellipse cx="2210.85" cy="3294.56" rx="15.38" ry="40.961" style="fill:none;stroke:rgb(121,234,4);stroke-width:2.73px;"/>
                </g>
                <g transform="matrix(1,0,0,1,-2921.25,6570.33)">
                    <path d="M2210.48,3253.59L2210.48,3415.89" style="fill:none;stroke:rgb(121,234,4);stroke-width:6.91px;"/>
                </g>
                <g transform="matrix(1,0,0,1,-2921.25,6570.33)">
                    <path d="M2128.56,3335.52L2292.41,3334.74" style="fill:none;stroke:rgb(121,234,4);stroke-width:6.91px;"/>
                </g>
                <g transform="matrix(0.985124,7.59173e-05,7.59173e-05,1,-2889.67,6528.84)">
                    <path d="M2139.89,3335.46L2281.31,3334.74" style="fill:none;stroke:rgb(121,234,4);stroke-width:6.96px;"/>
                </g>
                <g transform="matrix(1,0,0,1,-2916.48,6610.25)">
                    <path d="M2135.11,3335.52L2276.54,3334.74" style="fill:none;stroke:rgb(121,234,4);stroke-width:6.91px;"/>
                </g>
            </g>
            <g id="Logo">
            </g>
        </g>
    </g>
</svg>
