<?xml version="1.0" encoding="UTF-8" standalone="no"?>
<!DOCTYPE svg PUBLIC "-//W3C//DTD SVG 1.1//EN" "http://www.w3.org/Graphics/SVG/1.1/DTD/svg11.dtd">
<svg width="100%" height="100%" viewBox="0 0 716 723" version="1.1" xmlns="http://www.w3.org/2000/svg" xmlns:xlink="http://www.w3.org/1999/xlink" xml:space="preserve" xmlns:serif="http://www.serif.com/" style="fill-rule:evenodd;clip-rule:evenodd;stroke-linecap:round;stroke-linejoin:round;stroke-miterlimit:1.5;">
    <g transform="matrix(1,0,0,1,-17197,-385)">
        <g id="Do-not-switch-off-phone" serif:id="Do not switch off phone" transform="matrix(1,0,0,1,16975.1,26.2012)">
            <rect x="0" y="0" width="1080" height="1920" style="fill:none;"/>
            <g transform="matrix(2.76529e-16,-4.51607,4.51607,2.76529e-16,-45957.4,27532.4)">
                <path d="M5968.38,10329C5968.38,10321.9 5962.58,10316.1 5955.45,10316.1L5870.86,10316.1C5863.73,10316.1 5857.94,10321.9 5857.94,10329L5857.94,10354.8C5857.94,10362 5863.73,10367.8 5870.86,10367.8L5955.45,10367.8C5962.58,10367.8 5968.38,10362 5968.38,10354.8L5968.38,10329ZM5966.38,10329L5966.38,10354.8C5966.38,10360.9 5961.48,10365.8 5955.45,10365.8L5870.86,10365.8C5864.83,10365.8 5859.93,10360.9 5859.93,10354.8C5859.93,10354.8 5859.93,10329 5859.93,10329C5859.93,10323 5864.83,10318.1 5870.86,10318.1C5870.86,10318.1 5955.45,10318.1 5955.45,10318.1C5961.48,10318.1 5966.38,10323 5966.38,10329Z" style="fill:white;"/>
            </g>
            <g transform="matrix(0.966739,-0.0332607,-0.0332607,0.966739,-14256.2,-8387.88)">
                <path d="M15711.3,9921.79L16017.9,10228.5" style="fill:none;stroke:rgb(255,252,252);stroke-width:16.07px;"/>
            </g>
            <g transform="matrix(0.662982,-0.337018,-0.337018,0.662982,-6573.44,-505.886)">
                <path d="M15711.3,9921.79L16017.9,10228.5" style="fill:none;stroke:rgb(255,252,252);stroke-width:46.02px;"/>
            </g>
            <g transform="matrix(2.76529e-16,-4.51607,4.51607,2.76529e-16,-46355.6,27532.4)">
                <path d="M5968.38,10329C5968.38,10321.9 5962.58,10316.1 5955.45,10316.1L5870.86,10316.1C5863.73,10316.1 5857.94,10321.9 5857.94,10329L5857.94,10354.8C5857.94,10362 5863.73,10367.8 5870.86,10367.8L5955.45,10367.8C5962.58,10367.8 5968.38,10362 5968.38,10354.8L5968.38,10329Z" style="fill:white;"/>
                <path d="M5968.38,10329C5968.38,10321.9 5962.58,10316.1 5955.45,10316.1L5870.86,10316.1C5863.73,10316.1 5857.94,10321.9 5857.94,10329L5857.94,10354.8C5857.94,10362 5863.73,10367.8 5870.86,10367.8L5955.45,10367.8C5962.58,10367.8 5968.38,10362 5968.38,10354.8L5968.38,10329ZM5966.38,10329L5966.38,10354.8C5966.38,10360.9 5961.48,10365.8 5955.45,10365.8C5955.45,10365.8 5870.86,10365.8 5870.86,10365.8C5864.83,10365.8 5859.93,10360.9 5859.93,10354.8C5859.93,10354.8 5859.93,10329 5859.93,10329C5859.93,10323 5864.83,10318.1 5870.86,10318.1L5955.45,10318.1C5961.48,10318.1 5966.38,10323 5966.38,10329Z" style="fill:white;"/>
            </g>
            <g id="Logo">
            </g>
            <g transform="matrix(1,0,0,1,2865.5,-9308.97)">
                <g transform="matrix(0.889389,0,0,0.889389,-253.85,802.147)">
                    <g transform="matrix(1,0,0,1.26448,-3916.54,-2964.15)">
                        <path d="M1688.14,10254.1L1688.14,10316.3" style="fill:none;stroke:rgb(255,252,252);stroke-width:13.16px;"/>
                    </g>
                    <g transform="matrix(1,0,0,1,-3916.54,-261.475)">
                        <path d="M1716.69,10292.5C1739.17,10303.2 1754.73,10326.1 1754.73,10352.6C1754.73,10389.4 1724.89,10419.2 1688.14,10419.2C1651.39,10419.2 1621.56,10389.4 1621.56,10352.6C1621.56,10326.1 1637.12,10303.2 1659.6,10292.5" style="fill:none;stroke:white;stroke-width:15px;"/>
                    </g>
                </g>
                <g transform="matrix(1,0,0,1,-2921.25,0.799186)">
                    <path d="M626.278,9683.14L778.677,9835.53" style="fill:none;stroke:rgb(255,252,252);stroke-width:15px;"/>
                </g>
            </g>
            <g transform="matrix(0.889389,0,0,0.889389,2333.38,-8513.71)">
                <g>
                    <g transform="matrix(1,0,0,1.26448,-3916.54,-2964.15)">
                        <path d="M1688.14,10254.1L1688.14,10316.3" style="fill:none;stroke:rgb(255,252,252);stroke-width:13.16px;"/>
                    </g>
                    <g transform="matrix(1,0,0,1,-3916.54,-261.475)">
                        <path d="M1716.69,10292.5C1739.17,10303.2 1754.73,10326.1 1754.73,10352.6C1754.73,10389.4 1724.89,10419.2 1688.14,10419.2C1651.39,10419.2 1621.56,10389.4 1621.56,10352.6C1621.56,10326.1 1637.12,10303.2 1659.6,10292.5" style="fill:none;stroke:white;stroke-width:15px;"/>
                    </g>
                </g>
            </g>
            <g transform="matrix(0.272635,0,0,0.448835,61.9336,-2842.94)">
                <path d="M1754.21,8053.75L1857.6,8157.14L1755.99,8258.75" style="fill:none;stroke:white;stroke-width:105.03px;"/>
            </g>
            <g transform="matrix(1.22733,0,0,1.25966,3167.49,-12533.8)">
                <g transform="matrix(1,0,0,1,-84.3369,64.2476)">
                    <g transform="matrix(0.889003,-0.457902,0.457902,0.889003,-7559.59,1775.9)">
                        <path d="M1222.36,10105.6C1191.83,10105.6 1167.04,10130.4 1167.04,10160.9C1167.04,10191.4 1191.83,10216.2 1222.36,10216.2C1207.09,10207 1194.7,10185.4 1194.7,10160.9C1194.7,10136.4 1207.09,10114.8 1222.36,10105.6Z" style="fill:white;"/>
                    </g>
                    <g transform="matrix(0.809404,0,0,0.809404,-2722.74,1974.75)">
                        <text x="1122.22px" y="10211.8px" style="font-family:'Verdana', sans-serif;font-size:54px;fill:white;">z</text>
                    </g>
                    <g transform="matrix(0.518704,0,0,0.518704,-2419.74,4950.95)">
                        <text x="1122.22px" y="10211.8px" style="font-family:'Verdana', sans-serif;font-size:54px;fill:white;">z</text>
                    </g>
                    <g transform="matrix(0.809404,0,0,0.809404,-2722.74,2014.09)">
                        <text x="1122.22px" y="10211.8px" style="font-family:'Verdana', sans-serif;font-size:54px;fill:white;">z</text>
                    </g>
                    <g transform="matrix(0.825153,0,0,0.825153,-2731.68,1843.29)">
                        <path d="M1162.62,10199.3L1165.14,10207L1173.3,10207L1166.69,10211.8L1169.22,10219.6L1162.62,10214.8L1156.02,10219.6L1158.54,10211.8L1151.94,10207L1160.1,10207L1162.62,10199.3Z" style="fill:white;"/>
                    </g>
                    <g transform="matrix(1.24145,0,0,1.24145,-3260.27,-2479.35)">
                        <path d="M1162.62,10199.3L1165.14,10207L1173.3,10207L1166.69,10211.8L1169.22,10219.6L1162.62,10214.8L1156.02,10219.6L1158.54,10211.8L1151.94,10207L1160.1,10207L1162.62,10199.3Z" style="fill:white;"/>
                    </g>
                </g>
                <g transform="matrix(1,0,0,1,-2921.25,0.799186)">
                    <path d="M968.072,10246L1090.11,10368" style="fill:none;stroke:white;stroke-width:12px;"/>
                </g>
            </g>
            <g id="index_dots">
            </g>
        </g>
    </g>
</svg>
