<?xml version="1.0" encoding="UTF-8" standalone="no"?>
<!DOCTYPE svg PUBLIC "-//W3C//DTD SVG 1.1//EN" "http://www.w3.org/Graphics/SVG/1.1/DTD/svg11.dtd">
<svg width="100%" height="100%" viewBox="0 0 679 746" version="1.1" xmlns="http://www.w3.org/2000/svg" xmlns:xlink="http://www.w3.org/1999/xlink" xml:space="preserve" xmlns:serif="http://www.serif.com/" style="fill-rule:evenodd;clip-rule:evenodd;stroke-linecap:round;stroke-linejoin:bevel;stroke-miterlimit:1.5;">
    <g transform="matrix(1,0,0,1,-10914,-3462)">
        <g id="Headphunes-Choir" serif:id="Headphunes Choir" transform="matrix(1,0,0,1,10735.2,3058.56)">
            <rect x="0" y="0" width="1080" height="1920" style="fill:none;"/>
            <g transform="matrix(1,0,0,1,232.279,-207.87)">
                <g transform="matrix(-1.4733,1.80427e-16,-1.80427e-16,-1.4733,1360.3,16688)">
                    <path d="M552.076,10894.4C552.076,10894.4 530.915,10876.9 531.022,10848.4C531.124,10821 551.049,10802.4 551.049,10802.4" style="fill:none;stroke:white;stroke-width:6.94px;"/>
                </g>
                <g transform="matrix(-1.24865,1.52916e-16,-1.29939e-16,-1.06103,1205.04,12218)">
                    <path d="M552.076,10894.4C552.076,10894.4 530.915,10876.9 531.022,10848.4C531.124,10821 551.049,10802.4 551.049,10802.4" style="fill:none;stroke:white;stroke-width:8.83px;"/>
                </g>
                <g transform="matrix(-1.57126,1.92424e-16,-2.27094e-16,-1.85437,1445.4,20821.5)">
                    <path d="M552.076,10894.4C552.076,10894.4 530.915,10876.9 531.022,10848.4C531.124,10821 551.049,10802.4 551.049,10802.4" style="fill:none;stroke:white;stroke-width:5.95px;"/>
                </g>
            </g>
            <g transform="matrix(2.76529e-16,-4.51607,4.51607,2.76529e-16,-46406.3,27368.8)">
                <path d="M5968.38,10329C5968.38,10321.9 5962.58,10316.1 5955.45,10316.1L5870.86,10316.1C5863.73,10316.1 5857.94,10321.9 5857.94,10329L5857.94,10354.8C5857.94,10362 5863.73,10367.8 5870.86,10367.8L5955.45,10367.8C5962.58,10367.8 5968.38,10362 5968.38,10354.8L5968.38,10329Z" style="fill:rgb(255,252,252);"/>
                <path d="M5968.38,10329C5968.38,10321.9 5962.58,10316.1 5955.45,10316.1L5870.86,10316.1C5863.73,10316.1 5857.94,10321.9 5857.94,10329L5857.94,10354.8C5857.94,10362 5863.73,10367.8 5870.86,10367.8L5955.45,10367.8C5962.58,10367.8 5968.38,10362 5968.38,10354.8L5968.38,10329ZM5966.38,10329L5966.38,10354.8C5966.38,10360.9 5961.48,10365.8 5955.45,10365.8C5955.45,10365.8 5870.86,10365.8 5870.86,10365.8C5864.83,10365.8 5859.93,10360.9 5859.93,10354.8C5859.93,10354.8 5859.93,10329 5859.93,10329C5859.93,10323 5864.83,10318.1 5870.86,10318.1C5870.86,10318.1 5955.45,10318.1 5955.45,10318.1C5961.48,10318.1 5966.38,10323 5966.38,10329Z" style="fill:white;"/>
            </g>
            <g id="Logo">
            </g>
            <g transform="matrix(1.46051,0,0,1.46051,3498.8,-14656.3)">
                <g transform="matrix(6.12323e-17,1,-1,6.12323e-17,8671.09,9450.63)">
                    <path d="M1087.46,10529.6C1088.85,10527 1089.57,10524.1 1089.57,10521.1C1089.57,10511 1081.36,10502.8 1071.26,10502.8C1061.15,10502.8 1052.94,10511 1052.94,10521.1C1052.94,10524.1 1053.67,10527 1055.05,10529.6L1087.46,10529.6Z" style="fill:white;"/>
                    <path d="M1087.46,10538.6C1090.8,10538.6 1093.87,10536.8 1095.42,10533.8C1097.49,10529.9 1098.57,10525.5 1098.57,10521.1C1098.57,10506 1086.33,10493.8 1071.26,10493.8C1056.18,10493.8 1043.94,10506 1043.94,10521.1C1043.94,10525.5 1045.02,10529.9 1047.09,10533.8C1048.64,10536.8 1051.71,10538.6 1055.05,10538.6L1087.46,10538.6ZM1087.46,10529.6C1088.85,10527 1089.57,10524.1 1089.57,10521.1C1089.57,10511 1081.36,10502.8 1071.26,10502.8C1061.15,10502.8 1052.94,10511 1052.94,10521.1C1052.94,10524.1 1053.67,10527 1055.05,10529.6L1087.46,10529.6Z" style="fill:white;"/>
                </g>
                <g transform="matrix(6.12323e-17,1,-1,6.12323e-17,8588.32,9450.63)">
                    <path d="M1087.46,10529.6C1088.85,10527 1089.57,10524.1 1089.57,10521.1C1089.57,10511 1081.36,10502.8 1071.26,10502.8C1061.15,10502.8 1052.94,10511 1052.94,10521.1C1052.94,10524.1 1053.67,10527 1055.05,10529.6L1087.46,10529.6Z" style="fill:white;"/>
                    <path d="M1087.46,10538.6C1090.8,10538.6 1093.87,10536.8 1095.42,10533.8C1097.49,10529.9 1098.57,10525.5 1098.57,10521.1C1098.57,10506 1086.33,10493.8 1071.26,10493.8C1056.18,10493.8 1043.94,10506 1043.94,10521.1C1043.94,10525.5 1045.02,10529.9 1047.09,10533.8C1048.64,10536.8 1051.71,10538.6 1055.05,10538.6L1087.46,10538.6ZM1087.46,10529.6C1088.85,10527 1089.57,10524.1 1089.57,10521.1C1089.57,10511 1081.36,10502.8 1071.26,10502.8C1061.15,10502.8 1052.94,10511 1052.94,10521.1C1052.94,10524.1 1053.67,10527 1055.05,10529.6L1087.46,10529.6Z" style="fill:white;"/>
                </g>
                <g transform="matrix(1,0,0,0.941517,-2917.43,629.802)">
                    <path d="M1076.15,10535.7C1076.15,10534.5 1075.29,10533.6 1074.24,10533.6L1070.42,10533.6C1069.36,10533.6 1068.51,10534.5 1068.51,10535.7L1068.51,10599.7C1068.51,10600.9 1069.36,10601.8 1070.42,10601.8L1074.24,10601.8C1075.29,10601.8 1076.15,10600.9 1076.15,10599.7L1076.15,10535.7Z" style="fill:white;"/>
                    <path d="M1081.85,10535.7C1081.85,10531.2 1078.44,10527.6 1074.24,10527.6L1070.42,10527.6C1066.22,10527.6 1062.81,10531.2 1062.81,10535.7L1062.81,10599.7C1062.81,10604.2 1066.22,10607.8 1070.42,10607.8L1074.24,10607.8C1078.44,10607.8 1081.85,10604.2 1081.85,10599.7C1081.85,10599.7 1081.85,10535.7 1081.85,10535.7ZM1076.15,10535.7C1076.15,10534.5 1075.29,10533.6 1074.24,10533.6L1070.42,10533.6C1069.36,10533.6 1068.51,10534.5 1068.51,10535.7L1068.51,10599.7C1068.51,10600.9 1069.36,10601.8 1070.42,10601.8L1074.24,10601.8C1075.29,10601.8 1076.15,10600.9 1076.15,10599.7L1076.15,10535.7Z" style="fill:white;"/>
                </g>
                <g transform="matrix(1,0,0,0.941517,-3000.21,629.802)">
                    <path d="M1076.15,10535.7C1076.15,10534.5 1075.29,10533.6 1074.24,10533.6L1070.42,10533.6C1069.36,10533.6 1068.51,10534.5 1068.51,10535.7L1068.51,10599.7C1068.51,10600.9 1069.36,10601.8 1070.42,10601.8L1074.24,10601.8C1075.29,10601.8 1076.15,10600.9 1076.15,10599.7L1076.15,10535.7Z" style="fill:white;"/>
                    <path d="M1081.55,10535.7C1081.55,10531.4 1078.27,10527.9 1074.24,10527.9L1070.42,10527.9C1066.38,10527.9 1063.11,10531.4 1063.11,10535.7L1063.11,10599.7C1063.11,10604 1066.38,10607.5 1070.42,10607.5L1074.24,10607.5C1078.27,10607.5 1081.55,10604 1081.55,10599.7L1081.55,10535.7ZM1076.15,10535.7C1076.15,10534.5 1075.29,10533.6 1074.24,10533.6L1070.42,10533.6C1069.36,10533.6 1068.51,10534.5 1068.51,10535.7L1068.51,10599.7C1068.51,10600.9 1069.36,10601.8 1070.42,10601.8L1074.24,10601.8C1075.29,10601.8 1076.15,10600.9 1076.15,10599.7L1076.15,10535.7Z" style="fill:white;"/>
                </g>
            </g>
            <g transform="matrix(0.636144,0,0,0.590326,1478.58,-5203.78)">
                <g id="Headphones">
                    <g transform="matrix(0.959558,0,0,0.884352,-2907.4,681.057)">
                        <path d="M1668.35,11285.7C1631.84,11186 1657.36,11035.9 1809.31,11034.8C1935.84,11034 1975.44,11175.7 1939.32,11285.6" style="fill:none;stroke:white;stroke-width:26.35px;"/>
                    </g>
                    <g transform="matrix(0.988218,-0.15312,0.157564,0.987509,-4606.6,407.825)">
                        <rect x="1654.91" y="10620" width="24.589" height="89.367" style="fill:white;"/>
                        <path d="M1703.12,10619.3C1703.12,10605.6 1692.94,10594.6 1680.15,10594.6L1655.56,10594.6C1649.19,10594.6 1643.02,10597.4 1638.44,10602.3C1633.88,10607.2 1631.3,10613.8 1631.3,10620.7L1631.3,10710C1631.3,10723.8 1641.48,10734.7 1654.27,10734.7L1678.86,10734.7C1685.23,10734.7 1691.4,10731.9 1695.97,10727C1700.54,10722.1 1703.12,10715.5 1703.12,10708.7L1703.12,10619.3ZM1679.5,10620L1654.91,10620L1654.91,10709.3L1679.5,10709.3L1679.5,10620Z" style="fill:white;"/>
                    </g>
                    <g transform="matrix(0.98907,0.147445,-0.147445,0.98907,-1147.35,-109.933)">
                        <rect x="1654.91" y="10620" width="24.589" height="89.367" style="fill:white;"/>
                        <path d="M1703.07,10620.5C1703.07,10613.7 1700.51,10607.1 1695.98,10602.3C1691.45,10597.4 1685.33,10594.7 1678.99,10594.7L1654.4,10594.7C1641.59,10594.7 1631.35,10605.7 1631.35,10619.4L1631.35,10708.8C1631.35,10715.6 1633.9,10722.2 1638.44,10727C1642.97,10731.9 1649.09,10734.7 1655.43,10734.7L1680.02,10734.7C1692.83,10734.7 1703.07,10723.7 1703.07,10709.9L1703.07,10620.5ZM1679.5,10620L1654.91,10620L1654.91,10709.3L1679.5,10709.3L1679.5,10620Z" style="fill:white;"/>
                    </g>
                </g>
            </g>
            <g transform="matrix(1,0,0,1,-10932.1,-9367.73)">
                <path d="M11273.5,10312.6L11273.5,10498.1L11499.6,10498.1" style="fill:none;stroke:white;stroke-width:9px;stroke-linejoin:round;"/>
            </g>
            <g transform="matrix(0.272635,0,0,0.448835,-243.973,-2629.28)">
                <path d="M1754.21,8053.75L1857.6,8157.14L1755.99,8258.75" style="fill:none;stroke:white;stroke-width:105.03px;stroke-linejoin:round;"/>
            </g>
            <g transform="matrix(0.272635,0,0,0.448835,33.5534,-3170.54)">
                <path d="M1754.21,8053.75L1857.6,8157.14L1755.99,8258.75" style="fill:none;stroke:white;stroke-width:105.03px;stroke-linejoin:round;"/>
            </g>
            <g id="Bluetoth" transform="matrix(0.179899,0,0,0.179899,360.406,-1387.92)">
                <path d="M1531.9,10362.9L1869.11,10652.4L1657.93,10856.1L1657.93,10103.9L1865.13,10307.8L1539.99,10583.4" style="fill:none;stroke:white;stroke-width:53.98px;stroke-linejoin:round;"/>
            </g>
        </g>
    </g>
</svg>
