<?xml version="1.0" encoding="UTF-8" standalone="no"?>
<!DOCTYPE svg PUBLIC "-//W3C//DTD SVG 1.1//EN" "http://www.w3.org/Graphics/SVG/1.1/DTD/svg11.dtd">
<svg width="100%" height="100%" viewBox="0 0 795 506" version="1.1" xmlns="http://www.w3.org/2000/svg" xmlns:xlink="http://www.w3.org/1999/xlink" xml:space="preserve" xmlns:serif="http://www.serif.com/" style="fill-rule:evenodd;clip-rule:evenodd;stroke-linecap:round;stroke-linejoin:round;stroke-miterlimit:1.5;">
    <g transform="matrix(1,0,0,1,-8928,-522)">
        <g id="Switch-on-audio" serif:id="Switch on audio" transform="matrix(1,0,0,1,8766.47,10.8266)">
            <rect x="0" y="0" width="1080" height="1920" style="fill:none;"/>
            <g transform="matrix(2.76529e-16,-4.51607,4.51607,2.76529e-16,-46164.8,27468)">
                <path d="M5968.38,10329C5968.38,10321.9 5962.58,10316.1 5955.45,10316.1L5870.86,10316.1C5863.73,10316.1 5857.94,10321.9 5857.94,10329L5857.94,10354.8C5857.94,10362 5863.73,10367.8 5870.86,10367.8L5955.45,10367.8C5962.58,10367.8 5968.38,10362 5968.38,10354.8L5968.38,10329Z" style="fill:rgb(255,252,252);"/>
                <path d="M5968.38,10329C5968.38,10321.9 5962.58,10316.1 5955.45,10316.1L5870.86,10316.1C5863.73,10316.1 5857.94,10321.9 5857.94,10329L5857.94,10354.8C5857.94,10362 5863.73,10367.8 5870.86,10367.8L5955.45,10367.8C5962.58,10367.8 5968.38,10362 5968.38,10354.8L5968.38,10329ZM5966.38,10329L5966.38,10354.8C5966.38,10360.9 5961.48,10365.8 5955.45,10365.8L5870.86,10365.8C5864.83,10365.8 5859.93,10360.9 5859.93,10354.8L5859.93,10329C5859.93,10323 5864.83,10318.1 5870.86,10318.1L5955.45,10318.1C5961.48,10318.1 5966.38,10323 5966.38,10329Z" style="fill:rgb(255,252,252);"/>
            </g>
            <g transform="matrix(0.272635,0,0,0.448835,47.6469,-2886.89)">
                <path d="M1754.21,8053.75L1857.6,8157.14L1755.99,8258.75" style="fill:none;stroke:rgb(62,91,83);stroke-width:105.03px;"/>
            </g>
            <g id="Logo">
            </g>
            <g transform="matrix(-2.13112,2.60987e-16,-2.60987e-16,-2.13112,-4197.68,23895.2)">
                <g transform="matrix(0.691325,0,0,0.691325,-2764.41,3349.42)">
                    <path d="M552.076,10894.4C552.076,10894.4 530.915,10876.9 531.022,10848.4C531.124,10821 551.049,10802.4 551.049,10802.4" style="fill:none;stroke:white;stroke-width:6.94px;stroke-linejoin:bevel;"/>
                </g>
                <g transform="matrix(0.585912,0,0,0.497875,-2691.56,5446.92)">
                    <path d="M552.076,10894.4C552.076,10894.4 530.915,10876.9 531.022,10848.4C531.124,10821 551.049,10802.4 551.049,10802.4" style="fill:none;stroke:white;stroke-width:8.83px;stroke-linejoin:bevel;"/>
                </g>
                <g transform="matrix(0.737295,0,0,0.870137,-2804.35,1409.88)">
                    <path d="M552.076,10894.4C552.076,10894.4 530.915,10876.9 531.022,10848.4C531.124,10821 551.049,10802.4 551.049,10802.4" style="fill:none;stroke:white;stroke-width:5.95px;stroke-linejoin:bevel;"/>
                </g>
                <g transform="matrix(0.522206,0,0,0.448835,-3278.52,7188.37)">
                    <path d="M1754.21,8053.75L1857.6,8157.14L1755.99,8258.75" style="fill:none;stroke:white;stroke-width:24.65px;"/>
                </g>
                <g transform="matrix(1,0,0,1,-2926.65,0.594611)">
                    <rect x="591.445" y="10828.9" width="35.042" height="39.447" style="fill:white;"/>
                </g>
            </g>
            <g transform="matrix(-1.64617,2.01598e-16,-2.01598e-16,-1.64617,-3618.56,18634.7)">
                <g transform="matrix(0.691325,0,0,0.691325,-2764.41,3349.42)">
                    <path d="M552.076,10894.4C552.076,10894.4 530.915,10876.9 531.022,10848.4C531.124,10821 551.049,10802.4 551.049,10802.4" style="fill:none;stroke:white;stroke-width:6.94px;stroke-linejoin:bevel;"/>
                </g>
                <g transform="matrix(0.585912,0,0,0.497875,-2691.56,5446.92)">
                    <path d="M552.076,10894.4C552.076,10894.4 530.915,10876.9 531.022,10848.4C531.124,10821 551.049,10802.4 551.049,10802.4" style="fill:none;stroke:white;stroke-width:8.83px;stroke-linejoin:bevel;"/>
                </g>
                <g transform="matrix(0.737295,0,0,0.870137,-2804.35,1409.88)">
                    <path d="M552.076,10894.4C552.076,10894.4 530.915,10876.9 531.022,10848.4C531.124,10821 551.049,10802.4 551.049,10802.4" style="fill:none;stroke:white;stroke-width:5.95px;stroke-linejoin:bevel;"/>
                </g>
                <g transform="matrix(0.522206,0,0,0.448835,-3278.52,7188.37)">
                    <path d="M1754.21,8053.75L1857.6,8157.14L1755.99,8258.75" style="fill:none;stroke:white;stroke-width:24.65px;"/>
                </g>
                <g transform="matrix(1,0,0,1,-2926.65,0.594611)">
                    <rect x="591.445" y="10828.9" width="35.042" height="39.447" style="fill:white;"/>
                </g>
                <g transform="matrix(-0.918346,0.0816542,0.0816542,-0.918346,-2627.71,20913.1)">
                    <path d="M626.595,10956.9L751.325,11081.6" style="fill:none;stroke:white;stroke-width:14.34px;stroke-linejoin:bevel;"/>
                </g>
            </g>
            <g id="index_dots">
            </g>
        </g>
    </g>
</svg>
