<?xml version="1.0" encoding="UTF-8" standalone="no"?>
<!DOCTYPE svg PUBLIC "-//W3C//DTD SVG 1.1//EN" "http://www.w3.org/Graphics/SVG/1.1/DTD/svg11.dtd">
<svg width="100%" height="100%" viewBox="0 0 378 151" version="1.1" xmlns="http://www.w3.org/2000/svg" xmlns:xlink="http://www.w3.org/1999/xlink" xml:space="preserve" xmlns:serif="http://www.serif.com/" style="fill-rule:evenodd;clip-rule:evenodd;stroke-linejoin:round;stroke-miterlimit:2;">
    <g transform="matrix(1,0,0,1,-5062,-184)">
        <g id="Start-Soundsystem" serif:id="Start Soundsystem" transform="matrix(1,0,0,1,4710.37,63.9899)">
            <rect x="0" y="0" width="1080" height="1920" style="fill:none;"/>
            <g id="Logo" transform="matrix(0.693397,0,0,0.693397,165.565,9.93387)">
                <g transform="matrix(0.741284,0,0,0.741284,-1338.99,-5959.01)">
                    <path d="M2206.95,8406.21L2182.54,8406.21C2180.33,8406.21 2178.43,8407 2176.87,8408.56C2175.08,8410.08 2174.19,8412.05 2174.19,8414.48L2174.19,8442.54C2174.19,8444.75 2175.08,8446.65 2176.87,8448.21C2178.43,8450 2180.33,8450.89 2182.54,8450.89L2239.63,8450.89L2239.63,8462.32L2182.54,8462.32C2180.33,8462.32 2178.43,8462.94 2176.87,8464.19C2175.08,8465.48 2174.19,8467.62 2174.19,8470.59C2174.19,8473.51 2175.08,8475.62 2176.87,8476.92C2178.43,8478.27 2180.33,8478.94 2182.54,8478.94L2206.95,8478.94L2206.95,8498.89C2206.84,8504.41 2209.6,8507.16 2215.22,8507.16C2220.9,8507.16 2223.68,8504.41 2223.57,8498.89L2223.57,8478.94L2247.98,8478.94C2250.41,8478.94 2252.38,8478.05 2253.9,8476.27C2255.47,8474.7 2256.25,8472.81 2256.25,8470.59L2256.25,8442.54C2256.25,8440.1 2255.47,8438.13 2253.9,8436.62C2252.38,8435.05 2250.41,8434.27 2247.98,8434.27L2190.81,8434.27L2190.81,8422.83L2247.98,8422.83C2253.17,8422.94 2255.92,8420.16 2256.25,8414.48C2256.14,8411.51 2255.3,8409.35 2253.74,8408C2252.22,8406.81 2250.3,8406.21 2247.98,8406.21L2223.57,8406.21L2223.57,8386.26C2223.68,8380.86 2220.9,8378.1 2215.22,8377.99C2209.6,8378.1 2206.84,8380.86 2206.95,8386.26L2206.95,8406.21Z" style="fill:white;fill-rule:nonzero;"/>
                    <path d="M2303.39,8479.76C2303.39,8487.16 2305.5,8493.49 2309.72,8498.73C2313.88,8504.24 2319.8,8507.05 2327.47,8507.16C2333.42,8507.05 2338.61,8504.84 2343.04,8500.51C2345.26,8502.73 2347.8,8504.32 2350.66,8505.3C2353.58,8506.54 2356.47,8507.16 2359.34,8507.16C2362.96,8507.16 2366.39,8506.27 2369.64,8504.49C2372.83,8502.7 2375.53,8500.49 2377.74,8497.84C2380.29,8494.76 2381.85,8491.67 2382.45,8488.59C2382.66,8485.67 2382.77,8482.35 2382.77,8478.62L2382.77,8408.89C2382.77,8395.16 2376.34,8385.62 2363.47,8380.26C2360.83,8379.18 2358.45,8378.48 2356.34,8378.16C2354.34,8378.05 2351.91,8377.99 2349.04,8377.99L2334.61,8377.99C2330.5,8377.99 2326.74,8378.37 2323.34,8379.13C2321.55,8379.56 2319.82,8380.24 2318.15,8381.16C2316.36,8382.13 2314.61,8383.35 2312.88,8384.81C2310.77,8386.53 2308.72,8388.81 2306.72,8391.62C2304.61,8394.48 2303.5,8397.4 2303.39,8400.37C2303.39,8402.59 2304.23,8404.37 2305.9,8405.73C2307.31,8407.13 2309.12,8407.83 2311.34,8407.83C2313.99,8407.83 2315.93,8406.91 2317.18,8405.08C2318.47,8403.51 2319.58,8401.67 2320.5,8399.56C2322.01,8396.81 2323.99,8395.16 2326.42,8394.62C2328.85,8394.13 2331.42,8393.89 2334.12,8393.89L2350.66,8393.89C2353.58,8393.89 2356.26,8394.24 2358.69,8394.94C2361.01,8395.7 2362.99,8397.29 2364.61,8399.73C2365.96,8401.62 2366.69,8403.56 2366.8,8405.56L2366.8,8476.43C2366.8,8478 2366.85,8479.54 2366.96,8481.05C2366.96,8482.73 2366.74,8484.35 2366.31,8485.92C2365.56,8489.32 2363.12,8491.08 2359.01,8491.19C2355.45,8491.08 2353.23,8489.54 2352.37,8486.57C2351.34,8483.92 2350.91,8481.16 2351.07,8478.3L2351.07,8438.89C2351.07,8434.24 2350.28,8431.16 2348.72,8429.65C2346.93,8428.19 2343.77,8427.46 2339.23,8427.46L2327.96,8427.46C2319.96,8427.56 2313.88,8430.16 2309.72,8435.24C2305.5,8440.21 2303.39,8446.59 2303.39,8454.38L2303.39,8479.76ZM2335.1,8478.46C2335.2,8479.97 2335.1,8482.35 2334.77,8485.59C2334.45,8487.11 2333.72,8488.38 2332.58,8489.4C2331.5,8490.59 2329.8,8491.19 2327.47,8491.19C2323.8,8491.08 2321.53,8489.43 2320.66,8486.24C2319.64,8483.38 2319.18,8480.49 2319.28,8477.57L2319.28,8455.02C2319.28,8450.27 2320.12,8447.1 2321.8,8445.54C2323.37,8444.13 2325.26,8443.43 2327.47,8443.43L2335.1,8443.43L2335.1,8478.46Z" style="fill:white;fill-rule:nonzero;"/>
                    <path d="M2440.13,8490.54C2437.38,8490.54 2435.05,8491.11 2433.16,8492.24C2430.94,8493.54 2429.83,8495.76 2429.83,8498.89C2429.83,8501.76 2430.83,8503.84 2432.83,8505.14C2434.73,8506.49 2437.05,8507.16 2439.81,8507.16L2500.13,8507.16C2504.68,8507.16 2507.81,8506.43 2509.54,8504.97C2511.11,8503.57 2511.89,8500.59 2511.89,8496.05L2511.89,8389.75C2511.89,8385.32 2511.3,8382.21 2510.11,8380.43C2508.54,8378.81 2505.43,8377.99 2500.78,8377.99L2440.13,8377.99C2437.38,8377.99 2435.05,8378.53 2433.16,8379.62C2430.94,8380.97 2429.83,8383.18 2429.83,8386.26C2429.83,8389.13 2430.83,8391.24 2432.83,8392.59C2434.73,8393.94 2437.05,8394.62 2439.81,8394.62L2470.05,8394.62L2470.05,8490.54L2440.13,8490.54ZM2486.67,8490.54L2486.67,8394.62L2495.27,8394.62L2495.27,8490.54L2486.67,8490.54Z" style="fill:white;fill-rule:nonzero;"/>
                    <rect x="2590.41" y="8376.62" width="16.622" height="166.061" style="fill:white;fill-rule:nonzero;"/>
                    <path d="M2718.24,8406.21L2693.83,8406.21C2691.61,8406.21 2689.72,8407 2688.15,8408.56C2686.37,8410.08 2685.48,8412.05 2685.48,8414.48L2685.48,8442.54C2685.48,8444.75 2686.37,8446.65 2688.15,8448.21C2689.72,8450 2691.61,8450.89 2693.83,8450.89L2750.91,8450.89L2750.91,8462.32L2693.83,8462.32C2691.61,8462.32 2689.72,8462.94 2688.15,8464.19C2686.37,8465.48 2685.48,8467.62 2685.48,8470.59C2685.48,8473.51 2686.37,8475.62 2688.15,8476.92C2689.72,8478.27 2691.61,8478.94 2693.83,8478.94L2718.24,8478.94L2718.24,8498.89C2718.13,8504.41 2720.88,8507.16 2726.51,8507.16C2732.18,8507.16 2734.97,8504.41 2734.86,8498.89L2734.86,8478.94L2759.26,8478.94C2761.7,8478.94 2763.67,8478.05 2765.18,8476.27C2766.75,8474.7 2767.53,8472.81 2767.53,8470.59L2767.53,8442.54C2767.53,8440.1 2766.75,8438.13 2765.18,8436.62C2763.67,8435.05 2761.7,8434.27 2759.26,8434.27L2702.1,8434.27L2702.1,8422.83L2759.26,8422.83C2764.45,8422.94 2767.21,8420.16 2767.53,8414.48C2767.43,8411.51 2766.59,8409.35 2765.02,8408C2763.51,8406.81 2761.59,8406.21 2759.26,8406.21L2734.86,8406.21L2734.86,8386.26C2734.97,8380.86 2732.18,8378.1 2726.51,8377.99C2720.88,8378.1 2718.13,8380.86 2718.24,8386.26L2718.24,8406.21Z" style="fill:white;fill-rule:nonzero;"/>
                    <path d="M2846.06,8406.21L2821.65,8406.21C2819.43,8406.21 2817.54,8407 2815.97,8408.56C2814.19,8410.08 2813.3,8412.05 2813.3,8414.48L2813.3,8442.54C2813.3,8444.75 2814.19,8446.65 2815.97,8448.21C2817.54,8450 2819.43,8450.89 2821.65,8450.89L2878.73,8450.89L2878.73,8462.32L2821.65,8462.32C2819.43,8462.32 2817.54,8462.94 2815.97,8464.19C2814.19,8465.48 2813.3,8467.62 2813.3,8470.59C2813.3,8473.51 2814.19,8475.62 2815.97,8476.92C2817.54,8478.27 2819.43,8478.94 2821.65,8478.94L2846.06,8478.94L2846.06,8498.89C2845.95,8504.41 2848.7,8507.16 2854.33,8507.16C2860,8507.16 2862.79,8504.41 2862.68,8498.89L2862.68,8478.94L2887.09,8478.94C2889.52,8478.94 2891.49,8478.05 2893,8476.27C2894.57,8474.7 2895.36,8472.81 2895.36,8470.59L2895.36,8442.54C2895.36,8440.1 2894.57,8438.13 2893,8436.62C2891.49,8435.05 2889.52,8434.27 2887.09,8434.27L2829.92,8434.27L2829.92,8422.83L2887.09,8422.83C2892.27,8422.94 2895.03,8420.16 2895.36,8414.48C2895.25,8411.51 2894.41,8409.35 2892.84,8408C2891.33,8406.81 2889.41,8406.21 2887.09,8406.21L2862.68,8406.21L2862.68,8386.26C2862.79,8380.86 2860,8378.1 2854.33,8377.99C2848.7,8378.1 2845.95,8380.86 2846.06,8386.26L2846.06,8406.21Z" style="fill:white;fill-rule:nonzero;"/>
                </g>
                <g transform="matrix(1.61848,0,0,1.61848,-25852.2,-22488.5)">
                    <path d="M16274.1,13994.9C16271.7,13994.7 16269.7,13995.3 16268.1,13996.9C16266.6,13998.5 16265.8,14000.4 16265.8,14002.5L16265.8,14010.2C16265.8,14013 16266.7,14015.1 16268.5,14016.5C16270,14017.8 16271.9,14018.5 16274.1,14018.5C16276.3,14018.5 16278.2,14017.7 16279.6,14016.2C16280.9,14014.8 16281.9,14013.6 16282.4,14012.5L16339.6,14018.5C16342.1,14018.7 16344.1,14018 16345.6,14016.3C16347.1,14014.7 16347.8,14012.9 16347.8,14010.8L16347.8,14003.2C16347.7,14000.2 16346.9,13998 16345.3,13996.7C16343.8,13995.5 16341.9,13994.9 16339.6,13994.9C16337.3,13995 16335.6,13995.7 16334.2,13997C16332.8,13998.5 16331.8,13999.7 16331.2,14000.8L16274.1,13994.9Z" style="fill:rgb(255,61,0);fill-rule:nonzero;"/>
                </g>
            </g>
            <g id="index_dots">
            </g>
        </g>
    </g>
</svg>
