<?xml version="1.0" encoding="UTF-8" standalone="no"?><!DOCTYPE svg PUBLIC "-//W3C//DTD SVG 1.1//EN" "http://www.w3.org/Graphics/SVG/1.1/DTD/svg11.dtd"><svg width="100%" height="100%" viewBox="0 0 7 7" version="1.1" xmlns="http://www.w3.org/2000/svg" xmlns:xlink="http://www.w3.org/1999/xlink" xml:space="preserve" xmlns:serif="http://www.serif.com/" style="fill-rule:evenodd;clip-rule:evenodd;stroke-linejoin:round;stroke-miterlimit:2;"><rect id="Information" x="-50.532" y="-272.895" width="180" height="320" style="fill:none;"/><g id="Logo"></g><g id="index_dots"><circle cx="3.095" cy="3.068" r="2.042" style="fill:#79ea04;"/><path d="M3.095,0.126c-1.624,0 -2.942,1.318 -2.942,2.942c0,1.623 1.318,2.941 2.942,2.941c1.623,0 2.941,-1.318 2.941,-2.941c0,-1.624 -1.318,-2.942 -2.941,-2.942Zm-0,0.9c1.126,0 2.041,0.915 2.041,2.042c0,1.127 -0.915,2.041 -2.041,2.041c-1.127,0 -2.042,-0.914 -2.042,-2.041c0,-1.127 0.915,-2.042 2.042,-2.042Z" style="fill:#79ea04;"/></g></svg>