<?xml version="1.0" encoding="UTF-8" standalone="no"?>
<!DOCTYPE svg PUBLIC "-//W3C//DTD SVG 1.1//EN" "http://www.w3.org/Graphics/SVG/1.1/DTD/svg11.dtd">
<svg width="100%" height="100%" viewBox="0 0 126 123" version="1.1" xmlns="http://www.w3.org/2000/svg" xmlns:xlink="http://www.w3.org/1999/xlink" xml:space="preserve" xmlns:serif="http://www.serif.com/" style="fill-rule:evenodd;clip-rule:evenodd;stroke-linejoin:round;stroke-miterlimit:2;">
    <g transform="matrix(1,0,0,1,-5374,-1432)">
        <g id="Start-Soundsystem" serif:id="Start Soundsystem" transform="matrix(1,0,0,1,4768.92,57.1464)">
            <rect x="0" y="0" width="1080" height="1920" style="fill:none;"/>
            <g transform="matrix(1,0,0,1,2.72848e-12,218.285)">
                <g transform="matrix(1.13605,0,0,1.13605,-371.942,-10341.3)">
                    <path d="M919.423,10121.7C915.968,10121.4 912.488,10121.4 909.033,10121.7L907.364,10133.9C904.699,10134.4 902.083,10135.1 899.553,10136L891.996,10126.3C888.836,10127.7 885.823,10129.4 882.998,10131.5L887.665,10142.9C885.578,10144.6 883.663,10146.5 881.947,10148.6L870.526,10143.9C868.508,10146.8 866.768,10149.8 865.331,10152.9L875.083,10160.5C874.134,10163 873.433,10165.6 872.99,10168.3L860.766,10170C860.431,10173.4 860.431,10176.9 860.766,10180.4L872.99,10182C873.433,10184.7 874.134,10187.3 875.083,10189.8L865.331,10197.4C866.768,10200.6 868.508,10203.6 870.526,10206.4L881.947,10201.7C883.663,10203.8 885.578,10205.7 887.665,10207.5L882.998,10218.9C885.823,10220.9 888.836,10222.6 891.996,10224.1L899.553,10214.3C902.083,10215.3 904.699,10216 907.364,10216.4L909.033,10228.6C912.488,10229 915.968,10229 919.423,10228.6L921.092,10216.4C923.757,10216 926.373,10215.3 928.903,10214.3L936.46,10224.1C939.62,10222.6 942.633,10220.9 945.458,10218.9L940.791,10207.5C942.878,10205.7 944.793,10203.8 946.509,10201.7L957.93,10206.4C959.948,10203.6 961.688,10200.6 963.124,10197.4L953.373,10189.8C954.322,10187.3 955.022,10184.7 955.466,10182L967.69,10180.4C968.025,10176.9 968.025,10173.4 967.69,10170L955.466,10168.3C955.022,10165.6 954.322,10163 953.373,10160.5L963.124,10152.9C961.688,10149.8 959.948,10146.8 957.93,10143.9L946.509,10148.6C944.793,10146.5 942.878,10144.6 940.791,10142.9L945.458,10131.5C942.633,10129.4 939.62,10127.7 936.46,10126.3L928.903,10136C926.373,10135.1 923.757,10134.4 921.092,10133.9L919.423,10121.7ZM914.228,10149.6C928.33,10149.6 939.78,10161.1 939.78,10175.2C939.78,10189.3 928.33,10200.7 914.228,10200.7C900.126,10200.7 888.676,10189.3 888.676,10175.2C888.676,10161.1 900.126,10149.6 914.228,10149.6Z" style="fill:rgb(121,234,4);"/>
                </g>
            </g>
            <g id="Logo">
            </g>
        </g>
    </g>
</svg>
