<?xml version="1.0" encoding="UTF-8" standalone="no"?>
<!DOCTYPE svg PUBLIC "-//W3C//DTD SVG 1.1//EN" "http://www.w3.org/Graphics/SVG/1.1/DTD/svg11.dtd">
<svg width="100%" height="100%" viewBox="0 0 601 607" version="1.1" xmlns="http://www.w3.org/2000/svg" xmlns:xlink="http://www.w3.org/1999/xlink" xml:space="preserve" xmlns:serif="http://www.serif.com/" style="fill-rule:evenodd;clip-rule:evenodd;stroke-linejoin:round;stroke-miterlimit:2;">
    <g transform="matrix(1,0,0,1,-4950,-447)">
        <g id="Start-Soundsystem" serif:id="Start Soundsystem" transform="matrix(1,0,0,1,4710.37,63.9899)">
            <rect x="0" y="0" width="1080" height="1920" style="fill:none;"/>
            <g id="Logo">
            </g>
            <g transform="matrix(1.96732,0,0,3.62517,-1389.47,138.414)">
                <g transform="matrix(2.37072,0,0,1.28655,-13039.5,-13167.3)">
                    <path d="M5968.38,10329C5968.38,10321.9 5962.58,10316.1 5955.45,10316.1L5870.86,10316.1C5863.73,10316.1 5857.94,10321.9 5857.94,10329L5857.94,10354.8C5857.94,10362 5863.73,10367.8 5870.86,10367.8L5955.45,10367.8C5962.58,10367.8 5968.38,10362 5968.38,10354.8L5968.38,10329ZM5964.92,10329L5964.92,10354.8C5964.92,10360.1 5960.68,10364.3 5955.45,10364.3L5870.86,10364.3C5865.64,10364.3 5861.39,10360.1 5861.39,10354.8C5861.39,10354.8 5861.39,10329 5861.39,10329C5861.39,10323.8 5865.64,10319.5 5870.86,10319.5L5955.45,10319.5C5960.68,10319.5 5964.92,10323.8 5964.92,10329Z" style="fill:white;"/>
                </g>
                <g transform="matrix(2.33804,-0.212857,0.39223,1.26882,-16916.6,-11739.8)">
                    <path d="M5968.38,10329C5968.38,10321.9 5962.58,10316.1 5955.45,10316.1L5870.86,10316.1C5863.73,10316.1 5857.94,10321.9 5857.94,10329L5857.94,10354.8C5857.94,10362 5863.73,10367.8 5870.86,10367.8L5955.45,10367.8C5962.58,10367.8 5968.38,10362 5968.38,10354.8L5968.38,10329ZM5967.45,10329L5967.45,10354.8C5967.45,10361.5 5962.08,10366.9 5955.45,10366.9C5955.45,10366.9 5870.86,10366.9 5870.86,10366.9C5864.24,10366.9 5858.86,10361.5 5858.86,10354.8C5858.86,10354.8 5858.86,10329 5858.86,10329C5858.86,10322.4 5864.24,10317 5870.86,10317C5870.86,10317 5955.45,10317 5955.45,10317C5962.08,10317 5967.45,10322.4 5967.45,10329Z" style="fill:white;"/>
                </g>
                <g transform="matrix(1.39667,1.03957,-1.91562,0.757952,12497.3,-13847)">
                    <path d="M5968.38,10329C5968.38,10321.9 5962.58,10316.1 5955.45,10316.1L5870.86,10316.1C5863.73,10316.1 5857.94,10321.9 5857.94,10329L5857.94,10354.8C5857.94,10362 5863.73,10367.8 5870.86,10367.8L5955.45,10367.8C5962.58,10367.8 5968.38,10362 5968.38,10354.8L5968.38,10329ZM5967.45,10329L5967.45,10354.8C5967.45,10361.5 5962.08,10366.9 5955.45,10366.9C5955.45,10366.9 5870.86,10366.9 5870.86,10366.9C5864.24,10366.9 5858.86,10361.5 5858.86,10354.8L5858.86,10329C5858.86,10322.4 5864.24,10317 5870.86,10317C5870.86,10317 5955.45,10317 5955.45,10317C5962.08,10317 5967.45,10322.4 5967.45,10329Z" style="fill:white;"/>
                </g>
                <g transform="matrix(0.405718,-1.26757,2.33574,0.220177,-25559.1,5379.16)">
                    <path d="M5968.38,10329C5968.38,10321.9 5962.58,10316.1 5955.45,10316.1L5870.86,10316.1C5863.73,10316.1 5857.94,10321.9 5857.94,10329L5857.94,10354.8C5857.94,10362 5863.73,10367.8 5870.86,10367.8L5955.45,10367.8C5962.58,10367.8 5968.38,10362 5968.38,10354.8L5968.38,10329ZM5966.3,10329L5966.3,10354.8C5966.3,10360.8 5961.44,10365.7 5955.45,10365.7C5955.45,10365.7 5870.86,10365.7 5870.86,10365.7C5864.87,10365.7 5860.01,10360.8 5860.01,10354.8L5860.01,10329C5860.01,10323 5864.87,10318.1 5870.86,10318.1C5870.86,10318.1 5955.45,10318.1 5955.45,10318.1C5961.44,10318.1 5966.3,10323 5966.3,10329Z" style="fill:white;"/>
                </g>
                <g transform="matrix(0.77429,1.21599,-2.24071,0.420194,19599.6,-11386.2)">
                    <path d="M5968.38,10329C5968.38,10321.9 5962.58,10316.1 5955.45,10316.1L5870.86,10316.1C5863.73,10316.1 5857.94,10321.9 5857.94,10329L5857.94,10354.8C5857.94,10362 5863.73,10367.8 5870.86,10367.8L5955.45,10367.8C5962.58,10367.8 5968.38,10362 5968.38,10354.8L5968.38,10329ZM5966.99,10329L5966.99,10354.8C5966.99,10361.2 5961.82,10366.4 5955.45,10366.4C5955.45,10366.4 5870.86,10366.4 5870.86,10366.4C5864.49,10366.4 5859.32,10361.2 5859.32,10354.8C5859.32,10354.8 5859.32,10329 5859.32,10329C5859.32,10322.6 5864.49,10317.5 5870.86,10317.5C5870.86,10317.5 5955.45,10317.5 5955.45,10317.5C5961.82,10317.5 5966.99,10322.6 5966.99,10329Z" style="fill:white;"/>
                </g>
                <g transform="matrix(2.24541,0.412735,-0.760546,1.21855,-4416.32,-14883.2)">
                    <path d="M5968.38,10329C5968.38,10321.9 5962.58,10316.1 5955.45,10316.1L5870.86,10316.1C5863.73,10316.1 5857.94,10321.9 5857.94,10329L5857.94,10354.8C5857.94,10362 5863.73,10367.8 5870.86,10367.8L5955.45,10367.8C5962.58,10367.8 5968.38,10362 5968.38,10354.8L5968.38,10329ZM5966.19,10329L5966.19,10354.8C5966.19,10360.8 5961.38,10365.6 5955.45,10365.6C5955.45,10365.6 5870.86,10365.6 5870.86,10365.6C5864.94,10365.6 5860.12,10360.8 5860.12,10354.8C5860.12,10354.8 5860.12,10329 5860.12,10329C5860.12,10323.1 5864.94,10318.3 5870.86,10318.3C5870.86,10318.3 5955.45,10318.3 5955.45,10318.3C5961.38,10318.3 5966.19,10323.1 5966.19,10329Z" style="fill:white;"/>
                </g>
                <g transform="matrix(2.10706,-0.589658,1.08656,1.14346,-22729.8,-8200.83)">
                    <path d="M5968.38,10329C5968.38,10321.9 5962.58,10316.1 5955.45,10316.1L5870.86,10316.1C5863.73,10316.1 5857.94,10321.9 5857.94,10329L5857.94,10354.8C5857.94,10362 5863.73,10367.8 5870.86,10367.8L5955.45,10367.8C5962.58,10367.8 5968.38,10362 5968.38,10354.8L5968.38,10329ZM5966.77,10329L5966.77,10354.8C5966.77,10361.1 5961.69,10366.2 5955.45,10366.2C5955.45,10366.2 5870.86,10366.2 5870.86,10366.2C5864.62,10366.2 5859.55,10361.1 5859.55,10354.8L5859.55,10329C5859.55,10322.8 5864.62,10317.7 5870.86,10317.7C5870.86,10317.7 5955.45,10317.7 5955.45,10317.7C5961.69,10317.7 5966.77,10322.8 5966.77,10329Z" style="fill:white;"/>
                </g>
            </g>
            <g id="index_dots">
            </g>
        </g>
    </g>
</svg>
