<?xml version="1.0" encoding="UTF-8" standalone="no"?>
<!DOCTYPE svg PUBLIC "-//W3C//DTD SVG 1.1//EN" "http://www.w3.org/Graphics/SVG/1.1/DTD/svg11.dtd">
<svg width="100%" height="100%" viewBox="0 0 642 505" version="1.1" xmlns="http://www.w3.org/2000/svg" xmlns:xlink="http://www.w3.org/1999/xlink" xml:space="preserve" xmlns:serif="http://www.serif.com/" style="fill-rule:evenodd;clip-rule:evenodd;stroke-linecap:round;stroke-linejoin:round;stroke-miterlimit:1.5;">
    <g transform="matrix(1,0,0,1,-12823,-531)">
        <g id="Set-volume-to-maximum" serif:id="Set volume to maximum" transform="matrix(1,0,0,1,12607.6,20.6316)">
            <rect x="0" y="0" width="1080" height="1920" style="fill:none;"/>
            <g transform="matrix(0.771179,0,0,0.771179,1185.18,-7736.04)">
                <g transform="matrix(1,0,0,0.694077,-2917.43,8011.43)">
                    <path d="M1741.38,4334.75L1715.14,4334.75L1715.14,4443.11L1741.38,4443.11L1741.38,4334.75ZM1737.2,4340.78L1737.2,4437.08C1737.2,4437.08 1719.33,4437.08 1719.33,4437.08C1719.33,4437.08 1719.33,4340.78 1719.33,4340.78L1737.2,4340.78Z" style="fill:white;"/>
                </g>
                <g transform="matrix(1,0,0,0.989479,-2867.27,6698.93)">
                    <path d="M1741.38,4334.75L1715.14,4334.75L1715.14,4443.11L1741.38,4443.11L1741.38,4334.75ZM1736.55,4339.64L1736.55,4438.22C1736.55,4438.22 1719.98,4438.22 1719.98,4438.22C1719.98,4438.22 1719.98,4339.64 1719.98,4339.64L1736.55,4339.64Z" style="fill:white;"/>
                </g>
                <g transform="matrix(1,0,0,1.29047,-2817.12,5361.61)">
                    <path d="M1741.38,4334.75L1715.14,4334.75L1715.14,4443.11L1741.38,4443.11L1741.38,4334.75ZM1735.77,4339.1L1735.77,4438.76C1735.77,4438.76 1720.75,4438.76 1720.75,4438.76C1720.75,4438.76 1720.75,4339.1 1720.75,4339.1L1735.77,4339.1Z" style="fill:white;"/>
                </g>
                <g transform="matrix(1,0,0,0.397031,-2967.58,9331.24)">
                    <path d="M1741.38,4334.75L1715.14,4334.75L1715.14,4443.11L1741.38,4443.11L1741.38,4334.75ZM1737.68,4344.07L1737.68,4433.8C1737.68,4433.8 1718.84,4433.8 1718.84,4433.8C1718.84,4433.8 1718.84,4344.07 1718.84,4344.07L1737.68,4344.07Z" style="fill:white;"/>
                </g>
            </g>
            <g transform="matrix(2.76529e-16,-4.51607,4.51607,2.76529e-16,-46164.8,27468)">
                <path d="M5968.38,10329C5968.38,10321.9 5962.58,10316.1 5955.45,10316.1L5870.86,10316.1C5863.73,10316.1 5857.94,10321.9 5857.94,10329L5857.94,10354.8C5857.94,10362 5863.73,10367.8 5870.86,10367.8L5955.45,10367.8C5962.58,10367.8 5968.38,10362 5968.38,10354.8L5968.38,10329Z" style="fill:rgb(255,252,252);"/>
                <path d="M5968.38,10329C5968.38,10321.9 5962.58,10316.1 5955.45,10316.1L5870.86,10316.1C5863.73,10316.1 5857.94,10321.9 5857.94,10329L5857.94,10354.8C5857.94,10362 5863.73,10367.8 5870.86,10367.8L5955.45,10367.8C5962.58,10367.8 5968.38,10362 5968.38,10354.8L5968.38,10329ZM5966.38,10329L5966.38,10354.8C5966.38,10360.9 5961.48,10365.8 5955.45,10365.8L5870.86,10365.8C5864.83,10365.8 5859.93,10360.9 5859.93,10354.8C5859.93,10354.8 5859.93,10329 5859.93,10329C5859.93,10323 5864.83,10318.1 5870.86,10318.1L5955.45,10318.1C5961.48,10318.1 5966.38,10323 5966.38,10329Z" style="fill:white;"/>
            </g>
            <g transform="matrix(0.272635,0,0,0.448835,47.6469,-2898.99)">
                <path d="M1754.21,8053.75L1857.6,8157.14L1755.99,8258.75" style="fill:none;stroke:rgb(62,91,83);stroke-width:105.03px;"/>
            </g>
            <g id="Logo">
            </g>
            <g transform="matrix(0.771179,0,0,0.771179,1680.75,-7736.04)">
                <g transform="matrix(1,0,0,0.694077,-2917.43,8011.43)">
                    <rect x="1715.14" y="4334.75" width="26.238" height="108.354" style="fill:rgb(255,252,252);"/>
                </g>
                <g transform="matrix(1,0,0,0.989479,-2867.27,6698.93)">
                    <rect x="1715.14" y="4334.75" width="26.238" height="108.354" style="fill:rgb(255,252,252);"/>
                </g>
                <g transform="matrix(1,0,0,1.29047,-2817.12,5361.61)">
                    <rect x="1715.14" y="4334.75" width="26.238" height="108.354" style="fill:rgb(255,252,252);"/>
                </g>
                <g transform="matrix(1,0,0,0.397031,-2967.58,9331.24)">
                    <rect x="1715.14" y="4334.75" width="26.238" height="108.354" style="fill:rgb(255,252,252);"/>
                </g>
            </g>
            <g id="index_dots">
            </g>
        </g>
    </g>
</svg>
