<?xml version="1.0" encoding="UTF-8" standalone="no"?>
<!DOCTYPE svg PUBLIC "-//W3C//DTD SVG 1.1//EN" "http://www.w3.org/Graphics/SVG/1.1/DTD/svg11.dtd">
<svg width="100%" height="100%" viewBox="0 0 125 128" version="1.1" xmlns="http://www.w3.org/2000/svg" xmlns:xlink="http://www.w3.org/1999/xlink" xml:space="preserve" xmlns:serif="http://www.serif.com/" style="fill-rule:evenodd;clip-rule:evenodd;stroke-linejoin:round;stroke-miterlimit:2;">
    <g transform="matrix(1,0,0,1,-5188,-1145)">
        <g id="Start-Soundsystem" serif:id="Start Soundsystem" transform="matrix(1,0,0,1,4710.37,63.9899)">
            <rect x="0" y="0" width="1080" height="1920" style="fill:none;"/>
            <g id="Logo">
            </g>
            <g transform="matrix(1,0,0,1,2317.75,-8714.22)">
                <g transform="matrix(1,0,0,1,-2921.25,0.799186)">
                    <circle cx="1131.12" cy="9862.72" r="12.993" style="fill:rgb(121,234,4);"/>
                </g>
                <g transform="matrix(1,0,0,1,-2898.55,20.7325)">
                    <circle cx="1131.12" cy="9862.72" r="12.993" style="fill:rgb(121,234,4);"/>
                </g>
                <g transform="matrix(1,0,0,1,-2902.09,-38.3586)">
                    <circle cx="1131.12" cy="9862.72" r="12.993" style="fill:rgb(121,234,4);"/>
                </g>
                <g transform="matrix(1,0,0,1,-2865.05,-43.8017)">
                    <circle cx="1131.12" cy="9862.72" r="12.993" style="fill:rgb(121,234,4);"/>
                </g>
                <g transform="matrix(1,0,0,1,-2923.63,45.4941)">
                    <circle cx="1131.12" cy="9862.72" r="12.993" style="fill:rgb(121,234,4);"/>
                </g>
                <g transform="matrix(1,0,0,1,-2879.41,-1.66623)">
                    <circle cx="1131.12" cy="9862.72" r="12.993" style="fill:rgb(121,234,4);"/>
                </g>
                <g transform="matrix(1,0,0,1,-2860.83,31.4137)">
                    <circle cx="1131.12" cy="9862.72" r="12.993" style="fill:rgb(121,234,4);"/>
                </g>
                <g transform="matrix(1,0,0,1,-2934.26,-53.9035)">
                    <circle cx="1131.12" cy="9862.72" r="12.993" style="fill:rgb(121,234,4);"/>
                </g>
                <g transform="matrix(1,0,0,1,-2956.89,22.9157)">
                    <circle cx="1131.12" cy="9862.72" r="12.993" style="fill:rgb(121,234,4);"/>
                </g>
                <g transform="matrix(1,0,0,1,-2948.75,-24.9332)">
                    <circle cx="1131.12" cy="9862.72" r="12.993" style="fill:rgb(121,234,4);"/>
                </g>
            </g>
            <g id="index_dots">
            </g>
        </g>
    </g>
</svg>
