<?xml version="1.0" encoding="UTF-8" standalone="no"?>
<!DOCTYPE svg PUBLIC "-//W3C//DTD SVG 1.1//EN" "http://www.w3.org/Graphics/SVG/1.1/DTD/svg11.dtd">
<svg width="100%" height="100%" viewBox="0 0 616 616" version="1.1" xmlns="http://www.w3.org/2000/svg" xmlns:xlink="http://www.w3.org/1999/xlink" xml:space="preserve" xmlns:serif="http://www.serif.com/" style="fill-rule:evenodd;clip-rule:evenodd;stroke-linejoin:round;stroke-miterlimit:2;">
    <g transform="matrix(1,0,0,1,-24282,-387)">
        <g id="Joined" transform="matrix(1,0,0,1,24055.2,20.6)">
            <rect x="0" y="0" width="1080" height="1920" style="fill:none;"/>
            <g id="Logo">
            </g>
            <g transform="matrix(1.0205,0,0,1.0205,-3582.44,-3435.35)">
                <path d="M4034.93,3729.95C3870.68,3729.95 3737.33,3863.3 3737.33,4027.55C3737.33,4191.8 3870.68,4325.15 4034.93,4325.15C4199.18,4325.15 4332.52,4191.8 4332.52,4027.55C4332.52,3863.3 4199.18,3729.95 4034.93,3729.95ZM4034.93,3756.41C4184.57,3756.41 4306.07,3877.91 4306.07,4027.55C4306.07,4177.2 4184.57,4298.7 4034.93,4298.7C3885.28,4298.7 3763.78,4177.2 3763.78,4027.55C3763.78,3877.91 3885.28,3756.41 4034.93,3756.41Z" style="fill:rgb(121,234,4);"/>
            </g>
        </g>
    </g>
</svg>
