<?xml version="1.0" encoding="UTF-8" standalone="no"?>
<!DOCTYPE svg PUBLIC "-//W3C//DTD SVG 1.1//EN" "http://www.w3.org/Graphics/SVG/1.1/DTD/svg11.dtd">
<svg width="100%" height="100%" viewBox="0 0 206 174" version="1.1" xmlns="http://www.w3.org/2000/svg" xmlns:xlink="http://www.w3.org/1999/xlink" xml:space="preserve" xmlns:serif="http://www.serif.com/" style="fill-rule:evenodd;clip-rule:evenodd;stroke-linecap:round;stroke-linejoin:bevel;stroke-miterlimit:1.5;">
    <g transform="matrix(1,0,0,1,-5353,-4115)">
        <g id="Start-Soundsystem-Chior" serif:id="Start Soundsystem+Chior" transform="matrix(1,0,0,1,4800.81,3070.61)">
            <rect x="0" y="0" width="1080" height="1920" style="fill:none;"/>
            <g id="Logo">
            </g>
            <g transform="matrix(1,0,0,1,2555.7,-8949.82)">
                <g>
                    <g transform="matrix(1.05941e-16,1.73015,-1.73015,1.05941e-16,15219.3,7583.65)">
                        <path d="M1461.72,9879.38C1461.64,9879.19 1461.55,9878.99 1461.46,9878.79C1461.09,9878.04 1460.51,9877.13 1459.38,9876.25C1458.74,9875.75 1457.18,9874.4 1452.67,9874.4C1444.94,9874.4 1437.75,9876.67 1431.71,9880.58C1421.08,9887.46 1414.05,9899.42 1414.05,9913.02L1414.05,9919.96L1491.3,9919.96L1491.3,9913.02C1491.3,9903.68 1482.41,9888.51 1482.41,9888.51L1478.75,9882.51L1467.28,9889.74L1461.72,9879.38ZM1448.27,9881.64C1443.61,9882.29 1439.26,9883.95 1435.48,9886.4C1426.76,9892.05 1420.99,9901.86 1420.99,9913.02L1484.36,9913.02C1484.36,9905.02 1476.49,9892.13 1476.49,9892.13L1464.68,9899.57L1456.06,9883.52L1462.17,9881.98C1462.17,9881.98 1448.93,9879.1 1448.93,9879.1C1448.93,9879.1 1448.87,9879.24 1448.79,9879.44C1448.7,9879.67 1448.32,9880.46 1448.27,9881.64Z" style="fill:rgb(121,234,4);"/>
                    </g>
                    <g transform="matrix(-0.691325,8.46629e-17,-8.46629e-17,-0.691325,-1451.55,17624.2)">
                        <path d="M552.076,10894.4C552.076,10894.4 530.915,10876.9 531.022,10848.4C531.124,10821 551.049,10802.4 551.049,10802.4" style="fill:none;stroke:rgb(121,234,4);stroke-width:6.94px;"/>
                    </g>
                    <g transform="matrix(-0.585912,7.17536e-17,-6.09721e-17,-0.497875,-1524.4,15526.7)">
                        <path d="M552.076,10894.4C552.076,10894.4 530.915,10876.9 531.022,10848.4C531.124,10821 551.049,10802.4 551.049,10802.4" style="fill:none;stroke:rgb(121,234,4);stroke-width:8.83px;"/>
                    </g>
                    <g transform="matrix(-0.737295,9.02925e-17,-1.06561e-16,-0.870137,-1411.61,19563.8)">
                        <path d="M552.076,10894.4C552.076,10894.4 530.915,10876.9 531.022,10848.4C531.124,10821 551.049,10802.4 551.049,10802.4" style="fill:none;stroke:rgb(121,234,4);stroke-width:5.95px;"/>
                    </g>
                </g>
                <g transform="matrix(1,0,0,1,-2919.49,5.12165)">
                    <ellipse cx="980.084" cy="10075.3" rx="18.071" ry="16.621" style="fill:rgb(121,234,4);"/>
                    <path d="M980.084,10053.2C967.01,10053.2 956.613,10063.2 956.613,10075.3C956.613,10087.3 967.01,10097.3 980.084,10097.3C993.158,10097.3 1003.56,10087.3 1003.56,10075.3C1003.56,10063.2 993.158,10053.2 980.084,10053.2ZM980.084,10058.6C990.058,10058.6 998.156,10066.1 998.156,10075.3C998.156,10084.4 990.058,10091.9 980.084,10091.9C970.111,10091.9 962.013,10084.4 962.013,10075.3C962.013,10066.1 970.111,10058.6 980.084,10058.6Z" style="fill:rgb(121,234,4);"/>
                </g>
                <g transform="matrix(1,0,0,0.702841,-2921.25,2994.27)">
                    <path d="M981.853,9970.49L981.853,10073.7" style="fill:none;stroke:rgb(121,234,4);stroke-width:15px;stroke-linejoin:miter;"/>
                </g>
                <g transform="matrix(0.857369,0,0,0.857369,-2779.01,1438.91)">
                    <path d="M979.285,10036C955.505,10036 936.198,10055.3 936.198,10079.1C936.198,10102.8 955.505,10122.1 979.285,10122.1C1003.07,10122.1 1022.37,10102.8 1022.37,10079.1C1022.37,10055.3 1003.07,10036 979.285,10036ZM979.285,10041.4C1000.09,10041.4 1016.97,10058.3 1016.97,10079.1C1016.97,10099.9 1000.09,10116.7 979.285,10116.7C958.485,10116.7 941.598,10099.9 941.598,10079.1C941.598,10058.3 958.485,10041.4 979.285,10041.4Z" style="fill:rgb(121,234,4);"/>
                </g>
                <g transform="matrix(1.03633,0,0,1.06208,-2961.01,-625.198)">
                    <path d="M979.285,10036.9C955.96,10036.9 936.966,10055.7 936.966,10079.1C936.966,10102.4 955.96,10121.3 979.285,10121.3C1002.61,10121.3 1021.61,10102.4 1021.61,10079.1C1021.61,10055.7 1002.61,10036.9 979.285,10036.9ZM979.285,10041.4C1000.09,10041.4 1016.97,10058.3 1016.97,10079.1C1016.97,10099.9 1000.09,10116.7 979.285,10116.7C958.485,10116.7 941.598,10099.9 941.598,10079.1C941.598,10058.3 958.485,10041.4 979.285,10041.4Z" style="fill:rgb(121,234,4);"/>
                </g>
                <g transform="matrix(1.18953,0,0,1.19987,-3116.81,-2016.61)">
                    <path d="M979.285,10037.3C956.24,10037.3 937.512,10056 937.512,10079.1C937.512,10102.1 956.24,10120.8 979.285,10120.8C1002.33,10120.8 1021.06,10102.1 1021.06,10079.1C1021.06,10056 1002.33,10037.3 979.285,10037.3ZM979.285,10041.4C1000.09,10041.4 1016.97,10058.3 1016.97,10079.1C1016.97,10099.9 1000.09,10116.7 979.285,10116.7C958.485,10116.7 941.598,10099.9 941.598,10079.1C941.598,10058.3 958.485,10041.4 979.285,10041.4Z" style="fill:rgb(121,234,4);"/>
                </g>
            </g>
        </g>
    </g>
</svg>
