<?xml version="1.0" encoding="UTF-8" standalone="no"?>
<!DOCTYPE svg PUBLIC "-//W3C//DTD SVG 1.1//EN" "http://www.w3.org/Graphics/SVG/1.1/DTD/svg11.dtd">
<svg width="100%" height="100%" viewBox="0 0 124 123" version="1.1" xmlns="http://www.w3.org/2000/svg" xmlns:xlink="http://www.w3.org/1999/xlink" xml:space="preserve" xmlns:serif="http://www.serif.com/" style="fill-rule:evenodd;clip-rule:evenodd;stroke-linecap:round;stroke-miterlimit:1;">
    <g transform="matrix(1,0,0,1,-5116,-1432)">
        <g id="Start-Soundsystem" serif:id="Start Soundsystem" transform="matrix(1,0,0,1,4768.92,57.1464)">
            <rect x="0" y="0" width="1080" height="1920" style="fill:none;"/>
            <g transform="matrix(0.734359,0,0,0.734359,1207.21,-5847.59)">
                <g>
                    <g transform="matrix(1,0,0,1,-2921.25,3540.99)">
                        <circle cx="1834.4" cy="6377.88" r="77.285" style="fill:none;stroke:rgb(121,234,4);stroke-width:12px;"/>
                    </g>
                    <g transform="matrix(1.77891,0,0,1.77891,-4362.91,-1359.25)">
                        <path d="M1856.47,6326.58C1856.47,6328.88 1856.06,6330.92 1855.24,6332.71C1854.41,6334.51 1853.34,6336.09 1852,6337.48C1850.69,6338.81 1849.18,6340.07 1847.47,6341.24C1845.75,6342.41 1843.94,6343.55 1842.02,6344.65L1842.02,6352.56L1835.72,6352.56L1835.72,6341.84C1837.25,6340.97 1838.89,6340.02 1840.66,6338.99C1842.43,6337.96 1843.88,6336.91 1845,6335.86C1846.36,6334.64 1847.42,6333.38 1848.17,6332.08C1848.92,6330.78 1849.29,6329.12 1849.29,6327.11C1849.29,6324.46 1848.4,6322.48 1846.6,6321.18C1844.81,6319.88 1842.5,6319.23 1839.66,6319.23C1837.13,6319.23 1834.73,6319.63 1832.47,6320.43C1830.21,6321.22 1828.42,6322.03 1827.11,6322.85L1826.76,6322.85L1826.76,6315.68C1828.4,6315.05 1830.48,6314.48 1833,6313.97C1835.52,6313.47 1837.9,6313.22 1840.15,6313.22C1845.19,6313.22 1849.17,6314.44 1852.09,6316.89C1855.01,6319.34 1856.47,6322.57 1856.47,6326.58ZM1842.58,6366.62L1835.41,6366.62L1835.41,6359.2L1842.58,6359.2L1842.58,6366.62Z" style="fill:rgb(121,234,4);fill-rule:nonzero;"/>
                    </g>
                </g>
            </g>
            <g id="Logo">
            </g>
        </g>
    </g>
</svg>
