<svg width="41" height="33" viewBox="0 0 41 33" fill="none" xmlns="http://www.w3.org/2000/svg">
<path d="M29.0418 31.875V28.4583C29.0418 26.646 28.3219 24.9079 27.0404 23.6264C25.7589 22.3449 24.0208 21.625 22.2085 21.625H8.54183C6.72952 21.625 4.99143 22.3449 3.70993 23.6264C2.42843 24.9079 1.7085 26.646 1.7085 28.4583V31.875M39.2918 31.875V28.4583C39.2907 26.9443 38.7868 25.4735 37.8592 24.2769C36.9316 23.0803 35.6328 22.2256 34.1668 21.8471M27.3335 1.34708C28.8034 1.72343 30.1062 2.57828 31.0365 3.77686C31.9669 4.97545 32.4719 6.44958 32.4719 7.96688C32.4719 9.48417 31.9669 10.9583 31.0365 12.1569C30.1062 13.3555 28.8034 14.2103 27.3335 14.5867M22.2085 7.95833C22.2085 11.7323 19.1491 14.7917 15.3752 14.7917C11.6012 14.7917 8.54183 11.7323 8.54183 7.95833C8.54183 4.18439 11.6012 1.125 15.3752 1.125C19.1491 1.125 22.2085 4.18439 22.2085 7.95833Z" stroke="#1E1E1E" stroke-width="2" stroke-linecap="round" stroke-linejoin="round"/>
</svg>
