<svg width="40" height="37" viewBox="0 0 40 37" fill="none" xmlns="http://www.w3.org/2000/svg">
<path d="M1.79175 4.16656V14.9166M1.79175 14.9166H12.5417M1.79175 14.9166L10.1051 7.10489C12.5792 4.63493 15.7891 3.03596 19.251 2.54889C22.7129 2.06182 26.2393 2.71304 29.2989 4.40442C32.3585 6.09581 34.7856 8.73574 36.2144 11.9264C37.6432 15.1171 37.9963 18.6858 37.2206 22.0946C36.4448 25.5035 34.5823 28.5679 31.9135 30.8261C29.2447 33.0844 25.9143 34.4141 22.4241 34.615C18.9338 34.8159 15.4729 33.877 12.5626 31.9399C9.65239 30.0027 7.45054 27.1722 6.28883 23.8749" stroke="#CAC4D0" stroke-width="4" stroke-linecap="round" stroke-linejoin="round"/>
</svg>
