<?xml version="1.0" encoding="utf-8"?>
<!DOCTYPE svg PUBLIC "-//W3C//DTD SVG 1.1//EN" "http://www.w3.org/Graphics/SVG/1.1/DTD/svg11.dtd">
<svg version="1.1" id="Layer_1" xmlns="http://www.w3.org/2000/svg" xmlns:xlink="http://www.w3.org/1999/xlink" x="0px" y="0px"
width="1147px" height="1147px" viewBox="0 0 1147 1147" enable-background="new 0 0 1147 1147" xml:space="preserve">
<rect x="0" y="0" width="1147" height="1147" fill="rgb(255,255,255)" /><g transform="translate(62,62)"><g transform="translate(341,0) scale(0.31,0.31)"><g transform="" style="fill: rgb(68, 81, 83);">
<polygon points="100,100 0,50 0,50 100,0 "/>
</g></g><g transform="translate(372,0) scale(0.31,0.31)"><g transform="" style="fill: rgb(68, 81, 83);">
<rect width="100" height="100"/>
</g></g><g transform="translate(403,0) scale(0.31,0.31)"><g transform="" style="fill: rgb(68, 81, 83);">
<rect width="100" height="100"/>
</g></g><g transform="translate(434,0) scale(0.31,0.31)"><g transform="" style="fill: rgb(68, 81, 83);">
<rect width="100" height="100"/>
</g></g><g transform="translate(465,0) scale(0.31,0.31)"><g transform="" style="fill: rgb(68, 81, 83);">
<rect width="100" height="100"/>
</g></g><g transform="translate(496,0) scale(0.31,0.31)"><g transform="" style="fill: rgb(68, 81, 83);">
<polygon points="0,100 100,50 100,50 0,0 "/>
</g></g><g transform="translate(558,0) scale(0.31,0.31)"><g transform="" style="fill: rgb(68, 81, 83);">
<polygon points="100,100 0,50 0,50 100,0 "/>
</g></g><g transform="translate(589,0) scale(0.31,0.31)"><g transform="" style="fill: rgb(68, 81, 83);">
<g>
	<path d="M100,34.375c0-9.505-3.354-17.611-10.059-24.316S75.131,0,65.625,0H0v100h100V34.375z"/>
</g>
</g></g><g transform="translate(651,0) scale(0.31,0.31)"><g transform="" style="fill: rgb(68, 81, 83);">
<g>
	<path d="M100,34.375V0H34.375C24.87,0,16.764,3.353,10.059,10.059S0,24.87,0,34.375V100h100V34.375z"/>
</g>
</g></g><g transform="translate(682,0) scale(0.31,0.31)"><g transform="" style="fill: rgb(68, 81, 83);">
<rect width="100" height="100"/>
</g></g><g transform="translate(713,0) scale(0.31,0.31)"><g transform="" style="fill: rgb(68, 81, 83);">
<g>
	<path d="M100,34.375c0-9.505-3.354-17.611-10.059-24.316S75.131,0,65.625,0H0v100h100V34.375z"/>
</g>
</g></g><g transform="translate(248,31) scale(0.31,0.31)"><g transform="" style="fill: rgb(68, 81, 83);">
<polygon points="100,100 0,50 0,50 100,0 "/>
</g></g><g transform="translate(279,31) scale(0.31,0.31)"><g transform="" style="fill: rgb(68, 81, 83);">
<rect width="100" height="100"/>
</g></g><g transform="translate(310,31) scale(0.31,0.31)"><g transform="" style="fill: rgb(68, 81, 83);">
<g>
	<path d="M100,34.375c0-9.505-3.354-17.611-10.059-24.316S75.131,0,65.625,0H0v100h100V34.375z"/>
</g>
</g></g><g transform="translate(372,31) scale(0.31,0.31)"><g transform="" style="fill: rgb(68, 81, 83);">
<polygon points="0,-0.001 50,99.999 50,99.999 100,-0.001 "/>
</g></g><g transform="translate(434,31) scale(0.31,0.31)"><g transform="" style="fill: rgb(68, 81, 83);">
<rect width="100" height="100"/>
</g></g><g transform="translate(465,31) scale(0.31,0.31)"><g transform="" style="fill: rgb(68, 81, 83);">
<g>
	<path d="M100,0H0v100h65.625c9.506,0,17.611-3.354,24.316-10.059S100,75.131,100,65.625V0z"/>
</g>
</g></g><g transform="translate(589,31) scale(0.31,0.31)"><g transform="" style="fill: rgb(68, 81, 83);">
<rect width="100" height="100"/>
</g></g><g transform="translate(620,31) scale(0.31,0.31)"><g transform="" style="fill: rgb(68, 81, 83);">
<rect width="100" height="100"/>
</g></g><g transform="translate(651,31) scale(0.31,0.31)"><g transform="" style="fill: rgb(68, 81, 83);">
<g>
	<path d="M100,0H0v100h65.625c9.506,0,17.611-3.354,24.316-10.059S100,75.131,100,65.625V0z"/>
</g>
</g></g><g transform="translate(713,31) scale(0.31,0.31)"><g transform="" style="fill: rgb(68, 81, 83);">
<rect width="100" height="100"/>
</g></g><g transform="translate(310,62) scale(0.31,0.31)"><g transform="" style="fill: rgb(68, 81, 83);">
<polygon points="0,-0.001 50,99.999 50,99.999 100,-0.001 "/>
</g></g><g transform="translate(434,62) scale(0.31,0.31)"><g transform="" style="fill: rgb(68, 81, 83);">
<polygon points="0,-0.001 50,99.999 50,99.999 100,-0.001 "/>
</g></g><g transform="translate(496,62) scale(0.31,0.31)"><g transform="" style="fill: rgb(68, 81, 83);">
<polygon points="99.999,49.999 99.998,49.999 49.999,0 0,49.999 -0.001,49.999 -0.001,50 0,50 49.999,99.999 99.998,50 99.999,50 
	99.998,50 "/>
</g></g><g transform="translate(589,62) scale(0.31,0.31)"><g transform="" style="fill: rgb(68, 81, 83);">
<polygon points="0,-0.001 50,99.999 50,99.999 100,-0.001 "/>
</g></g><g transform="translate(713,62) scale(0.31,0.31)"><g transform="" style="fill: rgb(68, 81, 83);">
<polygon points="0,-0.001 50,99.999 50,99.999 100,-0.001 "/>
</g></g><g transform="translate(279,93) scale(0.31,0.31)"><g transform="" style="fill: rgb(68, 81, 83);">
<polygon points="100,100 50,0 50,0 0,100 "/>
</g></g><g transform="translate(341,93) scale(0.31,0.31)"><g transform="" style="fill: rgb(68, 81, 83);">
<polygon points="100,100 50,0 50,0 0,100 "/>
</g></g><g transform="translate(403,93) scale(0.31,0.31)"><g transform="" style="fill: rgb(68, 81, 83);">
<polygon points="100,100 50,0 50,0 0,100 "/>
</g></g><g transform="translate(465,93) scale(0.31,0.31)"><g transform="" style="fill: rgb(68, 81, 83);">
<polygon points="100,100 50,0 50,0 0,100 "/>
</g></g><g transform="translate(620,93) scale(0.31,0.31)"><g transform="" style="fill: rgb(68, 81, 83);">
<polygon points="100,100 50,0 50,0 0,100 "/>
</g></g><g transform="translate(682,93) scale(0.31,0.31)"><g transform="" style="fill: rgb(68, 81, 83);">
<polygon points="100,100 50,0 50,0 0,100 "/>
</g></g><g transform="translate(248,124) scale(0.31,0.31)"><g transform="" style="fill: rgb(68, 81, 83);">
<polygon points="100,100 0,50 0,50 100,0 "/>
</g></g><g transform="translate(279,124) scale(0.31,0.31)"><g transform="" style="fill: rgb(68, 81, 83);">
<rect width="100" height="100"/>
</g></g><g transform="translate(310,124) scale(0.31,0.31)"><g transform="" style="fill: rgb(68, 81, 83);">
<rect width="100" height="100"/>
</g></g><g transform="translate(341,124) scale(0.31,0.31)"><g transform="" style="fill: rgb(68, 81, 83);">
<rect width="100" height="100"/>
</g></g><g transform="translate(403,124) scale(0.31,0.31)"><g transform="" style="fill: rgb(68, 81, 83);">
<g>
	<path d="M100,0H0v65.625c0,9.506,3.353,17.611,10.059,24.316S24.87,100,34.375,100H100V0z"/>
</g>
</g></g><g transform="translate(434,124) scale(0.31,0.31)"><g transform="" style="fill: rgb(68, 81, 83);">
<rect width="100" height="100"/>
</g></g><g transform="translate(465,124) scale(0.31,0.31)"><g transform="" style="fill: rgb(68, 81, 83);">
<rect width="100" height="100"/>
</g></g><g transform="translate(527,124) scale(0.31,0.31)"><g transform="" style="fill: rgb(68, 81, 83);">
<polygon points="100,100 50,0 50,0 0,100 "/>
</g></g><g transform="translate(589,124) scale(0.31,0.31)"><g transform="" style="fill: rgb(68, 81, 83);">
<g>
	<path d="M100,34.375V0H34.375C24.87,0,16.764,3.353,10.059,10.059S0,24.87,0,34.375V100h100V34.375z"/>
</g>
</g></g><g transform="translate(620,124) scale(0.31,0.31)"><g transform="" style="fill: rgb(68, 81, 83);">
<g>
	<path d="M100,0H0v100h65.625c9.506,0,17.611-3.354,24.316-10.059S100,75.131,100,65.625V0z"/>
</g>
</g></g><g transform="translate(682,124) scale(0.31,0.31)"><g transform="" style="fill: rgb(68, 81, 83);">
<g>
	<path d="M100,0H0v65.625c0,9.506,3.353,17.611,10.059,24.316S24.87,100,34.375,100H100V0z"/>
</g>
</g></g><g transform="translate(713,124) scale(0.31,0.31)"><g transform="" style="fill: rgb(68, 81, 83);">
<g>
	<path d="M100,34.375c0-9.505-3.354-17.611-10.059-24.316S75.131,0,65.625,0H0v100h100V34.375z"/>
</g>
</g></g><g transform="translate(310,155) scale(0.31,0.31)"><g transform="" style="fill: rgb(68, 81, 83);">
<rect width="100" height="100"/>
</g></g><g transform="translate(341,155) scale(0.31,0.31)"><g transform="" style="fill: rgb(68, 81, 83);">
<g>
	<path d="M100,0H0v100h65.625c9.506,0,17.611-3.354,24.316-10.059S100,75.131,100,65.625V0z"/>
</g>
</g></g><g transform="translate(434,155) scale(0.31,0.31)"><g transform="" style="fill: rgb(68, 81, 83);">
<rect width="100" height="100"/>
</g></g><g transform="translate(465,155) scale(0.31,0.31)"><g transform="" style="fill: rgb(68, 81, 83);">
<rect width="100" height="100"/>
</g></g><g transform="translate(496,155) scale(0.31,0.31)"><g transform="" style="fill: rgb(68, 81, 83);">
<rect width="100" height="100"/>
</g></g><g transform="translate(527,155) scale(0.31,0.31)"><g transform="" style="fill: rgb(68, 81, 83);">
<rect width="100" height="100"/>
</g></g><g transform="translate(558,155) scale(0.31,0.31)"><g transform="" style="fill: rgb(68, 81, 83);">
<rect width="100" height="100"/>
</g></g><g transform="translate(589,155) scale(0.31,0.31)"><g transform="" style="fill: rgb(68, 81, 83);">
<g>
	<path d="M100,0H0v100h65.625c9.506,0,17.611-3.354,24.316-10.059S100,75.131,100,65.625V0z"/>
</g>
</g></g><g transform="translate(651,155) scale(0.31,0.31)"><g transform="" style="fill: rgb(68, 81, 83);">
<polygon points="99.999,49.999 99.998,49.999 49.999,0 0,49.999 -0.001,49.999 -0.001,50 0,50 49.999,99.999 99.998,50 99.999,50 
	99.998,50 "/>
</g></g><g transform="translate(713,155) scale(0.31,0.31)"><g transform="" style="fill: rgb(68, 81, 83);">
<g>
	<path d="M100,0H0v65.625c0,9.506,3.353,17.611,10.059,24.316S24.87,100,34.375,100H100V0z"/>
</g>
</g></g><g transform="translate(744,155) scale(0.31,0.31)"><g transform="" style="fill: rgb(68, 81, 83);">
<g>
	<path d="M100,34.375c0-9.505-3.354-17.611-10.059-24.316S75.131,0,65.625,0H0v100h100V34.375z"/>
</g>
</g></g><g transform="translate(248,186) scale(0.31,0.31)"><g transform="" style="fill: rgb(68, 81, 83);">
<polygon points="99.999,49.999 99.998,49.999 49.999,0 0,49.999 -0.001,49.999 -0.001,50 0,50 49.999,99.999 99.998,50 99.999,50 
	99.998,50 "/>
</g></g><g transform="translate(310,186) scale(0.31,0.31)"><g transform="" style="fill: rgb(68, 81, 83);">
<polygon points="0,-0.001 50,99.999 50,99.999 100,-0.001 "/>
</g></g><g transform="translate(372,186) scale(0.31,0.31)"><g transform="" style="fill: rgb(68, 81, 83);">
<polygon points="99.999,49.999 99.998,49.999 49.999,0 0,49.999 -0.001,49.999 -0.001,50 0,50 49.999,99.999 99.998,50 99.999,50 
	99.998,50 "/>
</g></g><g transform="translate(434,186) scale(0.31,0.31)"><g transform="" style="fill: rgb(68, 81, 83);">
<rect width="100" height="100"/>
</g></g><g transform="translate(496,186) scale(0.31,0.31)"><g transform="" style="fill: rgb(68, 81, 83);">
<rect width="100" height="100"/>
</g></g><g transform="translate(558,186) scale(0.31,0.31)"><g transform="" style="fill: rgb(68, 81, 83);">
<rect width="100" height="100"/>
</g></g><g transform="translate(620,186) scale(0.31,0.31)"><g transform="" style="fill: rgb(68, 81, 83);">
<polygon points="99.999,49.999 99.998,49.999 49.999,0 0,49.999 -0.001,49.999 -0.001,50 0,50 49.999,99.999 99.998,50 99.999,50 
	99.998,50 "/>
</g></g><g transform="translate(682,186) scale(0.31,0.31)"><g transform="" style="fill: rgb(68, 81, 83);">
<polygon points="100,100 50,0 50,0 0,100 "/>
</g></g><g transform="translate(744,186) scale(0.31,0.31)"><g transform="" style="fill: rgb(68, 81, 83);">
<rect width="100" height="100"/>
</g></g><g transform="translate(279,217) scale(0.31,0.31)"><g transform="" style="fill: rgb(68, 81, 83);">
<polygon points="100,100 50,0 50,0 0,100 "/>
</g></g><g transform="translate(403,217) scale(0.31,0.31)"><g transform="" style="fill: rgb(68, 81, 83);">
<g>
	<path d="M100,34.375V0H34.375C24.87,0,16.764,3.353,10.059,10.059S0,24.87,0,34.375V100h100V34.375z"/>
</g>
</g></g><g transform="translate(434,217) scale(0.31,0.31)"><g transform="" style="fill: rgb(68, 81, 83);">
<rect width="100" height="100"/>
</g></g><g transform="translate(465,217) scale(0.31,0.31)"><g transform="" style="fill: rgb(68, 81, 83);">
<rect width="100" height="100"/>
</g></g><g transform="translate(496,217) scale(0.31,0.31)"><g transform="" style="fill: rgb(68, 81, 83);">
<rect width="100" height="100"/>
</g></g><g transform="translate(527,217) scale(0.31,0.31)"><g transform="" style="fill: rgb(68, 81, 83);">
<rect width="100" height="100"/>
</g></g><g transform="translate(558,217) scale(0.31,0.31)"><g transform="" style="fill: rgb(68, 81, 83);">
<rect width="100" height="100"/>
</g></g><g transform="translate(589,217) scale(0.31,0.31)"><g transform="" style="fill: rgb(68, 81, 83);">
<polygon points="0,100 100,50 100,50 0,0 "/>
</g></g><g transform="translate(651,217) scale(0.31,0.31)"><g transform="" style="fill: rgb(68, 81, 83);">
<g>
	<path d="M100,34.375V0H34.375C24.87,0,16.764,3.353,10.059,10.059S0,24.87,0,34.375V100h100V34.375z"/>
</g>
</g></g><g transform="translate(682,217) scale(0.31,0.31)"><g transform="" style="fill: rgb(68, 81, 83);">
<g>
	<path d="M100,0H0v100h65.625c9.506,0,17.611-3.354,24.316-10.059S100,75.131,100,65.625V0z"/>
</g>
</g></g><g transform="translate(744,217) scale(0.31,0.31)"><g transform="" style="fill: rgb(68, 81, 83);">
<rect width="100" height="100"/>
</g></g><g transform="translate(0,248) scale(0.31,0.31)"><g transform="" style="fill: rgb(68, 81, 83);">
<polygon points="100,100 50,0 50,0 0,100 "/>
</g></g><g transform="translate(62,248) scale(0.31,0.31)"><g transform="" style="fill: rgb(68, 81, 83);">
<polygon points="99.999,49.999 99.998,49.999 49.999,0 0,49.999 -0.001,49.999 -0.001,50 0,50 49.999,99.999 99.998,50 99.999,50 
	99.998,50 "/>
</g></g><g transform="translate(124,248) scale(0.31,0.31)"><g transform="" style="fill: rgb(68, 81, 83);">
<polygon points="100,100 50,0 50,0 0,100 "/>
</g></g><g transform="translate(186,248) scale(0.31,0.31)"><g transform="" style="fill: rgb(68, 81, 83);">
<polygon points="99.999,49.999 99.998,49.999 49.999,0 0,49.999 -0.001,49.999 -0.001,50 0,50 49.999,99.999 99.998,50 99.999,50 
	99.998,50 "/>
</g></g><g transform="translate(279,248) scale(0.31,0.31)"><g transform="" style="fill: rgb(68, 81, 83);">
<polygon points="0,-0.001 50,99.999 50,99.999 100,-0.001 "/>
</g></g><g transform="translate(341,248) scale(0.31,0.31)"><g transform="" style="fill: rgb(68, 81, 83);">
<g>
	<path d="M100,34.375V0H34.375C24.87,0,16.764,3.353,10.059,10.059S0,24.87,0,34.375V100h100V34.375z"/>
</g>
</g></g><g transform="translate(372,248) scale(0.31,0.31)"><g transform="" style="fill: rgb(68, 81, 83);">
<rect width="100" height="100"/>
</g></g><g transform="translate(403,248) scale(0.31,0.31)"><g transform="" style="fill: rgb(68, 81, 83);">
<g>
	<path d="M100,0H0v100h65.625c9.506,0,17.611-3.354,24.316-10.059S100,75.131,100,65.625V0z"/>
</g>
</g></g><g transform="translate(527,248) scale(0.31,0.31)"><g transform="" style="fill: rgb(68, 81, 83);">
<rect width="100" height="100"/>
</g></g><g transform="translate(558,248) scale(0.31,0.31)"><g transform="" style="fill: rgb(68, 81, 83);">
<g>
	<path d="M100,0H0v100h65.625c9.506,0,17.611-3.354,24.316-10.059S100,75.131,100,65.625V0z"/>
</g>
</g></g><g transform="translate(620,248) scale(0.31,0.31)"><g transform="" style="fill: rgb(68, 81, 83);">
<g>
	<path d="M100,34.375V0H34.375C24.87,0,16.764,3.353,10.059,10.059S0,24.87,0,34.375V100h100V34.375z"/>
</g>
</g></g><g transform="translate(651,248) scale(0.31,0.31)"><g transform="" style="fill: rgb(68, 81, 83);">
<rect width="100" height="100"/>
</g></g><g transform="translate(713,248) scale(0.31,0.31)"><g transform="" style="fill: rgb(68, 81, 83);">
<polygon points="100,100 0,50 0,50 100,0 "/>
</g></g><g transform="translate(744,248) scale(0.31,0.31)"><g transform="" style="fill: rgb(68, 81, 83);">
<g>
	<path d="M100,0H0v100h65.625c9.506,0,17.611-3.354,24.316-10.059S100,75.131,100,65.625V0z"/>
</g>
</g></g><g transform="translate(868,248) scale(0.31,0.31)"><g transform="" style="fill: rgb(68, 81, 83);">
<polygon points="99.999,49.999 99.998,49.999 49.999,0 0,49.999 -0.001,49.999 -0.001,50 0,50 49.999,99.999 99.998,50 99.999,50 
	99.998,50 "/>
</g></g><g transform="translate(961,248) scale(0.31,0.31)"><g transform="" style="fill: rgb(68, 81, 83);">
<polygon points="100,100 50,0 50,0 0,100 "/>
</g></g><g transform="translate(0,279) scale(0.31,0.31)"><g transform="" style="fill: rgb(68, 81, 83);">
<rect width="100" height="100"/>
</g></g><g transform="translate(31,279) scale(0.31,0.31)"><g transform="" style="fill: rgb(68, 81, 83);">
<g>
	<path d="M100,34.375c0-9.505-3.354-17.611-10.059-24.316S75.131,0,65.625,0H0v100h100V34.375z"/>
</g>
</g></g><g transform="translate(93,279) scale(0.31,0.31)"><g transform="" style="fill: rgb(68, 81, 83);">
<polygon points="100,100 0,50 0,50 100,0 "/>
</g></g><g transform="translate(124,279) scale(0.31,0.31)"><g transform="" style="fill: rgb(68, 81, 83);">
<rect width="100" height="100"/>
</g></g><g transform="translate(155,279) scale(0.31,0.31)"><g transform="" style="fill: rgb(68, 81, 83);">
<polygon points="0,100 100,50 100,50 0,0 "/>
</g></g><g transform="translate(248,279) scale(0.31,0.31)"><g transform="" style="fill: rgb(68, 81, 83);">
<polygon points="100,100 50,0 50,0 0,100 "/>
</g></g><g transform="translate(310,279) scale(0.31,0.31)"><g transform="" style="fill: rgb(68, 81, 83);">
<g>
	<path d="M100,34.375V0H34.375C24.87,0,16.764,3.353,10.059,10.059S0,24.87,0,34.375V100h100V34.375z"/>
</g>
</g></g><g transform="translate(341,279) scale(0.31,0.31)"><g transform="" style="fill: rgb(68, 81, 83);">
<g>
	<path d="M100,0H0v100h65.625c9.506,0,17.611-3.354,24.316-10.059S100,75.131,100,65.625V0z"/>
</g>
</g></g><g transform="translate(434,279) scale(0.31,0.31)"><g transform="" style="fill: rgb(68, 81, 83);">
<polygon points="99.999,49.999 99.998,49.999 49.999,0 0,49.999 -0.001,49.999 -0.001,50 0,50 49.999,99.999 99.998,50 99.999,50 
	99.998,50 "/>
</g></g><g transform="translate(496,279) scale(0.31,0.31)"><g transform="" style="fill: rgb(68, 81, 83);">
<g>
	<path d="M100,34.375V0H34.375C24.87,0,16.764,3.353,10.059,10.059S0,24.87,0,34.375V100h100V34.375z"/>
</g>
</g></g><g transform="translate(527,279) scale(0.31,0.31)"><g transform="" style="fill: rgb(68, 81, 83);">
<g>
	<path d="M100,0H0v100h65.625c9.506,0,17.611-3.354,24.316-10.059S100,75.131,100,65.625V0z"/>
</g>
</g></g><g transform="translate(620,279) scale(0.31,0.31)"><g transform="" style="fill: rgb(68, 81, 83);">
<g>
	<path d="M100,0H0v65.625c0,9.506,3.353,17.611,10.059,24.316S24.87,100,34.375,100H100V0z"/>
</g>
</g></g><g transform="translate(651,279) scale(0.31,0.31)"><g transform="" style="fill: rgb(68, 81, 83);">
<rect width="100" height="100"/>
</g></g><g transform="translate(682,279) scale(0.31,0.31)"><g transform="" style="fill: rgb(68, 81, 83);">
<polygon points="0,100 100,50 100,50 0,0 "/>
</g></g><g transform="translate(775,279) scale(0.31,0.31)"><g transform="" style="fill: rgb(68, 81, 83);">
<g>
	<path d="M100,34.375V0H34.375C24.87,0,16.764,3.353,10.059,10.059S0,24.87,0,34.375V100h100V34.375z"/>
</g>
</g></g><g transform="translate(806,279) scale(0.31,0.31)"><g transform="" style="fill: rgb(68, 81, 83);">
<rect width="100" height="100"/>
</g></g><g transform="translate(837,279) scale(0.31,0.31)"><g transform="" style="fill: rgb(68, 81, 83);">
<g>
	<path d="M100,34.375c0-9.505-3.354-17.611-10.059-24.316S75.131,0,65.625,0H0v100h100V34.375z"/>
</g>
</g></g><g transform="translate(961,279) scale(0.31,0.31)"><g transform="" style="fill: rgb(68, 81, 83);">
<rect width="100" height="100"/>
</g></g><g transform="translate(992,279) scale(0.31,0.31)"><g transform="" style="fill: rgb(68, 81, 83);">
<g>
	<path d="M100,34.375c0-9.505-3.354-17.611-10.059-24.316S75.131,0,65.625,0H0v100h100V34.375z"/>
</g>
</g></g><g transform="translate(0,310) scale(0.31,0.31)"><g transform="" style="fill: rgb(68, 81, 83);">
<g>
	<path d="M100,0H0v65.625c0,9.506,3.353,17.611,10.059,24.316S24.87,100,34.375,100H100V0z"/>
</g>
</g></g><g transform="translate(31,310) scale(0.31,0.31)"><g transform="" style="fill: rgb(68, 81, 83);">
<rect width="100" height="100"/>
</g></g><g transform="translate(62,310) scale(0.31,0.31)"><g transform="" style="fill: rgb(68, 81, 83);">
<polygon points="0,100 100,50 100,50 0,0 "/>
</g></g><g transform="translate(124,310) scale(0.31,0.31)"><g transform="" style="fill: rgb(68, 81, 83);">
<rect width="100" height="100"/>
</g></g><g transform="translate(186,310) scale(0.31,0.31)"><g transform="" style="fill: rgb(68, 81, 83);">
<polygon points="99.999,49.999 99.998,49.999 49.999,0 0,49.999 -0.001,49.999 -0.001,50 0,50 49.999,99.999 99.998,50 99.999,50 
	99.998,50 "/>
</g></g><g transform="translate(248,310) scale(0.31,0.31)"><g transform="" style="fill: rgb(68, 81, 83);">
<rect width="100" height="100"/>
</g></g><g transform="translate(310,310) scale(0.31,0.31)"><g transform="" style="fill: rgb(68, 81, 83);">
<polygon points="0,-0.001 50,99.999 50,99.999 100,-0.001 "/>
</g></g><g transform="translate(372,310) scale(0.31,0.31)"><g transform="" style="fill: rgb(68, 81, 83);">
<g>
	<path d="M100,34.375V0H34.375C24.87,0,16.764,3.353,10.059,10.059S0,24.87,0,34.375V100h100V34.375z"/>
</g>
</g></g><g transform="translate(403,310) scale(0.31,0.31)"><g transform="" style="fill: rgb(68, 81, 83);">
<polygon points="0,100 100,50 100,50 0,0 "/>
</g></g><g transform="translate(496,310) scale(0.31,0.31)"><g transform="" style="fill: rgb(68, 81, 83);">
<polygon points="0,-0.001 50,99.999 50,99.999 100,-0.001 "/>
</g></g><g transform="translate(558,310) scale(0.31,0.31)"><g transform="" style="fill: rgb(68, 81, 83);">
<polygon points="99.999,49.999 99.998,49.999 49.999,0 0,49.999 -0.001,49.999 -0.001,50 0,50 49.999,99.999 99.998,50 99.999,50 
	99.998,50 "/>
</g></g><g transform="translate(775,310) scale(0.31,0.31)"><g transform="" style="fill: rgb(68, 81, 83);">
<rect width="100" height="100"/>
</g></g><g transform="translate(837,310) scale(0.31,0.31)"><g transform="" style="fill: rgb(68, 81, 83);">
<polygon points="0,-0.001 50,99.999 50,99.999 100,-0.001 "/>
</g></g><g transform="translate(930,310) scale(0.31,0.31)"><g transform="" style="fill: rgb(68, 81, 83);">
<polygon points="100,100 0,50 0,50 100,0 "/>
</g></g><g transform="translate(961,310) scale(0.31,0.31)"><g transform="" style="fill: rgb(68, 81, 83);">
<rect width="100" height="100"/>
</g></g><g transform="translate(992,310) scale(0.31,0.31)"><g transform="" style="fill: rgb(68, 81, 83);">
<g>
	<path d="M100,0H0v100h65.625c9.506,0,17.611-3.354,24.316-10.059S100,75.131,100,65.625V0z"/>
</g>
</g></g><g transform="translate(93,341) scale(0.31,0.31)"><g transform="" style="fill: rgb(68, 81, 83);">
<polygon points="100,100 0,50 0,50 100,0 "/>
</g></g><g transform="translate(124,341) scale(0.31,0.31)"><g transform="" style="fill: rgb(68, 81, 83);">
<rect width="100" height="100"/>
</g></g><g transform="translate(248,341) scale(0.31,0.31)"><g transform="" style="fill: rgb(68, 81, 83);">
<polygon points="0,-0.001 50,99.999 50,99.999 100,-0.001 "/>
</g></g><g transform="translate(372,341) scale(0.31,0.31)"><g transform="" style="fill: rgb(68, 81, 83);">
<polygon points="0,-0.001 50,99.999 50,99.999 100,-0.001 "/>
</g></g><g transform="translate(465,341) scale(0.31,0.31)"><g transform="" style="fill: rgb(68, 81, 83);">
<polygon points="99.999,49.999 99.998,49.999 49.999,0 0,49.999 -0.001,49.999 -0.001,50 0,50 49.999,99.999 99.998,50 99.999,50 
	99.998,50 "/>
</g></g><g transform="translate(527,341) scale(0.31,0.31)"><g transform="" style="fill: rgb(68, 81, 83);">
<polygon points="100,100 50,0 50,0 0,100 "/>
</g></g><g transform="translate(651,341) scale(0.31,0.31)"><g transform="" style="fill: rgb(68, 81, 83);">
<polygon points="100,100 50,0 50,0 0,100 "/>
</g></g><g transform="translate(775,341) scale(0.31,0.31)"><g transform="" style="fill: rgb(68, 81, 83);">
<rect width="100" height="100"/>
</g></g><g transform="translate(868,341) scale(0.31,0.31)"><g transform="" style="fill: rgb(68, 81, 83);">
<polygon points="99.999,49.999 99.998,49.999 49.999,0 0,49.999 -0.001,49.999 -0.001,50 0,50 49.999,99.999 99.998,50 99.999,50 
	99.998,50 "/>
</g></g><g transform="translate(961,341) scale(0.31,0.31)"><g transform="" style="fill: rgb(68, 81, 83);">
<rect width="100" height="100"/>
</g></g><g transform="translate(0,372) scale(0.31,0.31)"><g transform="" style="fill: rgb(68, 81, 83);">
<g>
	<path d="M100,34.375V0H34.375C24.87,0,16.764,3.353,10.059,10.059S0,24.87,0,34.375V100h100V34.375z"/>
</g>
</g></g><g transform="translate(31,372) scale(0.31,0.31)"><g transform="" style="fill: rgb(68, 81, 83);">
<rect width="100" height="100"/>
</g></g><g transform="translate(62,372) scale(0.31,0.31)"><g transform="" style="fill: rgb(68, 81, 83);">
<g>
	<path d="M100,34.375c0-9.505-3.354-17.611-10.059-24.316S75.131,0,65.625,0H0v100h100V34.375z"/>
</g>
</g></g><g transform="translate(124,372) scale(0.31,0.31)"><g transform="" style="fill: rgb(68, 81, 83);">
<g>
	<path d="M100,0H0v65.625c0,9.506,3.353,17.611,10.059,24.316S24.87,100,34.375,100H100V0z"/>
</g>
</g></g><g transform="translate(155,372) scale(0.31,0.31)"><g transform="" style="fill: rgb(68, 81, 83);">
<rect width="100" height="100"/>
</g></g><g transform="translate(186,372) scale(0.31,0.31)"><g transform="" style="fill: rgb(68, 81, 83);">
<rect width="100" height="100"/>
</g></g><g transform="translate(217,372) scale(0.31,0.31)"><g transform="" style="fill: rgb(68, 81, 83);">
<polygon points="0,100 100,50 100,50 0,0 "/>
</g></g><g transform="translate(279,372) scale(0.31,0.31)"><g transform="" style="fill: rgb(68, 81, 83);">
<g>
	<path d="M100,34.375V0H34.375C24.87,0,16.764,3.353,10.059,10.059S0,24.87,0,34.375V100h100V34.375z"/>
</g>
</g></g><g transform="translate(310,372) scale(0.31,0.31)"><g transform="" style="fill: rgb(68, 81, 83);">
<polygon points="0,100 100,50 100,50 0,0 "/>
</g></g><g transform="translate(496,372) scale(0.31,0.31)"><g transform="" style="fill: rgb(68, 81, 83);">
<g>
	<path d="M100,34.375V0H34.375C24.87,0,16.764,3.353,10.059,10.059S0,24.87,0,34.375V100h100V34.375z"/>
</g>
</g></g><g transform="translate(527,372) scale(0.31,0.31)"><g transform="" style="fill: rgb(68, 81, 83);">
<rect width="100" height="100"/>
</g></g><g transform="translate(558,372) scale(0.31,0.31)"><g transform="" style="fill: rgb(68, 81, 83);">
<g>
	<path d="M100,34.375c0-9.505-3.354-17.611-10.059-24.316S75.131,0,65.625,0H0v100h100V34.375z"/>
</g>
</g></g><g transform="translate(651,372) scale(0.31,0.31)"><g transform="" style="fill: rgb(68, 81, 83);">
<rect width="100" height="100"/>
</g></g><g transform="translate(682,372) scale(0.31,0.31)"><g transform="" style="fill: rgb(68, 81, 83);">
<g>
	<path d="M100,34.375c0-9.505-3.354-17.611-10.059-24.316S75.131,0,65.625,0H0v100h100V34.375z"/>
</g>
</g></g><g transform="translate(744,372) scale(0.31,0.31)"><g transform="" style="fill: rgb(68, 81, 83);">
<polygon points="100,100 0,50 0,50 100,0 "/>
</g></g><g transform="translate(775,372) scale(0.31,0.31)"><g transform="" style="fill: rgb(68, 81, 83);">
<rect width="100" height="100"/>
</g></g><g transform="translate(806,372) scale(0.31,0.31)"><g transform="" style="fill: rgb(68, 81, 83);">
<g>
	<path d="M100,34.375c0-9.505-3.354-17.611-10.059-24.316S75.131,0,65.625,0H0v100h100V34.375z"/>
</g>
</g></g><g transform="translate(899,372) scale(0.31,0.31)"><g transform="" style="fill: rgb(68, 81, 83);">
<polygon points="100,100 50,0 50,0 0,100 "/>
</g></g><g transform="translate(961,372) scale(0.31,0.31)"><g transform="" style="fill: rgb(68, 81, 83);">
<g>
	<path d="M100,0H0v65.625c0,9.506,3.353,17.611,10.059,24.316S24.87,100,34.375,100H100V0z"/>
</g>
</g></g><g transform="translate(992,372) scale(0.31,0.31)"><g transform="" style="fill: rgb(68, 81, 83);">
<g>
	<path d="M100,34.375c0-9.505-3.354-17.611-10.059-24.316S75.131,0,65.625,0H0v100h100V34.375z"/>
</g>
</g></g><g transform="translate(0,403) scale(0.31,0.31)"><g transform="" style="fill: rgb(68, 81, 83);">
<rect width="100" height="100"/>
</g></g><g transform="translate(31,403) scale(0.31,0.31)"><g transform="" style="fill: rgb(68, 81, 83);">
<rect width="100" height="100"/>
</g></g><g transform="translate(62,403) scale(0.31,0.31)"><g transform="" style="fill: rgb(68, 81, 83);">
<rect width="100" height="100"/>
</g></g><g transform="translate(93,403) scale(0.31,0.31)"><g transform="" style="fill: rgb(68, 81, 83);">
<polygon points="0,100 100,50 100,50 0,0 "/>
</g></g><g transform="translate(155,403) scale(0.31,0.31)"><g transform="" style="fill: rgb(68, 81, 83);">
<rect width="100" height="100"/>
</g></g><g transform="translate(248,403) scale(0.31,0.31)"><g transform="" style="fill: rgb(68, 81, 83);">
<polygon points="100,100 0,50 0,50 100,0 "/>
</g></g><g transform="translate(279,403) scale(0.31,0.31)"><g transform="" style="fill: rgb(68, 81, 83);">
<rect width="100" height="100"/>
</g></g><g transform="translate(341,403) scale(0.31,0.31)"><g transform="" style="fill: rgb(68, 81, 83);">
<polygon points="99.999,49.999 99.998,49.999 49.999,0 0,49.999 -0.001,49.999 -0.001,50 0,50 49.999,99.999 99.998,50 99.999,50 
	99.998,50 "/>
</g></g><g transform="translate(496,403) scale(0.31,0.31)"><g transform="" style="fill: rgb(68, 81, 83);">
<polygon points="0,-0.001 50,99.999 50,99.999 100,-0.001 "/>
</g></g><g transform="translate(558,403) scale(0.31,0.31)"><g transform="" style="fill: rgb(68, 81, 83);">
<polygon points="0,-0.001 50,99.999 50,99.999 100,-0.001 "/>
</g></g><g transform="translate(651,403) scale(0.31,0.31)"><g transform="" style="fill: rgb(68, 81, 83);">
<g>
	<path d="M100,0H0v65.625c0,9.506,3.353,17.611,10.059,24.316S24.87,100,34.375,100H100V0z"/>
</g>
</g></g><g transform="translate(682,403) scale(0.31,0.31)"><g transform="" style="fill: rgb(68, 81, 83);">
<rect width="100" height="100"/>
</g></g><g transform="translate(775,403) scale(0.31,0.31)"><g transform="" style="fill: rgb(68, 81, 83);">
<rect width="100" height="100"/>
</g></g><g transform="translate(806,403) scale(0.31,0.31)"><g transform="" style="fill: rgb(68, 81, 83);">
<g>
	<path d="M100,0H0v100h65.625c9.506,0,17.611-3.354,24.316-10.059S100,75.131,100,65.625V0z"/>
</g>
</g></g><g transform="translate(899,403) scale(0.31,0.31)"><g transform="" style="fill: rgb(68, 81, 83);">
<rect width="100" height="100"/>
</g></g><g transform="translate(930,403) scale(0.31,0.31)"><g transform="" style="fill: rgb(68, 81, 83);">
<g>
	<path d="M100,34.375c0-9.505-3.354-17.611-10.059-24.316S75.131,0,65.625,0H0v100h100V34.375z"/>
</g>
</g></g><g transform="translate(992,403) scale(0.31,0.31)"><g transform="" style="fill: rgb(68, 81, 83);">
<rect width="100" height="100"/>
</g></g><g transform="translate(0,434) scale(0.31,0.31)"><g transform="" style="fill: rgb(68, 81, 83);">
<polygon points="0,-0.001 50,99.999 50,99.999 100,-0.001 "/>
</g></g><g transform="translate(124,434) scale(0.31,0.31)"><g transform="" style="fill: rgb(68, 81, 83);">
<polygon points="100,100 0,50 0,50 100,0 "/>
</g></g><g transform="translate(155,434) scale(0.31,0.31)"><g transform="" style="fill: rgb(68, 81, 83);">
<rect width="100" height="100"/>
</g></g><g transform="translate(186,434) scale(0.31,0.31)"><g transform="" style="fill: rgb(68, 81, 83);">
<polygon points="0,100 100,50 100,50 0,0 "/>
</g></g><g transform="translate(279,434) scale(0.31,0.31)"><g transform="" style="fill: rgb(68, 81, 83);">
<g>
	<path d="M100,0H0v65.625c0,9.506,3.353,17.611,10.059,24.316S24.87,100,34.375,100H100V0z"/>
</g>
</g></g><g transform="translate(310,434) scale(0.31,0.31)"><g transform="" style="fill: rgb(68, 81, 83);">
<g>
	<path d="M100,34.375c0-9.505-3.354-17.611-10.059-24.316S75.131,0,65.625,0H0v100h100V34.375z"/>
</g>
</g></g><g transform="translate(372,434) scale(0.31,0.31)"><g transform="" style="fill: rgb(68, 81, 83);">
<polygon points="100,100 0,50 0,50 100,0 "/>
</g></g><g transform="translate(403,434) scale(0.31,0.31)"><g transform="" style="fill: rgb(68, 81, 83);">
<rect width="100" height="100"/>
</g></g><g transform="translate(434,434) scale(0.31,0.31)"><g transform="" style="fill: rgb(68, 81, 83);">
<polygon points="0,100 100,50 100,50 0,0 "/>
</g></g><g transform="translate(527,434) scale(0.31,0.31)"><g transform="" style="fill: rgb(68, 81, 83);">
<polygon points="100,100 50,0 50,0 0,100 "/>
</g></g><g transform="translate(620,434) scale(0.31,0.31)"><g transform="" style="fill: rgb(68, 81, 83);">
<polygon points="99.999,49.999 99.998,49.999 49.999,0 0,49.999 -0.001,49.999 -0.001,50 0,50 49.999,99.999 99.998,50 99.999,50 
	99.998,50 "/>
</g></g><g transform="translate(682,434) scale(0.31,0.31)"><g transform="" style="fill: rgb(68, 81, 83);">
<polygon points="0,-0.001 50,99.999 50,99.999 100,-0.001 "/>
</g></g><g transform="translate(744,434) scale(0.31,0.31)"><g transform="" style="fill: rgb(68, 81, 83);">
<g>
	<path d="M100,34.375V0H34.375C24.87,0,16.764,3.353,10.059,10.059S0,24.87,0,34.375V100h100V34.375z"/>
</g>
</g></g><g transform="translate(775,434) scale(0.31,0.31)"><g transform="" style="fill: rgb(68, 81, 83);">
<g>
	<path d="M100,0H0v100h65.625c9.506,0,17.611-3.354,24.316-10.059S100,75.131,100,65.625V0z"/>
</g>
</g></g><g transform="translate(837,434) scale(0.31,0.31)"><g transform="" style="fill: rgb(68, 81, 83);">
<polygon points="100,100 50,0 50,0 0,100 "/>
</g></g><g transform="translate(899,434) scale(0.31,0.31)"><g transform="" style="fill: rgb(68, 81, 83);">
<g>
	<path d="M100,0H0v65.625c0,9.506,3.353,17.611,10.059,24.316S24.87,100,34.375,100H100V0z"/>
</g>
</g></g><g transform="translate(930,434) scale(0.31,0.31)"><g transform="" style="fill: rgb(68, 81, 83);">
<rect width="100" height="100"/>
</g></g><g transform="translate(961,434) scale(0.31,0.31)"><g transform="" style="fill: rgb(68, 81, 83);">
<rect width="100" height="100"/>
</g></g><g transform="translate(992,434) scale(0.31,0.31)"><g transform="" style="fill: rgb(68, 81, 83);">
<g>
	<path d="M100,0H0v100h65.625c9.506,0,17.611-3.354,24.316-10.059S100,75.131,100,65.625V0z"/>
</g>
</g></g><g transform="translate(31,465) scale(0.31,0.31)"><g transform="" style="fill: rgb(68, 81, 83);">
<polygon points="99.999,49.999 99.998,49.999 49.999,0 0,49.999 -0.001,49.999 -0.001,50 0,50 49.999,99.999 99.998,50 99.999,50 
	99.998,50 "/>
</g></g><g transform="translate(155,465) scale(0.31,0.31)"><g transform="" style="fill: rgb(68, 81, 83);">
<polygon points="0,-0.001 50,99.999 50,99.999 100,-0.001 "/>
</g></g><g transform="translate(310,465) scale(0.31,0.31)"><g transform="" style="fill: rgb(68, 81, 83);">
<g>
	<path d="M100,0H0v65.625c0,9.506,3.353,17.611,10.059,24.316S24.87,100,34.375,100H100V0z"/>
</g>
</g></g><g transform="translate(341,465) scale(0.31,0.31)"><g transform="" style="fill: rgb(68, 81, 83);">
<g>
	<path d="M100,34.375c0-9.505-3.354-17.611-10.059-24.316S75.131,0,65.625,0H0v100h100V34.375z"/>
</g>
</g></g><g transform="translate(403,465) scale(0.31,0.31)"><g transform="" style="fill: rgb(68, 81, 83);">
<rect width="100" height="100"/>
</g></g><g transform="translate(465,465) scale(0.31,0.31)"><g transform="" style="fill: rgb(68, 81, 83);">
<g>
	<path d="M100,34.375V0H34.375C24.87,0,16.764,3.353,10.059,10.059S0,24.87,0,34.375V100h100V34.375z"/>
</g>
</g></g><g transform="translate(496,465) scale(0.31,0.31)"><g transform="" style="fill: rgb(68, 81, 83);">
<rect width="100" height="100"/>
</g></g><g transform="translate(527,465) scale(0.31,0.31)"><g transform="" style="fill: rgb(68, 81, 83);">
<rect width="100" height="100"/>
</g></g><g transform="translate(558,465) scale(0.31,0.31)"><g transform="" style="fill: rgb(68, 81, 83);">
<rect width="100" height="100"/>
</g></g><g transform="translate(589,465) scale(0.31,0.31)"><g transform="" style="fill: rgb(68, 81, 83);">
<polygon points="0,100 100,50 100,50 0,0 "/>
</g></g><g transform="translate(651,465) scale(0.31,0.31)"><g transform="" style="fill: rgb(68, 81, 83);">
<polygon points="100,100 50,0 50,0 0,100 "/>
</g></g><g transform="translate(713,465) scale(0.31,0.31)"><g transform="" style="fill: rgb(68, 81, 83);">
<polygon points="100,100 0,50 0,50 100,0 "/>
</g></g><g transform="translate(744,465) scale(0.31,0.31)"><g transform="" style="fill: rgb(68, 81, 83);">
<g>
	<path d="M100,0H0v100h65.625c9.506,0,17.611-3.354,24.316-10.059S100,75.131,100,65.625V0z"/>
</g>
</g></g><g transform="translate(806,465) scale(0.31,0.31)"><g transform="" style="fill: rgb(68, 81, 83);">
<g>
	<path d="M100,34.375V0H34.375C24.87,0,16.764,3.353,10.059,10.059S0,24.87,0,34.375V100h100V34.375z"/>
</g>
</g></g><g transform="translate(837,465) scale(0.31,0.31)"><g transform="" style="fill: rgb(68, 81, 83);">
<g>
	<path d="M100,0H0v100h65.625c9.506,0,17.611-3.354,24.316-10.059S100,75.131,100,65.625V0z"/>
</g>
</g></g><g transform="translate(961,465) scale(0.31,0.31)"><g transform="" style="fill: rgb(68, 81, 83);">
<polygon points="0,-0.001 50,99.999 50,99.999 100,-0.001 "/>
</g></g><g transform="translate(0,496) scale(0.31,0.31)"><g transform="" style="fill: rgb(68, 81, 83);">
<polygon points="99.999,49.999 99.998,49.999 49.999,0 0,49.999 -0.001,49.999 -0.001,50 0,50 49.999,99.999 99.998,50 99.999,50 
	99.998,50 "/>
</g></g><g transform="translate(93,496) scale(0.31,0.31)"><g transform="" style="fill: rgb(68, 81, 83);">
<polygon points="99.999,49.999 99.998,49.999 49.999,0 0,49.999 -0.001,49.999 -0.001,50 0,50 49.999,99.999 99.998,50 99.999,50 
	99.998,50 "/>
</g></g><g transform="translate(186,496) scale(0.31,0.31)"><g transform="" style="fill: rgb(68, 81, 83);">
<polygon points="100,100 0,50 0,50 100,0 "/>
</g></g><g transform="translate(217,496) scale(0.31,0.31)"><g transform="" style="fill: rgb(68, 81, 83);">
<g>
	<path d="M100,34.375c0-9.505-3.354-17.611-10.059-24.316S75.131,0,65.625,0H0v100h100V34.375z"/>
</g>
</g></g><g transform="translate(341,496) scale(0.31,0.31)"><g transform="" style="fill: rgb(68, 81, 83);">
<g>
	<path d="M100,0H0v65.625c0,9.506,3.353,17.611,10.059,24.316S24.87,100,34.375,100H100V0z"/>
</g>
</g></g><g transform="translate(372,496) scale(0.31,0.31)"><g transform="" style="fill: rgb(68, 81, 83);">
<rect width="100" height="100"/>
</g></g><g transform="translate(403,496) scale(0.31,0.31)"><g transform="" style="fill: rgb(68, 81, 83);">
<rect width="100" height="100"/>
</g></g><g transform="translate(434,496) scale(0.31,0.31)"><g transform="" style="fill: rgb(68, 81, 83);">
<rect width="100" height="100"/>
</g></g><g transform="translate(465,496) scale(0.31,0.31)"><g transform="" style="fill: rgb(68, 81, 83);">
<g>
	<path d="M100,0H0v100h65.625c9.506,0,17.611-3.354,24.316-10.059S100,75.131,100,65.625V0z"/>
</g>
</g></g><g transform="translate(527,496) scale(0.31,0.31)"><g transform="" style="fill: rgb(68, 81, 83);">
<rect width="100" height="100"/>
</g></g><g transform="translate(620,496) scale(0.31,0.31)"><g transform="" style="fill: rgb(68, 81, 83);">
<g>
	<path d="M100,34.375V0H34.375C24.87,0,16.764,3.353,10.059,10.059S0,24.87,0,34.375V100h100V34.375z"/>
</g>
</g></g><g transform="translate(651,496) scale(0.31,0.31)"><g transform="" style="fill: rgb(68, 81, 83);">
<rect width="100" height="100"/>
</g></g><g transform="translate(775,496) scale(0.31,0.31)"><g transform="" style="fill: rgb(68, 81, 83);">
<g>
	<path d="M100,34.375V0H34.375C24.87,0,16.764,3.353,10.059,10.059S0,24.87,0,34.375V100h100V34.375z"/>
</g>
</g></g><g transform="translate(806,496) scale(0.31,0.31)"><g transform="" style="fill: rgb(68, 81, 83);">
<rect width="100" height="100"/>
</g></g><g transform="translate(899,496) scale(0.31,0.31)"><g transform="" style="fill: rgb(68, 81, 83);">
<polygon points="99.999,49.999 99.998,49.999 49.999,0 0,49.999 -0.001,49.999 -0.001,50 0,50 49.999,99.999 99.998,50 99.999,50 
	99.998,50 "/>
</g></g><g transform="translate(62,527) scale(0.31,0.31)"><g transform="" style="fill: rgb(68, 81, 83);">
<polygon points="99.999,49.999 99.998,49.999 49.999,0 0,49.999 -0.001,49.999 -0.001,50 0,50 49.999,99.999 99.998,50 99.999,50 
	99.998,50 "/>
</g></g><g transform="translate(124,527) scale(0.31,0.31)"><g transform="" style="fill: rgb(68, 81, 83);">
<polygon points="100,100 50,0 50,0 0,100 "/>
</g></g><g transform="translate(217,527) scale(0.31,0.31)"><g transform="" style="fill: rgb(68, 81, 83);">
<rect width="100" height="100"/>
</g></g><g transform="translate(372,527) scale(0.31,0.31)"><g transform="" style="fill: rgb(68, 81, 83);">
<polygon points="0,-0.001 50,99.999 50,99.999 100,-0.001 "/>
</g></g><g transform="translate(434,527) scale(0.31,0.31)"><g transform="" style="fill: rgb(68, 81, 83);">
<rect width="100" height="100"/>
</g></g><g transform="translate(496,527) scale(0.31,0.31)"><g transform="" style="fill: rgb(68, 81, 83);">
<polygon points="100,100 0,50 0,50 100,0 "/>
</g></g><g transform="translate(527,527) scale(0.31,0.31)"><g transform="" style="fill: rgb(68, 81, 83);">
<rect width="100" height="100"/>
</g></g><g transform="translate(620,527) scale(0.31,0.31)"><g transform="" style="fill: rgb(68, 81, 83);">
<rect width="100" height="100"/>
</g></g><g transform="translate(651,527) scale(0.31,0.31)"><g transform="" style="fill: rgb(68, 81, 83);">
<rect width="100" height="100"/>
</g></g><g transform="translate(682,527) scale(0.31,0.31)"><g transform="" style="fill: rgb(68, 81, 83);">
<g>
	<path d="M100,34.375c0-9.505-3.354-17.611-10.059-24.316S75.131,0,65.625,0H0v100h100V34.375z"/>
</g>
</g></g><g transform="translate(744,527) scale(0.31,0.31)"><g transform="" style="fill: rgb(68, 81, 83);">
<g>
	<path d="M100,34.375V0H34.375C24.87,0,16.764,3.353,10.059,10.059S0,24.87,0,34.375V100h100V34.375z"/>
</g>
</g></g><g transform="translate(775,527) scale(0.31,0.31)"><g transform="" style="fill: rgb(68, 81, 83);">
<rect width="100" height="100"/>
</g></g><g transform="translate(806,527) scale(0.31,0.31)"><g transform="" style="fill: rgb(68, 81, 83);">
<rect width="100" height="100"/>
</g></g><g transform="translate(837,527) scale(0.31,0.31)"><g transform="" style="fill: rgb(68, 81, 83);">
<polygon points="0,100 100,50 100,50 0,0 "/>
</g></g><g transform="translate(961,527) scale(0.31,0.31)"><g transform="" style="fill: rgb(68, 81, 83);">
<g>
	<path d="M100,34.375V0H34.375C24.87,0,16.764,3.353,10.059,10.059S0,24.87,0,34.375V100h100V34.375z"/>
</g>
</g></g><g transform="translate(992,527) scale(0.31,0.31)"><g transform="" style="fill: rgb(68, 81, 83);">
<g>
	<path d="M100,34.375c0-9.505-3.354-17.611-10.059-24.316S75.131,0,65.625,0H0v100h100V34.375z"/>
</g>
</g></g><g transform="translate(0,558) scale(0.31,0.31)"><g transform="" style="fill: rgb(68, 81, 83);">
<polygon points="100,100 50,0 50,0 0,100 "/>
</g></g><g transform="translate(93,558) scale(0.31,0.31)"><g transform="" style="fill: rgb(68, 81, 83);">
<polygon points="100,100 0,50 0,50 100,0 "/>
</g></g><g transform="translate(124,558) scale(0.31,0.31)"><g transform="" style="fill: rgb(68, 81, 83);">
<rect width="100" height="100"/>
</g></g><g transform="translate(155,558) scale(0.31,0.31)"><g transform="" style="fill: rgb(68, 81, 83);">
<rect width="100" height="100"/>
</g></g><g transform="translate(186,558) scale(0.31,0.31)"><g transform="" style="fill: rgb(68, 81, 83);">
<rect width="100" height="100"/>
</g></g><g transform="translate(217,558) scale(0.31,0.31)"><g transform="" style="fill: rgb(68, 81, 83);">
<g>
	<path d="M100,0H0v100h65.625c9.506,0,17.611-3.354,24.316-10.059S100,75.131,100,65.625V0z"/>
</g>
</g></g><g transform="translate(279,558) scale(0.31,0.31)"><g transform="" style="fill: rgb(68, 81, 83);">
<polygon points="100,100 50,0 50,0 0,100 "/>
</g></g><g transform="translate(341,558) scale(0.31,0.31)"><g transform="" style="fill: rgb(68, 81, 83);">
<polygon points="99.999,49.999 99.998,49.999 49.999,0 0,49.999 -0.001,49.999 -0.001,50 0,50 49.999,99.999 99.998,50 99.999,50 
	99.998,50 "/>
</g></g><g transform="translate(434,558) scale(0.31,0.31)"><g transform="" style="fill: rgb(68, 81, 83);">
<rect width="100" height="100"/>
</g></g><g transform="translate(527,558) scale(0.31,0.31)"><g transform="" style="fill: rgb(68, 81, 83);">
<rect width="100" height="100"/>
</g></g><g transform="translate(558,558) scale(0.31,0.31)"><g transform="" style="fill: rgb(68, 81, 83);">
<polygon points="0,100 100,50 100,50 0,0 "/>
</g></g><g transform="translate(620,558) scale(0.31,0.31)"><g transform="" style="fill: rgb(68, 81, 83);">
<rect width="100" height="100"/>
</g></g><g transform="translate(682,558) scale(0.31,0.31)"><g transform="" style="fill: rgb(68, 81, 83);">
<rect width="100" height="100"/>
</g></g><g transform="translate(744,558) scale(0.31,0.31)"><g transform="" style="fill: rgb(68, 81, 83);">
<polygon points="0,-0.001 50,99.999 50,99.999 100,-0.001 "/>
</g></g><g transform="translate(930,558) scale(0.31,0.31)"><g transform="" style="fill: rgb(68, 81, 83);">
<polygon points="100,100 0,50 0,50 100,0 "/>
</g></g><g transform="translate(961,558) scale(0.31,0.31)"><g transform="" style="fill: rgb(68, 81, 83);">
<rect width="100" height="100"/>
</g></g><g transform="translate(992,558) scale(0.31,0.31)"><g transform="" style="fill: rgb(68, 81, 83);">
<g>
	<path d="M100,0H0v100h65.625c9.506,0,17.611-3.354,24.316-10.059S100,75.131,100,65.625V0z"/>
</g>
</g></g><g transform="translate(0,589) scale(0.31,0.31)"><g transform="" style="fill: rgb(68, 81, 83);">
<g>
	<path d="M100,0H0v65.625c0,9.506,3.353,17.611,10.059,24.316S24.87,100,34.375,100H100V0z"/>
</g>
</g></g><g transform="translate(31,589) scale(0.31,0.31)"><g transform="" style="fill: rgb(68, 81, 83);">
<g>
	<path d="M100,34.375c0-9.505-3.354-17.611-10.059-24.316S75.131,0,65.625,0H0v100h100V34.375z"/>
</g>
</g></g><g transform="translate(279,589) scale(0.31,0.31)"><g transform="" style="fill: rgb(68, 81, 83);">
<rect width="100" height="100"/>
</g></g><g transform="translate(403,589) scale(0.31,0.31)"><g transform="" style="fill: rgb(68, 81, 83);">
<g>
	<path d="M100,34.375V0H34.375C24.87,0,16.764,3.353,10.059,10.059S0,24.87,0,34.375V100h100V34.375z"/>
</g>
</g></g><g transform="translate(434,589) scale(0.31,0.31)"><g transform="" style="fill: rgb(68, 81, 83);">
<rect width="100" height="100"/>
</g></g><g transform="translate(465,589) scale(0.31,0.31)"><g transform="" style="fill: rgb(68, 81, 83);">
<polygon points="0,100 100,50 100,50 0,0 "/>
</g></g><g transform="translate(527,589) scale(0.31,0.31)"><g transform="" style="fill: rgb(68, 81, 83);">
<rect width="100" height="100"/>
</g></g><g transform="translate(620,589) scale(0.31,0.31)"><g transform="" style="fill: rgb(68, 81, 83);">
<g>
	<path d="M100,0H0v65.625c0,9.506,3.353,17.611,10.059,24.316S24.87,100,34.375,100H100V0z"/>
</g>
</g></g><g transform="translate(651,589) scale(0.31,0.31)"><g transform="" style="fill: rgb(68, 81, 83);">
<rect width="100" height="100"/>
</g></g><g transform="translate(682,589) scale(0.31,0.31)"><g transform="" style="fill: rgb(68, 81, 83);">
<rect width="100" height="100"/>
</g></g><g transform="translate(713,589) scale(0.31,0.31)"><g transform="" style="fill: rgb(68, 81, 83);">
<polygon points="0,100 100,50 100,50 0,0 "/>
</g></g><g transform="translate(837,589) scale(0.31,0.31)"><g transform="" style="fill: rgb(68, 81, 83);">
<polygon points="100,100 0,50 0,50 100,0 "/>
</g></g><g transform="translate(868,589) scale(0.31,0.31)"><g transform="" style="fill: rgb(68, 81, 83);">
<polygon points="0,100 100,50 100,50 0,0 "/>
</g></g><g transform="translate(31,620) scale(0.31,0.31)"><g transform="" style="fill: rgb(68, 81, 83);">
<polygon points="0,-0.001 50,99.999 50,99.999 100,-0.001 "/>
</g></g><g transform="translate(124,620) scale(0.31,0.31)"><g transform="" style="fill: rgb(68, 81, 83);">
<polygon points="100,100 0,50 0,50 100,0 "/>
</g></g><g transform="translate(155,620) scale(0.31,0.31)"><g transform="" style="fill: rgb(68, 81, 83);">
<rect width="100" height="100"/>
</g></g><g transform="translate(186,620) scale(0.31,0.31)"><g transform="" style="fill: rgb(68, 81, 83);">
<polygon points="0,100 100,50 100,50 0,0 "/>
</g></g><g transform="translate(279,620) scale(0.31,0.31)"><g transform="" style="fill: rgb(68, 81, 83);">
<g>
	<path d="M100,0H0v65.625c0,9.506,3.353,17.611,10.059,24.316S24.87,100,34.375,100H100V0z"/>
</g>
</g></g><g transform="translate(310,620) scale(0.31,0.31)"><g transform="" style="fill: rgb(68, 81, 83);">
<rect width="100" height="100"/>
</g></g><g transform="translate(341,620) scale(0.31,0.31)"><g transform="" style="fill: rgb(68, 81, 83);">
<rect width="100" height="100"/>
</g></g><g transform="translate(372,620) scale(0.31,0.31)"><g transform="" style="fill: rgb(68, 81, 83);">
<rect width="100" height="100"/>
</g></g><g transform="translate(403,620) scale(0.31,0.31)"><g transform="" style="fill: rgb(68, 81, 83);">
<g>
	<path d="M100,0H0v100h65.625c9.506,0,17.611-3.354,24.316-10.059S100,75.131,100,65.625V0z"/>
</g>
</g></g><g transform="translate(527,620) scale(0.31,0.31)"><g transform="" style="fill: rgb(68, 81, 83);">
<rect width="100" height="100"/>
</g></g><g transform="translate(558,620) scale(0.31,0.31)"><g transform="" style="fill: rgb(68, 81, 83);">
<rect width="100" height="100"/>
</g></g><g transform="translate(589,620) scale(0.31,0.31)"><g transform="" style="fill: rgb(68, 81, 83);">
<polygon points="0,100 100,50 100,50 0,0 "/>
</g></g><g transform="translate(651,620) scale(0.31,0.31)"><g transform="" style="fill: rgb(68, 81, 83);">
<rect width="100" height="100"/>
</g></g><g transform="translate(682,620) scale(0.31,0.31)"><g transform="" style="fill: rgb(68, 81, 83);">
<rect width="100" height="100"/>
</g></g><g transform="translate(775,620) scale(0.31,0.31)"><g transform="" style="fill: rgb(68, 81, 83);">
<g>
	<path d="M100,34.375V0H34.375C24.87,0,16.764,3.353,10.059,10.059S0,24.87,0,34.375V100h100V34.375z"/>
</g>
</g></g><g transform="translate(806,620) scale(0.31,0.31)"><g transform="" style="fill: rgb(68, 81, 83);">
<g>
	<path d="M100,34.375c0-9.505-3.354-17.611-10.059-24.316S75.131,0,65.625,0H0v100h100V34.375z"/>
</g>
</g></g><g transform="translate(899,620) scale(0.31,0.31)"><g transform="" style="fill: rgb(68, 81, 83);">
<polygon points="100,100 50,0 50,0 0,100 "/>
</g></g><g transform="translate(992,620) scale(0.31,0.31)"><g transform="" style="fill: rgb(68, 81, 83);">
<polygon points="100,100 50,0 50,0 0,100 "/>
</g></g><g transform="translate(62,651) scale(0.31,0.31)"><g transform="" style="fill: rgb(68, 81, 83);">
<polygon points="100,100 0,50 0,50 100,0 "/>
</g></g><g transform="translate(93,651) scale(0.31,0.31)"><g transform="" style="fill: rgb(68, 81, 83);">
<polygon points="0,100 100,50 100,50 0,0 "/>
</g></g><g transform="translate(217,651) scale(0.31,0.31)"><g transform="" style="fill: rgb(68, 81, 83);">
<polygon points="100,100 0,50 0,50 100,0 "/>
</g></g><g transform="translate(248,651) scale(0.31,0.31)"><g transform="" style="fill: rgb(68, 81, 83);">
<polygon points="0,100 100,50 100,50 0,0 "/>
</g></g><g transform="translate(372,651) scale(0.31,0.31)"><g transform="" style="fill: rgb(68, 81, 83);">
<rect width="100" height="100"/>
</g></g><g transform="translate(434,651) scale(0.31,0.31)"><g transform="" style="fill: rgb(68, 81, 83);">
<polygon points="100,100 50,0 50,0 0,100 "/>
</g></g><g transform="translate(527,651) scale(0.31,0.31)"><g transform="" style="fill: rgb(68, 81, 83);">
<g>
	<path d="M100,0H0v65.625c0,9.506,3.353,17.611,10.059,24.316S24.87,100,34.375,100H100V0z"/>
</g>
</g></g><g transform="translate(558,651) scale(0.31,0.31)"><g transform="" style="fill: rgb(68, 81, 83);">
<rect width="100" height="100"/>
</g></g><g transform="translate(651,651) scale(0.31,0.31)"><g transform="" style="fill: rgb(68, 81, 83);">
<g>
	<path d="M100,0H0v65.625c0,9.506,3.353,17.611,10.059,24.316S24.87,100,34.375,100H100V0z"/>
</g>
</g></g><g transform="translate(682,651) scale(0.31,0.31)"><g transform="" style="fill: rgb(68, 81, 83);">
<rect width="100" height="100"/>
</g></g><g transform="translate(744,651) scale(0.31,0.31)"><g transform="" style="fill: rgb(68, 81, 83);">
<g>
	<path d="M100,34.375V0H34.375C24.87,0,16.764,3.353,10.059,10.059S0,24.87,0,34.375V100h100V34.375z"/>
</g>
</g></g><g transform="translate(775,651) scale(0.31,0.31)"><g transform="" style="fill: rgb(68, 81, 83);">
<rect width="100" height="100"/>
</g></g><g transform="translate(806,651) scale(0.31,0.31)"><g transform="" style="fill: rgb(68, 81, 83);">
<rect width="100" height="100"/>
</g></g><g transform="translate(899,651) scale(0.31,0.31)"><g transform="" style="fill: rgb(68, 81, 83);">
<rect width="100" height="100"/>
</g></g><g transform="translate(961,651) scale(0.31,0.31)"><g transform="" style="fill: rgb(68, 81, 83);">
<g>
	<path d="M100,34.375V0H34.375C24.87,0,16.764,3.353,10.059,10.059S0,24.87,0,34.375V100h100V34.375z"/>
</g>
</g></g><g transform="translate(992,651) scale(0.31,0.31)"><g transform="" style="fill: rgb(68, 81, 83);">
<rect width="100" height="100"/>
</g></g><g transform="translate(0,682) scale(0.31,0.31)"><g transform="" style="fill: rgb(68, 81, 83);">
<polygon points="99.999,49.999 99.998,49.999 49.999,0 0,49.999 -0.001,49.999 -0.001,50 0,50 49.999,99.999 99.998,50 99.999,50 
	99.998,50 "/>
</g></g><g transform="translate(124,682) scale(0.31,0.31)"><g transform="" style="fill: rgb(68, 81, 83);">
<polygon points="100,100 50,0 50,0 0,100 "/>
</g></g><g transform="translate(186,682) scale(0.31,0.31)"><g transform="" style="fill: rgb(68, 81, 83);">
<polygon points="99.999,49.999 99.998,49.999 49.999,0 0,49.999 -0.001,49.999 -0.001,50 0,50 49.999,99.999 99.998,50 99.999,50 
	99.998,50 "/>
</g></g><g transform="translate(341,682) scale(0.31,0.31)"><g transform="" style="fill: rgb(68, 81, 83);">
<g>
	<path d="M100,34.375V0H34.375C24.87,0,16.764,3.353,10.059,10.059S0,24.87,0,34.375V100h100V34.375z"/>
</g>
</g></g><g transform="translate(372,682) scale(0.31,0.31)"><g transform="" style="fill: rgb(68, 81, 83);">
<rect width="100" height="100"/>
</g></g><g transform="translate(403,682) scale(0.31,0.31)"><g transform="" style="fill: rgb(68, 81, 83);">
<rect width="100" height="100"/>
</g></g><g transform="translate(434,682) scale(0.31,0.31)"><g transform="" style="fill: rgb(68, 81, 83);">
<g>
	<path d="M100,0H0v100h65.625c9.506,0,17.611-3.354,24.316-10.059S100,75.131,100,65.625V0z"/>
</g>
</g></g><g transform="translate(496,682) scale(0.31,0.31)"><g transform="" style="fill: rgb(68, 81, 83);">
<polygon points="100,100 50,0 50,0 0,100 "/>
</g></g><g transform="translate(558,682) scale(0.31,0.31)"><g transform="" style="fill: rgb(68, 81, 83);">
<rect width="100" height="100"/>
</g></g><g transform="translate(620,682) scale(0.31,0.31)"><g transform="" style="fill: rgb(68, 81, 83);">
<polygon points="99.999,49.999 99.998,49.999 49.999,0 0,49.999 -0.001,49.999 -0.001,50 0,50 49.999,99.999 99.998,50 99.999,50 
	99.998,50 "/>
</g></g><g transform="translate(682,682) scale(0.31,0.31)"><g transform="" style="fill: rgb(68, 81, 83);">
<polygon points="0,-0.001 50,99.999 50,99.999 100,-0.001 "/>
</g></g><g transform="translate(744,682) scale(0.31,0.31)"><g transform="" style="fill: rgb(68, 81, 83);">
<rect width="100" height="100"/>
</g></g><g transform="translate(806,682) scale(0.31,0.31)"><g transform="" style="fill: rgb(68, 81, 83);">
<g>
	<path d="M100,0H0v65.625c0,9.506,3.353,17.611,10.059,24.316S24.87,100,34.375,100H100V0z"/>
</g>
</g></g><g transform="translate(837,682) scale(0.31,0.31)"><g transform="" style="fill: rgb(68, 81, 83);">
<rect width="100" height="100"/>
</g></g><g transform="translate(868,682) scale(0.31,0.31)"><g transform="" style="fill: rgb(68, 81, 83);">
<rect width="100" height="100"/>
</g></g><g transform="translate(899,682) scale(0.31,0.31)"><g transform="" style="fill: rgb(68, 81, 83);">
<g>
	<path d="M100,0H0v100h65.625c9.506,0,17.611-3.354,24.316-10.059S100,75.131,100,65.625V0z"/>
</g>
</g></g><g transform="translate(961,682) scale(0.31,0.31)"><g transform="" style="fill: rgb(68, 81, 83);">
<g>
	<path d="M100,0H0v65.625c0,9.506,3.353,17.611,10.059,24.316S24.87,100,34.375,100H100V0z"/>
</g>
</g></g><g transform="translate(992,682) scale(0.31,0.31)"><g transform="" style="fill: rgb(68, 81, 83);">
<g>
	<path d="M100,0H0v100h65.625c9.506,0,17.611-3.354,24.316-10.059S100,75.131,100,65.625V0z"/>
</g>
</g></g><g transform="translate(31,713) scale(0.31,0.31)"><g transform="" style="fill: rgb(68, 81, 83);">
<polygon points="99.999,49.999 99.998,49.999 49.999,0 0,49.999 -0.001,49.999 -0.001,50 0,50 49.999,99.999 99.998,50 99.999,50 
	99.998,50 "/>
</g></g><g transform="translate(124,713) scale(0.31,0.31)"><g transform="" style="fill: rgb(68, 81, 83);">
<rect width="100" height="100"/>
</g></g><g transform="translate(217,713) scale(0.31,0.31)"><g transform="" style="fill: rgb(68, 81, 83);">
<g>
	<path d="M100,34.375V0H34.375C24.87,0,16.764,3.353,10.059,10.059S0,24.87,0,34.375V100h100V34.375z"/>
</g>
</g></g><g transform="translate(248,713) scale(0.31,0.31)"><g transform="" style="fill: rgb(68, 81, 83);">
<rect width="100" height="100"/>
</g></g><g transform="translate(279,713) scale(0.31,0.31)"><g transform="" style="fill: rgb(68, 81, 83);">
<g>
	<path d="M100,34.375c0-9.505-3.354-17.611-10.059-24.316S75.131,0,65.625,0H0v100h100V34.375z"/>
</g>
</g></g><g transform="translate(341,713) scale(0.31,0.31)"><g transform="" style="fill: rgb(68, 81, 83);">
<rect width="100" height="100"/>
</g></g><g transform="translate(372,713) scale(0.31,0.31)"><g transform="" style="fill: rgb(68, 81, 83);">
<rect width="100" height="100"/>
</g></g><g transform="translate(403,713) scale(0.31,0.31)"><g transform="" style="fill: rgb(68, 81, 83);">
<g>
	<path d="M100,0H0v100h65.625c9.506,0,17.611-3.354,24.316-10.059S100,75.131,100,65.625V0z"/>
</g>
</g></g><g transform="translate(465,713) scale(0.31,0.31)"><g transform="" style="fill: rgb(68, 81, 83);">
<g>
	<path d="M100,34.375V0H34.375C24.87,0,16.764,3.353,10.059,10.059S0,24.87,0,34.375V100h100V34.375z"/>
</g>
</g></g><g transform="translate(496,713) scale(0.31,0.31)"><g transform="" style="fill: rgb(68, 81, 83);">
<rect width="100" height="100"/>
</g></g><g transform="translate(527,713) scale(0.31,0.31)"><g transform="" style="fill: rgb(68, 81, 83);">
<rect width="100" height="100"/>
</g></g><g transform="translate(558,713) scale(0.31,0.31)"><g transform="" style="fill: rgb(68, 81, 83);">
<rect width="100" height="100"/>
</g></g><g transform="translate(589,713) scale(0.31,0.31)"><g transform="" style="fill: rgb(68, 81, 83);">
<polygon points="0,100 100,50 100,50 0,0 "/>
</g></g><g transform="translate(651,713) scale(0.31,0.31)"><g transform="" style="fill: rgb(68, 81, 83);">
<polygon points="100,100 50,0 50,0 0,100 "/>
</g></g><g transform="translate(744,713) scale(0.31,0.31)"><g transform="" style="fill: rgb(68, 81, 83);">
<rect width="100" height="100"/>
</g></g><g transform="translate(868,713) scale(0.31,0.31)"><g transform="" style="fill: rgb(68, 81, 83);">
<rect width="100" height="100"/>
</g></g><g transform="translate(0,744) scale(0.31,0.31)"><g transform="" style="fill: rgb(68, 81, 83);">
<polygon points="99.999,49.999 99.998,49.999 49.999,0 0,49.999 -0.001,49.999 -0.001,50 0,50 49.999,99.999 99.998,50 99.999,50 
	99.998,50 "/>
</g></g><g transform="translate(93,744) scale(0.31,0.31)"><g transform="" style="fill: rgb(68, 81, 83);">
<polygon points="100,100 0,50 0,50 100,0 "/>
</g></g><g transform="translate(124,744) scale(0.31,0.31)"><g transform="" style="fill: rgb(68, 81, 83);">
<g>
	<path d="M100,0H0v100h65.625c9.506,0,17.611-3.354,24.316-10.059S100,75.131,100,65.625V0z"/>
</g>
</g></g><g transform="translate(186,744) scale(0.31,0.31)"><g transform="" style="fill: rgb(68, 81, 83);">
<polygon points="100,100 0,50 0,50 100,0 "/>
</g></g><g transform="translate(217,744) scale(0.31,0.31)"><g transform="" style="fill: rgb(68, 81, 83);">
<rect width="100" height="100"/>
</g></g><g transform="translate(248,744) scale(0.31,0.31)"><g transform="" style="fill: rgb(68, 81, 83);">
<rect width="100" height="100"/>
</g></g><g transform="translate(279,744) scale(0.31,0.31)"><g transform="" style="fill: rgb(68, 81, 83);">
<rect width="100" height="100"/>
</g></g><g transform="translate(310,744) scale(0.31,0.31)"><g transform="" style="fill: rgb(68, 81, 83);">
<rect width="100" height="100"/>
</g></g><g transform="translate(341,744) scale(0.31,0.31)"><g transform="" style="fill: rgb(68, 81, 83);">
<rect width="100" height="100"/>
</g></g><g transform="translate(372,744) scale(0.31,0.31)"><g transform="" style="fill: rgb(68, 81, 83);">
<g>
	<path d="M100,0H0v100h65.625c9.506,0,17.611-3.354,24.316-10.059S100,75.131,100,65.625V0z"/>
</g>
</g></g><g transform="translate(434,744) scale(0.31,0.31)"><g transform="" style="fill: rgb(68, 81, 83);">
<polygon points="100,100 0,50 0,50 100,0 "/>
</g></g><g transform="translate(465,744) scale(0.31,0.31)"><g transform="" style="fill: rgb(68, 81, 83);">
<rect width="100" height="100"/>
</g></g><g transform="translate(496,744) scale(0.31,0.31)"><g transform="" style="fill: rgb(68, 81, 83);">
<rect width="100" height="100"/>
</g></g><g transform="translate(527,744) scale(0.31,0.31)"><g transform="" style="fill: rgb(68, 81, 83);">
<rect width="100" height="100"/>
</g></g><g transform="translate(620,744) scale(0.31,0.31)"><g transform="" style="fill: rgb(68, 81, 83);">
<polygon points="100,100 0,50 0,50 100,0 "/>
</g></g><g transform="translate(651,744) scale(0.31,0.31)"><g transform="" style="fill: rgb(68, 81, 83);">
<rect width="100" height="100"/>
</g></g><g transform="translate(713,744) scale(0.31,0.31)"><g transform="" style="fill: rgb(68, 81, 83);">
<polygon points="100,100 0,50 0,50 100,0 "/>
</g></g><g transform="translate(744,744) scale(0.31,0.31)"><g transform="" style="fill: rgb(68, 81, 83);">
<rect width="100" height="100"/>
</g></g><g transform="translate(775,744) scale(0.31,0.31)"><g transform="" style="fill: rgb(68, 81, 83);">
<rect width="100" height="100"/>
</g></g><g transform="translate(806,744) scale(0.31,0.31)"><g transform="" style="fill: rgb(68, 81, 83);">
<rect width="100" height="100"/>
</g></g><g transform="translate(837,744) scale(0.31,0.31)"><g transform="" style="fill: rgb(68, 81, 83);">
<rect width="100" height="100"/>
</g></g><g transform="translate(868,744) scale(0.31,0.31)"><g transform="" style="fill: rgb(68, 81, 83);">
<rect width="100" height="100"/>
</g></g><g transform="translate(899,744) scale(0.31,0.31)"><g transform="" style="fill: rgb(68, 81, 83);">
<g>
	<path d="M100,34.375c0-9.505-3.354-17.611-10.059-24.316S75.131,0,65.625,0H0v100h100V34.375z"/>
</g>
</g></g><g transform="translate(961,744) scale(0.31,0.31)"><g transform="" style="fill: rgb(68, 81, 83);">
<polygon points="100,100 50,0 50,0 0,100 "/>
</g></g><g transform="translate(248,775) scale(0.31,0.31)"><g transform="" style="fill: rgb(68, 81, 83);">
<g>
	<path d="M100,0H0v65.625c0,9.506,3.353,17.611,10.059,24.316S24.87,100,34.375,100H100V0z"/>
</g>
</g></g><g transform="translate(279,775) scale(0.31,0.31)"><g transform="" style="fill: rgb(68, 81, 83);">
<rect width="100" height="100"/>
</g></g><g transform="translate(496,775) scale(0.31,0.31)"><g transform="" style="fill: rgb(68, 81, 83);">
<g>
	<path d="M100,0H0v65.625c0,9.506,3.353,17.611,10.059,24.316S24.87,100,34.375,100H100V0z"/>
</g>
</g></g><g transform="translate(527,775) scale(0.31,0.31)"><g transform="" style="fill: rgb(68, 81, 83);">
<rect width="100" height="100"/>
</g></g><g transform="translate(558,775) scale(0.31,0.31)"><g transform="" style="fill: rgb(68, 81, 83);">
<polygon points="0,100 100,50 100,50 0,0 "/>
</g></g><g transform="translate(651,775) scale(0.31,0.31)"><g transform="" style="fill: rgb(68, 81, 83);">
<rect width="100" height="100"/>
</g></g><g transform="translate(744,775) scale(0.31,0.31)"><g transform="" style="fill: rgb(68, 81, 83);">
<rect width="100" height="100"/>
</g></g><g transform="translate(868,775) scale(0.31,0.31)"><g transform="" style="fill: rgb(68, 81, 83);">
<rect width="100" height="100"/>
</g></g><g transform="translate(899,775) scale(0.31,0.31)"><g transform="" style="fill: rgb(68, 81, 83);">
<g>
	<path d="M100,0H0v100h65.625c9.506,0,17.611-3.354,24.316-10.059S100,75.131,100,65.625V0z"/>
</g>
</g></g><g transform="translate(961,775) scale(0.31,0.31)"><g transform="" style="fill: rgb(68, 81, 83);">
<rect width="100" height="100"/>
</g></g><g transform="translate(992,775) scale(0.31,0.31)"><g transform="" style="fill: rgb(68, 81, 83);">
<g>
	<path d="M100,34.375c0-9.505-3.354-17.611-10.059-24.316S75.131,0,65.625,0H0v100h100V34.375z"/>
</g>
</g></g><g transform="translate(279,806) scale(0.31,0.31)"><g transform="" style="fill: rgb(68, 81, 83);">
<g>
	<path d="M100,0H0v65.625c0,9.506,3.353,17.611,10.059,24.316S24.87,100,34.375,100H100V0z"/>
</g>
</g></g><g transform="translate(310,806) scale(0.31,0.31)"><g transform="" style="fill: rgb(68, 81, 83);">
<polygon points="0,100 100,50 100,50 0,0 "/>
</g></g><g transform="translate(403,806) scale(0.31,0.31)"><g transform="" style="fill: rgb(68, 81, 83);">
<g>
	<path d="M100,34.375V0H34.375C24.87,0,16.764,3.353,10.059,10.059S0,24.87,0,34.375V100h100V34.375z"/>
</g>
</g></g><g transform="translate(434,806) scale(0.31,0.31)"><g transform="" style="fill: rgb(68, 81, 83);">
<polygon points="0,100 100,50 100,50 0,0 "/>
</g></g><g transform="translate(651,806) scale(0.31,0.31)"><g transform="" style="fill: rgb(68, 81, 83);">
<rect width="100" height="100"/>
</g></g><g transform="translate(713,806) scale(0.31,0.31)"><g transform="" style="fill: rgb(68, 81, 83);">
<polygon points="100,100 0,50 0,50 100,0 "/>
</g></g><g transform="translate(744,806) scale(0.31,0.31)"><g transform="" style="fill: rgb(68, 81, 83);">
<rect width="100" height="100"/>
</g></g><g transform="translate(806,806) scale(0.31,0.31)"><g transform="" style="fill: rgb(68, 81, 83);">
<polygon points="99.999,49.999 99.998,49.999 49.999,0 0,49.999 -0.001,49.999 -0.001,50 0,50 49.999,99.999 99.998,50 99.999,50 
	99.998,50 "/>
</g></g><g transform="translate(868,806) scale(0.31,0.31)"><g transform="" style="fill: rgb(68, 81, 83);">
<rect width="100" height="100"/>
</g></g><g transform="translate(930,806) scale(0.31,0.31)"><g transform="" style="fill: rgb(68, 81, 83);">
<polygon points="100,100 0,50 0,50 100,0 "/>
</g></g><g transform="translate(961,806) scale(0.31,0.31)"><g transform="" style="fill: rgb(68, 81, 83);">
<rect width="100" height="100"/>
</g></g><g transform="translate(992,806) scale(0.31,0.31)"><g transform="" style="fill: rgb(68, 81, 83);">
<rect width="100" height="100"/>
</g></g><g transform="translate(341,837) scale(0.31,0.31)"><g transform="" style="fill: rgb(68, 81, 83);">
<polygon points="100,100 50,0 50,0 0,100 "/>
</g></g><g transform="translate(403,837) scale(0.31,0.31)"><g transform="" style="fill: rgb(68, 81, 83);">
<polygon points="0,-0.001 50,99.999 50,99.999 100,-0.001 "/>
</g></g><g transform="translate(496,837) scale(0.31,0.31)"><g transform="" style="fill: rgb(68, 81, 83);">
<g>
	<path d="M100,34.375V0H34.375C24.87,0,16.764,3.353,10.059,10.059S0,24.87,0,34.375V100h100V34.375z"/>
</g>
</g></g><g transform="translate(527,837) scale(0.31,0.31)"><g transform="" style="fill: rgb(68, 81, 83);">
<g>
	<path d="M100,34.375c0-9.505-3.354-17.611-10.059-24.316S75.131,0,65.625,0H0v100h100V34.375z"/>
</g>
</g></g><g transform="translate(589,837) scale(0.31,0.31)"><g transform="" style="fill: rgb(68, 81, 83);">
<polygon points="100,100 0,50 0,50 100,0 "/>
</g></g><g transform="translate(620,837) scale(0.31,0.31)"><g transform="" style="fill: rgb(68, 81, 83);">
<rect width="100" height="100"/>
</g></g><g transform="translate(651,837) scale(0.31,0.31)"><g transform="" style="fill: rgb(68, 81, 83);">
<rect width="100" height="100"/>
</g></g><g transform="translate(744,837) scale(0.31,0.31)"><g transform="" style="fill: rgb(68, 81, 83);">
<rect width="100" height="100"/>
</g></g><g transform="translate(868,837) scale(0.31,0.31)"><g transform="" style="fill: rgb(68, 81, 83);">
<rect width="100" height="100"/>
</g></g><g transform="translate(992,837) scale(0.31,0.31)"><g transform="" style="fill: rgb(68, 81, 83);">
<rect width="100" height="100"/>
</g></g><g transform="translate(248,868) scale(0.31,0.31)"><g transform="" style="fill: rgb(68, 81, 83);">
<polygon points="99.999,49.999 99.998,49.999 49.999,0 0,49.999 -0.001,49.999 -0.001,50 0,50 49.999,99.999 99.998,50 99.999,50 
	99.998,50 "/>
</g></g><g transform="translate(310,868) scale(0.31,0.31)"><g transform="" style="fill: rgb(68, 81, 83);">
<polygon points="100,100 0,50 0,50 100,0 "/>
</g></g><g transform="translate(341,868) scale(0.31,0.31)"><g transform="" style="fill: rgb(68, 81, 83);">
<g>
	<path d="M100,0H0v100h65.625c9.506,0,17.611-3.354,24.316-10.059S100,75.131,100,65.625V0z"/>
</g>
</g></g><g transform="translate(465,868) scale(0.31,0.31)"><g transform="" style="fill: rgb(68, 81, 83);">
<polygon points="100,100 0,50 0,50 100,0 "/>
</g></g><g transform="translate(496,868) scale(0.31,0.31)"><g transform="" style="fill: rgb(68, 81, 83);">
<rect width="100" height="100"/>
</g></g><g transform="translate(527,868) scale(0.31,0.31)"><g transform="" style="fill: rgb(68, 81, 83);">
<rect width="100" height="100"/>
</g></g><g transform="translate(558,868) scale(0.31,0.31)"><g transform="" style="fill: rgb(68, 81, 83);">
<g>
	<path d="M100,34.375c0-9.505-3.354-17.611-10.059-24.316S75.131,0,65.625,0H0v100h100V34.375z"/>
</g>
</g></g><g transform="translate(651,868) scale(0.31,0.31)"><g transform="" style="fill: rgb(68, 81, 83);">
<g>
	<path d="M100,0H0v65.625c0,9.506,3.353,17.611,10.059,24.316S24.87,100,34.375,100H100V0z"/>
</g>
</g></g><g transform="translate(682,868) scale(0.31,0.31)"><g transform="" style="fill: rgb(68, 81, 83);">
<g>
	<path d="M100,34.375c0-9.505-3.354-17.611-10.059-24.316S75.131,0,65.625,0H0v100h100V34.375z"/>
</g>
</g></g><g transform="translate(744,868) scale(0.31,0.31)"><g transform="" style="fill: rgb(68, 81, 83);">
<g>
	<path d="M100,0H0v65.625c0,9.506,3.353,17.611,10.059,24.316S24.87,100,34.375,100H100V0z"/>
</g>
</g></g><g transform="translate(775,868) scale(0.31,0.31)"><g transform="" style="fill: rgb(68, 81, 83);">
<rect width="100" height="100"/>
</g></g><g transform="translate(806,868) scale(0.31,0.31)"><g transform="" style="fill: rgb(68, 81, 83);">
<rect width="100" height="100"/>
</g></g><g transform="translate(837,868) scale(0.31,0.31)"><g transform="" style="fill: rgb(68, 81, 83);">
<rect width="100" height="100"/>
</g></g><g transform="translate(868,868) scale(0.31,0.31)"><g transform="" style="fill: rgb(68, 81, 83);">
<rect width="100" height="100"/>
</g></g><g transform="translate(899,868) scale(0.31,0.31)"><g transform="" style="fill: rgb(68, 81, 83);">
<g>
	<path d="M100,34.375c0-9.505-3.354-17.611-10.059-24.316S75.131,0,65.625,0H0v100h100V34.375z"/>
</g>
</g></g><g transform="translate(992,868) scale(0.31,0.31)"><g transform="" style="fill: rgb(68, 81, 83);">
<rect width="100" height="100"/>
</g></g><g transform="translate(279,899) scale(0.31,0.31)"><g transform="" style="fill: rgb(68, 81, 83);">
<polygon points="99.999,49.999 99.998,49.999 49.999,0 0,49.999 -0.001,49.999 -0.001,50 0,50 49.999,99.999 99.998,50 99.999,50 
	99.998,50 "/>
</g></g><g transform="translate(372,899) scale(0.31,0.31)"><g transform="" style="fill: rgb(68, 81, 83);">
<polygon points="100,100 0,50 0,50 100,0 "/>
</g></g><g transform="translate(403,899) scale(0.31,0.31)"><g transform="" style="fill: rgb(68, 81, 83);">
<polygon points="0,100 100,50 100,50 0,0 "/>
</g></g><g transform="translate(496,899) scale(0.31,0.31)"><g transform="" style="fill: rgb(68, 81, 83);">
<g>
	<path d="M100,0H0v65.625c0,9.506,3.353,17.611,10.059,24.316S24.87,100,34.375,100H100V0z"/>
</g>
</g></g><g transform="translate(527,899) scale(0.31,0.31)"><g transform="" style="fill: rgb(68, 81, 83);">
<rect width="100" height="100"/>
</g></g><g transform="translate(558,899) scale(0.31,0.31)"><g transform="" style="fill: rgb(68, 81, 83);">
<g>
	<path d="M100,0H0v100h65.625c9.506,0,17.611-3.354,24.316-10.059S100,75.131,100,65.625V0z"/>
</g>
</g></g><g transform="translate(682,899) scale(0.31,0.31)"><g transform="" style="fill: rgb(68, 81, 83);">
<g>
	<path d="M100,0H0v65.625c0,9.506,3.353,17.611,10.059,24.316S24.87,100,34.375,100H100V0z"/>
</g>
</g></g><g transform="translate(713,899) scale(0.31,0.31)"><g transform="" style="fill: rgb(68, 81, 83);">
<polygon points="0,100 100,50 100,50 0,0 "/>
</g></g><g transform="translate(868,899) scale(0.31,0.31)"><g transform="" style="fill: rgb(68, 81, 83);">
<rect width="100" height="100"/>
</g></g><g transform="translate(899,899) scale(0.31,0.31)"><g transform="" style="fill: rgb(68, 81, 83);">
<rect width="100" height="100"/>
</g></g><g transform="translate(992,899) scale(0.31,0.31)"><g transform="" style="fill: rgb(68, 81, 83);">
<rect width="100" height="100"/>
</g></g><g transform="translate(248,930) scale(0.31,0.31)"><g transform="" style="fill: rgb(68, 81, 83);">
<polygon points="99.999,49.999 99.998,49.999 49.999,0 0,49.999 -0.001,49.999 -0.001,50 0,50 49.999,99.999 99.998,50 99.999,50 
	99.998,50 "/>
</g></g><g transform="translate(310,930) scale(0.31,0.31)"><g transform="" style="fill: rgb(68, 81, 83);">
<polygon points="100,100 50,0 50,0 0,100 "/>
</g></g><g transform="translate(744,930) scale(0.31,0.31)"><g transform="" style="fill: rgb(68, 81, 83);">
<g>
	<path d="M100,34.375V0H34.375C24.87,0,16.764,3.353,10.059,10.059S0,24.87,0,34.375V100h100V34.375z"/>
</g>
</g></g><g transform="translate(775,930) scale(0.31,0.31)"><g transform="" style="fill: rgb(68, 81, 83);">
<polygon points="0,100 100,50 100,50 0,0 "/>
</g></g><g transform="translate(868,930) scale(0.31,0.31)"><g transform="" style="fill: rgb(68, 81, 83);">
<rect width="100" height="100"/>
</g></g><g transform="translate(899,930) scale(0.31,0.31)"><g transform="" style="fill: rgb(68, 81, 83);">
<rect width="100" height="100"/>
</g></g><g transform="translate(992,930) scale(0.31,0.31)"><g transform="" style="fill: rgb(68, 81, 83);">
<polygon points="0,-0.001 50,99.999 50,99.999 100,-0.001 "/>
</g></g><g transform="translate(279,961) scale(0.31,0.31)"><g transform="" style="fill: rgb(68, 81, 83);">
<g>
	<path d="M100,34.375V0H34.375C24.87,0,16.764,3.353,10.059,10.059S0,24.87,0,34.375V100h100V34.375z"/>
</g>
</g></g><g transform="translate(310,961) scale(0.31,0.31)"><g transform="" style="fill: rgb(68, 81, 83);">
<rect width="100" height="100"/>
</g></g><g transform="translate(341,961) scale(0.31,0.31)"><g transform="" style="fill: rgb(68, 81, 83);">
<rect width="100" height="100"/>
</g></g><g transform="translate(372,961) scale(0.31,0.31)"><g transform="" style="fill: rgb(68, 81, 83);">
<rect width="100" height="100"/>
</g></g><g transform="translate(403,961) scale(0.31,0.31)"><g transform="" style="fill: rgb(68, 81, 83);">
<polygon points="0,100 100,50 100,50 0,0 "/>
</g></g><g transform="translate(496,961) scale(0.31,0.31)"><g transform="" style="fill: rgb(68, 81, 83);">
<g>
	<path d="M100,34.375V0H34.375C24.87,0,16.764,3.353,10.059,10.059S0,24.87,0,34.375V100h100V34.375z"/>
</g>
</g></g><g transform="translate(527,961) scale(0.31,0.31)"><g transform="" style="fill: rgb(68, 81, 83);">
<g>
	<path d="M100,34.375c0-9.505-3.354-17.611-10.059-24.316S75.131,0,65.625,0H0v100h100V34.375z"/>
</g>
</g></g><g transform="translate(620,961) scale(0.31,0.31)"><g transform="" style="fill: rgb(68, 81, 83);">
<g>
	<path d="M100,34.375V0H34.375C24.87,0,16.764,3.353,10.059,10.059S0,24.87,0,34.375V100h100V34.375z"/>
</g>
</g></g><g transform="translate(651,961) scale(0.31,0.31)"><g transform="" style="fill: rgb(68, 81, 83);">
<g>
	<path d="M100,34.375c0-9.505-3.354-17.611-10.059-24.316S75.131,0,65.625,0H0v100h100V34.375z"/>
</g>
</g></g><g transform="translate(713,961) scale(0.31,0.31)"><g transform="" style="fill: rgb(68, 81, 83);">
<g>
	<path d="M100,34.375V0H34.375C24.87,0,16.764,3.353,10.059,10.059S0,24.87,0,34.375V100h100V34.375z"/>
</g>
</g></g><g transform="translate(744,961) scale(0.31,0.31)"><g transform="" style="fill: rgb(68, 81, 83);">
<rect width="100" height="100"/>
</g></g><g transform="translate(868,961) scale(0.31,0.31)"><g transform="" style="fill: rgb(68, 81, 83);">
<rect width="100" height="100"/>
</g></g><g transform="translate(899,961) scale(0.31,0.31)"><g transform="" style="fill: rgb(68, 81, 83);">
<g>
	<path d="M100,0H0v100h65.625c9.506,0,17.611-3.354,24.316-10.059S100,75.131,100,65.625V0z"/>
</g>
</g></g><g transform="translate(961,961) scale(0.31,0.31)"><g transform="" style="fill: rgb(68, 81, 83);">
<polygon points="100,100 50,0 50,0 0,100 "/>
</g></g><g transform="translate(248,992) scale(0.31,0.31)"><g transform="" style="fill: rgb(68, 81, 83);">
<polygon points="100,100 0,50 0,50 100,0 "/>
</g></g><g transform="translate(279,992) scale(0.31,0.31)"><g transform="" style="fill: rgb(68, 81, 83);">
<g>
	<path d="M100,0H0v100h65.625c9.506,0,17.611-3.354,24.316-10.059S100,75.131,100,65.625V0z"/>
</g>
</g></g><g transform="translate(465,992) scale(0.31,0.31)"><g transform="" style="fill: rgb(68, 81, 83);">
<polygon points="100,100 0,50 0,50 100,0 "/>
</g></g><g transform="translate(496,992) scale(0.31,0.31)"><g transform="" style="fill: rgb(68, 81, 83);">
<rect width="100" height="100"/>
</g></g><g transform="translate(527,992) scale(0.31,0.31)"><g transform="" style="fill: rgb(68, 81, 83);">
<rect width="100" height="100"/>
</g></g><g transform="translate(558,992) scale(0.31,0.31)"><g transform="" style="fill: rgb(68, 81, 83);">
<polygon points="0,100 100,50 100,50 0,0 "/>
</g></g><g transform="translate(620,992) scale(0.31,0.31)"><g transform="" style="fill: rgb(68, 81, 83);">
<g>
	<path d="M100,0H0v65.625c0,9.506,3.353,17.611,10.059,24.316S24.87,100,34.375,100H100V0z"/>
</g>
</g></g><g transform="translate(651,992) scale(0.31,0.31)"><g transform="" style="fill: rgb(68, 81, 83);">
<g>
	<path d="M100,0H0v100h65.625c9.506,0,17.611-3.354,24.316-10.059S100,75.131,100,65.625V0z"/>
</g>
</g></g><g transform="translate(713,992) scale(0.31,0.31)"><g transform="" style="fill: rgb(68, 81, 83);">
<g>
	<path d="M100,0H0v65.625c0,9.506,3.353,17.611,10.059,24.316S24.87,100,34.375,100H100V0z"/>
</g>
</g></g><g transform="translate(744,992) scale(0.31,0.31)"><g transform="" style="fill: rgb(68, 81, 83);">
<rect width="100" height="100"/>
</g></g><g transform="translate(775,992) scale(0.31,0.31)"><g transform="" style="fill: rgb(68, 81, 83);">
<rect width="100" height="100"/>
</g></g><g transform="translate(806,992) scale(0.31,0.31)"><g transform="" style="fill: rgb(68, 81, 83);">
<polygon points="0,100 100,50 100,50 0,0 "/>
</g></g><g transform="translate(868,992) scale(0.31,0.31)"><g transform="" style="fill: rgb(68, 81, 83);">
<polygon points="0,-0.001 50,99.999 50,99.999 100,-0.001 "/>
</g></g><g transform="translate(961,992) scale(0.31,0.31)"><g transform="" style="fill: rgb(68, 81, 83);">
<g>
	<path d="M100,0H0v65.625c0,9.506,3.353,17.611,10.059,24.316S24.87,100,34.375,100H100V0z"/>
</g>
</g></g><g transform="translate(992,992) scale(0.31,0.31)"><g transform="" style="fill: rgb(68, 81, 83);">
<polygon points="0,100 100,50 100,50 0,0 "/>
</g></g><g transform="translate(0,0) scale(2.17, 2.17)"><g transform="" style="fill: rgb(68, 81, 83);">
<path d="M21.475,99.992c-6.648,0-12.964-6.852-13.958-13.207L0.011-0.008l88.112,5.649c6.212,0.931,11.096,6.804,11.104,13.848
	l0.762,80.503H21.475z M85.706,85.71l-0.544-57.492c-0.005-5.029-3.495-9.233-7.931-9.898l-62.938-4.03l5.36,61.98
	c0.71,4.536,5.222,9.44,9.971,9.44H85.706z"/>
</g></g><g transform="translate(806,0) scale(2.17, 2.17)"><g transform=" translate(100, 0) scale(-1,1) " style="fill: rgb(68, 81, 83);">
<path d="M21.475,99.992c-6.648,0-12.964-6.852-13.958-13.207L0.011-0.008l88.112,5.649c6.212,0.931,11.096,6.804,11.104,13.848
	l0.762,80.503H21.475z M85.706,85.71l-0.544-57.492c-0.005-5.029-3.495-9.233-7.931-9.898l-62.938-4.03l5.36,61.98
	c0.71,4.536,5.222,9.44,9.971,9.44H85.706z"/>
</g></g><g transform="translate(0,806) scale(2.17, 2.17)"><g transform=" translate(0,100) scale(1,-1) " style="fill: rgb(68, 81, 83);">
<path d="M21.475,99.992c-6.648,0-12.964-6.852-13.958-13.207L0.011-0.008l88.112,5.649c6.212,0.931,11.096,6.804,11.104,13.848
	l0.762,80.503H21.475z M85.706,85.71l-0.544-57.492c-0.005-5.029-3.495-9.233-7.931-9.898l-62.938-4.03l5.36,61.98
	c0.71,4.536,5.222,9.44,9.971,9.44H85.706z"/>
</g></g><g transform="translate(62,62) scale(0.93, 0.93)"><g transform="" style="fill: rgb(68, 81, 83);">
<path d="M21.468,99.999c-6.65,0-12.966-6.875-13.959-13.225L0.003-0.001L88.13,5.638c6.21,0.93,11.099,6.823,11.105,13.866
	l0.762,80.495H21.468z"/>
</g></g><g transform="translate(868,62) scale(0.93, 0.93)"><g transform=" translate(100, 0) scale(-1,1) " style="fill: rgb(68, 81, 83);">
<path d="M21.468,99.999c-6.65,0-12.966-6.875-13.959-13.225L0.003-0.001L88.13,5.638c6.21,0.93,11.099,6.823,11.105,13.866
	l0.762,80.495H21.468z"/>
</g></g><g transform="translate(62,868) scale(0.93, 0.93)"><g transform=" translate(0,100) scale(1,-1) " style="fill: rgb(68, 81, 83);">
<path d="M21.468,99.999c-6.65,0-12.966-6.875-13.959-13.225L0.003-0.001L88.13,5.638c6.21,0.93,11.099,6.823,11.105,13.866
	l0.762,80.495H21.468z"/>
</g></g></g></svg>