<?xml version="1.0" encoding="utf-8"?>
<!DOCTYPE svg PUBLIC "-//W3C//DTD SVG 1.1//EN" "http://www.w3.org/Graphics/SVG/1.1/DTD/svg11.dtd">
<svg version="1.1" id="Layer_1" xmlns="http://www.w3.org/2000/svg" xmlns:xlink="http://www.w3.org/1999/xlink" x="0px" y="0px"
width="1147px" height="1147px" viewBox="0 0 1147 1147" enable-background="new 0 0 1147 1147" xml:space="preserve">
<rect x="0" y="0" width="1147" height="1147" fill="rgb(255,255,255)" /><g transform="translate(62,62)"><g transform="translate(248,0) scale(0.31,0.31)"><g transform="" style="fill: rgb(68, 81, 83);">
<polygon points="100,100 50,0 50,0 0,100 "/>
</g></g><g transform="translate(310,0) scale(0.31,0.31)"><g transform="" style="fill: rgb(68, 81, 83);">
<polygon points="100,100 50,0 50,0 0,100 "/>
</g></g><g transform="translate(434,0) scale(0.31,0.31)"><g transform="" style="fill: rgb(68, 81, 83);">
<polygon points="99.999,49.999 99.998,49.999 49.999,0 0,49.999 -0.001,49.999 -0.001,50 0,50 49.999,99.999 99.998,50 99.999,50 
	99.998,50 "/>
</g></g><g transform="translate(496,0) scale(0.31,0.31)"><g transform="" style="fill: rgb(68, 81, 83);">
<g>
	<path d="M100,34.375V0H34.375C24.87,0,16.764,3.353,10.059,10.059S0,24.87,0,34.375V100h100V34.375z"/>
</g>
</g></g><g transform="translate(527,0) scale(0.31,0.31)"><g transform="" style="fill: rgb(68, 81, 83);">
<rect width="100" height="100"/>
</g></g><g transform="translate(558,0) scale(0.31,0.31)"><g transform="" style="fill: rgb(68, 81, 83);">
<polygon points="0,100 100,50 100,50 0,0 "/>
</g></g><g transform="translate(651,0) scale(0.31,0.31)"><g transform="" style="fill: rgb(68, 81, 83);">
<polygon points="100,100 0,50 0,50 100,0 "/>
</g></g><g transform="translate(682,0) scale(0.31,0.31)"><g transform="" style="fill: rgb(68, 81, 83);">
<g>
	<path d="M100,34.375c0-9.505-3.354-17.611-10.059-24.316S75.131,0,65.625,0H0v100h100V34.375z"/>
</g>
</g></g><g transform="translate(248,31) scale(0.31,0.31)"><g transform="" style="fill: rgb(68, 81, 83);">
<rect width="100" height="100"/>
</g></g><g transform="translate(279,31) scale(0.31,0.31)"><g transform="" style="fill: rgb(68, 81, 83);">
<rect width="100" height="100"/>
</g></g><g transform="translate(310,31) scale(0.31,0.31)"><g transform="" style="fill: rgb(68, 81, 83);">
<g>
	<path d="M100,0H0v100h65.625c9.506,0,17.611-3.354,24.316-10.059S100,75.131,100,65.625V0z"/>
</g>
</g></g><g transform="translate(372,31) scale(0.31,0.31)"><g transform="" style="fill: rgb(68, 81, 83);">
<polygon points="99.999,49.999 99.998,49.999 49.999,0 0,49.999 -0.001,49.999 -0.001,50 0,50 49.999,99.999 99.998,50 99.999,50 
	99.998,50 "/>
</g></g><g transform="translate(496,31) scale(0.31,0.31)"><g transform="" style="fill: rgb(68, 81, 83);">
<polygon points="0,-0.001 50,99.999 50,99.999 100,-0.001 "/>
</g></g><g transform="translate(589,31) scale(0.31,0.31)"><g transform="" style="fill: rgb(68, 81, 83);">
<polygon points="99.999,49.999 99.998,49.999 49.999,0 0,49.999 -0.001,49.999 -0.001,50 0,50 49.999,99.999 99.998,50 99.999,50 
	99.998,50 "/>
</g></g><g transform="translate(682,31) scale(0.31,0.31)"><g transform="" style="fill: rgb(68, 81, 83);">
<rect width="100" height="100"/>
</g></g><g transform="translate(744,31) scale(0.31,0.31)"><g transform="" style="fill: rgb(68, 81, 83);">
<polygon points="99.999,49.999 99.998,49.999 49.999,0 0,49.999 -0.001,49.999 -0.001,50 0,50 49.999,99.999 99.998,50 99.999,50 
	99.998,50 "/>
</g></g><g transform="translate(248,62) scale(0.31,0.31)"><g transform="" style="fill: rgb(68, 81, 83);">
<g>
	<path d="M100,0H0v65.625c0,9.506,3.353,17.611,10.059,24.316S24.87,100,34.375,100H100V0z"/>
</g>
</g></g><g transform="translate(279,62) scale(0.31,0.31)"><g transform="" style="fill: rgb(68, 81, 83);">
<rect width="100" height="100"/>
</g></g><g transform="translate(465,62) scale(0.31,0.31)"><g transform="" style="fill: rgb(68, 81, 83);">
<polygon points="99.999,49.999 99.998,49.999 49.999,0 0,49.999 -0.001,49.999 -0.001,50 0,50 49.999,99.999 99.998,50 99.999,50 
	99.998,50 "/>
</g></g><g transform="translate(558,62) scale(0.31,0.31)"><g transform="" style="fill: rgb(68, 81, 83);">
<polygon points="99.999,49.999 99.998,49.999 49.999,0 0,49.999 -0.001,49.999 -0.001,50 0,50 49.999,99.999 99.998,50 99.999,50 
	99.998,50 "/>
</g></g><g transform="translate(651,62) scale(0.31,0.31)"><g transform="" style="fill: rgb(68, 81, 83);">
<g>
	<path d="M100,34.375V0H34.375C24.87,0,16.764,3.353,10.059,10.059S0,24.87,0,34.375V100h100V34.375z"/>
</g>
</g></g><g transform="translate(682,62) scale(0.31,0.31)"><g transform="" style="fill: rgb(68, 81, 83);">
<rect width="100" height="100"/>
</g></g><g transform="translate(713,62) scale(0.31,0.31)"><g transform="" style="fill: rgb(68, 81, 83);">
<g>
	<path d="M100,34.375c0-9.505-3.354-17.611-10.059-24.316S75.131,0,65.625,0H0v100h100V34.375z"/>
</g>
</g></g><g transform="translate(279,93) scale(0.31,0.31)"><g transform="" style="fill: rgb(68, 81, 83);">
<g>
	<path d="M100,0H0v65.625c0,9.506,3.353,17.611,10.059,24.316S24.87,100,34.375,100H100V0z"/>
</g>
</g></g><g transform="translate(310,93) scale(0.31,0.31)"><g transform="" style="fill: rgb(68, 81, 83);">
<polygon points="0,100 100,50 100,50 0,0 "/>
</g></g><g transform="translate(372,93) scale(0.31,0.31)"><g transform="" style="fill: rgb(68, 81, 83);">
<polygon points="99.999,49.999 99.998,49.999 49.999,0 0,49.999 -0.001,49.999 -0.001,50 0,50 49.999,99.999 99.998,50 99.999,50 
	99.998,50 "/>
</g></g><g transform="translate(496,93) scale(0.31,0.31)"><g transform="" style="fill: rgb(68, 81, 83);">
<polygon points="100,100 0,50 0,50 100,0 "/>
</g></g><g transform="translate(527,93) scale(0.31,0.31)"><g transform="" style="fill: rgb(68, 81, 83);">
<polygon points="0,100 100,50 100,50 0,0 "/>
</g></g><g transform="translate(620,93) scale(0.31,0.31)"><g transform="" style="fill: rgb(68, 81, 83);">
<polygon points="100,100 0,50 0,50 100,0 "/>
</g></g><g transform="translate(651,93) scale(0.31,0.31)"><g transform="" style="fill: rgb(68, 81, 83);">
<rect width="100" height="100"/>
</g></g><g transform="translate(682,93) scale(0.31,0.31)"><g transform="" style="fill: rgb(68, 81, 83);">
<rect width="100" height="100"/>
</g></g><g transform="translate(713,93) scale(0.31,0.31)"><g transform="" style="fill: rgb(68, 81, 83);">
<rect width="100" height="100"/>
</g></g><g transform="translate(744,93) scale(0.31,0.31)"><g transform="" style="fill: rgb(68, 81, 83);">
<polygon points="0,100 100,50 100,50 0,0 "/>
</g></g><g transform="translate(248,124) scale(0.31,0.31)"><g transform="" style="fill: rgb(68, 81, 83);">
<polygon points="99.999,49.999 99.998,49.999 49.999,0 0,49.999 -0.001,49.999 -0.001,50 0,50 49.999,99.999 99.998,50 99.999,50 
	99.998,50 "/>
</g></g><g transform="translate(341,124) scale(0.31,0.31)"><g transform="" style="fill: rgb(68, 81, 83);">
<polygon points="99.999,49.999 99.998,49.999 49.999,0 0,49.999 -0.001,49.999 -0.001,50 0,50 49.999,99.999 99.998,50 99.999,50 
	99.998,50 "/>
</g></g><g transform="translate(403,124) scale(0.31,0.31)"><g transform="" style="fill: rgb(68, 81, 83);">
<g>
	<path d="M100,34.375V0H34.375C24.87,0,16.764,3.353,10.059,10.059S0,24.87,0,34.375V100h100V34.375z"/>
</g>
</g></g><g transform="translate(434,124) scale(0.31,0.31)"><g transform="" style="fill: rgb(68, 81, 83);">
<rect width="100" height="100"/>
</g></g><g transform="translate(465,124) scale(0.31,0.31)"><g transform="" style="fill: rgb(68, 81, 83);">
<polygon points="0,100 100,50 100,50 0,0 "/>
</g></g><g transform="translate(558,124) scale(0.31,0.31)"><g transform="" style="fill: rgb(68, 81, 83);">
<polygon points="100,100 0,50 0,50 100,0 "/>
</g></g><g transform="translate(589,124) scale(0.31,0.31)"><g transform="" style="fill: rgb(68, 81, 83);">
<polygon points="0,100 100,50 100,50 0,0 "/>
</g></g><g transform="translate(651,124) scale(0.31,0.31)"><g transform="" style="fill: rgb(68, 81, 83);">
<rect width="100" height="100"/>
</g></g><g transform="translate(682,124) scale(0.31,0.31)"><g transform="" style="fill: rgb(68, 81, 83);">
<g>
	<path d="M100,0H0v100h65.625c9.506,0,17.611-3.354,24.316-10.059S100,75.131,100,65.625V0z"/>
</g>
</g></g><g transform="translate(279,155) scale(0.31,0.31)"><g transform="" style="fill: rgb(68, 81, 83);">
<polygon points="100,100 0,50 0,50 100,0 "/>
</g></g><g transform="translate(310,155) scale(0.31,0.31)"><g transform="" style="fill: rgb(68, 81, 83);">
<g>
	<path d="M100,34.375c0-9.505-3.354-17.611-10.059-24.316S75.131,0,65.625,0H0v100h100V34.375z"/>
</g>
</g></g><g transform="translate(403,155) scale(0.31,0.31)"><g transform="" style="fill: rgb(68, 81, 83);">
<g>
	<path d="M100,0H0v65.625c0,9.506,3.353,17.611,10.059,24.316S24.87,100,34.375,100H100V0z"/>
</g>
</g></g><g transform="translate(434,155) scale(0.31,0.31)"><g transform="" style="fill: rgb(68, 81, 83);">
<rect width="100" height="100"/>
</g></g><g transform="translate(496,155) scale(0.31,0.31)"><g transform="" style="fill: rgb(68, 81, 83);">
<polygon points="100,100 50,0 50,0 0,100 "/>
</g></g><g transform="translate(620,155) scale(0.31,0.31)"><g transform="" style="fill: rgb(68, 81, 83);">
<g>
	<path d="M100,34.375V0H34.375C24.87,0,16.764,3.353,10.059,10.059S0,24.87,0,34.375V100h100V34.375z"/>
</g>
</g></g><g transform="translate(651,155) scale(0.31,0.31)"><g transform="" style="fill: rgb(68, 81, 83);">
<g>
	<path d="M100,0H0v100h65.625c9.506,0,17.611-3.354,24.316-10.059S100,75.131,100,65.625V0z"/>
</g>
</g></g><g transform="translate(713,155) scale(0.31,0.31)"><g transform="" style="fill: rgb(68, 81, 83);">
<polygon points="99.999,49.999 99.998,49.999 49.999,0 0,49.999 -0.001,49.999 -0.001,50 0,50 49.999,99.999 99.998,50 99.999,50 
	99.998,50 "/>
</g></g><g transform="translate(248,186) scale(0.31,0.31)"><g transform="" style="fill: rgb(68, 81, 83);">
<polygon points="99.999,49.999 99.998,49.999 49.999,0 0,49.999 -0.001,49.999 -0.001,50 0,50 49.999,99.999 99.998,50 99.999,50 
	99.998,50 "/>
</g></g><g transform="translate(310,186) scale(0.31,0.31)"><g transform="" style="fill: rgb(68, 81, 83);">
<polygon points="0,-0.001 50,99.999 50,99.999 100,-0.001 "/>
</g></g><g transform="translate(372,186) scale(0.31,0.31)"><g transform="" style="fill: rgb(68, 81, 83);">
<polygon points="100,100 50,0 50,0 0,100 "/>
</g></g><g transform="translate(434,186) scale(0.31,0.31)"><g transform="" style="fill: rgb(68, 81, 83);">
<polygon points="0,-0.001 50,99.999 50,99.999 100,-0.001 "/>
</g></g><g transform="translate(496,186) scale(0.31,0.31)"><g transform="" style="fill: rgb(68, 81, 83);">
<polygon points="0,-0.001 50,99.999 50,99.999 100,-0.001 "/>
</g></g><g transform="translate(558,186) scale(0.31,0.31)"><g transform="" style="fill: rgb(68, 81, 83);">
<polygon points="99.999,49.999 99.998,49.999 49.999,0 0,49.999 -0.001,49.999 -0.001,50 0,50 49.999,99.999 99.998,50 99.999,50 
	99.998,50 "/>
</g></g><g transform="translate(620,186) scale(0.31,0.31)"><g transform="" style="fill: rgb(68, 81, 83);">
<rect width="100" height="100"/>
</g></g><g transform="translate(682,186) scale(0.31,0.31)"><g transform="" style="fill: rgb(68, 81, 83);">
<polygon points="100,100 50,0 50,0 0,100 "/>
</g></g><g transform="translate(744,186) scale(0.31,0.31)"><g transform="" style="fill: rgb(68, 81, 83);">
<polygon points="100,100 50,0 50,0 0,100 "/>
</g></g><g transform="translate(341,217) scale(0.31,0.31)"><g transform="" style="fill: rgb(68, 81, 83);">
<polygon points="100,100 0,50 0,50 100,0 "/>
</g></g><g transform="translate(372,217) scale(0.31,0.31)"><g transform="" style="fill: rgb(68, 81, 83);">
<rect width="100" height="100"/>
</g></g><g transform="translate(403,217) scale(0.31,0.31)"><g transform="" style="fill: rgb(68, 81, 83);">
<polygon points="0,100 100,50 100,50 0,0 "/>
</g></g><g transform="translate(589,217) scale(0.31,0.31)"><g transform="" style="fill: rgb(68, 81, 83);">
<g>
	<path d="M100,34.375V0H34.375C24.87,0,16.764,3.353,10.059,10.059S0,24.87,0,34.375V100h100V34.375z"/>
</g>
</g></g><g transform="translate(620,217) scale(0.31,0.31)"><g transform="" style="fill: rgb(68, 81, 83);">
<g>
	<path d="M100,0H0v100h65.625c9.506,0,17.611-3.354,24.316-10.059S100,75.131,100,65.625V0z"/>
</g>
</g></g><g transform="translate(682,217) scale(0.31,0.31)"><g transform="" style="fill: rgb(68, 81, 83);">
<polygon points="0,-0.001 50,99.999 50,99.999 100,-0.001 "/>
</g></g><g transform="translate(744,217) scale(0.31,0.31)"><g transform="" style="fill: rgb(68, 81, 83);">
<rect width="100" height="100"/>
</g></g><g transform="translate(0,248) scale(0.31,0.31)"><g transform="" style="fill: rgb(68, 81, 83);">
<polygon points="100,100 50,0 50,0 0,100 "/>
</g></g><g transform="translate(93,248) scale(0.31,0.31)"><g transform="" style="fill: rgb(68, 81, 83);">
<polygon points="100,100 0,50 0,50 100,0 "/>
</g></g><g transform="translate(124,248) scale(0.31,0.31)"><g transform="" style="fill: rgb(68, 81, 83);">
<rect width="100" height="100"/>
</g></g><g transform="translate(155,248) scale(0.31,0.31)"><g transform="" style="fill: rgb(68, 81, 83);">
<rect width="100" height="100"/>
</g></g><g transform="translate(186,248) scale(0.31,0.31)"><g transform="" style="fill: rgb(68, 81, 83);">
<rect width="100" height="100"/>
</g></g><g transform="translate(217,248) scale(0.31,0.31)"><g transform="" style="fill: rgb(68, 81, 83);">
<rect width="100" height="100"/>
</g></g><g transform="translate(248,248) scale(0.31,0.31)"><g transform="" style="fill: rgb(68, 81, 83);">
<rect width="100" height="100"/>
</g></g><g transform="translate(279,248) scale(0.31,0.31)"><g transform="" style="fill: rgb(68, 81, 83);">
<rect width="100" height="100"/>
</g></g><g transform="translate(310,248) scale(0.31,0.31)"><g transform="" style="fill: rgb(68, 81, 83);">
<polygon points="0,100 100,50 100,50 0,0 "/>
</g></g><g transform="translate(372,248) scale(0.31,0.31)"><g transform="" style="fill: rgb(68, 81, 83);">
<rect width="100" height="100"/>
</g></g><g transform="translate(434,248) scale(0.31,0.31)"><g transform="" style="fill: rgb(68, 81, 83);">
<g>
	<path d="M100,34.375V0H34.375C24.87,0,16.764,3.353,10.059,10.059S0,24.87,0,34.375V100h100V34.375z"/>
</g>
</g></g><g transform="translate(465,248) scale(0.31,0.31)"><g transform="" style="fill: rgb(68, 81, 83);">
<rect width="100" height="100"/>
</g></g><g transform="translate(496,248) scale(0.31,0.31)"><g transform="" style="fill: rgb(68, 81, 83);">
<rect width="100" height="100"/>
</g></g><g transform="translate(527,248) scale(0.31,0.31)"><g transform="" style="fill: rgb(68, 81, 83);">
<g>
	<path d="M100,34.375c0-9.505-3.354-17.611-10.059-24.316S75.131,0,65.625,0H0v100h100V34.375z"/>
</g>
</g></g><g transform="translate(589,248) scale(0.31,0.31)"><g transform="" style="fill: rgb(68, 81, 83);">
<rect width="100" height="100"/>
</g></g><g transform="translate(713,248) scale(0.31,0.31)"><g transform="" style="fill: rgb(68, 81, 83);">
<g>
	<path d="M100,34.375V0H34.375C24.87,0,16.764,3.353,10.059,10.059S0,24.87,0,34.375V100h100V34.375z"/>
</g>
</g></g><g transform="translate(744,248) scale(0.31,0.31)"><g transform="" style="fill: rgb(68, 81, 83);">
<rect width="100" height="100"/>
</g></g><g transform="translate(775,248) scale(0.31,0.31)"><g transform="" style="fill: rgb(68, 81, 83);">
<polygon points="0,100 100,50 100,50 0,0 "/>
</g></g><g transform="translate(868,248) scale(0.31,0.31)"><g transform="" style="fill: rgb(68, 81, 83);">
<polygon points="100,100 50,0 50,0 0,100 "/>
</g></g><g transform="translate(930,248) scale(0.31,0.31)"><g transform="" style="fill: rgb(68, 81, 83);">
<g>
	<path d="M100,34.375V0H34.375C24.87,0,16.764,3.353,10.059,10.059S0,24.87,0,34.375V100h100V34.375z"/>
</g>
</g></g><g transform="translate(961,248) scale(0.31,0.31)"><g transform="" style="fill: rgb(68, 81, 83);">
<rect width="100" height="100"/>
</g></g><g transform="translate(992,248) scale(0.31,0.31)"><g transform="" style="fill: rgb(68, 81, 83);">
<polygon points="0,100 100,50 100,50 0,0 "/>
</g></g><g transform="translate(0,279) scale(0.31,0.31)"><g transform="" style="fill: rgb(68, 81, 83);">
<rect width="100" height="100"/>
</g></g><g transform="translate(31,279) scale(0.31,0.31)"><g transform="" style="fill: rgb(68, 81, 83);">
<rect width="100" height="100"/>
</g></g><g transform="translate(62,279) scale(0.31,0.31)"><g transform="" style="fill: rgb(68, 81, 83);">
<g>
	<path d="M100,34.375c0-9.505-3.354-17.611-10.059-24.316S75.131,0,65.625,0H0v100h100V34.375z"/>
</g>
</g></g><g transform="translate(124,279) scale(0.31,0.31)"><g transform="" style="fill: rgb(68, 81, 83);">
<g>
	<path d="M100,0H0v65.625c0,9.506,3.353,17.611,10.059,24.316S24.87,100,34.375,100H100V0z"/>
</g>
</g></g><g transform="translate(155,279) scale(0.31,0.31)"><g transform="" style="fill: rgb(68, 81, 83);">
<g>
	<path d="M100,0H0v100h65.625c9.506,0,17.611-3.354,24.316-10.059S100,75.131,100,65.625V0z"/>
</g>
</g></g><g transform="translate(217,279) scale(0.31,0.31)"><g transform="" style="fill: rgb(68, 81, 83);">
<rect width="100" height="100"/>
</g></g><g transform="translate(279,279) scale(0.31,0.31)"><g transform="" style="fill: rgb(68, 81, 83);">
<polygon points="0,-0.001 50,99.999 50,99.999 100,-0.001 "/>
</g></g><g transform="translate(372,279) scale(0.31,0.31)"><g transform="" style="fill: rgb(68, 81, 83);">
<polygon points="0,-0.001 50,99.999 50,99.999 100,-0.001 "/>
</g></g><g transform="translate(434,279) scale(0.31,0.31)"><g transform="" style="fill: rgb(68, 81, 83);">
<rect width="100" height="100"/>
</g></g><g transform="translate(465,279) scale(0.31,0.31)"><g transform="" style="fill: rgb(68, 81, 83);">
<rect width="100" height="100"/>
</g></g><g transform="translate(527,279) scale(0.31,0.31)"><g transform="" style="fill: rgb(68, 81, 83);">
<rect width="100" height="100"/>
</g></g><g transform="translate(558,279) scale(0.31,0.31)"><g transform="" style="fill: rgb(68, 81, 83);">
<rect width="100" height="100"/>
</g></g><g transform="translate(589,279) scale(0.31,0.31)"><g transform="" style="fill: rgb(68, 81, 83);">
<g>
	<path d="M100,0H0v100h65.625c9.506,0,17.611-3.354,24.316-10.059S100,75.131,100,65.625V0z"/>
</g>
</g></g><g transform="translate(651,279) scale(0.31,0.31)"><g transform="" style="fill: rgb(68, 81, 83);">
<g>
	<path d="M100,34.375V0H34.375C24.87,0,16.764,3.353,10.059,10.059S0,24.87,0,34.375V100h100V34.375z"/>
</g>
</g></g><g transform="translate(682,279) scale(0.31,0.31)"><g transform="" style="fill: rgb(68, 81, 83);">
<rect width="100" height="100"/>
</g></g><g transform="translate(713,279) scale(0.31,0.31)"><g transform="" style="fill: rgb(68, 81, 83);">
<rect width="100" height="100"/>
</g></g><g transform="translate(744,279) scale(0.31,0.31)"><g transform="" style="fill: rgb(68, 81, 83);">
<g>
	<path d="M100,0H0v100h65.625c9.506,0,17.611-3.354,24.316-10.059S100,75.131,100,65.625V0z"/>
</g>
</g></g><g transform="translate(868,279) scale(0.31,0.31)"><g transform="" style="fill: rgb(68, 81, 83);">
<rect width="100" height="100"/>
</g></g><g transform="translate(899,279) scale(0.31,0.31)"><g transform="" style="fill: rgb(68, 81, 83);">
<rect width="100" height="100"/>
</g></g><g transform="translate(930,279) scale(0.31,0.31)"><g transform="" style="fill: rgb(68, 81, 83);">
<rect width="100" height="100"/>
</g></g><g transform="translate(961,279) scale(0.31,0.31)"><g transform="" style="fill: rgb(68, 81, 83);">
<rect width="100" height="100"/>
</g></g><g transform="translate(0,310) scale(0.31,0.31)"><g transform="" style="fill: rgb(68, 81, 83);">
<g>
	<path d="M100,0H0v65.625c0,9.506,3.353,17.611,10.059,24.316S24.87,100,34.375,100H100V0z"/>
</g>
</g></g><g transform="translate(31,310) scale(0.31,0.31)"><g transform="" style="fill: rgb(68, 81, 83);">
<rect width="100" height="100"/>
</g></g><g transform="translate(62,310) scale(0.31,0.31)"><g transform="" style="fill: rgb(68, 81, 83);">
<rect width="100" height="100"/>
</g></g><g transform="translate(93,310) scale(0.31,0.31)"><g transform="" style="fill: rgb(68, 81, 83);">
<polygon points="0,100 100,50 100,50 0,0 "/>
</g></g><g transform="translate(186,310) scale(0.31,0.31)"><g transform="" style="fill: rgb(68, 81, 83);">
<polygon points="100,100 0,50 0,50 100,0 "/>
</g></g><g transform="translate(217,310) scale(0.31,0.31)"><g transform="" style="fill: rgb(68, 81, 83);">
<rect width="100" height="100"/>
</g></g><g transform="translate(310,310) scale(0.31,0.31)"><g transform="" style="fill: rgb(68, 81, 83);">
<polygon points="100,100 50,0 50,0 0,100 "/>
</g></g><g transform="translate(434,310) scale(0.31,0.31)"><g transform="" style="fill: rgb(68, 81, 83);">
<rect width="100" height="100"/>
</g></g><g transform="translate(465,310) scale(0.31,0.31)"><g transform="" style="fill: rgb(68, 81, 83);">
<rect width="100" height="100"/>
</g></g><g transform="translate(527,310) scale(0.31,0.31)"><g transform="" style="fill: rgb(68, 81, 83);">
<rect width="100" height="100"/>
</g></g><g transform="translate(558,310) scale(0.31,0.31)"><g transform="" style="fill: rgb(68, 81, 83);">
<g>
	<path d="M100,0H0v100h65.625c9.506,0,17.611-3.354,24.316-10.059S100,75.131,100,65.625V0z"/>
</g>
</g></g><g transform="translate(620,310) scale(0.31,0.31)"><g transform="" style="fill: rgb(68, 81, 83);">
<g>
	<path d="M100,34.375V0H34.375C24.87,0,16.764,3.353,10.059,10.059S0,24.87,0,34.375V100h100V34.375z"/>
</g>
</g></g><g transform="translate(651,310) scale(0.31,0.31)"><g transform="" style="fill: rgb(68, 81, 83);">
<rect width="100" height="100"/>
</g></g><g transform="translate(682,310) scale(0.31,0.31)"><g transform="" style="fill: rgb(68, 81, 83);">
<rect width="100" height="100"/>
</g></g><g transform="translate(713,310) scale(0.31,0.31)"><g transform="" style="fill: rgb(68, 81, 83);">
<rect width="100" height="100"/>
</g></g><g transform="translate(806,310) scale(0.31,0.31)"><g transform="" style="fill: rgb(68, 81, 83);">
<polygon points="99.999,49.999 99.998,49.999 49.999,0 0,49.999 -0.001,49.999 -0.001,50 0,50 49.999,99.999 99.998,50 99.999,50 
	99.998,50 "/>
</g></g><g transform="translate(868,310) scale(0.31,0.31)"><g transform="" style="fill: rgb(68, 81, 83);">
<g>
	<path d="M100,0H0v65.625c0,9.506,3.353,17.611,10.059,24.316S24.87,100,34.375,100H100V0z"/>
</g>
</g></g><g transform="translate(899,310) scale(0.31,0.31)"><g transform="" style="fill: rgb(68, 81, 83);">
<rect width="100" height="100"/>
</g></g><g transform="translate(930,310) scale(0.31,0.31)"><g transform="" style="fill: rgb(68, 81, 83);">
<rect width="100" height="100"/>
</g></g><g transform="translate(961,310) scale(0.31,0.31)"><g transform="" style="fill: rgb(68, 81, 83);">
<rect width="100" height="100"/>
</g></g><g transform="translate(992,310) scale(0.31,0.31)"><g transform="" style="fill: rgb(68, 81, 83);">
<polygon points="0,100 100,50 100,50 0,0 "/>
</g></g><g transform="translate(62,341) scale(0.31,0.31)"><g transform="" style="fill: rgb(68, 81, 83);">
<polygon points="0,-0.001 50,99.999 50,99.999 100,-0.001 "/>
</g></g><g transform="translate(155,341) scale(0.31,0.31)"><g transform="" style="fill: rgb(68, 81, 83);">
<polygon points="99.999,49.999 99.998,49.999 49.999,0 0,49.999 -0.001,49.999 -0.001,50 0,50 49.999,99.999 99.998,50 99.999,50 
	99.998,50 "/>
</g></g><g transform="translate(217,341) scale(0.31,0.31)"><g transform="" style="fill: rgb(68, 81, 83);">
<rect width="100" height="100"/>
</g></g><g transform="translate(279,341) scale(0.31,0.31)"><g transform="" style="fill: rgb(68, 81, 83);">
<g>
	<path d="M100,34.375V0H34.375C24.87,0,16.764,3.353,10.059,10.059S0,24.87,0,34.375V100h100V34.375z"/>
</g>
</g></g><g transform="translate(310,341) scale(0.31,0.31)"><g transform="" style="fill: rgb(68, 81, 83);">
<rect width="100" height="100"/>
</g></g><g transform="translate(341,341) scale(0.31,0.31)"><g transform="" style="fill: rgb(68, 81, 83);">
<polygon points="0,100 100,50 100,50 0,0 "/>
</g></g><g transform="translate(434,341) scale(0.31,0.31)"><g transform="" style="fill: rgb(68, 81, 83);">
<rect width="100" height="100"/>
</g></g><g transform="translate(465,341) scale(0.31,0.31)"><g transform="" style="fill: rgb(68, 81, 83);">
<rect width="100" height="100"/>
</g></g><g transform="translate(496,341) scale(0.31,0.31)"><g transform="" style="fill: rgb(68, 81, 83);">
<rect width="100" height="100"/>
</g></g><g transform="translate(527,341) scale(0.31,0.31)"><g transform="" style="fill: rgb(68, 81, 83);">
<g>
	<path d="M100,0H0v100h65.625c9.506,0,17.611-3.354,24.316-10.059S100,75.131,100,65.625V0z"/>
</g>
</g></g><g transform="translate(589,341) scale(0.31,0.31)"><g transform="" style="fill: rgb(68, 81, 83);">
<polygon points="100,100 0,50 0,50 100,0 "/>
</g></g><g transform="translate(620,341) scale(0.31,0.31)"><g transform="" style="fill: rgb(68, 81, 83);">
<rect width="100" height="100"/>
</g></g><g transform="translate(713,341) scale(0.31,0.31)"><g transform="" style="fill: rgb(68, 81, 83);">
<g>
	<path d="M100,0H0v65.625c0,9.506,3.353,17.611,10.059,24.316S24.87,100,34.375,100H100V0z"/>
</g>
</g></g><g transform="translate(744,341) scale(0.31,0.31)"><g transform="" style="fill: rgb(68, 81, 83);">
<rect width="100" height="100"/>
</g></g><g transform="translate(775,341) scale(0.31,0.31)"><g transform="" style="fill: rgb(68, 81, 83);">
<polygon points="0,100 100,50 100,50 0,0 "/>
</g></g><g transform="translate(837,341) scale(0.31,0.31)"><g transform="" style="fill: rgb(68, 81, 83);">
<polygon points="100,100 50,0 50,0 0,100 "/>
</g></g><g transform="translate(930,341) scale(0.31,0.31)"><g transform="" style="fill: rgb(68, 81, 83);">
<polygon points="0,-0.001 50,99.999 50,99.999 100,-0.001 "/>
</g></g><g transform="translate(93,372) scale(0.31,0.31)"><g transform="" style="fill: rgb(68, 81, 83);">
<polygon points="100,100 50,0 50,0 0,100 "/>
</g></g><g transform="translate(186,372) scale(0.31,0.31)"><g transform="" style="fill: rgb(68, 81, 83);">
<polygon points="100,100 0,50 0,50 100,0 "/>
</g></g><g transform="translate(217,372) scale(0.31,0.31)"><g transform="" style="fill: rgb(68, 81, 83);">
<g>
	<path d="M100,0H0v100h65.625c9.506,0,17.611-3.354,24.316-10.059S100,75.131,100,65.625V0z"/>
</g>
</g></g><g transform="translate(279,372) scale(0.31,0.31)"><g transform="" style="fill: rgb(68, 81, 83);">
<polygon points="0,-0.001 50,99.999 50,99.999 100,-0.001 "/>
</g></g><g transform="translate(372,372) scale(0.31,0.31)"><g transform="" style="fill: rgb(68, 81, 83);">
<polygon points="100,100 0,50 0,50 100,0 "/>
</g></g><g transform="translate(403,372) scale(0.31,0.31)"><g transform="" style="fill: rgb(68, 81, 83);">
<rect width="100" height="100"/>
</g></g><g transform="translate(434,372) scale(0.31,0.31)"><g transform="" style="fill: rgb(68, 81, 83);">
<rect width="100" height="100"/>
</g></g><g transform="translate(465,372) scale(0.31,0.31)"><g transform="" style="fill: rgb(68, 81, 83);">
<rect width="100" height="100"/>
</g></g><g transform="translate(620,372) scale(0.31,0.31)"><g transform="" style="fill: rgb(68, 81, 83);">
<polygon points="0,-0.001 50,99.999 50,99.999 100,-0.001 "/>
</g></g><g transform="translate(744,372) scale(0.31,0.31)"><g transform="" style="fill: rgb(68, 81, 83);">
<polygon points="0,-0.001 50,99.999 50,99.999 100,-0.001 "/>
</g></g><g transform="translate(806,372) scale(0.31,0.31)"><g transform="" style="fill: rgb(68, 81, 83);">
<polygon points="100,100 0,50 0,50 100,0 "/>
</g></g><g transform="translate(837,372) scale(0.31,0.31)"><g transform="" style="fill: rgb(68, 81, 83);">
<rect width="100" height="100"/>
</g></g><g transform="translate(961,372) scale(0.31,0.31)"><g transform="" style="fill: rgb(68, 81, 83);">
<polygon points="100,100 0,50 0,50 100,0 "/>
</g></g><g transform="translate(992,372) scale(0.31,0.31)"><g transform="" style="fill: rgb(68, 81, 83);">
<polygon points="0,100 100,50 100,50 0,0 "/>
</g></g><g transform="translate(0,403) scale(0.31,0.31)"><g transform="" style="fill: rgb(68, 81, 83);">
<polygon points="100,100 50,0 50,0 0,100 "/>
</g></g><g transform="translate(93,403) scale(0.31,0.31)"><g transform="" style="fill: rgb(68, 81, 83);">
<rect width="100" height="100"/>
</g></g><g transform="translate(124,403) scale(0.31,0.31)"><g transform="" style="fill: rgb(68, 81, 83);">
<g>
	<path d="M100,34.375c0-9.505-3.354-17.611-10.059-24.316S75.131,0,65.625,0H0v100h100V34.375z"/>
</g>
</g></g><g transform="translate(465,403) scale(0.31,0.31)"><g transform="" style="fill: rgb(68, 81, 83);">
<rect width="100" height="100"/>
</g></g><g transform="translate(496,403) scale(0.31,0.31)"><g transform="" style="fill: rgb(68, 81, 83);">
<rect width="100" height="100"/>
</g></g><g transform="translate(527,403) scale(0.31,0.31)"><g transform="" style="fill: rgb(68, 81, 83);">
<polygon points="0,100 100,50 100,50 0,0 "/>
</g></g><g transform="translate(651,403) scale(0.31,0.31)"><g transform="" style="fill: rgb(68, 81, 83);">
<polygon points="99.999,49.999 99.998,49.999 49.999,0 0,49.999 -0.001,49.999 -0.001,50 0,50 49.999,99.999 99.998,50 99.999,50 
	99.998,50 "/>
</g></g><g transform="translate(713,403) scale(0.31,0.31)"><g transform="" style="fill: rgb(68, 81, 83);">
<polygon points="99.999,49.999 99.998,49.999 49.999,0 0,49.999 -0.001,49.999 -0.001,50 0,50 49.999,99.999 99.998,50 99.999,50 
	99.998,50 "/>
</g></g><g transform="translate(775,403) scale(0.31,0.31)"><g transform="" style="fill: rgb(68, 81, 83);">
<polygon points="99.999,49.999 99.998,49.999 49.999,0 0,49.999 -0.001,49.999 -0.001,50 0,50 49.999,99.999 99.998,50 99.999,50 
	99.998,50 "/>
</g></g><g transform="translate(837,403) scale(0.31,0.31)"><g transform="" style="fill: rgb(68, 81, 83);">
<rect width="100" height="100"/>
</g></g><g transform="translate(930,403) scale(0.31,0.31)"><g transform="" style="fill: rgb(68, 81, 83);">
<polygon points="99.999,49.999 99.998,49.999 49.999,0 0,49.999 -0.001,49.999 -0.001,50 0,50 49.999,99.999 99.998,50 99.999,50 
	99.998,50 "/>
</g></g><g transform="translate(0,434) scale(0.31,0.31)"><g transform="" style="fill: rgb(68, 81, 83);">
<polygon points="0,-0.001 50,99.999 50,99.999 100,-0.001 "/>
</g></g><g transform="translate(93,434) scale(0.31,0.31)"><g transform="" style="fill: rgb(68, 81, 83);">
<g>
	<path d="M100,0H0v65.625c0,9.506,3.353,17.611,10.059,24.316S24.87,100,34.375,100H100V0z"/>
</g>
</g></g><g transform="translate(124,434) scale(0.31,0.31)"><g transform="" style="fill: rgb(68, 81, 83);">
<rect width="100" height="100"/>
</g></g><g transform="translate(186,434) scale(0.31,0.31)"><g transform="" style="fill: rgb(68, 81, 83);">
<polygon points="99.999,49.999 99.998,49.999 49.999,0 0,49.999 -0.001,49.999 -0.001,50 0,50 49.999,99.999 99.998,50 99.999,50 
	99.998,50 "/>
</g></g><g transform="translate(279,434) scale(0.31,0.31)"><g transform="" style="fill: rgb(68, 81, 83);">
<polygon points="99.999,49.999 99.998,49.999 49.999,0 0,49.999 -0.001,49.999 -0.001,50 0,50 49.999,99.999 99.998,50 99.999,50 
	99.998,50 "/>
</g></g><g transform="translate(434,434) scale(0.31,0.31)"><g transform="" style="fill: rgb(68, 81, 83);">
<polygon points="100,100 0,50 0,50 100,0 "/>
</g></g><g transform="translate(465,434) scale(0.31,0.31)"><g transform="" style="fill: rgb(68, 81, 83);">
<rect width="100" height="100"/>
</g></g><g transform="translate(496,434) scale(0.31,0.31)"><g transform="" style="fill: rgb(68, 81, 83);">
<rect width="100" height="100"/>
</g></g><g transform="translate(589,434) scale(0.31,0.31)"><g transform="" style="fill: rgb(68, 81, 83);">
<g>
	<path d="M100,34.375V0H34.375C24.87,0,16.764,3.353,10.059,10.059S0,24.87,0,34.375V100h100V34.375z"/>
</g>
</g></g><g transform="translate(620,434) scale(0.31,0.31)"><g transform="" style="fill: rgb(68, 81, 83);">
<g>
	<path d="M100,34.375c0-9.505-3.354-17.611-10.059-24.316S75.131,0,65.625,0H0v100h100V34.375z"/>
</g>
</g></g><g transform="translate(806,434) scale(0.31,0.31)"><g transform="" style="fill: rgb(68, 81, 83);">
<polygon points="100,100 0,50 0,50 100,0 "/>
</g></g><g transform="translate(837,434) scale(0.31,0.31)"><g transform="" style="fill: rgb(68, 81, 83);">
<rect width="100" height="100"/>
</g></g><g transform="translate(868,434) scale(0.31,0.31)"><g transform="" style="fill: rgb(68, 81, 83);">
<rect width="100" height="100"/>
</g></g><g transform="translate(899,434) scale(0.31,0.31)"><g transform="" style="fill: rgb(68, 81, 83);">
<polygon points="0,100 100,50 100,50 0,0 "/>
</g></g><g transform="translate(31,465) scale(0.31,0.31)"><g transform="" style="fill: rgb(68, 81, 83);">
<polygon points="99.999,49.999 99.998,49.999 49.999,0 0,49.999 -0.001,49.999 -0.001,50 0,50 49.999,99.999 99.998,50 99.999,50 
	99.998,50 "/>
</g></g><g transform="translate(124,465) scale(0.31,0.31)"><g transform="" style="fill: rgb(68, 81, 83);">
<polygon points="0,-0.001 50,99.999 50,99.999 100,-0.001 "/>
</g></g><g transform="translate(310,465) scale(0.31,0.31)"><g transform="" style="fill: rgb(68, 81, 83);">
<polygon points="100,100 0,50 0,50 100,0 "/>
</g></g><g transform="translate(341,465) scale(0.31,0.31)"><g transform="" style="fill: rgb(68, 81, 83);">
<rect width="100" height="100"/>
</g></g><g transform="translate(372,465) scale(0.31,0.31)"><g transform="" style="fill: rgb(68, 81, 83);">
<g>
	<path d="M100,34.375c0-9.505-3.354-17.611-10.059-24.316S75.131,0,65.625,0H0v100h100V34.375z"/>
</g>
</g></g><g transform="translate(496,465) scale(0.31,0.31)"><g transform="" style="fill: rgb(68, 81, 83);">
<rect width="100" height="100"/>
</g></g><g transform="translate(589,465) scale(0.31,0.31)"><g transform="" style="fill: rgb(68, 81, 83);">
<g>
	<path d="M100,0H0v65.625c0,9.506,3.353,17.611,10.059,24.316S24.87,100,34.375,100H100V0z"/>
</g>
</g></g><g transform="translate(620,465) scale(0.31,0.31)"><g transform="" style="fill: rgb(68, 81, 83);">
<rect width="100" height="100"/>
</g></g><g transform="translate(713,465) scale(0.31,0.31)"><g transform="" style="fill: rgb(68, 81, 83);">
<polygon points="99.999,49.999 99.998,49.999 49.999,0 0,49.999 -0.001,49.999 -0.001,50 0,50 49.999,99.999 99.998,50 99.999,50 
	99.998,50 "/>
</g></g><g transform="translate(775,465) scale(0.31,0.31)"><g transform="" style="fill: rgb(68, 81, 83);">
<polygon points="100,100 50,0 50,0 0,100 "/>
</g></g><g transform="translate(837,465) scale(0.31,0.31)"><g transform="" style="fill: rgb(68, 81, 83);">
<rect width="100" height="100"/>
</g></g><g transform="translate(868,465) scale(0.31,0.31)"><g transform="" style="fill: rgb(68, 81, 83);">
<rect width="100" height="100"/>
</g></g><g transform="translate(930,465) scale(0.31,0.31)"><g transform="" style="fill: rgb(68, 81, 83);">
<polygon points="99.999,49.999 99.998,49.999 49.999,0 0,49.999 -0.001,49.999 -0.001,50 0,50 49.999,99.999 99.998,50 99.999,50 
	99.998,50 "/>
</g></g><g transform="translate(992,465) scale(0.31,0.31)"><g transform="" style="fill: rgb(68, 81, 83);">
<polygon points="99.999,49.999 99.998,49.999 49.999,0 0,49.999 -0.001,49.999 -0.001,50 0,50 49.999,99.999 99.998,50 99.999,50 
	99.998,50 "/>
</g></g><g transform="translate(0,496) scale(0.31,0.31)"><g transform="" style="fill: rgb(68, 81, 83);">
<polygon points="99.999,49.999 99.998,49.999 49.999,0 0,49.999 -0.001,49.999 -0.001,50 0,50 49.999,99.999 99.998,50 99.999,50 
	99.998,50 "/>
</g></g><g transform="translate(93,496) scale(0.31,0.31)"><g transform="" style="fill: rgb(68, 81, 83);">
<polygon points="99.999,49.999 99.998,49.999 49.999,0 0,49.999 -0.001,49.999 -0.001,50 0,50 49.999,99.999 99.998,50 99.999,50 
	99.998,50 "/>
</g></g><g transform="translate(155,496) scale(0.31,0.31)"><g transform="" style="fill: rgb(68, 81, 83);">
<polygon points="100,100 0,50 0,50 100,0 "/>
</g></g><g transform="translate(186,496) scale(0.31,0.31)"><g transform="" style="fill: rgb(68, 81, 83);">
<polygon points="0,100 100,50 100,50 0,0 "/>
</g></g><g transform="translate(248,496) scale(0.31,0.31)"><g transform="" style="fill: rgb(68, 81, 83);">
<polygon points="100,100 50,0 50,0 0,100 "/>
</g></g><g transform="translate(372,496) scale(0.31,0.31)"><g transform="" style="fill: rgb(68, 81, 83);">
<g>
	<path d="M100,0H0v65.625c0,9.506,3.353,17.611,10.059,24.316S24.87,100,34.375,100H100V0z"/>
</g>
</g></g><g transform="translate(403,496) scale(0.31,0.31)"><g transform="" style="fill: rgb(68, 81, 83);">
<polygon points="0,100 100,50 100,50 0,0 "/>
</g></g><g transform="translate(465,496) scale(0.31,0.31)"><g transform="" style="fill: rgb(68, 81, 83);">
<g>
	<path d="M100,34.375V0H34.375C24.87,0,16.764,3.353,10.059,10.059S0,24.87,0,34.375V100h100V34.375z"/>
</g>
</g></g><g transform="translate(496,496) scale(0.31,0.31)"><g transform="" style="fill: rgb(68, 81, 83);">
<g>
	<path d="M100,0H0v100h65.625c9.506,0,17.611-3.354,24.316-10.059S100,75.131,100,65.625V0z"/>
</g>
</g></g><g transform="translate(558,496) scale(0.31,0.31)"><g transform="" style="fill: rgb(68, 81, 83);">
<polygon points="100,100 50,0 50,0 0,100 "/>
</g></g><g transform="translate(620,496) scale(0.31,0.31)"><g transform="" style="fill: rgb(68, 81, 83);">
<polygon points="0,-0.001 50,99.999 50,99.999 100,-0.001 "/>
</g></g><g transform="translate(682,496) scale(0.31,0.31)"><g transform="" style="fill: rgb(68, 81, 83);">
<polygon points="100,100 50,0 50,0 0,100 "/>
</g></g><g transform="translate(775,496) scale(0.31,0.31)"><g transform="" style="fill: rgb(68, 81, 83);">
<rect width="100" height="100"/>
</g></g><g transform="translate(806,496) scale(0.31,0.31)"><g transform="" style="fill: rgb(68, 81, 83);">
<rect width="100" height="100"/>
</g></g><g transform="translate(837,496) scale(0.31,0.31)"><g transform="" style="fill: rgb(68, 81, 83);">
<rect width="100" height="100"/>
</g></g><g transform="translate(868,496) scale(0.31,0.31)"><g transform="" style="fill: rgb(68, 81, 83);">
<rect width="100" height="100"/>
</g></g><g transform="translate(899,496) scale(0.31,0.31)"><g transform="" style="fill: rgb(68, 81, 83);">
<polygon points="0,100 100,50 100,50 0,0 "/>
</g></g><g transform="translate(31,527) scale(0.31,0.31)"><g transform="" style="fill: rgb(68, 81, 83);">
<polygon points="100,100 0,50 0,50 100,0 "/>
</g></g><g transform="translate(62,527) scale(0.31,0.31)"><g transform="" style="fill: rgb(68, 81, 83);">
<polygon points="0,100 100,50 100,50 0,0 "/>
</g></g><g transform="translate(248,527) scale(0.31,0.31)"><g transform="" style="fill: rgb(68, 81, 83);">
<g>
	<path d="M100,0H0v65.625c0,9.506,3.353,17.611,10.059,24.316S24.87,100,34.375,100H100V0z"/>
</g>
</g></g><g transform="translate(279,527) scale(0.31,0.31)"><g transform="" style="fill: rgb(68, 81, 83);">
<rect width="100" height="100"/>
</g></g><g transform="translate(310,527) scale(0.31,0.31)"><g transform="" style="fill: rgb(68, 81, 83);">
<rect width="100" height="100"/>
</g></g><g transform="translate(341,527) scale(0.31,0.31)"><g transform="" style="fill: rgb(68, 81, 83);">
<g>
	<path d="M100,34.375c0-9.505-3.354-17.611-10.059-24.316S75.131,0,65.625,0H0v100h100V34.375z"/>
</g>
</g></g><g transform="translate(434,527) scale(0.31,0.31)"><g transform="" style="fill: rgb(68, 81, 83);">
<polygon points="100,100 0,50 0,50 100,0 "/>
</g></g><g transform="translate(465,527) scale(0.31,0.31)"><g transform="" style="fill: rgb(68, 81, 83);">
<rect width="100" height="100"/>
</g></g><g transform="translate(527,527) scale(0.31,0.31)"><g transform="" style="fill: rgb(68, 81, 83);">
<polygon points="100,100 0,50 0,50 100,0 "/>
</g></g><g transform="translate(558,527) scale(0.31,0.31)"><g transform="" style="fill: rgb(68, 81, 83);">
<rect width="100" height="100"/>
</g></g><g transform="translate(589,527) scale(0.31,0.31)"><g transform="" style="fill: rgb(68, 81, 83);">
<g>
	<path d="M100,34.375c0-9.505-3.354-17.611-10.059-24.316S75.131,0,65.625,0H0v100h100V34.375z"/>
</g>
</g></g><g transform="translate(651,527) scale(0.31,0.31)"><g transform="" style="fill: rgb(68, 81, 83);">
<polygon points="100,100 0,50 0,50 100,0 "/>
</g></g><g transform="translate(682,527) scale(0.31,0.31)"><g transform="" style="fill: rgb(68, 81, 83);">
<g>
	<path d="M100,0H0v100h65.625c9.506,0,17.611-3.354,24.316-10.059S100,75.131,100,65.625V0z"/>
</g>
</g></g><g transform="translate(775,527) scale(0.31,0.31)"><g transform="" style="fill: rgb(68, 81, 83);">
<rect width="100" height="100"/>
</g></g><g transform="translate(806,527) scale(0.31,0.31)"><g transform="" style="fill: rgb(68, 81, 83);">
<g>
	<path d="M100,0H0v100h65.625c9.506,0,17.611-3.354,24.316-10.059S100,75.131,100,65.625V0z"/>
</g>
</g></g><g transform="translate(868,527) scale(0.31,0.31)"><g transform="" style="fill: rgb(68, 81, 83);">
<polygon points="0,-0.001 50,99.999 50,99.999 100,-0.001 "/>
</g></g><g transform="translate(930,527) scale(0.31,0.31)"><g transform="" style="fill: rgb(68, 81, 83);">
<g>
	<path d="M100,34.375V0H34.375C24.87,0,16.764,3.353,10.059,10.059S0,24.87,0,34.375V100h100V34.375z"/>
</g>
</g></g><g transform="translate(961,527) scale(0.31,0.31)"><g transform="" style="fill: rgb(68, 81, 83);">
<rect width="100" height="100"/>
</g></g><g transform="translate(992,527) scale(0.31,0.31)"><g transform="" style="fill: rgb(68, 81, 83);">
<g>
	<path d="M100,34.375c0-9.505-3.354-17.611-10.059-24.316S75.131,0,65.625,0H0v100h100V34.375z"/>
</g>
</g></g><g transform="translate(93,558) scale(0.31,0.31)"><g transform="" style="fill: rgb(68, 81, 83);">
<polygon points="99.999,49.999 99.998,49.999 49.999,0 0,49.999 -0.001,49.999 -0.001,50 0,50 49.999,99.999 99.998,50 99.999,50 
	99.998,50 "/>
</g></g><g transform="translate(186,558) scale(0.31,0.31)"><g transform="" style="fill: rgb(68, 81, 83);">
<polygon points="100,100 0,50 0,50 100,0 "/>
</g></g><g transform="translate(217,558) scale(0.31,0.31)"><g transform="" style="fill: rgb(68, 81, 83);">
<g>
	<path d="M100,34.375c0-9.505-3.354-17.611-10.059-24.316S75.131,0,65.625,0H0v100h100V34.375z"/>
</g>
</g></g><g transform="translate(279,558) scale(0.31,0.31)"><g transform="" style="fill: rgb(68, 81, 83);">
<rect width="100" height="100"/>
</g></g><g transform="translate(341,558) scale(0.31,0.31)"><g transform="" style="fill: rgb(68, 81, 83);">
<rect width="100" height="100"/>
</g></g><g transform="translate(372,558) scale(0.31,0.31)"><g transform="" style="fill: rgb(68, 81, 83);">
<rect width="100" height="100"/>
</g></g><g transform="translate(403,558) scale(0.31,0.31)"><g transform="" style="fill: rgb(68, 81, 83);">
<polygon points="0,100 100,50 100,50 0,0 "/>
</g></g><g transform="translate(465,558) scale(0.31,0.31)"><g transform="" style="fill: rgb(68, 81, 83);">
<rect width="100" height="100"/>
</g></g><g transform="translate(558,558) scale(0.31,0.31)"><g transform="" style="fill: rgb(68, 81, 83);">
<g>
	<path d="M100,0H0v65.625c0,9.506,3.353,17.611,10.059,24.316S24.87,100,34.375,100H100V0z"/>
</g>
</g></g><g transform="translate(589,558) scale(0.31,0.31)"><g transform="" style="fill: rgb(68, 81, 83);">
<rect width="100" height="100"/>
</g></g><g transform="translate(713,558) scale(0.31,0.31)"><g transform="" style="fill: rgb(68, 81, 83);">
<polygon points="99.999,49.999 99.998,49.999 49.999,0 0,49.999 -0.001,49.999 -0.001,50 0,50 49.999,99.999 99.998,50 99.999,50 
	99.998,50 "/>
</g></g><g transform="translate(775,558) scale(0.31,0.31)"><g transform="" style="fill: rgb(68, 81, 83);">
<polygon points="0,-0.001 50,99.999 50,99.999 100,-0.001 "/>
</g></g><g transform="translate(837,558) scale(0.31,0.31)"><g transform="" style="fill: rgb(68, 81, 83);">
<polygon points="99.999,49.999 99.998,49.999 49.999,0 0,49.999 -0.001,49.999 -0.001,50 0,50 49.999,99.999 99.998,50 99.999,50 
	99.998,50 "/>
</g></g><g transform="translate(899,558) scale(0.31,0.31)"><g transform="" style="fill: rgb(68, 81, 83);">
<g>
	<path d="M100,34.375V0H34.375C24.87,0,16.764,3.353,10.059,10.059S0,24.87,0,34.375V100h100V34.375z"/>
</g>
</g></g><g transform="translate(930,558) scale(0.31,0.31)"><g transform="" style="fill: rgb(68, 81, 83);">
<rect width="100" height="100"/>
</g></g><g transform="translate(992,558) scale(0.31,0.31)"><g transform="" style="fill: rgb(68, 81, 83);">
<rect width="100" height="100"/>
</g></g><g transform="translate(0,589) scale(0.31,0.31)"><g transform="" style="fill: rgb(68, 81, 83);">
<polygon points="99.999,49.999 99.998,49.999 49.999,0 0,49.999 -0.001,49.999 -0.001,50 0,50 49.999,99.999 99.998,50 99.999,50 
	99.998,50 "/>
</g></g><g transform="translate(62,589) scale(0.31,0.31)"><g transform="" style="fill: rgb(68, 81, 83);">
<polygon points="100,100 50,0 50,0 0,100 "/>
</g></g><g transform="translate(124,589) scale(0.31,0.31)"><g transform="" style="fill: rgb(68, 81, 83);">
<polygon points="100,100 0,50 0,50 100,0 "/>
</g></g><g transform="translate(155,589) scale(0.31,0.31)"><g transform="" style="fill: rgb(68, 81, 83);">
<g>
	<path d="M100,34.375c0-9.505-3.354-17.611-10.059-24.316S75.131,0,65.625,0H0v100h100V34.375z"/>
</g>
</g></g><g transform="translate(217,589) scale(0.31,0.31)"><g transform="" style="fill: rgb(68, 81, 83);">
<rect width="100" height="100"/>
</g></g><g transform="translate(248,589) scale(0.31,0.31)"><g transform="" style="fill: rgb(68, 81, 83);">
<rect width="100" height="100"/>
</g></g><g transform="translate(279,589) scale(0.31,0.31)"><g transform="" style="fill: rgb(68, 81, 83);">
<rect width="100" height="100"/>
</g></g><g transform="translate(310,589) scale(0.31,0.31)"><g transform="" style="fill: rgb(68, 81, 83);">
<rect width="100" height="100"/>
</g></g><g transform="translate(341,589) scale(0.31,0.31)"><g transform="" style="fill: rgb(68, 81, 83);">
<rect width="100" height="100"/>
</g></g><g transform="translate(372,589) scale(0.31,0.31)"><g transform="" style="fill: rgb(68, 81, 83);">
<rect width="100" height="100"/>
</g></g><g transform="translate(465,589) scale(0.31,0.31)"><g transform="" style="fill: rgb(68, 81, 83);">
<g>
	<path d="M100,0H0v65.625c0,9.506,3.353,17.611,10.059,24.316S24.87,100,34.375,100H100V0z"/>
</g>
</g></g><g transform="translate(496,589) scale(0.31,0.31)"><g transform="" style="fill: rgb(68, 81, 83);">
<polygon points="0,100 100,50 100,50 0,0 "/>
</g></g><g transform="translate(589,589) scale(0.31,0.31)"><g transform="" style="fill: rgb(68, 81, 83);">
<rect width="100" height="100"/>
</g></g><g transform="translate(744,589) scale(0.31,0.31)"><g transform="" style="fill: rgb(68, 81, 83);">
<polygon points="99.999,49.999 99.998,49.999 49.999,0 0,49.999 -0.001,49.999 -0.001,50 0,50 49.999,99.999 99.998,50 99.999,50 
	99.998,50 "/>
</g></g><g transform="translate(806,589) scale(0.31,0.31)"><g transform="" style="fill: rgb(68, 81, 83);">
<polygon points="99.999,49.999 99.998,49.999 49.999,0 0,49.999 -0.001,49.999 -0.001,50 0,50 49.999,99.999 99.998,50 99.999,50 
	99.998,50 "/>
</g></g><g transform="translate(868,589) scale(0.31,0.31)"><g transform="" style="fill: rgb(68, 81, 83);">
<polygon points="100,100 0,50 0,50 100,0 "/>
</g></g><g transform="translate(899,589) scale(0.31,0.31)"><g transform="" style="fill: rgb(68, 81, 83);">
<rect width="100" height="100"/>
</g></g><g transform="translate(930,589) scale(0.31,0.31)"><g transform="" style="fill: rgb(68, 81, 83);">
<rect width="100" height="100"/>
</g></g><g transform="translate(961,589) scale(0.31,0.31)"><g transform="" style="fill: rgb(68, 81, 83);">
<rect width="100" height="100"/>
</g></g><g transform="translate(992,589) scale(0.31,0.31)"><g transform="" style="fill: rgb(68, 81, 83);">
<g>
	<path d="M100,0H0v100h65.625c9.506,0,17.611-3.354,24.316-10.059S100,75.131,100,65.625V0z"/>
</g>
</g></g><g transform="translate(31,620) scale(0.31,0.31)"><g transform="" style="fill: rgb(68, 81, 83);">
<g>
	<path d="M100,34.375V0H34.375C24.87,0,16.764,3.353,10.059,10.059S0,24.87,0,34.375V100h100V34.375z"/>
</g>
</g></g><g transform="translate(62,620) scale(0.31,0.31)"><g transform="" style="fill: rgb(68, 81, 83);">
<g>
	<path d="M100,0H0v100h65.625c9.506,0,17.611-3.354,24.316-10.059S100,75.131,100,65.625V0z"/>
</g>
</g></g><g transform="translate(155,620) scale(0.31,0.31)"><g transform="" style="fill: rgb(68, 81, 83);">
<rect width="100" height="100"/>
</g></g><g transform="translate(186,620) scale(0.31,0.31)"><g transform="" style="fill: rgb(68, 81, 83);">
<rect width="100" height="100"/>
</g></g><g transform="translate(217,620) scale(0.31,0.31)"><g transform="" style="fill: rgb(68, 81, 83);">
<rect width="100" height="100"/>
</g></g><g transform="translate(248,620) scale(0.31,0.31)"><g transform="" style="fill: rgb(68, 81, 83);">
<rect width="100" height="100"/>
</g></g><g transform="translate(279,620) scale(0.31,0.31)"><g transform="" style="fill: rgb(68, 81, 83);">
<rect width="100" height="100"/>
</g></g><g transform="translate(310,620) scale(0.31,0.31)"><g transform="" style="fill: rgb(68, 81, 83);">
<rect width="100" height="100"/>
</g></g><g transform="translate(372,620) scale(0.31,0.31)"><g transform="" style="fill: rgb(68, 81, 83);">
<g>
	<path d="M100,0H0v65.625c0,9.506,3.353,17.611,10.059,24.316S24.87,100,34.375,100H100V0z"/>
</g>
</g></g><g transform="translate(403,620) scale(0.31,0.31)"><g transform="" style="fill: rgb(68, 81, 83);">
<rect width="100" height="100"/>
</g></g><g transform="translate(434,620) scale(0.31,0.31)"><g transform="" style="fill: rgb(68, 81, 83);">
<g>
	<path d="M100,34.375c0-9.505-3.354-17.611-10.059-24.316S75.131,0,65.625,0H0v100h100V34.375z"/>
</g>
</g></g><g transform="translate(527,620) scale(0.31,0.31)"><g transform="" style="fill: rgb(68, 81, 83);">
<polygon points="100,100 50,0 50,0 0,100 "/>
</g></g><g transform="translate(589,620) scale(0.31,0.31)"><g transform="" style="fill: rgb(68, 81, 83);">
<rect width="100" height="100"/>
</g></g><g transform="translate(620,620) scale(0.31,0.31)"><g transform="" style="fill: rgb(68, 81, 83);">
<polygon points="0,100 100,50 100,50 0,0 "/>
</g></g><g transform="translate(899,620) scale(0.31,0.31)"><g transform="" style="fill: rgb(68, 81, 83);">
<rect width="100" height="100"/>
</g></g><g transform="translate(961,620) scale(0.31,0.31)"><g transform="" style="fill: rgb(68, 81, 83);">
<polygon points="0,-0.001 50,99.999 50,99.999 100,-0.001 "/>
</g></g><g transform="translate(0,651) scale(0.31,0.31)"><g transform="" style="fill: rgb(68, 81, 83);">
<g>
	<path d="M100,34.375V0H34.375C24.87,0,16.764,3.353,10.059,10.059S0,24.87,0,34.375V100h100V34.375z"/>
</g>
</g></g><g transform="translate(31,651) scale(0.31,0.31)"><g transform="" style="fill: rgb(68, 81, 83);">
<g>
	<path d="M100,0H0v100h65.625c9.506,0,17.611-3.354,24.316-10.059S100,75.131,100,65.625V0z"/>
</g>
</g></g><g transform="translate(93,651) scale(0.31,0.31)"><g transform="" style="fill: rgb(68, 81, 83);">
<g>
	<path d="M100,34.375V0H34.375C24.87,0,16.764,3.353,10.059,10.059S0,24.87,0,34.375V100h100V34.375z"/>
</g>
</g></g><g transform="translate(124,651) scale(0.31,0.31)"><g transform="" style="fill: rgb(68, 81, 83);">
<rect width="100" height="100"/>
</g></g><g transform="translate(155,651) scale(0.31,0.31)"><g transform="" style="fill: rgb(68, 81, 83);">
<rect width="100" height="100"/>
</g></g><g transform="translate(248,651) scale(0.31,0.31)"><g transform="" style="fill: rgb(68, 81, 83);">
<polygon points="0,-0.001 50,99.999 50,99.999 100,-0.001 "/>
</g></g><g transform="translate(310,651) scale(0.31,0.31)"><g transform="" style="fill: rgb(68, 81, 83);">
<rect width="100" height="100"/>
</g></g><g transform="translate(341,651) scale(0.31,0.31)"><g transform="" style="fill: rgb(68, 81, 83);">
<g>
	<path d="M100,34.375c0-9.505-3.354-17.611-10.059-24.316S75.131,0,65.625,0H0v100h100V34.375z"/>
</g>
</g></g><g transform="translate(434,651) scale(0.31,0.31)"><g transform="" style="fill: rgb(68, 81, 83);">
<rect width="100" height="100"/>
</g></g><g transform="translate(465,651) scale(0.31,0.31)"><g transform="" style="fill: rgb(68, 81, 83);">
<g>
	<path d="M100,34.375c0-9.505-3.354-17.611-10.059-24.316S75.131,0,65.625,0H0v100h100V34.375z"/>
</g>
</g></g><g transform="translate(527,651) scale(0.31,0.31)"><g transform="" style="fill: rgb(68, 81, 83);">
<polygon points="0,-0.001 50,99.999 50,99.999 100,-0.001 "/>
</g></g><g transform="translate(589,651) scale(0.31,0.31)"><g transform="" style="fill: rgb(68, 81, 83);">
<polygon points="0,-0.001 50,99.999 50,99.999 100,-0.001 "/>
</g></g><g transform="translate(651,651) scale(0.31,0.31)"><g transform="" style="fill: rgb(68, 81, 83);">
<polygon points="100,100 0,50 0,50 100,0 "/>
</g></g><g transform="translate(682,651) scale(0.31,0.31)"><g transform="" style="fill: rgb(68, 81, 83);">
<rect width="100" height="100"/>
</g></g><g transform="translate(713,651) scale(0.31,0.31)"><g transform="" style="fill: rgb(68, 81, 83);">
<rect width="100" height="100"/>
</g></g><g transform="translate(744,651) scale(0.31,0.31)"><g transform="" style="fill: rgb(68, 81, 83);">
<polygon points="0,100 100,50 100,50 0,0 "/>
</g></g><g transform="translate(837,651) scale(0.31,0.31)"><g transform="" style="fill: rgb(68, 81, 83);">
<polygon points="100,100 0,50 0,50 100,0 "/>
</g></g><g transform="translate(868,651) scale(0.31,0.31)"><g transform="" style="fill: rgb(68, 81, 83);">
<rect width="100" height="100"/>
</g></g><g transform="translate(899,651) scale(0.31,0.31)"><g transform="" style="fill: rgb(68, 81, 83);">
<g>
	<path d="M100,0H0v100h65.625c9.506,0,17.611-3.354,24.316-10.059S100,75.131,100,65.625V0z"/>
</g>
</g></g><g transform="translate(0,682) scale(0.31,0.31)"><g transform="" style="fill: rgb(68, 81, 83);">
<rect width="100" height="100"/>
</g></g><g transform="translate(62,682) scale(0.31,0.31)"><g transform="" style="fill: rgb(68, 81, 83);">
<polygon points="100,100 0,50 0,50 100,0 "/>
</g></g><g transform="translate(93,682) scale(0.31,0.31)"><g transform="" style="fill: rgb(68, 81, 83);">
<g>
	<path d="M100,0H0v100h65.625c9.506,0,17.611-3.354,24.316-10.059S100,75.131,100,65.625V0z"/>
</g>
</g></g><g transform="translate(155,682) scale(0.31,0.31)"><g transform="" style="fill: rgb(68, 81, 83);">
<rect width="100" height="100"/>
</g></g><g transform="translate(186,682) scale(0.31,0.31)"><g transform="" style="fill: rgb(68, 81, 83);">
<polygon points="0,100 100,50 100,50 0,0 "/>
</g></g><g transform="translate(310,682) scale(0.31,0.31)"><g transform="" style="fill: rgb(68, 81, 83);">
<rect width="100" height="100"/>
</g></g><g transform="translate(341,682) scale(0.31,0.31)"><g transform="" style="fill: rgb(68, 81, 83);">
<rect width="100" height="100"/>
</g></g><g transform="translate(372,682) scale(0.31,0.31)"><g transform="" style="fill: rgb(68, 81, 83);">
<g>
	<path d="M100,34.375c0-9.505-3.354-17.611-10.059-24.316S75.131,0,65.625,0H0v100h100V34.375z"/>
</g>
</g></g><g transform="translate(434,682) scale(0.31,0.31)"><g transform="" style="fill: rgb(68, 81, 83);">
<g>
	<path d="M100,0H0v65.625c0,9.506,3.353,17.611,10.059,24.316S24.87,100,34.375,100H100V0z"/>
</g>
</g></g><g transform="translate(465,682) scale(0.31,0.31)"><g transform="" style="fill: rgb(68, 81, 83);">
<rect width="100" height="100"/>
</g></g><g transform="translate(496,682) scale(0.31,0.31)"><g transform="" style="fill: rgb(68, 81, 83);">
<g>
	<path d="M100,34.375c0-9.505-3.354-17.611-10.059-24.316S75.131,0,65.625,0H0v100h100V34.375z"/>
</g>
</g></g><g transform="translate(620,682) scale(0.31,0.31)"><g transform="" style="fill: rgb(68, 81, 83);">
<polygon points="100,100 50,0 50,0 0,100 "/>
</g></g><g transform="translate(682,682) scale(0.31,0.31)"><g transform="" style="fill: rgb(68, 81, 83);">
<g>
	<path d="M100,0H0v65.625c0,9.506,3.353,17.611,10.059,24.316S24.87,100,34.375,100H100V0z"/>
</g>
</g></g><g transform="translate(713,682) scale(0.31,0.31)"><g transform="" style="fill: rgb(68, 81, 83);">
<g>
	<path d="M100,0H0v100h65.625c9.506,0,17.611-3.354,24.316-10.059S100,75.131,100,65.625V0z"/>
</g>
</g></g><g transform="translate(806,682) scale(0.31,0.31)"><g transform="" style="fill: rgb(68, 81, 83);">
<polygon points="99.999,49.999 99.998,49.999 49.999,0 0,49.999 -0.001,49.999 -0.001,50 0,50 49.999,99.999 99.998,50 99.999,50 
	99.998,50 "/>
</g></g><g transform="translate(961,682) scale(0.31,0.31)"><g transform="" style="fill: rgb(68, 81, 83);">
<polygon points="100,100 0,50 0,50 100,0 "/>
</g></g><g transform="translate(992,682) scale(0.31,0.31)"><g transform="" style="fill: rgb(68, 81, 83);">
<polygon points="0,100 100,50 100,50 0,0 "/>
</g></g><g transform="translate(0,713) scale(0.31,0.31)"><g transform="" style="fill: rgb(68, 81, 83);">
<rect width="100" height="100"/>
</g></g><g transform="translate(124,713) scale(0.31,0.31)"><g transform="" style="fill: rgb(68, 81, 83);">
<g>
	<path d="M100,34.375V0H34.375C24.87,0,16.764,3.353,10.059,10.059S0,24.87,0,34.375V100h100V34.375z"/>
</g>
</g></g><g transform="translate(155,713) scale(0.31,0.31)"><g transform="" style="fill: rgb(68, 81, 83);">
<rect width="100" height="100"/>
</g></g><g transform="translate(217,713) scale(0.31,0.31)"><g transform="" style="fill: rgb(68, 81, 83);">
<polygon points="100,100 50,0 50,0 0,100 "/>
</g></g><g transform="translate(279,713) scale(0.31,0.31)"><g transform="" style="fill: rgb(68, 81, 83);">
<g>
	<path d="M100,34.375V0H34.375C24.87,0,16.764,3.353,10.059,10.059S0,24.87,0,34.375V100h100V34.375z"/>
</g>
</g></g><g transform="translate(310,713) scale(0.31,0.31)"><g transform="" style="fill: rgb(68, 81, 83);">
<g>
	<path d="M100,0H0v100h65.625c9.506,0,17.611-3.354,24.316-10.059S100,75.131,100,65.625V0z"/>
</g>
</g></g><g transform="translate(372,713) scale(0.31,0.31)"><g transform="" style="fill: rgb(68, 81, 83);">
<polygon points="0,-0.001 50,99.999 50,99.999 100,-0.001 "/>
</g></g><g transform="translate(496,713) scale(0.31,0.31)"><g transform="" style="fill: rgb(68, 81, 83);">
<rect width="100" height="100"/>
</g></g><g transform="translate(527,713) scale(0.31,0.31)"><g transform="" style="fill: rgb(68, 81, 83);">
<polygon points="0,100 100,50 100,50 0,0 "/>
</g></g><g transform="translate(589,713) scale(0.31,0.31)"><g transform="" style="fill: rgb(68, 81, 83);">
<polygon points="100,100 0,50 0,50 100,0 "/>
</g></g><g transform="translate(620,713) scale(0.31,0.31)"><g transform="" style="fill: rgb(68, 81, 83);">
<rect width="100" height="100"/>
</g></g><g transform="translate(744,713) scale(0.31,0.31)"><g transform="" style="fill: rgb(68, 81, 83);">
<polygon points="100,100 50,0 50,0 0,100 "/>
</g></g><g transform="translate(837,713) scale(0.31,0.31)"><g transform="" style="fill: rgb(68, 81, 83);">
<g>
	<path d="M100,34.375V0H34.375C24.87,0,16.764,3.353,10.059,10.059S0,24.87,0,34.375V100h100V34.375z"/>
</g>
</g></g><g transform="translate(868,713) scale(0.31,0.31)"><g transform="" style="fill: rgb(68, 81, 83);">
<g>
	<path d="M100,34.375c0-9.505-3.354-17.611-10.059-24.316S75.131,0,65.625,0H0v100h100V34.375z"/>
</g>
</g></g><g transform="translate(930,713) scale(0.31,0.31)"><g transform="" style="fill: rgb(68, 81, 83);">
<polygon points="99.999,49.999 99.998,49.999 49.999,0 0,49.999 -0.001,49.999 -0.001,50 0,50 49.999,99.999 99.998,50 99.999,50 
	99.998,50 "/>
</g></g><g transform="translate(0,744) scale(0.31,0.31)"><g transform="" style="fill: rgb(68, 81, 83);">
<g>
	<path d="M100,0H0v65.625c0,9.506,3.353,17.611,10.059,24.316S24.87,100,34.375,100H100V0z"/>
</g>
</g></g><g transform="translate(31,744) scale(0.31,0.31)"><g transform="" style="fill: rgb(68, 81, 83);">
<polygon points="0,100 100,50 100,50 0,0 "/>
</g></g><g transform="translate(93,744) scale(0.31,0.31)"><g transform="" style="fill: rgb(68, 81, 83);">
<polygon points="100,100 0,50 0,50 100,0 "/>
</g></g><g transform="translate(124,744) scale(0.31,0.31)"><g transform="" style="fill: rgb(68, 81, 83);">
<rect width="100" height="100"/>
</g></g><g transform="translate(155,744) scale(0.31,0.31)"><g transform="" style="fill: rgb(68, 81, 83);">
<rect width="100" height="100"/>
</g></g><g transform="translate(186,744) scale(0.31,0.31)"><g transform="" style="fill: rgb(68, 81, 83);">
<rect width="100" height="100"/>
</g></g><g transform="translate(217,744) scale(0.31,0.31)"><g transform="" style="fill: rgb(68, 81, 83);">
<rect width="100" height="100"/>
</g></g><g transform="translate(248,744) scale(0.31,0.31)"><g transform="" style="fill: rgb(68, 81, 83);">
<rect width="100" height="100"/>
</g></g><g transform="translate(279,744) scale(0.31,0.31)"><g transform="" style="fill: rgb(68, 81, 83);">
<g>
	<path d="M100,0H0v100h65.625c9.506,0,17.611-3.354,24.316-10.059S100,75.131,100,65.625V0z"/>
</g>
</g></g><g transform="translate(341,744) scale(0.31,0.31)"><g transform="" style="fill: rgb(68, 81, 83);">
<polygon points="99.999,49.999 99.998,49.999 49.999,0 0,49.999 -0.001,49.999 -0.001,50 0,50 49.999,99.999 99.998,50 99.999,50 
	99.998,50 "/>
</g></g><g transform="translate(403,744) scale(0.31,0.31)"><g transform="" style="fill: rgb(68, 81, 83);">
<g>
	<path d="M100,34.375V0H34.375C24.87,0,16.764,3.353,10.059,10.059S0,24.87,0,34.375V100h100V34.375z"/>
</g>
</g></g><g transform="translate(434,744) scale(0.31,0.31)"><g transform="" style="fill: rgb(68, 81, 83);">
<rect width="100" height="100"/>
</g></g><g transform="translate(465,744) scale(0.31,0.31)"><g transform="" style="fill: rgb(68, 81, 83);">
<rect width="100" height="100"/>
</g></g><g transform="translate(496,744) scale(0.31,0.31)"><g transform="" style="fill: rgb(68, 81, 83);">
<rect width="100" height="100"/>
</g></g><g transform="translate(620,744) scale(0.31,0.31)"><g transform="" style="fill: rgb(68, 81, 83);">
<polygon points="0,-0.001 50,99.999 50,99.999 100,-0.001 "/>
</g></g><g transform="translate(713,744) scale(0.31,0.31)"><g transform="" style="fill: rgb(68, 81, 83);">
<polygon points="100,100 0,50 0,50 100,0 "/>
</g></g><g transform="translate(744,744) scale(0.31,0.31)"><g transform="" style="fill: rgb(68, 81, 83);">
<rect width="100" height="100"/>
</g></g><g transform="translate(775,744) scale(0.31,0.31)"><g transform="" style="fill: rgb(68, 81, 83);">
<rect width="100" height="100"/>
</g></g><g transform="translate(806,744) scale(0.31,0.31)"><g transform="" style="fill: rgb(68, 81, 83);">
<rect width="100" height="100"/>
</g></g><g transform="translate(837,744) scale(0.31,0.31)"><g transform="" style="fill: rgb(68, 81, 83);">
<rect width="100" height="100"/>
</g></g><g transform="translate(868,744) scale(0.31,0.31)"><g transform="" style="fill: rgb(68, 81, 83);">
<rect width="100" height="100"/>
</g></g><g transform="translate(899,744) scale(0.31,0.31)"><g transform="" style="fill: rgb(68, 81, 83);">
<polygon points="0,100 100,50 100,50 0,0 "/>
</g></g><g transform="translate(248,775) scale(0.31,0.31)"><g transform="" style="fill: rgb(68, 81, 83);">
<rect width="100" height="100"/>
</g></g><g transform="translate(403,775) scale(0.31,0.31)"><g transform="" style="fill: rgb(68, 81, 83);">
<polygon points="0,-0.001 50,99.999 50,99.999 100,-0.001 "/>
</g></g><g transform="translate(465,775) scale(0.31,0.31)"><g transform="" style="fill: rgb(68, 81, 83);">
<rect width="100" height="100"/>
</g></g><g transform="translate(496,775) scale(0.31,0.31)"><g transform="" style="fill: rgb(68, 81, 83);">
<rect width="100" height="100"/>
</g></g><g transform="translate(744,775) scale(0.31,0.31)"><g transform="" style="fill: rgb(68, 81, 83);">
<rect width="100" height="100"/>
</g></g><g transform="translate(868,775) scale(0.31,0.31)"><g transform="" style="fill: rgb(68, 81, 83);">
<rect width="100" height="100"/>
</g></g><g transform="translate(930,775) scale(0.31,0.31)"><g transform="" style="fill: rgb(68, 81, 83);">
<polygon points="100,100 50,0 50,0 0,100 "/>
</g></g><g transform="translate(248,806) scale(0.31,0.31)"><g transform="" style="fill: rgb(68, 81, 83);">
<rect width="100" height="100"/>
</g></g><g transform="translate(310,806) scale(0.31,0.31)"><g transform="" style="fill: rgb(68, 81, 83);">
<polygon points="100,100 0,50 0,50 100,0 "/>
</g></g><g transform="translate(341,806) scale(0.31,0.31)"><g transform="" style="fill: rgb(68, 81, 83);">
<rect width="100" height="100"/>
</g></g><g transform="translate(372,806) scale(0.31,0.31)"><g transform="" style="fill: rgb(68, 81, 83);">
<polygon points="0,100 100,50 100,50 0,0 "/>
</g></g><g transform="translate(465,806) scale(0.31,0.31)"><g transform="" style="fill: rgb(68, 81, 83);">
<g>
	<path d="M100,0H0v65.625c0,9.506,3.353,17.611,10.059,24.316S24.87,100,34.375,100H100V0z"/>
</g>
</g></g><g transform="translate(496,806) scale(0.31,0.31)"><g transform="" style="fill: rgb(68, 81, 83);">
<rect width="100" height="100"/>
</g></g><g transform="translate(527,806) scale(0.31,0.31)"><g transform="" style="fill: rgb(68, 81, 83);">
<rect width="100" height="100"/>
</g></g><g transform="translate(558,806) scale(0.31,0.31)"><g transform="" style="fill: rgb(68, 81, 83);">
<rect width="100" height="100"/>
</g></g><g transform="translate(589,806) scale(0.31,0.31)"><g transform="" style="fill: rgb(68, 81, 83);">
<polygon points="0,100 100,50 100,50 0,0 "/>
</g></g><g transform="translate(651,806) scale(0.31,0.31)"><g transform="" style="fill: rgb(68, 81, 83);">
<polygon points="99.999,49.999 99.998,49.999 49.999,0 0,49.999 -0.001,49.999 -0.001,50 0,50 49.999,99.999 99.998,50 99.999,50 
	99.998,50 "/>
</g></g><g transform="translate(713,806) scale(0.31,0.31)"><g transform="" style="fill: rgb(68, 81, 83);">
<g>
	<path d="M100,34.375V0H34.375C24.87,0,16.764,3.353,10.059,10.059S0,24.87,0,34.375V100h100V34.375z"/>
</g>
</g></g><g transform="translate(744,806) scale(0.31,0.31)"><g transform="" style="fill: rgb(68, 81, 83);">
<rect width="100" height="100"/>
</g></g><g transform="translate(806,806) scale(0.31,0.31)"><g transform="" style="fill: rgb(68, 81, 83);">
<polygon points="99.999,49.999 99.998,49.999 49.999,0 0,49.999 -0.001,49.999 -0.001,50 0,50 49.999,99.999 99.998,50 99.999,50 
	99.998,50 "/>
</g></g><g transform="translate(868,806) scale(0.31,0.31)"><g transform="" style="fill: rgb(68, 81, 83);">
<rect width="100" height="100"/>
</g></g><g transform="translate(930,806) scale(0.31,0.31)"><g transform="" style="fill: rgb(68, 81, 83);">
<rect width="100" height="100"/>
</g></g><g transform="translate(248,837) scale(0.31,0.31)"><g transform="" style="fill: rgb(68, 81, 83);">
<rect width="100" height="100"/>
</g></g><g transform="translate(713,837) scale(0.31,0.31)"><g transform="" style="fill: rgb(68, 81, 83);">
<rect width="100" height="100"/>
</g></g><g transform="translate(744,837) scale(0.31,0.31)"><g transform="" style="fill: rgb(68, 81, 83);">
<rect width="100" height="100"/>
</g></g><g transform="translate(868,837) scale(0.31,0.31)"><g transform="" style="fill: rgb(68, 81, 83);">
<rect width="100" height="100"/>
</g></g><g transform="translate(899,837) scale(0.31,0.31)"><g transform="" style="fill: rgb(68, 81, 83);">
<rect width="100" height="100"/>
</g></g><g transform="translate(930,837) scale(0.31,0.31)"><g transform="" style="fill: rgb(68, 81, 83);">
<rect width="100" height="100"/>
</g></g><g transform="translate(961,837) scale(0.31,0.31)"><g transform="" style="fill: rgb(68, 81, 83);">
<rect width="100" height="100"/>
</g></g><g transform="translate(992,837) scale(0.31,0.31)"><g transform="" style="fill: rgb(68, 81, 83);">
<g>
	<path d="M100,34.375c0-9.505-3.354-17.611-10.059-24.316S75.131,0,65.625,0H0v100h100V34.375z"/>
</g>
</g></g><g transform="translate(248,868) scale(0.31,0.31)"><g transform="" style="fill: rgb(68, 81, 83);">
<rect width="100" height="100"/>
</g></g><g transform="translate(341,868) scale(0.31,0.31)"><g transform="" style="fill: rgb(68, 81, 83);">
<g>
	<path d="M100,34.375V0H34.375C24.87,0,16.764,3.353,10.059,10.059S0,24.87,0,34.375V100h100V34.375z"/>
</g>
</g></g><g transform="translate(372,868) scale(0.31,0.31)"><g transform="" style="fill: rgb(68, 81, 83);">
<rect width="100" height="100"/>
</g></g><g transform="translate(403,868) scale(0.31,0.31)"><g transform="" style="fill: rgb(68, 81, 83);">
<g>
	<path d="M100,34.375c0-9.505-3.354-17.611-10.059-24.316S75.131,0,65.625,0H0v100h100V34.375z"/>
</g>
</g></g><g transform="translate(465,868) scale(0.31,0.31)"><g transform="" style="fill: rgb(68, 81, 83);">
<polygon points="100,100 50,0 50,0 0,100 "/>
</g></g><g transform="translate(558,868) scale(0.31,0.31)"><g transform="" style="fill: rgb(68, 81, 83);">
<g>
	<path d="M100,34.375V0H34.375C24.87,0,16.764,3.353,10.059,10.059S0,24.87,0,34.375V100h100V34.375z"/>
</g>
</g></g><g transform="translate(589,868) scale(0.31,0.31)"><g transform="" style="fill: rgb(68, 81, 83);">
<rect width="100" height="100"/>
</g></g><g transform="translate(620,868) scale(0.31,0.31)"><g transform="" style="fill: rgb(68, 81, 83);">
<polygon points="0,100 100,50 100,50 0,0 "/>
</g></g><g transform="translate(682,868) scale(0.31,0.31)"><g transform="" style="fill: rgb(68, 81, 83);">
<polygon points="100,100 0,50 0,50 100,0 "/>
</g></g><g transform="translate(713,868) scale(0.31,0.31)"><g transform="" style="fill: rgb(68, 81, 83);">
<rect width="100" height="100"/>
</g></g><g transform="translate(744,868) scale(0.31,0.31)"><g transform="" style="fill: rgb(68, 81, 83);">
<rect width="100" height="100"/>
</g></g><g transform="translate(775,868) scale(0.31,0.31)"><g transform="" style="fill: rgb(68, 81, 83);">
<rect width="100" height="100"/>
</g></g><g transform="translate(806,868) scale(0.31,0.31)"><g transform="" style="fill: rgb(68, 81, 83);">
<rect width="100" height="100"/>
</g></g><g transform="translate(837,868) scale(0.31,0.31)"><g transform="" style="fill: rgb(68, 81, 83);">
<rect width="100" height="100"/>
</g></g><g transform="translate(868,868) scale(0.31,0.31)"><g transform="" style="fill: rgb(68, 81, 83);">
<g>
	<path d="M100,0H0v100h65.625c9.506,0,17.611-3.354,24.316-10.059S100,75.131,100,65.625V0z"/>
</g>
</g></g><g transform="translate(992,868) scale(0.31,0.31)"><g transform="" style="fill: rgb(68, 81, 83);">
<rect width="100" height="100"/>
</g></g><g transform="translate(248,899) scale(0.31,0.31)"><g transform="" style="fill: rgb(68, 81, 83);">
<polygon points="0,-0.001 50,99.999 50,99.999 100,-0.001 "/>
</g></g><g transform="translate(310,899) scale(0.31,0.31)"><g transform="" style="fill: rgb(68, 81, 83);">
<g>
	<path d="M100,34.375V0H34.375C24.87,0,16.764,3.353,10.059,10.059S0,24.87,0,34.375V100h100V34.375z"/>
</g>
</g></g><g transform="translate(341,899) scale(0.31,0.31)"><g transform="" style="fill: rgb(68, 81, 83);">
<g>
	<path d="M100,0H0v100h65.625c9.506,0,17.611-3.354,24.316-10.059S100,75.131,100,65.625V0z"/>
</g>
</g></g><g transform="translate(403,899) scale(0.31,0.31)"><g transform="" style="fill: rgb(68, 81, 83);">
<polygon points="0,-0.001 50,99.999 50,99.999 100,-0.001 "/>
</g></g><g transform="translate(465,899) scale(0.31,0.31)"><g transform="" style="fill: rgb(68, 81, 83);">
<rect width="100" height="100"/>
</g></g><g transform="translate(527,899) scale(0.31,0.31)"><g transform="" style="fill: rgb(68, 81, 83);">
<polygon points="100,100 0,50 0,50 100,0 "/>
</g></g><g transform="translate(558,899) scale(0.31,0.31)"><g transform="" style="fill: rgb(68, 81, 83);">
<rect width="100" height="100"/>
</g></g><g transform="translate(589,899) scale(0.31,0.31)"><g transform="" style="fill: rgb(68, 81, 83);">
<rect width="100" height="100"/>
</g></g><g transform="translate(713,899) scale(0.31,0.31)"><g transform="" style="fill: rgb(68, 81, 83);">
<g>
	<path d="M100,0H0v65.625c0,9.506,3.353,17.611,10.059,24.316S24.87,100,34.375,100H100V0z"/>
</g>
</g></g><g transform="translate(744,899) scale(0.31,0.31)"><g transform="" style="fill: rgb(68, 81, 83);">
<rect width="100" height="100"/>
</g></g><g transform="translate(775,899) scale(0.31,0.31)"><g transform="" style="fill: rgb(68, 81, 83);">
<rect width="100" height="100"/>
</g></g><g transform="translate(837,899) scale(0.31,0.31)"><g transform="" style="fill: rgb(68, 81, 83);">
<rect width="100" height="100"/>
</g></g><g transform="translate(930,899) scale(0.31,0.31)"><g transform="" style="fill: rgb(68, 81, 83);">
<g>
	<path d="M100,34.375V0H34.375C24.87,0,16.764,3.353,10.059,10.059S0,24.87,0,34.375V100h100V34.375z"/>
</g>
</g></g><g transform="translate(961,899) scale(0.31,0.31)"><g transform="" style="fill: rgb(68, 81, 83);">
<rect width="100" height="100"/>
</g></g><g transform="translate(992,899) scale(0.31,0.31)"><g transform="" style="fill: rgb(68, 81, 83);">
<rect width="100" height="100"/>
</g></g><g transform="translate(279,930) scale(0.31,0.31)"><g transform="" style="fill: rgb(68, 81, 83);">
<polygon points="100,100 0,50 0,50 100,0 "/>
</g></g><g transform="translate(310,930) scale(0.31,0.31)"><g transform="" style="fill: rgb(68, 81, 83);">
<g>
	<path d="M100,0H0v100h65.625c9.506,0,17.611-3.354,24.316-10.059S100,75.131,100,65.625V0z"/>
</g>
</g></g><g transform="translate(372,930) scale(0.31,0.31)"><g transform="" style="fill: rgb(68, 81, 83);">
<polygon points="100,100 50,0 50,0 0,100 "/>
</g></g><g transform="translate(465,930) scale(0.31,0.31)"><g transform="" style="fill: rgb(68, 81, 83);">
<rect width="100" height="100"/>
</g></g><g transform="translate(496,930) scale(0.31,0.31)"><g transform="" style="fill: rgb(68, 81, 83);">
<g>
	<path d="M100,34.375c0-9.505-3.354-17.611-10.059-24.316S75.131,0,65.625,0H0v100h100V34.375z"/>
</g>
</g></g><g transform="translate(558,930) scale(0.31,0.31)"><g transform="" style="fill: rgb(68, 81, 83);">
<g>
	<path d="M100,0H0v65.625c0,9.506,3.353,17.611,10.059,24.316S24.87,100,34.375,100H100V0z"/>
</g>
</g></g><g transform="translate(589,930) scale(0.31,0.31)"><g transform="" style="fill: rgb(68, 81, 83);">
<rect width="100" height="100"/>
</g></g><g transform="translate(620,930) scale(0.31,0.31)"><g transform="" style="fill: rgb(68, 81, 83);">
<polygon points="0,100 100,50 100,50 0,0 "/>
</g></g><g transform="translate(775,930) scale(0.31,0.31)"><g transform="" style="fill: rgb(68, 81, 83);">
<polygon points="0,-0.001 50,99.999 50,99.999 100,-0.001 "/>
</g></g><g transform="translate(837,930) scale(0.31,0.31)"><g transform="" style="fill: rgb(68, 81, 83);">
<rect width="100" height="100"/>
</g></g><g transform="translate(868,930) scale(0.31,0.31)"><g transform="" style="fill: rgb(68, 81, 83);">
<rect width="100" height="100"/>
</g></g><g transform="translate(899,930) scale(0.31,0.31)"><g transform="" style="fill: rgb(68, 81, 83);">
<rect width="100" height="100"/>
</g></g><g transform="translate(930,930) scale(0.31,0.31)"><g transform="" style="fill: rgb(68, 81, 83);">
<rect width="100" height="100"/>
</g></g><g transform="translate(961,930) scale(0.31,0.31)"><g transform="" style="fill: rgb(68, 81, 83);">
<rect width="100" height="100"/>
</g></g><g transform="translate(992,930) scale(0.31,0.31)"><g transform="" style="fill: rgb(68, 81, 83);">
<rect width="100" height="100"/>
</g></g><g transform="translate(372,961) scale(0.31,0.31)"><g transform="" style="fill: rgb(68, 81, 83);">
<g>
	<path d="M100,0H0v65.625c0,9.506,3.353,17.611,10.059,24.316S24.87,100,34.375,100H100V0z"/>
</g>
</g></g><g transform="translate(403,961) scale(0.31,0.31)"><g transform="" style="fill: rgb(68, 81, 83);">
<polygon points="0,100 100,50 100,50 0,0 "/>
</g></g><g transform="translate(465,961) scale(0.31,0.31)"><g transform="" style="fill: rgb(68, 81, 83);">
<g>
	<path d="M100,0H0v65.625c0,9.506,3.353,17.611,10.059,24.316S24.87,100,34.375,100H100V0z"/>
</g>
</g></g><g transform="translate(496,961) scale(0.31,0.31)"><g transform="" style="fill: rgb(68, 81, 83);">
<g>
	<path d="M100,0H0v100h65.625c9.506,0,17.611-3.354,24.316-10.059S100,75.131,100,65.625V0z"/>
</g>
</g></g><g transform="translate(589,961) scale(0.31,0.31)"><g transform="" style="fill: rgb(68, 81, 83);">
<rect width="100" height="100"/>
</g></g><g transform="translate(682,961) scale(0.31,0.31)"><g transform="" style="fill: rgb(68, 81, 83);">
<polygon points="100,100 0,50 0,50 100,0 "/>
</g></g><g transform="translate(713,961) scale(0.31,0.31)"><g transform="" style="fill: rgb(68, 81, 83);">
<g>
	<path d="M100,34.375c0-9.505-3.354-17.611-10.059-24.316S75.131,0,65.625,0H0v100h100V34.375z"/>
</g>
</g></g><g transform="translate(837,961) scale(0.31,0.31)"><g transform="" style="fill: rgb(68, 81, 83);">
<rect width="100" height="100"/>
</g></g><g transform="translate(868,961) scale(0.31,0.31)"><g transform="" style="fill: rgb(68, 81, 83);">
<rect width="100" height="100"/>
</g></g><g transform="translate(899,961) scale(0.31,0.31)"><g transform="" style="fill: rgb(68, 81, 83);">
<rect width="100" height="100"/>
</g></g><g transform="translate(930,961) scale(0.31,0.31)"><g transform="" style="fill: rgb(68, 81, 83);">
<rect width="100" height="100"/>
</g></g><g transform="translate(961,961) scale(0.31,0.31)"><g transform="" style="fill: rgb(68, 81, 83);">
<rect width="100" height="100"/>
</g></g><g transform="translate(992,961) scale(0.31,0.31)"><g transform="" style="fill: rgb(68, 81, 83);">
<g>
	<path d="M100,0H0v100h65.625c9.506,0,17.611-3.354,24.316-10.059S100,75.131,100,65.625V0z"/>
</g>
</g></g><g transform="translate(248,992) scale(0.31,0.31)"><g transform="" style="fill: rgb(68, 81, 83);">
<polygon points="100,100 0,50 0,50 100,0 "/>
</g></g><g transform="translate(279,992) scale(0.31,0.31)"><g transform="" style="fill: rgb(68, 81, 83);">
<polygon points="0,100 100,50 100,50 0,0 "/>
</g></g><g transform="translate(341,992) scale(0.31,0.31)"><g transform="" style="fill: rgb(68, 81, 83);">
<polygon points="99.999,49.999 99.998,49.999 49.999,0 0,49.999 -0.001,49.999 -0.001,50 0,50 49.999,99.999 99.998,50 99.999,50 
	99.998,50 "/>
</g></g><g transform="translate(527,992) scale(0.31,0.31)"><g transform="" style="fill: rgb(68, 81, 83);">
<polygon points="99.999,49.999 99.998,49.999 49.999,0 0,49.999 -0.001,49.999 -0.001,50 0,50 49.999,99.999 99.998,50 99.999,50 
	99.998,50 "/>
</g></g><g transform="translate(589,992) scale(0.31,0.31)"><g transform="" style="fill: rgb(68, 81, 83);">
<polygon points="0,-0.001 50,99.999 50,99.999 100,-0.001 "/>
</g></g><g transform="translate(713,992) scale(0.31,0.31)"><g transform="" style="fill: rgb(68, 81, 83);">
<g>
	<path d="M100,0H0v65.625c0,9.506,3.353,17.611,10.059,24.316S24.87,100,34.375,100H100V0z"/>
</g>
</g></g><g transform="translate(744,992) scale(0.31,0.31)"><g transform="" style="fill: rgb(68, 81, 83);">
<rect width="100" height="100"/>
</g></g><g transform="translate(775,992) scale(0.31,0.31)"><g transform="" style="fill: rgb(68, 81, 83);">
<polygon points="0,100 100,50 100,50 0,0 "/>
</g></g><g transform="translate(837,992) scale(0.31,0.31)"><g transform="" style="fill: rgb(68, 81, 83);">
<g>
	<path d="M100,0H0v65.625c0,9.506,3.353,17.611,10.059,24.316S24.87,100,34.375,100H100V0z"/>
</g>
</g></g><g transform="translate(868,992) scale(0.31,0.31)"><g transform="" style="fill: rgb(68, 81, 83);">
<g>
	<path d="M100,0H0v100h65.625c9.506,0,17.611-3.354,24.316-10.059S100,75.131,100,65.625V0z"/>
</g>
</g></g><g transform="translate(0,0) scale(2.17, 2.17)"><g transform="" style="fill: rgb(68, 81, 83);">
<path d="M21.475,99.992c-6.648,0-12.964-6.852-13.958-13.207L0.011-0.008l88.112,5.649c6.212,0.931,11.096,6.804,11.104,13.848
	l0.762,80.503H21.475z M85.706,85.71l-0.544-57.492c-0.005-5.029-3.495-9.233-7.931-9.898l-62.938-4.03l5.36,61.98
	c0.71,4.536,5.222,9.44,9.971,9.44H85.706z"/>
</g></g><g transform="translate(806,0) scale(2.17, 2.17)"><g transform=" translate(100, 0) scale(-1,1) " style="fill: rgb(68, 81, 83);">
<path d="M21.475,99.992c-6.648,0-12.964-6.852-13.958-13.207L0.011-0.008l88.112,5.649c6.212,0.931,11.096,6.804,11.104,13.848
	l0.762,80.503H21.475z M85.706,85.71l-0.544-57.492c-0.005-5.029-3.495-9.233-7.931-9.898l-62.938-4.03l5.36,61.98
	c0.71,4.536,5.222,9.44,9.971,9.44H85.706z"/>
</g></g><g transform="translate(0,806) scale(2.17, 2.17)"><g transform=" translate(0,100) scale(1,-1) " style="fill: rgb(68, 81, 83);">
<path d="M21.475,99.992c-6.648,0-12.964-6.852-13.958-13.207L0.011-0.008l88.112,5.649c6.212,0.931,11.096,6.804,11.104,13.848
	l0.762,80.503H21.475z M85.706,85.71l-0.544-57.492c-0.005-5.029-3.495-9.233-7.931-9.898l-62.938-4.03l5.36,61.98
	c0.71,4.536,5.222,9.44,9.971,9.44H85.706z"/>
</g></g><g transform="translate(62,62) scale(0.93, 0.93)"><g transform="" style="fill: rgb(68, 81, 83);">
<path d="M21.468,99.999c-6.65,0-12.966-6.875-13.959-13.225L0.003-0.001L88.13,5.638c6.21,0.93,11.099,6.823,11.105,13.866
	l0.762,80.495H21.468z"/>
</g></g><g transform="translate(868,62) scale(0.93, 0.93)"><g transform=" translate(100, 0) scale(-1,1) " style="fill: rgb(68, 81, 83);">
<path d="M21.468,99.999c-6.65,0-12.966-6.875-13.959-13.225L0.003-0.001L88.13,5.638c6.21,0.93,11.099,6.823,11.105,13.866
	l0.762,80.495H21.468z"/>
</g></g><g transform="translate(62,868) scale(0.93, 0.93)"><g transform=" translate(0,100) scale(1,-1) " style="fill: rgb(68, 81, 83);">
<path d="M21.468,99.999c-6.65,0-12.966-6.875-13.959-13.225L0.003-0.001L88.13,5.638c6.21,0.93,11.099,6.823,11.105,13.866
	l0.762,80.495H21.468z"/>
</g></g></g></svg>