<?xml version="1.0" encoding="utf-8"?>
<!DOCTYPE svg PUBLIC "-//W3C//DTD SVG 1.1//EN" "http://www.w3.org/Graphics/SVG/1.1/DTD/svg11.dtd">
<svg version="1.1" id="Layer_1" xmlns="http://www.w3.org/2000/svg" xmlns:xlink="http://www.w3.org/1999/xlink" x="0px" y="0px"
width="1148px" height="1148px" viewBox="0 0 1148 1148" enable-background="new 0 0 1148 1148" xml:space="preserve">
<rect x="0" y="0" width="1148" height="1148" fill="rgb(255,255,255)" /><g transform="translate(56,56)"><g transform="translate(224,0) scale(0.28,0.28)"><g transform="" style="fill: rgb(0, 0, 0);">
<polygon points="99.999,49.999 99.998,49.999 49.999,0 0,49.999 -0.001,49.999 -0.001,50 0,50 49.999,99.999 99.998,50 99.999,50 
	99.998,50 "/>
</g></g><g transform="translate(280,0) scale(0.28,0.28)"><g transform="" style="fill: rgb(0, 0, 0);">
<polygon points="99.999,49.999 99.998,49.999 49.999,0 0,49.999 -0.001,49.999 -0.001,50 0,50 49.999,99.999 99.998,50 99.999,50 
	99.998,50 "/>
</g></g><g transform="translate(336,0) scale(0.28,0.28)"><g transform="" style="fill: rgb(0, 0, 0);">
<polygon points="100,100 0,50 0,50 100,0 "/>
</g></g><g transform="translate(364,0) scale(0.28,0.28)"><g transform="" style="fill: rgb(0, 0, 0);">
<g>
	<path d="M100,34.375c0-9.505-3.354-17.611-10.059-24.316S75.131,0,65.625,0H0v100h100V34.375z"/>
</g>
</g></g><g transform="translate(420,0) scale(0.28,0.28)"><g transform="" style="fill: rgb(0, 0, 0);">
<polygon points="99.999,49.999 99.998,49.999 49.999,0 0,49.999 -0.001,49.999 -0.001,50 0,50 49.999,99.999 99.998,50 99.999,50 
	99.998,50 "/>
</g></g><g transform="translate(476,0) scale(0.28,0.28)"><g transform="" style="fill: rgb(0, 0, 0);">
<g>
	<path d="M100,34.375V0H34.375C24.87,0,16.764,3.353,10.059,10.059S0,24.87,0,34.375V100h100V34.375z"/>
</g>
</g></g><g transform="translate(504,0) scale(0.28,0.28)"><g transform="" style="fill: rgb(0, 0, 0);">
<rect width="100" height="100"/>
</g></g><g transform="translate(532,0) scale(0.28,0.28)"><g transform="" style="fill: rgb(0, 0, 0);">
<g>
	<path d="M100,34.375c0-9.505-3.354-17.611-10.059-24.316S75.131,0,65.625,0H0v100h100V34.375z"/>
</g>
</g></g><g transform="translate(588,0) scale(0.28,0.28)"><g transform="" style="fill: rgb(0, 0, 0);">
<g>
	<path d="M100,34.375V0H34.375C24.87,0,16.764,3.353,10.059,10.059S0,24.87,0,34.375V100h100V34.375z"/>
</g>
</g></g><g transform="translate(616,0) scale(0.28,0.28)"><g transform="" style="fill: rgb(0, 0, 0);">
<rect width="100" height="100"/>
</g></g><g transform="translate(644,0) scale(0.28,0.28)"><g transform="" style="fill: rgb(0, 0, 0);">
<rect width="100" height="100"/>
</g></g><g transform="translate(672,0) scale(0.28,0.28)"><g transform="" style="fill: rgb(0, 0, 0);">
<polygon points="0,100 100,50 100,50 0,0 "/>
</g></g><g transform="translate(728,0) scale(0.28,0.28)"><g transform="" style="fill: rgb(0, 0, 0);">
<polygon points="100,100 50,0 50,0 0,100 "/>
</g></g><g transform="translate(308,28) scale(0.28,0.28)"><g transform="" style="fill: rgb(0, 0, 0);">
<polygon points="100,100 50,0 50,0 0,100 "/>
</g></g><g transform="translate(364,28) scale(0.28,0.28)"><g transform="" style="fill: rgb(0, 0, 0);">
<rect width="100" height="100"/>
</g></g><g transform="translate(476,28) scale(0.28,0.28)"><g transform="" style="fill: rgb(0, 0, 0);">
<rect width="100" height="100"/>
</g></g><g transform="translate(532,28) scale(0.28,0.28)"><g transform="" style="fill: rgb(0, 0, 0);">
<polygon points="0,-0.001 50,99.999 50,99.999 100,-0.001 "/>
</g></g><g transform="translate(588,28) scale(0.28,0.28)"><g transform="" style="fill: rgb(0, 0, 0);">
<rect width="100" height="100"/>
</g></g><g transform="translate(700,28) scale(0.28,0.28)"><g transform="" style="fill: rgb(0, 0, 0);">
<g>
	<path d="M100,34.375V0H34.375C24.87,0,16.764,3.353,10.059,10.059S0,24.87,0,34.375V100h100V34.375z"/>
</g>
</g></g><g transform="translate(728,28) scale(0.28,0.28)"><g transform="" style="fill: rgb(0, 0, 0);">
<g>
	<path d="M100,0H0v100h65.625c9.506,0,17.611-3.354,24.316-10.059S100,75.131,100,65.625V0z"/>
</g>
</g></g><g transform="translate(784,28) scale(0.28,0.28)"><g transform="" style="fill: rgb(0, 0, 0);">
<polygon points="100,100 50,0 50,0 0,100 "/>
</g></g><g transform="translate(224,56) scale(0.28,0.28)"><g transform="" style="fill: rgb(0, 0, 0);">
<polygon points="100,100 0,50 0,50 100,0 "/>
</g></g><g transform="translate(252,56) scale(0.28,0.28)"><g transform="" style="fill: rgb(0, 0, 0);">
<polygon points="0,100 100,50 100,50 0,0 "/>
</g></g><g transform="translate(308,56) scale(0.28,0.28)"><g transform="" style="fill: rgb(0, 0, 0);">
<rect width="100" height="100"/>
</g></g><g transform="translate(336,56) scale(0.28,0.28)"><g transform="" style="fill: rgb(0, 0, 0);">
<rect width="100" height="100"/>
</g></g><g transform="translate(364,56) scale(0.28,0.28)"><g transform="" style="fill: rgb(0, 0, 0);">
<rect width="100" height="100"/>
</g></g><g transform="translate(392,56) scale(0.28,0.28)"><g transform="" style="fill: rgb(0, 0, 0);">
<g>
	<path d="M100,34.375c0-9.505-3.354-17.611-10.059-24.316S75.131,0,65.625,0H0v100h100V34.375z"/>
</g>
</g></g><g transform="translate(476,56) scale(0.28,0.28)"><g transform="" style="fill: rgb(0, 0, 0);">
<rect width="100" height="100"/>
</g></g><g transform="translate(588,56) scale(0.28,0.28)"><g transform="" style="fill: rgb(0, 0, 0);">
<rect width="100" height="100"/>
</g></g><g transform="translate(644,56) scale(0.28,0.28)"><g transform="" style="fill: rgb(0, 0, 0);">
<polygon points="100,100 0,50 0,50 100,0 "/>
</g></g><g transform="translate(672,56) scale(0.28,0.28)"><g transform="" style="fill: rgb(0, 0, 0);">
<rect width="100" height="100"/>
</g></g><g transform="translate(700,56) scale(0.28,0.28)"><g transform="" style="fill: rgb(0, 0, 0);">
<rect width="100" height="100"/>
</g></g><g transform="translate(784,56) scale(0.28,0.28)"><g transform="" style="fill: rgb(0, 0, 0);">
<polygon points="0,-0.001 50,99.999 50,99.999 100,-0.001 "/>
</g></g><g transform="translate(280,84) scale(0.28,0.28)"><g transform="" style="fill: rgb(0, 0, 0);">
<polygon points="100,100 0,50 0,50 100,0 "/>
</g></g><g transform="translate(308,84) scale(0.28,0.28)"><g transform="" style="fill: rgb(0, 0, 0);">
<rect width="100" height="100"/>
</g></g><g transform="translate(392,84) scale(0.28,0.28)"><g transform="" style="fill: rgb(0, 0, 0);">
<g>
	<path d="M100,0H0v65.625c0,9.506,3.353,17.611,10.059,24.316S24.87,100,34.375,100H100V0z"/>
</g>
</g></g><g transform="translate(420,84) scale(0.28,0.28)"><g transform="" style="fill: rgb(0, 0, 0);">
<rect width="100" height="100"/>
</g></g><g transform="translate(448,84) scale(0.28,0.28)"><g transform="" style="fill: rgb(0, 0, 0);">
<rect width="100" height="100"/>
</g></g><g transform="translate(476,84) scale(0.28,0.28)"><g transform="" style="fill: rgb(0, 0, 0);">
<rect width="100" height="100"/>
</g></g><g transform="translate(532,84) scale(0.28,0.28)"><g transform="" style="fill: rgb(0, 0, 0);">
<polygon points="100,100 0,50 0,50 100,0 "/>
</g></g><g transform="translate(560,84) scale(0.28,0.28)"><g transform="" style="fill: rgb(0, 0, 0);">
<rect width="100" height="100"/>
</g></g><g transform="translate(588,84) scale(0.28,0.28)"><g transform="" style="fill: rgb(0, 0, 0);">
<rect width="100" height="100"/>
</g></g><g transform="translate(616,84) scale(0.28,0.28)"><g transform="" style="fill: rgb(0, 0, 0);">
<polygon points="0,100 100,50 100,50 0,0 "/>
</g></g><g transform="translate(672,84) scale(0.28,0.28)"><g transform="" style="fill: rgb(0, 0, 0);">
<g>
	<path d="M100,0H0v65.625c0,9.506,3.353,17.611,10.059,24.316S24.87,100,34.375,100H100V0z"/>
</g>
</g></g><g transform="translate(700,84) scale(0.28,0.28)"><g transform="" style="fill: rgb(0, 0, 0);">
<rect width="100" height="100"/>
</g></g><g transform="translate(728,84) scale(0.28,0.28)"><g transform="" style="fill: rgb(0, 0, 0);">
<g>
	<path d="M100,34.375c0-9.505-3.354-17.611-10.059-24.316S75.131,0,65.625,0H0v100h100V34.375z"/>
</g>
</g></g><g transform="translate(252,112) scale(0.28,0.28)"><g transform="" style="fill: rgb(0, 0, 0);">
<polygon points="100,100 50,0 50,0 0,100 "/>
</g></g><g transform="translate(308,112) scale(0.28,0.28)"><g transform="" style="fill: rgb(0, 0, 0);">
<rect width="100" height="100"/>
</g></g><g transform="translate(336,112) scale(0.28,0.28)"><g transform="" style="fill: rgb(0, 0, 0);">
<polygon points="0,100 100,50 100,50 0,0 "/>
</g></g><g transform="translate(420,112) scale(0.28,0.28)"><g transform="" style="fill: rgb(0, 0, 0);">
<rect width="100" height="100"/>
</g></g><g transform="translate(476,112) scale(0.28,0.28)"><g transform="" style="fill: rgb(0, 0, 0);">
<g>
	<path d="M100,0H0v65.625c0,9.506,3.353,17.611,10.059,24.316S24.87,100,34.375,100H100V0z"/>
</g>
</g></g><g transform="translate(504,112) scale(0.28,0.28)"><g transform="" style="fill: rgb(0, 0, 0);">
<polygon points="0,100 100,50 100,50 0,0 "/>
</g></g><g transform="translate(728,112) scale(0.28,0.28)"><g transform="" style="fill: rgb(0, 0, 0);">
<rect width="100" height="100"/>
</g></g><g transform="translate(224,140) scale(0.28,0.28)"><g transform="" style="fill: rgb(0, 0, 0);">
<g>
	<path d="M100,34.375V0H34.375C24.87,0,16.764,3.353,10.059,10.059S0,24.87,0,34.375V100h100V34.375z"/>
</g>
</g></g><g transform="translate(252,140) scale(0.28,0.28)"><g transform="" style="fill: rgb(0, 0, 0);">
<g>
	<path d="M100,0H0v100h65.625c9.506,0,17.611-3.354,24.316-10.059S100,75.131,100,65.625V0z"/>
</g>
</g></g><g transform="translate(308,140) scale(0.28,0.28)"><g transform="" style="fill: rgb(0, 0, 0);">
<polygon points="0,-0.001 50,99.999 50,99.999 100,-0.001 "/>
</g></g><g transform="translate(364,140) scale(0.28,0.28)"><g transform="" style="fill: rgb(0, 0, 0);">
<polygon points="99.999,49.999 99.998,49.999 49.999,0 0,49.999 -0.001,49.999 -0.001,50 0,50 49.999,99.999 99.998,50 99.999,50 
	99.998,50 "/>
</g></g><g transform="translate(420,140) scale(0.28,0.28)"><g transform="" style="fill: rgb(0, 0, 0);">
<polygon points="0,-0.001 50,99.999 50,99.999 100,-0.001 "/>
</g></g><g transform="translate(588,140) scale(0.28,0.28)"><g transform="" style="fill: rgb(0, 0, 0);">
<polygon points="100,100 0,50 0,50 100,0 "/>
</g></g><g transform="translate(616,140) scale(0.28,0.28)"><g transform="" style="fill: rgb(0, 0, 0);">
<g>
	<path d="M100,34.375c0-9.505-3.354-17.611-10.059-24.316S75.131,0,65.625,0H0v100h100V34.375z"/>
</g>
</g></g><g transform="translate(672,140) scale(0.28,0.28)"><g transform="" style="fill: rgb(0, 0, 0);">
<polygon points="100,100 50,0 50,0 0,100 "/>
</g></g><g transform="translate(728,140) scale(0.28,0.28)"><g transform="" style="fill: rgb(0, 0, 0);">
<rect width="100" height="100"/>
</g></g><g transform="translate(784,140) scale(0.28,0.28)"><g transform="" style="fill: rgb(0, 0, 0);">
<polygon points="100,100 50,0 50,0 0,100 "/>
</g></g><g transform="translate(224,168) scale(0.28,0.28)"><g transform="" style="fill: rgb(0, 0, 0);">
<polygon points="0,-0.001 50,99.999 50,99.999 100,-0.001 "/>
</g></g><g transform="translate(280,168) scale(0.28,0.28)"><g transform="" style="fill: rgb(0, 0, 0);">
<polygon points="99.999,49.999 99.998,49.999 49.999,0 0,49.999 -0.001,49.999 -0.001,50 0,50 49.999,99.999 99.998,50 99.999,50 
	99.998,50 "/>
</g></g><g transform="translate(336,168) scale(0.28,0.28)"><g transform="" style="fill: rgb(0, 0, 0);">
<polygon points="100,100 50,0 50,0 0,100 "/>
</g></g><g transform="translate(392,168) scale(0.28,0.28)"><g transform="" style="fill: rgb(0, 0, 0);">
<polygon points="99.999,49.999 99.998,49.999 49.999,0 0,49.999 -0.001,49.999 -0.001,50 0,50 49.999,99.999 99.998,50 99.999,50 
	99.998,50 "/>
</g></g><g transform="translate(448,168) scale(0.28,0.28)"><g transform="" style="fill: rgb(0, 0, 0);">
<polygon points="99.999,49.999 99.998,49.999 49.999,0 0,49.999 -0.001,49.999 -0.001,50 0,50 49.999,99.999 99.998,50 99.999,50 
	99.998,50 "/>
</g></g><g transform="translate(504,168) scale(0.28,0.28)"><g transform="" style="fill: rgb(0, 0, 0);">
<polygon points="100,100 50,0 50,0 0,100 "/>
</g></g><g transform="translate(560,168) scale(0.28,0.28)"><g transform="" style="fill: rgb(0, 0, 0);">
<polygon points="99.999,49.999 99.998,49.999 49.999,0 0,49.999 -0.001,49.999 -0.001,50 0,50 49.999,99.999 99.998,50 99.999,50 
	99.998,50 "/>
</g></g><g transform="translate(616,168) scale(0.28,0.28)"><g transform="" style="fill: rgb(0, 0, 0);">
<polygon points="0,-0.001 50,99.999 50,99.999 100,-0.001 "/>
</g></g><g transform="translate(672,168) scale(0.28,0.28)"><g transform="" style="fill: rgb(0, 0, 0);">
<rect width="100" height="100"/>
</g></g><g transform="translate(728,168) scale(0.28,0.28)"><g transform="" style="fill: rgb(0, 0, 0);">
<polygon points="0,-0.001 50,99.999 50,99.999 100,-0.001 "/>
</g></g><g transform="translate(784,168) scale(0.28,0.28)"><g transform="" style="fill: rgb(0, 0, 0);">
<rect width="100" height="100"/>
</g></g><g transform="translate(308,196) scale(0.28,0.28)"><g transform="" style="fill: rgb(0, 0, 0);">
<polygon points="100,100 0,50 0,50 100,0 "/>
</g></g><g transform="translate(336,196) scale(0.28,0.28)"><g transform="" style="fill: rgb(0, 0, 0);">
<rect width="100" height="100"/>
</g></g><g transform="translate(364,196) scale(0.28,0.28)"><g transform="" style="fill: rgb(0, 0, 0);">
<polygon points="0,100 100,50 100,50 0,0 "/>
</g></g><g transform="translate(504,196) scale(0.28,0.28)"><g transform="" style="fill: rgb(0, 0, 0);">
<rect width="100" height="100"/>
</g></g><g transform="translate(588,196) scale(0.28,0.28)"><g transform="" style="fill: rgb(0, 0, 0);">
<polygon points="100,100 50,0 50,0 0,100 "/>
</g></g><g transform="translate(644,196) scale(0.28,0.28)"><g transform="" style="fill: rgb(0, 0, 0);">
<polygon points="100,100 0,50 0,50 100,0 "/>
</g></g><g transform="translate(672,196) scale(0.28,0.28)"><g transform="" style="fill: rgb(0, 0, 0);">
<g>
	<path d="M100,0H0v100h65.625c9.506,0,17.611-3.354,24.316-10.059S100,75.131,100,65.625V0z"/>
</g>
</g></g><g transform="translate(756,196) scale(0.28,0.28)"><g transform="" style="fill: rgb(0, 0, 0);">
<polygon points="100,100 0,50 0,50 100,0 "/>
</g></g><g transform="translate(784,196) scale(0.28,0.28)"><g transform="" style="fill: rgb(0, 0, 0);">
<rect width="100" height="100"/>
</g></g><g transform="translate(0,224) scale(0.28,0.28)"><g transform="" style="fill: rgb(0, 0, 0);">
<polygon points="100,100 50,0 50,0 0,100 "/>
</g></g><g transform="translate(56,224) scale(0.28,0.28)"><g transform="" style="fill: rgb(0, 0, 0);">
<polygon points="99.999,49.999 99.998,49.999 49.999,0 0,49.999 -0.001,49.999 -0.001,50 0,50 49.999,99.999 99.998,50 99.999,50 
	99.998,50 "/>
</g></g><g transform="translate(168,224) scale(0.28,0.28)"><g transform="" style="fill: rgb(0, 0, 0);">
<polygon points="100,100 0,50 0,50 100,0 "/>
</g></g><g transform="translate(196,224) scale(0.28,0.28)"><g transform="" style="fill: rgb(0, 0, 0);">
<g>
	<path d="M100,34.375c0-9.505-3.354-17.611-10.059-24.316S75.131,0,65.625,0H0v100h100V34.375z"/>
</g>
</g></g><g transform="translate(252,224) scale(0.28,0.28)"><g transform="" style="fill: rgb(0, 0, 0);">
<polygon points="100,100 50,0 50,0 0,100 "/>
</g></g><g transform="translate(392,224) scale(0.28,0.28)"><g transform="" style="fill: rgb(0, 0, 0);">
<polygon points="99.999,49.999 99.998,49.999 49.999,0 0,49.999 -0.001,49.999 -0.001,50 0,50 49.999,99.999 99.998,50 99.999,50 
	99.998,50 "/>
</g></g><g transform="translate(448,224) scale(0.28,0.28)"><g transform="" style="fill: rgb(0, 0, 0);">
<g>
	<path d="M100,34.375V0H34.375C24.87,0,16.764,3.353,10.059,10.059S0,24.87,0,34.375V100h100V34.375z"/>
</g>
</g></g><g transform="translate(476,224) scale(0.28,0.28)"><g transform="" style="fill: rgb(0, 0, 0);">
<rect width="100" height="100"/>
</g></g><g transform="translate(504,224) scale(0.28,0.28)"><g transform="" style="fill: rgb(0, 0, 0);">
<rect width="100" height="100"/>
</g></g><g transform="translate(532,224) scale(0.28,0.28)"><g transform="" style="fill: rgb(0, 0, 0);">
<polygon points="0,100 100,50 100,50 0,0 "/>
</g></g><g transform="translate(588,224) scale(0.28,0.28)"><g transform="" style="fill: rgb(0, 0, 0);">
<polygon points="0,-0.001 50,99.999 50,99.999 100,-0.001 "/>
</g></g><g transform="translate(784,224) scale(0.28,0.28)"><g transform="" style="fill: rgb(0, 0, 0);">
<rect width="100" height="100"/>
</g></g><g transform="translate(868,224) scale(0.28,0.28)"><g transform="" style="fill: rgb(0, 0, 0);">
<polygon points="100,100 50,0 50,0 0,100 "/>
</g></g><g transform="translate(952,224) scale(0.28,0.28)"><g transform="" style="fill: rgb(0, 0, 0);">
<polygon points="99.999,49.999 99.998,49.999 49.999,0 0,49.999 -0.001,49.999 -0.001,50 0,50 49.999,99.999 99.998,50 99.999,50 
	99.998,50 "/>
</g></g><g transform="translate(1008,224) scale(0.28,0.28)"><g transform="" style="fill: rgb(0, 0, 0);">
<polygon points="100,100 50,0 50,0 0,100 "/>
</g></g><g transform="translate(0,252) scale(0.28,0.28)"><g transform="" style="fill: rgb(0, 0, 0);">
<polygon points="0,-0.001 50,99.999 50,99.999 100,-0.001 "/>
</g></g><g transform="translate(112,252) scale(0.28,0.28)"><g transform="" style="fill: rgb(0, 0, 0);">
<polygon points="99.999,49.999 99.998,49.999 49.999,0 0,49.999 -0.001,49.999 -0.001,50 0,50 49.999,99.999 99.998,50 99.999,50 
	99.998,50 "/>
</g></g><g transform="translate(196,252) scale(0.28,0.28)"><g transform="" style="fill: rgb(0, 0, 0);">
<rect width="100" height="100"/>
</g></g><g transform="translate(224,252) scale(0.28,0.28)"><g transform="" style="fill: rgb(0, 0, 0);">
<rect width="100" height="100"/>
</g></g><g transform="translate(252,252) scale(0.28,0.28)"><g transform="" style="fill: rgb(0, 0, 0);">
<rect width="100" height="100"/>
</g></g><g transform="translate(280,252) scale(0.28,0.28)"><g transform="" style="fill: rgb(0, 0, 0);">
<g>
	<path d="M100,34.375c0-9.505-3.354-17.611-10.059-24.316S75.131,0,65.625,0H0v100h100V34.375z"/>
</g>
</g></g><g transform="translate(336,252) scale(0.28,0.28)"><g transform="" style="fill: rgb(0, 0, 0);">
<polygon points="99.999,49.999 99.998,49.999 49.999,0 0,49.999 -0.001,49.999 -0.001,50 0,50 49.999,99.999 99.998,50 99.999,50 
	99.998,50 "/>
</g></g><g transform="translate(448,252) scale(0.28,0.28)"><g transform="" style="fill: rgb(0, 0, 0);">
<rect width="100" height="100"/>
</g></g><g transform="translate(476,252) scale(0.28,0.28)"><g transform="" style="fill: rgb(0, 0, 0);">
<rect width="100" height="100"/>
</g></g><g transform="translate(504,252) scale(0.28,0.28)"><g transform="" style="fill: rgb(0, 0, 0);">
<g>
	<path d="M100,0H0v100h65.625c9.506,0,17.611-3.354,24.316-10.059S100,75.131,100,65.625V0z"/>
</g>
</g></g><g transform="translate(644,252) scale(0.28,0.28)"><g transform="" style="fill: rgb(0, 0, 0);">
<g>
	<path d="M100,34.375V0H34.375C24.87,0,16.764,3.353,10.059,10.059S0,24.87,0,34.375V100h100V34.375z"/>
</g>
</g></g><g transform="translate(672,252) scale(0.28,0.28)"><g transform="" style="fill: rgb(0, 0, 0);">
<g>
	<path d="M100,34.375c0-9.505-3.354-17.611-10.059-24.316S75.131,0,65.625,0H0v100h100V34.375z"/>
</g>
</g></g><g transform="translate(756,252) scale(0.28,0.28)"><g transform="" style="fill: rgb(0, 0, 0);">
<g>
	<path d="M100,34.375V0H34.375C24.87,0,16.764,3.353,10.059,10.059S0,24.87,0,34.375V100h100V34.375z"/>
</g>
</g></g><g transform="translate(784,252) scale(0.28,0.28)"><g transform="" style="fill: rgb(0, 0, 0);">
<g>
	<path d="M100,0H0v100h65.625c9.506,0,17.611-3.354,24.316-10.059S100,75.131,100,65.625V0z"/>
</g>
</g></g><g transform="translate(840,252) scale(0.28,0.28)"><g transform="" style="fill: rgb(0, 0, 0);">
<g>
	<path d="M100,34.375V0H34.375C24.87,0,16.764,3.353,10.059,10.059S0,24.87,0,34.375V100h100V34.375z"/>
</g>
</g></g><g transform="translate(868,252) scale(0.28,0.28)"><g transform="" style="fill: rgb(0, 0, 0);">
<g>
	<path d="M100,0H0v100h65.625c9.506,0,17.611-3.354,24.316-10.059S100,75.131,100,65.625V0z"/>
</g>
</g></g><g transform="translate(924,252) scale(0.28,0.28)"><g transform="" style="fill: rgb(0, 0, 0);">
<polygon points="100,100 50,0 50,0 0,100 "/>
</g></g><g transform="translate(980,252) scale(0.28,0.28)"><g transform="" style="fill: rgb(0, 0, 0);">
<polygon points="100,100 0,50 0,50 100,0 "/>
</g></g><g transform="translate(1008,252) scale(0.28,0.28)"><g transform="" style="fill: rgb(0, 0, 0);">
<rect width="100" height="100"/>
</g></g><g transform="translate(28,280) scale(0.28,0.28)"><g transform="" style="fill: rgb(0, 0, 0);">
<polygon points="100,100 0,50 0,50 100,0 "/>
</g></g><g transform="translate(56,280) scale(0.28,0.28)"><g transform="" style="fill: rgb(0, 0, 0);">
<rect width="100" height="100"/>
</g></g><g transform="translate(84,280) scale(0.28,0.28)"><g transform="" style="fill: rgb(0, 0, 0);">
<g>
	<path d="M100,34.375c0-9.505-3.354-17.611-10.059-24.316S75.131,0,65.625,0H0v100h100V34.375z"/>
</g>
</g></g><g transform="translate(168,280) scale(0.28,0.28)"><g transform="" style="fill: rgb(0, 0, 0);">
<polygon points="100,100 0,50 0,50 100,0 "/>
</g></g><g transform="translate(196,280) scale(0.28,0.28)"><g transform="" style="fill: rgb(0, 0, 0);">
<rect width="100" height="100"/>
</g></g><g transform="translate(224,280) scale(0.28,0.28)"><g transform="" style="fill: rgb(0, 0, 0);">
<g>
	<path d="M100,0H0v100h65.625c9.506,0,17.611-3.354,24.316-10.059S100,75.131,100,65.625V0z"/>
</g>
</g></g><g transform="translate(280,280) scale(0.28,0.28)"><g transform="" style="fill: rgb(0, 0, 0);">
<rect width="100" height="100"/>
</g></g><g transform="translate(364,280) scale(0.28,0.28)"><g transform="" style="fill: rgb(0, 0, 0);">
<polygon points="99.999,49.999 99.998,49.999 49.999,0 0,49.999 -0.001,49.999 -0.001,50 0,50 49.999,99.999 99.998,50 99.999,50 
	99.998,50 "/>
</g></g><g transform="translate(448,280) scale(0.28,0.28)"><g transform="" style="fill: rgb(0, 0, 0);">
<rect width="100" height="100"/>
</g></g><g transform="translate(532,280) scale(0.28,0.28)"><g transform="" style="fill: rgb(0, 0, 0);">
<polygon points="99.999,49.999 99.998,49.999 49.999,0 0,49.999 -0.001,49.999 -0.001,50 0,50 49.999,99.999 99.998,50 99.999,50 
	99.998,50 "/>
</g></g><g transform="translate(588,280) scale(0.28,0.28)"><g transform="" style="fill: rgb(0, 0, 0);">
<polygon points="99.999,49.999 99.998,49.999 49.999,0 0,49.999 -0.001,49.999 -0.001,50 0,50 49.999,99.999 99.998,50 99.999,50 
	99.998,50 "/>
</g></g><g transform="translate(644,280) scale(0.28,0.28)"><g transform="" style="fill: rgb(0, 0, 0);">
<g>
	<path d="M100,0H0v65.625c0,9.506,3.353,17.611,10.059,24.316S24.87,100,34.375,100H100V0z"/>
</g>
</g></g><g transform="translate(672,280) scale(0.28,0.28)"><g transform="" style="fill: rgb(0, 0, 0);">
<g>
	<path d="M100,0H0v100h65.625c9.506,0,17.611-3.354,24.316-10.059S100,75.131,100,65.625V0z"/>
</g>
</g></g><g transform="translate(756,280) scale(0.28,0.28)"><g transform="" style="fill: rgb(0, 0, 0);">
<rect width="100" height="100"/>
</g></g><g transform="translate(812,280) scale(0.28,0.28)"><g transform="" style="fill: rgb(0, 0, 0);">
<polygon points="100,100 0,50 0,50 100,0 "/>
</g></g><g transform="translate(840,280) scale(0.28,0.28)"><g transform="" style="fill: rgb(0, 0, 0);">
<g>
	<path d="M100,0H0v100h65.625c9.506,0,17.611-3.354,24.316-10.059S100,75.131,100,65.625V0z"/>
</g>
</g></g><g transform="translate(924,280) scale(0.28,0.28)"><g transform="" style="fill: rgb(0, 0, 0);">
<g>
	<path d="M100,0H0v65.625c0,9.506,3.353,17.611,10.059,24.316S24.87,100,34.375,100H100V0z"/>
</g>
</g></g><g transform="translate(952,280) scale(0.28,0.28)"><g transform="" style="fill: rgb(0, 0, 0);">
<polygon points="0,100 100,50 100,50 0,0 "/>
</g></g><g transform="translate(1008,280) scale(0.28,0.28)"><g transform="" style="fill: rgb(0, 0, 0);">
<polygon points="0,-0.001 50,99.999 50,99.999 100,-0.001 "/>
</g></g><g transform="translate(0,308) scale(0.28,0.28)"><g transform="" style="fill: rgb(0, 0, 0);">
<polygon points="100,100 50,0 50,0 0,100 "/>
</g></g><g transform="translate(84,308) scale(0.28,0.28)"><g transform="" style="fill: rgb(0, 0, 0);">
<g>
	<path d="M100,0H0v65.625c0,9.506,3.353,17.611,10.059,24.316S24.87,100,34.375,100H100V0z"/>
</g>
</g></g><g transform="translate(112,308) scale(0.28,0.28)"><g transform="" style="fill: rgb(0, 0, 0);">
<polygon points="0,100 100,50 100,50 0,0 "/>
</g></g><g transform="translate(252,308) scale(0.28,0.28)"><g transform="" style="fill: rgb(0, 0, 0);">
<g>
	<path d="M100,34.375V0H34.375C24.87,0,16.764,3.353,10.059,10.059S0,24.87,0,34.375V100h100V34.375z"/>
</g>
</g></g><g transform="translate(280,308) scale(0.28,0.28)"><g transform="" style="fill: rgb(0, 0, 0);">
<g>
	<path d="M100,0H0v100h65.625c9.506,0,17.611-3.354,24.316-10.059S100,75.131,100,65.625V0z"/>
</g>
</g></g><g transform="translate(420,308) scale(0.28,0.28)"><g transform="" style="fill: rgb(0, 0, 0);">
<polygon points="100,100 0,50 0,50 100,0 "/>
</g></g><g transform="translate(448,308) scale(0.28,0.28)"><g transform="" style="fill: rgb(0, 0, 0);">
<g>
	<path d="M100,0H0v100h65.625c9.506,0,17.611-3.354,24.316-10.059S100,75.131,100,65.625V0z"/>
</g>
</g></g><g transform="translate(504,308) scale(0.28,0.28)"><g transform="" style="fill: rgb(0, 0, 0);">
<polygon points="99.999,49.999 99.998,49.999 49.999,0 0,49.999 -0.001,49.999 -0.001,50 0,50 49.999,99.999 99.998,50 99.999,50 
	99.998,50 "/>
</g></g><g transform="translate(728,308) scale(0.28,0.28)"><g transform="" style="fill: rgb(0, 0, 0);">
<polygon points="100,100 0,50 0,50 100,0 "/>
</g></g><g transform="translate(756,308) scale(0.28,0.28)"><g transform="" style="fill: rgb(0, 0, 0);">
<rect width="100" height="100"/>
</g></g><g transform="translate(784,308) scale(0.28,0.28)"><g transform="" style="fill: rgb(0, 0, 0);">
<g>
	<path d="M100,34.375c0-9.505-3.354-17.611-10.059-24.316S75.131,0,65.625,0H0v100h100V34.375z"/>
</g>
</g></g><g transform="translate(0,336) scale(0.28,0.28)"><g transform="" style="fill: rgb(0, 0, 0);">
<rect width="100" height="100"/>
</g></g><g transform="translate(28,336) scale(0.28,0.28)"><g transform="" style="fill: rgb(0, 0, 0);">
<g>
	<path d="M100,34.375c0-9.505-3.354-17.611-10.059-24.316S75.131,0,65.625,0H0v100h100V34.375z"/>
</g>
</g></g><g transform="translate(140,336) scale(0.28,0.28)"><g transform="" style="fill: rgb(0, 0, 0);">
<g>
	<path d="M100,34.375V0H34.375C24.87,0,16.764,3.353,10.059,10.059S0,24.87,0,34.375V100h100V34.375z"/>
</g>
</g></g><g transform="translate(168,336) scale(0.28,0.28)"><g transform="" style="fill: rgb(0, 0, 0);">
<polygon points="0,100 100,50 100,50 0,0 "/>
</g></g><g transform="translate(252,336) scale(0.28,0.28)"><g transform="" style="fill: rgb(0, 0, 0);">
<rect width="100" height="100"/>
</g></g><g transform="translate(532,336) scale(0.28,0.28)"><g transform="" style="fill: rgb(0, 0, 0);">
<polygon points="100,100 50,0 50,0 0,100 "/>
</g></g><g transform="translate(644,336) scale(0.28,0.28)"><g transform="" style="fill: rgb(0, 0, 0);">
<g>
	<path d="M100,34.375V0H34.375C24.87,0,16.764,3.353,10.059,10.059S0,24.87,0,34.375V100h100V34.375z"/>
</g>
</g></g><g transform="translate(672,336) scale(0.28,0.28)"><g transform="" style="fill: rgb(0, 0, 0);">
<polygon points="0,100 100,50 100,50 0,0 "/>
</g></g><g transform="translate(784,336) scale(0.28,0.28)"><g transform="" style="fill: rgb(0, 0, 0);">
<rect width="100" height="100"/>
</g></g><g transform="translate(840,336) scale(0.28,0.28)"><g transform="" style="fill: rgb(0, 0, 0);">
<polygon points="100,100 50,0 50,0 0,100 "/>
</g></g><g transform="translate(1008,336) scale(0.28,0.28)"><g transform="" style="fill: rgb(0, 0, 0);">
<polygon points="100,100 50,0 50,0 0,100 "/>
</g></g><g transform="translate(0,364) scale(0.28,0.28)"><g transform="" style="fill: rgb(0, 0, 0);">
<rect width="100" height="100"/>
</g></g><g transform="translate(28,364) scale(0.28,0.28)"><g transform="" style="fill: rgb(0, 0, 0);">
<rect width="100" height="100"/>
</g></g><g transform="translate(84,364) scale(0.28,0.28)"><g transform="" style="fill: rgb(0, 0, 0);">
<g>
	<path d="M100,34.375V0H34.375C24.87,0,16.764,3.353,10.059,10.059S0,24.87,0,34.375V100h100V34.375z"/>
</g>
</g></g><g transform="translate(112,364) scale(0.28,0.28)"><g transform="" style="fill: rgb(0, 0, 0);">
<rect width="100" height="100"/>
</g></g><g transform="translate(140,364) scale(0.28,0.28)"><g transform="" style="fill: rgb(0, 0, 0);">
<g>
	<path d="M100,0H0v100h65.625c9.506,0,17.611-3.354,24.316-10.059S100,75.131,100,65.625V0z"/>
</g>
</g></g><g transform="translate(252,364) scale(0.28,0.28)"><g transform="" style="fill: rgb(0, 0, 0);">
<rect width="100" height="100"/>
</g></g><g transform="translate(364,364) scale(0.28,0.28)"><g transform="" style="fill: rgb(0, 0, 0);">
<polygon points="99.999,49.999 99.998,49.999 49.999,0 0,49.999 -0.001,49.999 -0.001,50 0,50 49.999,99.999 99.998,50 99.999,50 
	99.998,50 "/>
</g></g><g transform="translate(420,364) scale(0.28,0.28)"><g transform="" style="fill: rgb(0, 0, 0);">
<g>
	<path d="M100,34.375V0H34.375C24.87,0,16.764,3.353,10.059,10.059S0,24.87,0,34.375V100h100V34.375z"/>
</g>
</g></g><g transform="translate(448,364) scale(0.28,0.28)"><g transform="" style="fill: rgb(0, 0, 0);">
<rect width="100" height="100"/>
</g></g><g transform="translate(476,364) scale(0.28,0.28)"><g transform="" style="fill: rgb(0, 0, 0);">
<polygon points="0,100 100,50 100,50 0,0 "/>
</g></g><g transform="translate(532,364) scale(0.28,0.28)"><g transform="" style="fill: rgb(0, 0, 0);">
<rect width="100" height="100"/>
</g></g><g transform="translate(560,364) scale(0.28,0.28)"><g transform="" style="fill: rgb(0, 0, 0);">
<g>
	<path d="M100,34.375c0-9.505-3.354-17.611-10.059-24.316S75.131,0,65.625,0H0v100h100V34.375z"/>
</g>
</g></g><g transform="translate(644,364) scale(0.28,0.28)"><g transform="" style="fill: rgb(0, 0, 0);">
<rect width="100" height="100"/>
</g></g><g transform="translate(700,364) scale(0.28,0.28)"><g transform="" style="fill: rgb(0, 0, 0);">
<polygon points="100,100 50,0 50,0 0,100 "/>
</g></g><g transform="translate(756,364) scale(0.28,0.28)"><g transform="" style="fill: rgb(0, 0, 0);">
<g>
	<path d="M100,34.375V0H34.375C24.87,0,16.764,3.353,10.059,10.059S0,24.87,0,34.375V100h100V34.375z"/>
</g>
</g></g><g transform="translate(784,364) scale(0.28,0.28)"><g transform="" style="fill: rgb(0, 0, 0);">
<g>
	<path d="M100,0H0v100h65.625c9.506,0,17.611-3.354,24.316-10.059S100,75.131,100,65.625V0z"/>
</g>
</g></g><g transform="translate(840,364) scale(0.28,0.28)"><g transform="" style="fill: rgb(0, 0, 0);">
<rect width="100" height="100"/>
</g></g><g transform="translate(868,364) scale(0.28,0.28)"><g transform="" style="fill: rgb(0, 0, 0);">
<polygon points="0,100 100,50 100,50 0,0 "/>
</g></g><g transform="translate(924,364) scale(0.28,0.28)"><g transform="" style="fill: rgb(0, 0, 0);">
<polygon points="100,100 50,0 50,0 0,100 "/>
</g></g><g transform="translate(1008,364) scale(0.28,0.28)"><g transform="" style="fill: rgb(0, 0, 0);">
<rect width="100" height="100"/>
</g></g><g transform="translate(0,392) scale(0.28,0.28)"><g transform="" style="fill: rgb(0, 0, 0);">
<g>
	<path d="M100,0H0v65.625c0,9.506,3.353,17.611,10.059,24.316S24.87,100,34.375,100H100V0z"/>
</g>
</g></g><g transform="translate(28,392) scale(0.28,0.28)"><g transform="" style="fill: rgb(0, 0, 0);">
<rect width="100" height="100"/>
</g></g><g transform="translate(56,392) scale(0.28,0.28)"><g transform="" style="fill: rgb(0, 0, 0);">
<rect width="100" height="100"/>
</g></g><g transform="translate(84,392) scale(0.28,0.28)"><g transform="" style="fill: rgb(0, 0, 0);">
<g>
	<path d="M100,0H0v100h65.625c9.506,0,17.611-3.354,24.316-10.059S100,75.131,100,65.625V0z"/>
</g>
</g></g><g transform="translate(168,392) scale(0.28,0.28)"><g transform="" style="fill: rgb(0, 0, 0);">
<polygon points="100,100 0,50 0,50 100,0 "/>
</g></g><g transform="translate(196,392) scale(0.28,0.28)"><g transform="" style="fill: rgb(0, 0, 0);">
<polygon points="0,100 100,50 100,50 0,0 "/>
</g></g><g transform="translate(252,392) scale(0.28,0.28)"><g transform="" style="fill: rgb(0, 0, 0);">
<rect width="100" height="100"/>
</g></g><g transform="translate(280,392) scale(0.28,0.28)"><g transform="" style="fill: rgb(0, 0, 0);">
<rect width="100" height="100"/>
</g></g><g transform="translate(308,392) scale(0.28,0.28)"><g transform="" style="fill: rgb(0, 0, 0);">
<polygon points="0,100 100,50 100,50 0,0 "/>
</g></g><g transform="translate(420,392) scale(0.28,0.28)"><g transform="" style="fill: rgb(0, 0, 0);">
<g>
	<path d="M100,0H0v65.625c0,9.506,3.353,17.611,10.059,24.316S24.87,100,34.375,100H100V0z"/>
</g>
</g></g><g transform="translate(448,392) scale(0.28,0.28)"><g transform="" style="fill: rgb(0, 0, 0);">
<rect width="100" height="100"/>
</g></g><g transform="translate(532,392) scale(0.28,0.28)"><g transform="" style="fill: rgb(0, 0, 0);">
<g>
	<path d="M100,0H0v65.625c0,9.506,3.353,17.611,10.059,24.316S24.87,100,34.375,100H100V0z"/>
</g>
</g></g><g transform="translate(560,392) scale(0.28,0.28)"><g transform="" style="fill: rgb(0, 0, 0);">
<rect width="100" height="100"/>
</g></g><g transform="translate(588,392) scale(0.28,0.28)"><g transform="" style="fill: rgb(0, 0, 0);">
<rect width="100" height="100"/>
</g></g><g transform="translate(616,392) scale(0.28,0.28)"><g transform="" style="fill: rgb(0, 0, 0);">
<rect width="100" height="100"/>
</g></g><g transform="translate(644,392) scale(0.28,0.28)"><g transform="" style="fill: rgb(0, 0, 0);">
<g>
	<path d="M100,0H0v100h65.625c9.506,0,17.611-3.354,24.316-10.059S100,75.131,100,65.625V0z"/>
</g>
</g></g><g transform="translate(700,392) scale(0.28,0.28)"><g transform="" style="fill: rgb(0, 0, 0);">
<g>
	<path d="M100,0H0v65.625c0,9.506,3.353,17.611,10.059,24.316S24.87,100,34.375,100H100V0z"/>
</g>
</g></g><g transform="translate(728,392) scale(0.28,0.28)"><g transform="" style="fill: rgb(0, 0, 0);">
<rect width="100" height="100"/>
</g></g><g transform="translate(756,392) scale(0.28,0.28)"><g transform="" style="fill: rgb(0, 0, 0);">
<rect width="100" height="100"/>
</g></g><g transform="translate(812,392) scale(0.28,0.28)"><g transform="" style="fill: rgb(0, 0, 0);">
<g>
	<path d="M100,34.375V0H34.375C24.87,0,16.764,3.353,10.059,10.059S0,24.87,0,34.375V100h100V34.375z"/>
</g>
</g></g><g transform="translate(840,392) scale(0.28,0.28)"><g transform="" style="fill: rgb(0, 0, 0);">
<g>
	<path d="M100,0H0v100h65.625c9.506,0,17.611-3.354,24.316-10.059S100,75.131,100,65.625V0z"/>
</g>
</g></g><g transform="translate(924,392) scale(0.28,0.28)"><g transform="" style="fill: rgb(0, 0, 0);">
<rect width="100" height="100"/>
</g></g><g transform="translate(952,392) scale(0.28,0.28)"><g transform="" style="fill: rgb(0, 0, 0);">
<polygon points="0,100 100,50 100,50 0,0 "/>
</g></g><g transform="translate(1008,392) scale(0.28,0.28)"><g transform="" style="fill: rgb(0, 0, 0);">
<polygon points="0,-0.001 50,99.999 50,99.999 100,-0.001 "/>
</g></g><g transform="translate(112,420) scale(0.28,0.28)"><g transform="" style="fill: rgb(0, 0, 0);">
<polygon points="100,100 0,50 0,50 100,0 "/>
</g></g><g transform="translate(140,420) scale(0.28,0.28)"><g transform="" style="fill: rgb(0, 0, 0);">
<polygon points="0,100 100,50 100,50 0,0 "/>
</g></g><g transform="translate(224,420) scale(0.28,0.28)"><g transform="" style="fill: rgb(0, 0, 0);">
<g>
	<path d="M100,34.375V0H34.375C24.87,0,16.764,3.353,10.059,10.059S0,24.87,0,34.375V100h100V34.375z"/>
</g>
</g></g><g transform="translate(252,420) scale(0.28,0.28)"><g transform="" style="fill: rgb(0, 0, 0);">
<rect width="100" height="100"/>
</g></g><g transform="translate(280,420) scale(0.28,0.28)"><g transform="" style="fill: rgb(0, 0, 0);">
<g>
	<path d="M100,0H0v100h65.625c9.506,0,17.611-3.354,24.316-10.059S100,75.131,100,65.625V0z"/>
</g>
</g></g><g transform="translate(392,420) scale(0.28,0.28)"><g transform="" style="fill: rgb(0, 0, 0);">
<polygon points="99.999,49.999 99.998,49.999 49.999,0 0,49.999 -0.001,49.999 -0.001,50 0,50 49.999,99.999 99.998,50 99.999,50 
	99.998,50 "/>
</g></g><g transform="translate(448,420) scale(0.28,0.28)"><g transform="" style="fill: rgb(0, 0, 0);">
<g>
	<path d="M100,0H0v65.625c0,9.506,3.353,17.611,10.059,24.316S24.87,100,34.375,100H100V0z"/>
</g>
</g></g><g transform="translate(476,420) scale(0.28,0.28)"><g transform="" style="fill: rgb(0, 0, 0);">
<g>
	<path d="M100,34.375c0-9.505-3.354-17.611-10.059-24.316S75.131,0,65.625,0H0v100h100V34.375z"/>
</g>
</g></g><g transform="translate(616,420) scale(0.28,0.28)"><g transform="" style="fill: rgb(0, 0, 0);">
<rect width="100" height="100"/>
</g></g><g transform="translate(672,420) scale(0.28,0.28)"><g transform="" style="fill: rgb(0, 0, 0);">
<polygon points="99.999,49.999 99.998,49.999 49.999,0 0,49.999 -0.001,49.999 -0.001,50 0,50 49.999,99.999 99.998,50 99.999,50 
	99.998,50 "/>
</g></g><g transform="translate(728,420) scale(0.28,0.28)"><g transform="" style="fill: rgb(0, 0, 0);">
<g>
	<path d="M100,0H0v65.625c0,9.506,3.353,17.611,10.059,24.316S24.87,100,34.375,100H100V0z"/>
</g>
</g></g><g transform="translate(756,420) scale(0.28,0.28)"><g transform="" style="fill: rgb(0, 0, 0);">
<rect width="100" height="100"/>
</g></g><g transform="translate(784,420) scale(0.28,0.28)"><g transform="" style="fill: rgb(0, 0, 0);">
<rect width="100" height="100"/>
</g></g><g transform="translate(812,420) scale(0.28,0.28)"><g transform="" style="fill: rgb(0, 0, 0);">
<g>
	<path d="M100,0H0v100h65.625c9.506,0,17.611-3.354,24.316-10.059S100,75.131,100,65.625V0z"/>
</g>
</g></g><g transform="translate(868,420) scale(0.28,0.28)"><g transform="" style="fill: rgb(0, 0, 0);">
<polygon points="100,100 0,50 0,50 100,0 "/>
</g></g><g transform="translate(896,420) scale(0.28,0.28)"><g transform="" style="fill: rgb(0, 0, 0);">
<rect width="100" height="100"/>
</g></g><g transform="translate(924,420) scale(0.28,0.28)"><g transform="" style="fill: rgb(0, 0, 0);">
<g>
	<path d="M100,0H0v100h65.625c9.506,0,17.611-3.354,24.316-10.059S100,75.131,100,65.625V0z"/>
</g>
</g></g><g transform="translate(980,420) scale(0.28,0.28)"><g transform="" style="fill: rgb(0, 0, 0);">
<polygon points="100,100 50,0 50,0 0,100 "/>
</g></g><g transform="translate(0,448) scale(0.28,0.28)"><g transform="" style="fill: rgb(0, 0, 0);">
<polygon points="99.999,49.999 99.998,49.999 49.999,0 0,49.999 -0.001,49.999 -0.001,50 0,50 49.999,99.999 99.998,50 99.999,50 
	99.998,50 "/>
</g></g><g transform="translate(56,448) scale(0.28,0.28)"><g transform="" style="fill: rgb(0, 0, 0);">
<g>
	<path d="M100,34.375V0H34.375C24.87,0,16.764,3.353,10.059,10.059S0,24.87,0,34.375V100h100V34.375z"/>
</g>
</g></g><g transform="translate(84,448) scale(0.28,0.28)"><g transform="" style="fill: rgb(0, 0, 0);">
<g>
	<path d="M100,34.375c0-9.505-3.354-17.611-10.059-24.316S75.131,0,65.625,0H0v100h100V34.375z"/>
</g>
</g></g><g transform="translate(168,448) scale(0.28,0.28)"><g transform="" style="fill: rgb(0, 0, 0);">
<polygon points="99.999,49.999 99.998,49.999 49.999,0 0,49.999 -0.001,49.999 -0.001,50 0,50 49.999,99.999 99.998,50 99.999,50 
	99.998,50 "/>
</g></g><g transform="translate(224,448) scale(0.28,0.28)"><g transform="" style="fill: rgb(0, 0, 0);">
<rect width="100" height="100"/>
</g></g><g transform="translate(364,448) scale(0.28,0.28)"><g transform="" style="fill: rgb(0, 0, 0);">
<polygon points="99.999,49.999 99.998,49.999 49.999,0 0,49.999 -0.001,49.999 -0.001,50 0,50 49.999,99.999 99.998,50 99.999,50 
	99.998,50 "/>
</g></g><g transform="translate(476,448) scale(0.28,0.28)"><g transform="" style="fill: rgb(0, 0, 0);">
<polygon points="0,-0.001 50,99.999 50,99.999 100,-0.001 "/>
</g></g><g transform="translate(532,448) scale(0.28,0.28)"><g transform="" style="fill: rgb(0, 0, 0);">
<polygon points="100,100 0,50 0,50 100,0 "/>
</g></g><g transform="translate(560,448) scale(0.28,0.28)"><g transform="" style="fill: rgb(0, 0, 0);">
<rect width="100" height="100"/>
</g></g><g transform="translate(588,448) scale(0.28,0.28)"><g transform="" style="fill: rgb(0, 0, 0);">
<rect width="100" height="100"/>
</g></g><g transform="translate(616,448) scale(0.28,0.28)"><g transform="" style="fill: rgb(0, 0, 0);">
<rect width="100" height="100"/>
</g></g><g transform="translate(756,448) scale(0.28,0.28)"><g transform="" style="fill: rgb(0, 0, 0);">
<polygon points="0,-0.001 50,99.999 50,99.999 100,-0.001 "/>
</g></g><g transform="translate(840,448) scale(0.28,0.28)"><g transform="" style="fill: rgb(0, 0, 0);">
<polygon points="100,100 50,0 50,0 0,100 "/>
</g></g><g transform="translate(980,448) scale(0.28,0.28)"><g transform="" style="fill: rgb(0, 0, 0);">
<rect width="100" height="100"/>
</g></g><g transform="translate(28,476) scale(0.28,0.28)"><g transform="" style="fill: rgb(0, 0, 0);">
<g>
	<path d="M100,34.375V0H34.375C24.87,0,16.764,3.353,10.059,10.059S0,24.87,0,34.375V100h100V34.375z"/>
</g>
</g></g><g transform="translate(56,476) scale(0.28,0.28)"><g transform="" style="fill: rgb(0, 0, 0);">
<rect width="100" height="100"/>
</g></g><g transform="translate(84,476) scale(0.28,0.28)"><g transform="" style="fill: rgb(0, 0, 0);">
<rect width="100" height="100"/>
</g></g><g transform="translate(112,476) scale(0.28,0.28)"><g transform="" style="fill: rgb(0, 0, 0);">
<g>
	<path d="M100,34.375c0-9.505-3.354-17.611-10.059-24.316S75.131,0,65.625,0H0v100h100V34.375z"/>
</g>
</g></g><g transform="translate(196,476) scale(0.28,0.28)"><g transform="" style="fill: rgb(0, 0, 0);">
<g>
	<path d="M100,34.375V0H34.375C24.87,0,16.764,3.353,10.059,10.059S0,24.87,0,34.375V100h100V34.375z"/>
</g>
</g></g><g transform="translate(224,476) scale(0.28,0.28)"><g transform="" style="fill: rgb(0, 0, 0);">
<rect width="100" height="100"/>
</g></g><g transform="translate(252,476) scale(0.28,0.28)"><g transform="" style="fill: rgb(0, 0, 0);">
<rect width="100" height="100"/>
</g></g><g transform="translate(280,476) scale(0.28,0.28)"><g transform="" style="fill: rgb(0, 0, 0);">
<rect width="100" height="100"/>
</g></g><g transform="translate(308,476) scale(0.28,0.28)"><g transform="" style="fill: rgb(0, 0, 0);">
<g>
	<path d="M100,34.375c0-9.505-3.354-17.611-10.059-24.316S75.131,0,65.625,0H0v100h100V34.375z"/>
</g>
</g></g><g transform="translate(560,476) scale(0.28,0.28)"><g transform="" style="fill: rgb(0, 0, 0);">
<rect width="100" height="100"/>
</g></g><g transform="translate(588,476) scale(0.28,0.28)"><g transform="" style="fill: rgb(0, 0, 0);">
<rect width="100" height="100"/>
</g></g><g transform="translate(616,476) scale(0.28,0.28)"><g transform="" style="fill: rgb(0, 0, 0);">
<rect width="100" height="100"/>
</g></g><g transform="translate(644,476) scale(0.28,0.28)"><g transform="" style="fill: rgb(0, 0, 0);">
<rect width="100" height="100"/>
</g></g><g transform="translate(672,476) scale(0.28,0.28)"><g transform="" style="fill: rgb(0, 0, 0);">
<rect width="100" height="100"/>
</g></g><g transform="translate(700,476) scale(0.28,0.28)"><g transform="" style="fill: rgb(0, 0, 0);">
<g>
	<path d="M100,34.375c0-9.505-3.354-17.611-10.059-24.316S75.131,0,65.625,0H0v100h100V34.375z"/>
</g>
</g></g><g transform="translate(784,476) scale(0.28,0.28)"><g transform="" style="fill: rgb(0, 0, 0);">
<polygon points="99.999,49.999 99.998,49.999 49.999,0 0,49.999 -0.001,49.999 -0.001,50 0,50 49.999,99.999 99.998,50 99.999,50 
	99.998,50 "/>
</g></g><g transform="translate(840,476) scale(0.28,0.28)"><g transform="" style="fill: rgb(0, 0, 0);">
<g>
	<path d="M100,0H0v65.625c0,9.506,3.353,17.611,10.059,24.316S24.87,100,34.375,100H100V0z"/>
</g>
</g></g><g transform="translate(868,476) scale(0.28,0.28)"><g transform="" style="fill: rgb(0, 0, 0);">
<g>
	<path d="M100,34.375c0-9.505-3.354-17.611-10.059-24.316S75.131,0,65.625,0H0v100h100V34.375z"/>
</g>
</g></g><g transform="translate(924,476) scale(0.28,0.28)"><g transform="" style="fill: rgb(0, 0, 0);">
<polygon points="100,100 0,50 0,50 100,0 "/>
</g></g><g transform="translate(952,476) scale(0.28,0.28)"><g transform="" style="fill: rgb(0, 0, 0);">
<rect width="100" height="100"/>
</g></g><g transform="translate(980,476) scale(0.28,0.28)"><g transform="" style="fill: rgb(0, 0, 0);">
<rect width="100" height="100"/>
</g></g><g transform="translate(1008,476) scale(0.28,0.28)"><g transform="" style="fill: rgb(0, 0, 0);">
<g>
	<path d="M100,34.375c0-9.505-3.354-17.611-10.059-24.316S75.131,0,65.625,0H0v100h100V34.375z"/>
</g>
</g></g><g transform="translate(28,504) scale(0.28,0.28)"><g transform="" style="fill: rgb(0, 0, 0);">
<g>
	<path d="M100,0H0v65.625c0,9.506,3.353,17.611,10.059,24.316S24.87,100,34.375,100H100V0z"/>
</g>
</g></g><g transform="translate(56,504) scale(0.28,0.28)"><g transform="" style="fill: rgb(0, 0, 0);">
<rect width="100" height="100"/>
</g></g><g transform="translate(84,504) scale(0.28,0.28)"><g transform="" style="fill: rgb(0, 0, 0);">
<rect width="100" height="100"/>
</g></g><g transform="translate(112,504) scale(0.28,0.28)"><g transform="" style="fill: rgb(0, 0, 0);">
<rect width="100" height="100"/>
</g></g><g transform="translate(168,504) scale(0.28,0.28)"><g transform="" style="fill: rgb(0, 0, 0);">
<polygon points="100,100 0,50 0,50 100,0 "/>
</g></g><g transform="translate(196,504) scale(0.28,0.28)"><g transform="" style="fill: rgb(0, 0, 0);">
<rect width="100" height="100"/>
</g></g><g transform="translate(224,504) scale(0.28,0.28)"><g transform="" style="fill: rgb(0, 0, 0);">
<g>
	<path d="M100,0H0v100h65.625c9.506,0,17.611-3.354,24.316-10.059S100,75.131,100,65.625V0z"/>
</g>
</g></g><g transform="translate(308,504) scale(0.28,0.28)"><g transform="" style="fill: rgb(0, 0, 0);">
<polygon points="0,-0.001 50,99.999 50,99.999 100,-0.001 "/>
</g></g><g transform="translate(420,504) scale(0.28,0.28)"><g transform="" style="fill: rgb(0, 0, 0);">
<polygon points="99.999,49.999 99.998,49.999 49.999,0 0,49.999 -0.001,49.999 -0.001,50 0,50 49.999,99.999 99.998,50 99.999,50 
	99.998,50 "/>
</g></g><g transform="translate(476,504) scale(0.28,0.28)"><g transform="" style="fill: rgb(0, 0, 0);">
<polygon points="99.999,49.999 99.998,49.999 49.999,0 0,49.999 -0.001,49.999 -0.001,50 0,50 49.999,99.999 99.998,50 99.999,50 
	99.998,50 "/>
</g></g><g transform="translate(560,504) scale(0.28,0.28)"><g transform="" style="fill: rgb(0, 0, 0);">
<rect width="100" height="100"/>
</g></g><g transform="translate(644,504) scale(0.28,0.28)"><g transform="" style="fill: rgb(0, 0, 0);">
<polygon points="0,-0.001 50,99.999 50,99.999 100,-0.001 "/>
</g></g><g transform="translate(700,504) scale(0.28,0.28)"><g transform="" style="fill: rgb(0, 0, 0);">
<polygon points="0,-0.001 50,99.999 50,99.999 100,-0.001 "/>
</g></g><g transform="translate(756,504) scale(0.28,0.28)"><g transform="" style="fill: rgb(0, 0, 0);">
<polygon points="100,100 50,0 50,0 0,100 "/>
</g></g><g transform="translate(868,504) scale(0.28,0.28)"><g transform="" style="fill: rgb(0, 0, 0);">
<rect width="100" height="100"/>
</g></g><g transform="translate(952,504) scale(0.28,0.28)"><g transform="" style="fill: rgb(0, 0, 0);">
<polygon points="0,-0.001 50,99.999 50,99.999 100,-0.001 "/>
</g></g><g transform="translate(1008,504) scale(0.28,0.28)"><g transform="" style="fill: rgb(0, 0, 0);">
<polygon points="0,-0.001 50,99.999 50,99.999 100,-0.001 "/>
</g></g><g transform="translate(56,532) scale(0.28,0.28)"><g transform="" style="fill: rgb(0, 0, 0);">
<g>
	<path d="M100,0H0v65.625c0,9.506,3.353,17.611,10.059,24.316S24.87,100,34.375,100H100V0z"/>
</g>
</g></g><g transform="translate(84,532) scale(0.28,0.28)"><g transform="" style="fill: rgb(0, 0, 0);">
<rect width="100" height="100"/>
</g></g><g transform="translate(112,532) scale(0.28,0.28)"><g transform="" style="fill: rgb(0, 0, 0);">
<rect width="100" height="100"/>
</g></g><g transform="translate(196,532) scale(0.28,0.28)"><g transform="" style="fill: rgb(0, 0, 0);">
<rect width="100" height="100"/>
</g></g><g transform="translate(280,532) scale(0.28,0.28)"><g transform="" style="fill: rgb(0, 0, 0);">
<polygon points="99.999,49.999 99.998,49.999 49.999,0 0,49.999 -0.001,49.999 -0.001,50 0,50 49.999,99.999 99.998,50 99.999,50 
	99.998,50 "/>
</g></g><g transform="translate(392,532) scale(0.28,0.28)"><g transform="" style="fill: rgb(0, 0, 0);">
<polygon points="99.999,49.999 99.998,49.999 49.999,0 0,49.999 -0.001,49.999 -0.001,50 0,50 49.999,99.999 99.998,50 99.999,50 
	99.998,50 "/>
</g></g><g transform="translate(532,532) scale(0.28,0.28)"><g transform="" style="fill: rgb(0, 0, 0);">
<polygon points="100,100 0,50 0,50 100,0 "/>
</g></g><g transform="translate(560,532) scale(0.28,0.28)"><g transform="" style="fill: rgb(0, 0, 0);">
<g>
	<path d="M100,0H0v100h65.625c9.506,0,17.611-3.354,24.316-10.059S100,75.131,100,65.625V0z"/>
</g>
</g></g><g transform="translate(616,532) scale(0.28,0.28)"><g transform="" style="fill: rgb(0, 0, 0);">
<polygon points="99.999,49.999 99.998,49.999 49.999,0 0,49.999 -0.001,49.999 -0.001,50 0,50 49.999,99.999 99.998,50 99.999,50 
	99.998,50 "/>
</g></g><g transform="translate(756,532) scale(0.28,0.28)"><g transform="" style="fill: rgb(0, 0, 0);">
<rect width="100" height="100"/>
</g></g><g transform="translate(868,532) scale(0.28,0.28)"><g transform="" style="fill: rgb(0, 0, 0);">
<rect width="100" height="100"/>
</g></g><g transform="translate(896,532) scale(0.28,0.28)"><g transform="" style="fill: rgb(0, 0, 0);">
<rect width="100" height="100"/>
</g></g><g transform="translate(924,532) scale(0.28,0.28)"><g transform="" style="fill: rgb(0, 0, 0);">
<g>
	<path d="M100,34.375c0-9.505-3.354-17.611-10.059-24.316S75.131,0,65.625,0H0v100h100V34.375z"/>
</g>
</g></g><g transform="translate(28,560) scale(0.28,0.28)"><g transform="" style="fill: rgb(0, 0, 0);">
<polygon points="100,100 50,0 50,0 0,100 "/>
</g></g><g transform="translate(112,560) scale(0.28,0.28)"><g transform="" style="fill: rgb(0, 0, 0);">
<rect width="100" height="100"/>
</g></g><g transform="translate(140,560) scale(0.28,0.28)"><g transform="" style="fill: rgb(0, 0, 0);">
<rect width="100" height="100"/>
</g></g><g transform="translate(168,560) scale(0.28,0.28)"><g transform="" style="fill: rgb(0, 0, 0);">
<rect width="100" height="100"/>
</g></g><g transform="translate(196,560) scale(0.28,0.28)"><g transform="" style="fill: rgb(0, 0, 0);">
<g>
	<path d="M100,0H0v100h65.625c9.506,0,17.611-3.354,24.316-10.059S100,75.131,100,65.625V0z"/>
</g>
</g></g><g transform="translate(308,560) scale(0.28,0.28)"><g transform="" style="fill: rgb(0, 0, 0);">
<polygon points="100,100 0,50 0,50 100,0 "/>
</g></g><g transform="translate(336,560) scale(0.28,0.28)"><g transform="" style="fill: rgb(0, 0, 0);">
<rect width="100" height="100"/>
</g></g><g transform="translate(364,560) scale(0.28,0.28)"><g transform="" style="fill: rgb(0, 0, 0);">
<g>
	<path d="M100,34.375c0-9.505-3.354-17.611-10.059-24.316S75.131,0,65.625,0H0v100h100V34.375z"/>
</g>
</g></g><g transform="translate(420,560) scale(0.28,0.28)"><g transform="" style="fill: rgb(0, 0, 0);">
<g>
	<path d="M100,34.375V0H34.375C24.87,0,16.764,3.353,10.059,10.059S0,24.87,0,34.375V100h100V34.375z"/>
</g>
</g></g><g transform="translate(448,560) scale(0.28,0.28)"><g transform="" style="fill: rgb(0, 0, 0);">
<g>
	<path d="M100,34.375c0-9.505-3.354-17.611-10.059-24.316S75.131,0,65.625,0H0v100h100V34.375z"/>
</g>
</g></g><g transform="translate(644,560) scale(0.28,0.28)"><g transform="" style="fill: rgb(0, 0, 0);">
<g>
	<path d="M100,34.375V0H34.375C24.87,0,16.764,3.353,10.059,10.059S0,24.87,0,34.375V100h100V34.375z"/>
</g>
</g></g><g transform="translate(672,560) scale(0.28,0.28)"><g transform="" style="fill: rgb(0, 0, 0);">
<g>
	<path d="M100,34.375c0-9.505-3.354-17.611-10.059-24.316S75.131,0,65.625,0H0v100h100V34.375z"/>
</g>
</g></g><g transform="translate(756,560) scale(0.28,0.28)"><g transform="" style="fill: rgb(0, 0, 0);">
<rect width="100" height="100"/>
</g></g><g transform="translate(784,560) scale(0.28,0.28)"><g transform="" style="fill: rgb(0, 0, 0);">
<g>
	<path d="M100,34.375c0-9.505-3.354-17.611-10.059-24.316S75.131,0,65.625,0H0v100h100V34.375z"/>
</g>
</g></g><g transform="translate(840,560) scale(0.28,0.28)"><g transform="" style="fill: rgb(0, 0, 0);">
<g>
	<path d="M100,34.375V0H34.375C24.87,0,16.764,3.353,10.059,10.059S0,24.87,0,34.375V100h100V34.375z"/>
</g>
</g></g><g transform="translate(868,560) scale(0.28,0.28)"><g transform="" style="fill: rgb(0, 0, 0);">
<g>
	<path d="M100,0H0v100h65.625c9.506,0,17.611-3.354,24.316-10.059S100,75.131,100,65.625V0z"/>
</g>
</g></g><g transform="translate(924,560) scale(0.28,0.28)"><g transform="" style="fill: rgb(0, 0, 0);">
<polygon points="0,-0.001 50,99.999 50,99.999 100,-0.001 "/>
</g></g><g transform="translate(980,560) scale(0.28,0.28)"><g transform="" style="fill: rgb(0, 0, 0);">
<polygon points="99.999,49.999 99.998,49.999 49.999,0 0,49.999 -0.001,49.999 -0.001,50 0,50 49.999,99.999 99.998,50 99.999,50 
	99.998,50 "/>
</g></g><g transform="translate(28,588) scale(0.28,0.28)"><g transform="" style="fill: rgb(0, 0, 0);">
<rect width="100" height="100"/>
</g></g><g transform="translate(56,588) scale(0.28,0.28)"><g transform="" style="fill: rgb(0, 0, 0);">
<rect width="100" height="100"/>
</g></g><g transform="translate(84,588) scale(0.28,0.28)"><g transform="" style="fill: rgb(0, 0, 0);">
<rect width="100" height="100"/>
</g></g><g transform="translate(112,588) scale(0.28,0.28)"><g transform="" style="fill: rgb(0, 0, 0);">
<g>
	<path d="M100,0H0v100h65.625c9.506,0,17.611-3.354,24.316-10.059S100,75.131,100,65.625V0z"/>
</g>
</g></g><g transform="translate(224,588) scale(0.28,0.28)"><g transform="" style="fill: rgb(0, 0, 0);">
<polygon points="100,100 50,0 50,0 0,100 "/>
</g></g><g transform="translate(280,588) scale(0.28,0.28)"><g transform="" style="fill: rgb(0, 0, 0);">
<polygon points="100,100 50,0 50,0 0,100 "/>
</g></g><g transform="translate(364,588) scale(0.28,0.28)"><g transform="" style="fill: rgb(0, 0, 0);">
<polygon points="0,-0.001 50,99.999 50,99.999 100,-0.001 "/>
</g></g><g transform="translate(420,588) scale(0.28,0.28)"><g transform="" style="fill: rgb(0, 0, 0);">
<rect width="100" height="100"/>
</g></g><g transform="translate(448,588) scale(0.28,0.28)"><g transform="" style="fill: rgb(0, 0, 0);">
<g>
	<path d="M100,0H0v100h65.625c9.506,0,17.611-3.354,24.316-10.059S100,75.131,100,65.625V0z"/>
</g>
</g></g><g transform="translate(532,588) scale(0.28,0.28)"><g transform="" style="fill: rgb(0, 0, 0);">
<g>
	<path d="M100,34.375V0H34.375C24.87,0,16.764,3.353,10.059,10.059S0,24.87,0,34.375V100h100V34.375z"/>
</g>
</g></g><g transform="translate(560,588) scale(0.28,0.28)"><g transform="" style="fill: rgb(0, 0, 0);">
<rect width="100" height="100"/>
</g></g><g transform="translate(588,588) scale(0.28,0.28)"><g transform="" style="fill: rgb(0, 0, 0);">
<rect width="100" height="100"/>
</g></g><g transform="translate(616,588) scale(0.28,0.28)"><g transform="" style="fill: rgb(0, 0, 0);">
<rect width="100" height="100"/>
</g></g><g transform="translate(644,588) scale(0.28,0.28)"><g transform="" style="fill: rgb(0, 0, 0);">
<rect width="100" height="100"/>
</g></g><g transform="translate(672,588) scale(0.28,0.28)"><g transform="" style="fill: rgb(0, 0, 0);">
<g>
	<path d="M100,0H0v100h65.625c9.506,0,17.611-3.354,24.316-10.059S100,75.131,100,65.625V0z"/>
</g>
</g></g><g transform="translate(756,588) scale(0.28,0.28)"><g transform="" style="fill: rgb(0, 0, 0);">
<rect width="100" height="100"/>
</g></g><g transform="translate(784,588) scale(0.28,0.28)"><g transform="" style="fill: rgb(0, 0, 0);">
<rect width="100" height="100"/>
</g></g><g transform="translate(840,588) scale(0.28,0.28)"><g transform="" style="fill: rgb(0, 0, 0);">
<rect width="100" height="100"/>
</g></g><g transform="translate(1008,588) scale(0.28,0.28)"><g transform="" style="fill: rgb(0, 0, 0);">
<polygon points="100,100 50,0 50,0 0,100 "/>
</g></g><g transform="translate(28,616) scale(0.28,0.28)"><g transform="" style="fill: rgb(0, 0, 0);">
<rect width="100" height="100"/>
</g></g><g transform="translate(84,616) scale(0.28,0.28)"><g transform="" style="fill: rgb(0, 0, 0);">
<polygon points="0,-0.001 50,99.999 50,99.999 100,-0.001 "/>
</g></g><g transform="translate(168,616) scale(0.28,0.28)"><g transform="" style="fill: rgb(0, 0, 0);">
<polygon points="100,100 0,50 0,50 100,0 "/>
</g></g><g transform="translate(196,616) scale(0.28,0.28)"><g transform="" style="fill: rgb(0, 0, 0);">
<rect width="100" height="100"/>
</g></g><g transform="translate(224,616) scale(0.28,0.28)"><g transform="" style="fill: rgb(0, 0, 0);">
<rect width="100" height="100"/>
</g></g><g transform="translate(252,616) scale(0.28,0.28)"><g transform="" style="fill: rgb(0, 0, 0);">
<rect width="100" height="100"/>
</g></g><g transform="translate(280,616) scale(0.28,0.28)"><g transform="" style="fill: rgb(0, 0, 0);">
<rect width="100" height="100"/>
</g></g><g transform="translate(336,616) scale(0.28,0.28)"><g transform="" style="fill: rgb(0, 0, 0);">
<polygon points="100,100 50,0 50,0 0,100 "/>
</g></g><g transform="translate(392,616) scale(0.28,0.28)"><g transform="" style="fill: rgb(0, 0, 0);">
<g>
	<path d="M100,34.375V0H34.375C24.87,0,16.764,3.353,10.059,10.059S0,24.87,0,34.375V100h100V34.375z"/>
</g>
</g></g><g transform="translate(420,616) scale(0.28,0.28)"><g transform="" style="fill: rgb(0, 0, 0);">
<g>
	<path d="M100,0H0v100h65.625c9.506,0,17.611-3.354,24.316-10.059S100,75.131,100,65.625V0z"/>
</g>
</g></g><g transform="translate(476,616) scale(0.28,0.28)"><g transform="" style="fill: rgb(0, 0, 0);">
<polygon points="100,100 0,50 0,50 100,0 "/>
</g></g><g transform="translate(504,616) scale(0.28,0.28)"><g transform="" style="fill: rgb(0, 0, 0);">
<rect width="100" height="100"/>
</g></g><g transform="translate(532,616) scale(0.28,0.28)"><g transform="" style="fill: rgb(0, 0, 0);">
<g>
	<path d="M100,0H0v100h65.625c9.506,0,17.611-3.354,24.316-10.059S100,75.131,100,65.625V0z"/>
</g>
</g></g><g transform="translate(644,616) scale(0.28,0.28)"><g transform="" style="fill: rgb(0, 0, 0);">
<rect width="100" height="100"/>
</g></g><g transform="translate(700,616) scale(0.28,0.28)"><g transform="" style="fill: rgb(0, 0, 0);">
<polygon points="99.999,49.999 99.998,49.999 49.999,0 0,49.999 -0.001,49.999 -0.001,50 0,50 49.999,99.999 99.998,50 99.999,50 
	99.998,50 "/>
</g></g><g transform="translate(756,616) scale(0.28,0.28)"><g transform="" style="fill: rgb(0, 0, 0);">
<rect width="100" height="100"/>
</g></g><g transform="translate(784,616) scale(0.28,0.28)"><g transform="" style="fill: rgb(0, 0, 0);">
<rect width="100" height="100"/>
</g></g><g transform="translate(840,616) scale(0.28,0.28)"><g transform="" style="fill: rgb(0, 0, 0);">
<polygon points="0,-0.001 50,99.999 50,99.999 100,-0.001 "/>
</g></g><g transform="translate(924,616) scale(0.28,0.28)"><g transform="" style="fill: rgb(0, 0, 0);">
<g>
	<path d="M100,34.375V0H34.375C24.87,0,16.764,3.353,10.059,10.059S0,24.87,0,34.375V100h100V34.375z"/>
</g>
</g></g><g transform="translate(952,616) scale(0.28,0.28)"><g transform="" style="fill: rgb(0, 0, 0);">
<polygon points="0,100 100,50 100,50 0,0 "/>
</g></g><g transform="translate(1008,616) scale(0.28,0.28)"><g transform="" style="fill: rgb(0, 0, 0);">
<rect width="100" height="100"/>
</g></g><g transform="translate(0,644) scale(0.28,0.28)"><g transform="" style="fill: rgb(0, 0, 0);">
<polygon points="100,100 0,50 0,50 100,0 "/>
</g></g><g transform="translate(28,644) scale(0.28,0.28)"><g transform="" style="fill: rgb(0, 0, 0);">
<rect width="100" height="100"/>
</g></g><g transform="translate(196,644) scale(0.28,0.28)"><g transform="" style="fill: rgb(0, 0, 0);">
<rect width="100" height="100"/>
</g></g><g transform="translate(224,644) scale(0.28,0.28)"><g transform="" style="fill: rgb(0, 0, 0);">
<rect width="100" height="100"/>
</g></g><g transform="translate(252,644) scale(0.28,0.28)"><g transform="" style="fill: rgb(0, 0, 0);">
<rect width="100" height="100"/>
</g></g><g transform="translate(280,644) scale(0.28,0.28)"><g transform="" style="fill: rgb(0, 0, 0);">
<rect width="100" height="100"/>
</g></g><g transform="translate(308,644) scale(0.28,0.28)"><g transform="" style="fill: rgb(0, 0, 0);">
<rect width="100" height="100"/>
</g></g><g transform="translate(336,644) scale(0.28,0.28)"><g transform="" style="fill: rgb(0, 0, 0);">
<rect width="100" height="100"/>
</g></g><g transform="translate(364,644) scale(0.28,0.28)"><g transform="" style="fill: rgb(0, 0, 0);">
<rect width="100" height="100"/>
</g></g><g transform="translate(392,644) scale(0.28,0.28)"><g transform="" style="fill: rgb(0, 0, 0);">
<rect width="100" height="100"/>
</g></g><g transform="translate(504,644) scale(0.28,0.28)"><g transform="" style="fill: rgb(0, 0, 0);">
<rect width="100" height="100"/>
</g></g><g transform="translate(588,644) scale(0.28,0.28)"><g transform="" style="fill: rgb(0, 0, 0);">
<polygon points="100,100 50,0 50,0 0,100 "/>
</g></g><g transform="translate(644,644) scale(0.28,0.28)"><g transform="" style="fill: rgb(0, 0, 0);">
<g>
	<path d="M100,0H0v65.625c0,9.506,3.353,17.611,10.059,24.316S24.87,100,34.375,100H100V0z"/>
</g>
</g></g><g transform="translate(672,644) scale(0.28,0.28)"><g transform="" style="fill: rgb(0, 0, 0);">
<g>
	<path d="M100,34.375c0-9.505-3.354-17.611-10.059-24.316S75.131,0,65.625,0H0v100h100V34.375z"/>
</g>
</g></g><g transform="translate(728,644) scale(0.28,0.28)"><g transform="" style="fill: rgb(0, 0, 0);">
<polygon points="100,100 0,50 0,50 100,0 "/>
</g></g><g transform="translate(756,644) scale(0.28,0.28)"><g transform="" style="fill: rgb(0, 0, 0);">
<rect width="100" height="100"/>
</g></g><g transform="translate(784,644) scale(0.28,0.28)"><g transform="" style="fill: rgb(0, 0, 0);">
<g>
	<path d="M100,0H0v100h65.625c9.506,0,17.611-3.354,24.316-10.059S100,75.131,100,65.625V0z"/>
</g>
</g></g><g transform="translate(868,644) scale(0.28,0.28)"><g transform="" style="fill: rgb(0, 0, 0);">
<g>
	<path d="M100,34.375V0H34.375C24.87,0,16.764,3.353,10.059,10.059S0,24.87,0,34.375V100h100V34.375z"/>
</g>
</g></g><g transform="translate(896,644) scale(0.28,0.28)"><g transform="" style="fill: rgb(0, 0, 0);">
<rect width="100" height="100"/>
</g></g><g transform="translate(924,644) scale(0.28,0.28)"><g transform="" style="fill: rgb(0, 0, 0);">
<g>
	<path d="M100,0H0v100h65.625c9.506,0,17.611-3.354,24.316-10.059S100,75.131,100,65.625V0z"/>
</g>
</g></g><g transform="translate(980,644) scale(0.28,0.28)"><g transform="" style="fill: rgb(0, 0, 0);">
<polygon points="100,100 0,50 0,50 100,0 "/>
</g></g><g transform="translate(1008,644) scale(0.28,0.28)"><g transform="" style="fill: rgb(0, 0, 0);">
<g>
	<path d="M100,0H0v100h65.625c9.506,0,17.611-3.354,24.316-10.059S100,75.131,100,65.625V0z"/>
</g>
</g></g><g transform="translate(28,672) scale(0.28,0.28)"><g transform="" style="fill: rgb(0, 0, 0);">
<g>
	<path d="M100,0H0v65.625c0,9.506,3.353,17.611,10.059,24.316S24.87,100,34.375,100H100V0z"/>
</g>
</g></g><g transform="translate(56,672) scale(0.28,0.28)"><g transform="" style="fill: rgb(0, 0, 0);">
<g>
	<path d="M100,34.375c0-9.505-3.354-17.611-10.059-24.316S75.131,0,65.625,0H0v100h100V34.375z"/>
</g>
</g></g><g transform="translate(112,672) scale(0.28,0.28)"><g transform="" style="fill: rgb(0, 0, 0);">
<polygon points="99.999,49.999 99.998,49.999 49.999,0 0,49.999 -0.001,49.999 -0.001,50 0,50 49.999,99.999 99.998,50 99.999,50 
	99.998,50 "/>
</g></g><g transform="translate(168,672) scale(0.28,0.28)"><g transform="" style="fill: rgb(0, 0, 0);">
<polygon points="100,100 0,50 0,50 100,0 "/>
</g></g><g transform="translate(196,672) scale(0.28,0.28)"><g transform="" style="fill: rgb(0, 0, 0);">
<rect width="100" height="100"/>
</g></g><g transform="translate(280,672) scale(0.28,0.28)"><g transform="" style="fill: rgb(0, 0, 0);">
<polygon points="0,-0.001 50,99.999 50,99.999 100,-0.001 "/>
</g></g><g transform="translate(392,672) scale(0.28,0.28)"><g transform="" style="fill: rgb(0, 0, 0);">
<polygon points="0,-0.001 50,99.999 50,99.999 100,-0.001 "/>
</g></g><g transform="translate(448,672) scale(0.28,0.28)"><g transform="" style="fill: rgb(0, 0, 0);">
<g>
	<path d="M100,34.375V0H34.375C24.87,0,16.764,3.353,10.059,10.059S0,24.87,0,34.375V100h100V34.375z"/>
</g>
</g></g><g transform="translate(476,672) scale(0.28,0.28)"><g transform="" style="fill: rgb(0, 0, 0);">
<rect width="100" height="100"/>
</g></g><g transform="translate(504,672) scale(0.28,0.28)"><g transform="" style="fill: rgb(0, 0, 0);">
<rect width="100" height="100"/>
</g></g><g transform="translate(532,672) scale(0.28,0.28)"><g transform="" style="fill: rgb(0, 0, 0);">
<polygon points="0,100 100,50 100,50 0,0 "/>
</g></g><g transform="translate(588,672) scale(0.28,0.28)"><g transform="" style="fill: rgb(0, 0, 0);">
<polygon points="0,-0.001 50,99.999 50,99.999 100,-0.001 "/>
</g></g><g transform="translate(672,672) scale(0.28,0.28)"><g transform="" style="fill: rgb(0, 0, 0);">
<rect width="100" height="100"/>
</g></g><g transform="translate(840,672) scale(0.28,0.28)"><g transform="" style="fill: rgb(0, 0, 0);">
<g>
	<path d="M100,34.375V0H34.375C24.87,0,16.764,3.353,10.059,10.059S0,24.87,0,34.375V100h100V34.375z"/>
</g>
</g></g><g transform="translate(868,672) scale(0.28,0.28)"><g transform="" style="fill: rgb(0, 0, 0);">
<g>
	<path d="M100,0H0v100h65.625c9.506,0,17.611-3.354,24.316-10.059S100,75.131,100,65.625V0z"/>
</g>
</g></g><g transform="translate(56,700) scale(0.28,0.28)"><g transform="" style="fill: rgb(0, 0, 0);">
<polygon points="0,-0.001 50,99.999 50,99.999 100,-0.001 "/>
</g></g><g transform="translate(196,700) scale(0.28,0.28)"><g transform="" style="fill: rgb(0, 0, 0);">
<g>
	<path d="M100,0H0v65.625c0,9.506,3.353,17.611,10.059,24.316S24.87,100,34.375,100H100V0z"/>
</g>
</g></g><g transform="translate(224,700) scale(0.28,0.28)"><g transform="" style="fill: rgb(0, 0, 0);">
<polygon points="0,100 100,50 100,50 0,0 "/>
</g></g><g transform="translate(308,700) scale(0.28,0.28)"><g transform="" style="fill: rgb(0, 0, 0);">
<polygon points="99.999,49.999 99.998,49.999 49.999,0 0,49.999 -0.001,49.999 -0.001,50 0,50 49.999,99.999 99.998,50 99.999,50 
	99.998,50 "/>
</g></g><g transform="translate(448,700) scale(0.28,0.28)"><g transform="" style="fill: rgb(0, 0, 0);">
<rect width="100" height="100"/>
</g></g><g transform="translate(504,700) scale(0.28,0.28)"><g transform="" style="fill: rgb(0, 0, 0);">
<polygon points="0,-0.001 50,99.999 50,99.999 100,-0.001 "/>
</g></g><g transform="translate(644,700) scale(0.28,0.28)"><g transform="" style="fill: rgb(0, 0, 0);">
<g>
	<path d="M100,34.375V0H34.375C24.87,0,16.764,3.353,10.059,10.059S0,24.87,0,34.375V100h100V34.375z"/>
</g>
</g></g><g transform="translate(672,700) scale(0.28,0.28)"><g transform="" style="fill: rgb(0, 0, 0);">
<rect width="100" height="100"/>
</g></g><g transform="translate(756,700) scale(0.28,0.28)"><g transform="" style="fill: rgb(0, 0, 0);">
<g>
	<path d="M100,34.375V0H34.375C24.87,0,16.764,3.353,10.059,10.059S0,24.87,0,34.375V100h100V34.375z"/>
</g>
</g></g><g transform="translate(784,700) scale(0.28,0.28)"><g transform="" style="fill: rgb(0, 0, 0);">
<polygon points="0,100 100,50 100,50 0,0 "/>
</g></g><g transform="translate(840,700) scale(0.28,0.28)"><g transform="" style="fill: rgb(0, 0, 0);">
<rect width="100" height="100"/>
</g></g><g transform="translate(924,700) scale(0.28,0.28)"><g transform="" style="fill: rgb(0, 0, 0);">
<g>
	<path d="M100,34.375V0H34.375C24.87,0,16.764,3.353,10.059,10.059S0,24.87,0,34.375V100h100V34.375z"/>
</g>
</g></g><g transform="translate(952,700) scale(0.28,0.28)"><g transform="" style="fill: rgb(0, 0, 0);">
<polygon points="0,100 100,50 100,50 0,0 "/>
</g></g><g transform="translate(1008,700) scale(0.28,0.28)"><g transform="" style="fill: rgb(0, 0, 0);">
<polygon points="100,100 50,0 50,0 0,100 "/>
</g></g><g transform="translate(0,728) scale(0.28,0.28)"><g transform="" style="fill: rgb(0, 0, 0);">
<polygon points="100,100 0,50 0,50 100,0 "/>
</g></g><g transform="translate(28,728) scale(0.28,0.28)"><g transform="" style="fill: rgb(0, 0, 0);">
<polygon points="0,100 100,50 100,50 0,0 "/>
</g></g><g transform="translate(112,728) scale(0.28,0.28)"><g transform="" style="fill: rgb(0, 0, 0);">
<polygon points="100,100 50,0 50,0 0,100 "/>
</g></g><g transform="translate(168,728) scale(0.28,0.28)"><g transform="" style="fill: rgb(0, 0, 0);">
<polygon points="99.999,49.999 99.998,49.999 49.999,0 0,49.999 -0.001,49.999 -0.001,50 0,50 49.999,99.999 99.998,50 99.999,50 
	99.998,50 "/>
</g></g><g transform="translate(280,728) scale(0.28,0.28)"><g transform="" style="fill: rgb(0, 0, 0);">
<polygon points="99.999,49.999 99.998,49.999 49.999,0 0,49.999 -0.001,49.999 -0.001,50 0,50 49.999,99.999 99.998,50 99.999,50 
	99.998,50 "/>
</g></g><g transform="translate(448,728) scale(0.28,0.28)"><g transform="" style="fill: rgb(0, 0, 0);">
<rect width="100" height="100"/>
</g></g><g transform="translate(476,728) scale(0.28,0.28)"><g transform="" style="fill: rgb(0, 0, 0);">
<polygon points="0,100 100,50 100,50 0,0 "/>
</g></g><g transform="translate(532,728) scale(0.28,0.28)"><g transform="" style="fill: rgb(0, 0, 0);">
<polygon points="99.999,49.999 99.998,49.999 49.999,0 0,49.999 -0.001,49.999 -0.001,50 0,50 49.999,99.999 99.998,50 99.999,50 
	99.998,50 "/>
</g></g><g transform="translate(616,728) scale(0.28,0.28)"><g transform="" style="fill: rgb(0, 0, 0);">
<polygon points="100,100 0,50 0,50 100,0 "/>
</g></g><g transform="translate(644,728) scale(0.28,0.28)"><g transform="" style="fill: rgb(0, 0, 0);">
<rect width="100" height="100"/>
</g></g><g transform="translate(672,728) scale(0.28,0.28)"><g transform="" style="fill: rgb(0, 0, 0);">
<rect width="100" height="100"/>
</g></g><g transform="translate(700,728) scale(0.28,0.28)"><g transform="" style="fill: rgb(0, 0, 0);">
<polygon points="0,100 100,50 100,50 0,0 "/>
</g></g><g transform="translate(756,728) scale(0.28,0.28)"><g transform="" style="fill: rgb(0, 0, 0);">
<rect width="100" height="100"/>
</g></g><g transform="translate(812,728) scale(0.28,0.28)"><g transform="" style="fill: rgb(0, 0, 0);">
<g>
	<path d="M100,34.375V0H34.375C24.87,0,16.764,3.353,10.059,10.059S0,24.87,0,34.375V100h100V34.375z"/>
</g>
</g></g><g transform="translate(840,728) scale(0.28,0.28)"><g transform="" style="fill: rgb(0, 0, 0);">
<rect width="100" height="100"/>
</g></g><g transform="translate(868,728) scale(0.28,0.28)"><g transform="" style="fill: rgb(0, 0, 0);">
<rect width="100" height="100"/>
</g></g><g transform="translate(896,728) scale(0.28,0.28)"><g transform="" style="fill: rgb(0, 0, 0);">
<rect width="100" height="100"/>
</g></g><g transform="translate(924,728) scale(0.28,0.28)"><g transform="" style="fill: rgb(0, 0, 0);">
<rect width="100" height="100"/>
</g></g><g transform="translate(1008,728) scale(0.28,0.28)"><g transform="" style="fill: rgb(0, 0, 0);">
<rect width="100" height="100"/>
</g></g><g transform="translate(56,756) scale(0.28,0.28)"><g transform="" style="fill: rgb(0, 0, 0);">
<polygon points="99.999,49.999 99.998,49.999 49.999,0 0,49.999 -0.001,49.999 -0.001,50 0,50 49.999,99.999 99.998,50 99.999,50 
	99.998,50 "/>
</g></g><g transform="translate(112,756) scale(0.28,0.28)"><g transform="" style="fill: rgb(0, 0, 0);">
<g>
	<path d="M100,0H0v65.625c0,9.506,3.353,17.611,10.059,24.316S24.87,100,34.375,100H100V0z"/>
</g>
</g></g><g transform="translate(140,756) scale(0.28,0.28)"><g transform="" style="fill: rgb(0, 0, 0);">
<polygon points="0,100 100,50 100,50 0,0 "/>
</g></g><g transform="translate(252,756) scale(0.28,0.28)"><g transform="" style="fill: rgb(0, 0, 0);">
<polygon points="100,100 50,0 50,0 0,100 "/>
</g></g><g transform="translate(364,756) scale(0.28,0.28)"><g transform="" style="fill: rgb(0, 0, 0);">
<polygon points="100,100 50,0 50,0 0,100 "/>
</g></g><g transform="translate(420,756) scale(0.28,0.28)"><g transform="" style="fill: rgb(0, 0, 0);">
<polygon points="100,100 0,50 0,50 100,0 "/>
</g></g><g transform="translate(448,756) scale(0.28,0.28)"><g transform="" style="fill: rgb(0, 0, 0);">
<rect width="100" height="100"/>
</g></g><g transform="translate(504,756) scale(0.28,0.28)"><g transform="" style="fill: rgb(0, 0, 0);">
<polygon points="99.999,49.999 99.998,49.999 49.999,0 0,49.999 -0.001,49.999 -0.001,50 0,50 49.999,99.999 99.998,50 99.999,50 
	99.998,50 "/>
</g></g><g transform="translate(644,756) scale(0.28,0.28)"><g transform="" style="fill: rgb(0, 0, 0);">
<g>
	<path d="M100,0H0v65.625c0,9.506,3.353,17.611,10.059,24.316S24.87,100,34.375,100H100V0z"/>
</g>
</g></g><g transform="translate(672,756) scale(0.28,0.28)"><g transform="" style="fill: rgb(0, 0, 0);">
<rect width="100" height="100"/>
</g></g><g transform="translate(728,756) scale(0.28,0.28)"><g transform="" style="fill: rgb(0, 0, 0);">
<g>
	<path d="M100,34.375V0H34.375C24.87,0,16.764,3.353,10.059,10.059S0,24.87,0,34.375V100h100V34.375z"/>
</g>
</g></g><g transform="translate(756,756) scale(0.28,0.28)"><g transform="" style="fill: rgb(0, 0, 0);">
<rect width="100" height="100"/>
</g></g><g transform="translate(812,756) scale(0.28,0.28)"><g transform="" style="fill: rgb(0, 0, 0);">
<rect width="100" height="100"/>
</g></g><g transform="translate(868,756) scale(0.28,0.28)"><g transform="" style="fill: rgb(0, 0, 0);">
<rect width="100" height="100"/>
</g></g><g transform="translate(924,756) scale(0.28,0.28)"><g transform="" style="fill: rgb(0, 0, 0);">
<rect width="100" height="100"/>
</g></g><g transform="translate(980,756) scale(0.28,0.28)"><g transform="" style="fill: rgb(0, 0, 0);">
<g>
	<path d="M100,34.375V0H34.375C24.87,0,16.764,3.353,10.059,10.059S0,24.87,0,34.375V100h100V34.375z"/>
</g>
</g></g><g transform="translate(1008,756) scale(0.28,0.28)"><g transform="" style="fill: rgb(0, 0, 0);">
<rect width="100" height="100"/>
</g></g><g transform="translate(0,784) scale(0.28,0.28)"><g transform="" style="fill: rgb(0, 0, 0);">
<polygon points="100,100 0,50 0,50 100,0 "/>
</g></g><g transform="translate(28,784) scale(0.28,0.28)"><g transform="" style="fill: rgb(0, 0, 0);">
<polygon points="0,100 100,50 100,50 0,0 "/>
</g></g><g transform="translate(84,784) scale(0.28,0.28)"><g transform="" style="fill: rgb(0, 0, 0);">
<polygon points="99.999,49.999 99.998,49.999 49.999,0 0,49.999 -0.001,49.999 -0.001,50 0,50 49.999,99.999 99.998,50 99.999,50 
	99.998,50 "/>
</g></g><g transform="translate(168,784) scale(0.28,0.28)"><g transform="" style="fill: rgb(0, 0, 0);">
<polygon points="100,100 0,50 0,50 100,0 "/>
</g></g><g transform="translate(196,784) scale(0.28,0.28)"><g transform="" style="fill: rgb(0, 0, 0);">
<rect width="100" height="100"/>
</g></g><g transform="translate(224,784) scale(0.28,0.28)"><g transform="" style="fill: rgb(0, 0, 0);">
<rect width="100" height="100"/>
</g></g><g transform="translate(252,784) scale(0.28,0.28)"><g transform="" style="fill: rgb(0, 0, 0);">
<rect width="100" height="100"/>
</g></g><g transform="translate(364,784) scale(0.28,0.28)"><g transform="" style="fill: rgb(0, 0, 0);">
<rect width="100" height="100"/>
</g></g><g transform="translate(448,784) scale(0.28,0.28)"><g transform="" style="fill: rgb(0, 0, 0);">
<rect width="100" height="100"/>
</g></g><g transform="translate(532,784) scale(0.28,0.28)"><g transform="" style="fill: rgb(0, 0, 0);">
<g>
	<path d="M100,34.375V0H34.375C24.87,0,16.764,3.353,10.059,10.059S0,24.87,0,34.375V100h100V34.375z"/>
</g>
</g></g><g transform="translate(560,784) scale(0.28,0.28)"><g transform="" style="fill: rgb(0, 0, 0);">
<g>
	<path d="M100,34.375c0-9.505-3.354-17.611-10.059-24.316S75.131,0,65.625,0H0v100h100V34.375z"/>
</g>
</g></g><g transform="translate(672,784) scale(0.28,0.28)"><g transform="" style="fill: rgb(0, 0, 0);">
<rect width="100" height="100"/>
</g></g><g transform="translate(728,784) scale(0.28,0.28)"><g transform="" style="fill: rgb(0, 0, 0);">
<g>
	<path d="M100,0H0v65.625c0,9.506,3.353,17.611,10.059,24.316S24.87,100,34.375,100H100V0z"/>
</g>
</g></g><g transform="translate(756,784) scale(0.28,0.28)"><g transform="" style="fill: rgb(0, 0, 0);">
<rect width="100" height="100"/>
</g></g><g transform="translate(784,784) scale(0.28,0.28)"><g transform="" style="fill: rgb(0, 0, 0);">
<rect width="100" height="100"/>
</g></g><g transform="translate(812,784) scale(0.28,0.28)"><g transform="" style="fill: rgb(0, 0, 0);">
<rect width="100" height="100"/>
</g></g><g transform="translate(840,784) scale(0.28,0.28)"><g transform="" style="fill: rgb(0, 0, 0);">
<rect width="100" height="100"/>
</g></g><g transform="translate(868,784) scale(0.28,0.28)"><g transform="" style="fill: rgb(0, 0, 0);">
<rect width="100" height="100"/>
</g></g><g transform="translate(896,784) scale(0.28,0.28)"><g transform="" style="fill: rgb(0, 0, 0);">
<rect width="100" height="100"/>
</g></g><g transform="translate(924,784) scale(0.28,0.28)"><g transform="" style="fill: rgb(0, 0, 0);">
<g>
	<path d="M100,0H0v100h65.625c9.506,0,17.611-3.354,24.316-10.059S100,75.131,100,65.625V0z"/>
</g>
</g></g><g transform="translate(980,784) scale(0.28,0.28)"><g transform="" style="fill: rgb(0, 0, 0);">
<rect width="100" height="100"/>
</g></g><g transform="translate(1008,784) scale(0.28,0.28)"><g transform="" style="fill: rgb(0, 0, 0);">
<rect width="100" height="100"/>
</g></g><g transform="translate(224,812) scale(0.28,0.28)"><g transform="" style="fill: rgb(0, 0, 0);">
<rect width="100" height="100"/>
</g></g><g transform="translate(252,812) scale(0.28,0.28)"><g transform="" style="fill: rgb(0, 0, 0);">
<rect width="100" height="100"/>
</g></g><g transform="translate(280,812) scale(0.28,0.28)"><g transform="" style="fill: rgb(0, 0, 0);">
<polygon points="0,100 100,50 100,50 0,0 "/>
</g></g><g transform="translate(336,812) scale(0.28,0.28)"><g transform="" style="fill: rgb(0, 0, 0);">
<polygon points="100,100 0,50 0,50 100,0 "/>
</g></g><g transform="translate(364,812) scale(0.28,0.28)"><g transform="" style="fill: rgb(0, 0, 0);">
<g>
	<path d="M100,0H0v100h65.625c9.506,0,17.611-3.354,24.316-10.059S100,75.131,100,65.625V0z"/>
</g>
</g></g><g transform="translate(420,812) scale(0.28,0.28)"><g transform="" style="fill: rgb(0, 0, 0);">
<g>
	<path d="M100,34.375V0H34.375C24.87,0,16.764,3.353,10.059,10.059S0,24.87,0,34.375V100h100V34.375z"/>
</g>
</g></g><g transform="translate(448,812) scale(0.28,0.28)"><g transform="" style="fill: rgb(0, 0, 0);">
<rect width="100" height="100"/>
</g></g><g transform="translate(476,812) scale(0.28,0.28)"><g transform="" style="fill: rgb(0, 0, 0);">
<rect width="100" height="100"/>
</g></g><g transform="translate(504,812) scale(0.28,0.28)"><g transform="" style="fill: rgb(0, 0, 0);">
<rect width="100" height="100"/>
</g></g><g transform="translate(532,812) scale(0.28,0.28)"><g transform="" style="fill: rgb(0, 0, 0);">
<rect width="100" height="100"/>
</g></g><g transform="translate(560,812) scale(0.28,0.28)"><g transform="" style="fill: rgb(0, 0, 0);">
<g>
	<path d="M100,0H0v100h65.625c9.506,0,17.611-3.354,24.316-10.059S100,75.131,100,65.625V0z"/>
</g>
</g></g><g transform="translate(644,812) scale(0.28,0.28)"><g transform="" style="fill: rgb(0, 0, 0);">
<g>
	<path d="M100,34.375V0H34.375C24.87,0,16.764,3.353,10.059,10.059S0,24.87,0,34.375V100h100V34.375z"/>
</g>
</g></g><g transform="translate(672,812) scale(0.28,0.28)"><g transform="" style="fill: rgb(0, 0, 0);">
<rect width="100" height="100"/>
</g></g><g transform="translate(700,812) scale(0.28,0.28)"><g transform="" style="fill: rgb(0, 0, 0);">
<polygon points="0,100 100,50 100,50 0,0 "/>
</g></g><g transform="translate(784,812) scale(0.28,0.28)"><g transform="" style="fill: rgb(0, 0, 0);">
<rect width="100" height="100"/>
</g></g><g transform="translate(896,812) scale(0.28,0.28)"><g transform="" style="fill: rgb(0, 0, 0);">
<rect width="100" height="100"/>
</g></g><g transform="translate(980,812) scale(0.28,0.28)"><g transform="" style="fill: rgb(0, 0, 0);">
<rect width="100" height="100"/>
</g></g><g transform="translate(1008,812) scale(0.28,0.28)"><g transform="" style="fill: rgb(0, 0, 0);">
<rect width="100" height="100"/>
</g></g><g transform="translate(224,840) scale(0.28,0.28)"><g transform="" style="fill: rgb(0, 0, 0);">
<polygon points="0,-0.001 50,99.999 50,99.999 100,-0.001 "/>
</g></g><g transform="translate(392,840) scale(0.28,0.28)"><g transform="" style="fill: rgb(0, 0, 0);">
<g>
	<path d="M100,34.375V0H34.375C24.87,0,16.764,3.353,10.059,10.059S0,24.87,0,34.375V100h100V34.375z"/>
</g>
</g></g><g transform="translate(420,840) scale(0.28,0.28)"><g transform="" style="fill: rgb(0, 0, 0);">
<g>
	<path d="M100,0H0v100h65.625c9.506,0,17.611-3.354,24.316-10.059S100,75.131,100,65.625V0z"/>
</g>
</g></g><g transform="translate(532,840) scale(0.28,0.28)"><g transform="" style="fill: rgb(0, 0, 0);">
<rect width="100" height="100"/>
</g></g><g transform="translate(588,840) scale(0.28,0.28)"><g transform="" style="fill: rgb(0, 0, 0);">
<polygon points="100,100 0,50 0,50 100,0 "/>
</g></g><g transform="translate(616,840) scale(0.28,0.28)"><g transform="" style="fill: rgb(0, 0, 0);">
<rect width="100" height="100"/>
</g></g><g transform="translate(644,840) scale(0.28,0.28)"><g transform="" style="fill: rgb(0, 0, 0);">
<rect width="100" height="100"/>
</g></g><g transform="translate(784,840) scale(0.28,0.28)"><g transform="" style="fill: rgb(0, 0, 0);">
<rect width="100" height="100"/>
</g></g><g transform="translate(840,840) scale(0.28,0.28)"><g transform="" style="fill: rgb(0, 0, 0);">
<polygon points="99.999,49.999 99.998,49.999 49.999,0 0,49.999 -0.001,49.999 -0.001,50 0,50 49.999,99.999 99.998,50 99.999,50 
	99.998,50 "/>
</g></g><g transform="translate(896,840) scale(0.28,0.28)"><g transform="" style="fill: rgb(0, 0, 0);">
<rect width="100" height="100"/>
</g></g><g transform="translate(980,840) scale(0.28,0.28)"><g transform="" style="fill: rgb(0, 0, 0);">
<rect width="100" height="100"/>
</g></g><g transform="translate(1008,840) scale(0.28,0.28)"><g transform="" style="fill: rgb(0, 0, 0);">
<rect width="100" height="100"/>
</g></g><g transform="translate(252,868) scale(0.28,0.28)"><g transform="" style="fill: rgb(0, 0, 0);">
<polygon points="99.999,49.999 99.998,49.999 49.999,0 0,49.999 -0.001,49.999 -0.001,50 0,50 49.999,99.999 99.998,50 99.999,50 
	99.998,50 "/>
</g></g><g transform="translate(308,868) scale(0.28,0.28)"><g transform="" style="fill: rgb(0, 0, 0);">
<polygon points="100,100 0,50 0,50 100,0 "/>
</g></g><g transform="translate(336,868) scale(0.28,0.28)"><g transform="" style="fill: rgb(0, 0, 0);">
<rect width="100" height="100"/>
</g></g><g transform="translate(364,868) scale(0.28,0.28)"><g transform="" style="fill: rgb(0, 0, 0);">
<rect width="100" height="100"/>
</g></g><g transform="translate(392,868) scale(0.28,0.28)"><g transform="" style="fill: rgb(0, 0, 0);">
<g>
	<path d="M100,0H0v100h65.625c9.506,0,17.611-3.354,24.316-10.059S100,75.131,100,65.625V0z"/>
</g>
</g></g><g transform="translate(476,868) scale(0.28,0.28)"><g transform="" style="fill: rgb(0, 0, 0);">
<polygon points="100,100 50,0 50,0 0,100 "/>
</g></g><g transform="translate(532,868) scale(0.28,0.28)"><g transform="" style="fill: rgb(0, 0, 0);">
<g>
	<path d="M100,0H0v65.625c0,9.506,3.353,17.611,10.059,24.316S24.87,100,34.375,100H100V0z"/>
</g>
</g></g><g transform="translate(560,868) scale(0.28,0.28)"><g transform="" style="fill: rgb(0, 0, 0);">
<g>
	<path d="M100,34.375c0-9.505-3.354-17.611-10.059-24.316S75.131,0,65.625,0H0v100h100V34.375z"/>
</g>
</g></g><g transform="translate(616,868) scale(0.28,0.28)"><g transform="" style="fill: rgb(0, 0, 0);">
<rect width="100" height="100"/>
</g></g><g transform="translate(644,868) scale(0.28,0.28)"><g transform="" style="fill: rgb(0, 0, 0);">
<rect width="100" height="100"/>
</g></g><g transform="translate(784,868) scale(0.28,0.28)"><g transform="" style="fill: rgb(0, 0, 0);">
<rect width="100" height="100"/>
</g></g><g transform="translate(896,868) scale(0.28,0.28)"><g transform="" style="fill: rgb(0, 0, 0);">
<rect width="100" height="100"/>
</g></g><g transform="translate(980,868) scale(0.28,0.28)"><g transform="" style="fill: rgb(0, 0, 0);">
<rect width="100" height="100"/>
</g></g><g transform="translate(1008,868) scale(0.28,0.28)"><g transform="" style="fill: rgb(0, 0, 0);">
<rect width="100" height="100"/>
</g></g><g transform="translate(280,896) scale(0.28,0.28)"><g transform="" style="fill: rgb(0, 0, 0);">
<polygon points="100,100 50,0 50,0 0,100 "/>
</g></g><g transform="translate(364,896) scale(0.28,0.28)"><g transform="" style="fill: rgb(0, 0, 0);">
<rect width="100" height="100"/>
</g></g><g transform="translate(420,896) scale(0.28,0.28)"><g transform="" style="fill: rgb(0, 0, 0);">
<polygon points="99.999,49.999 99.998,49.999 49.999,0 0,49.999 -0.001,49.999 -0.001,50 0,50 49.999,99.999 99.998,50 99.999,50 
	99.998,50 "/>
</g></g><g transform="translate(476,896) scale(0.28,0.28)"><g transform="" style="fill: rgb(0, 0, 0);">
<polygon points="0,-0.001 50,99.999 50,99.999 100,-0.001 "/>
</g></g><g transform="translate(560,896) scale(0.28,0.28)"><g transform="" style="fill: rgb(0, 0, 0);">
<rect width="100" height="100"/>
</g></g><g transform="translate(588,896) scale(0.28,0.28)"><g transform="" style="fill: rgb(0, 0, 0);">
<rect width="100" height="100"/>
</g></g><g transform="translate(616,896) scale(0.28,0.28)"><g transform="" style="fill: rgb(0, 0, 0);">
<rect width="100" height="100"/>
</g></g><g transform="translate(644,896) scale(0.28,0.28)"><g transform="" style="fill: rgb(0, 0, 0);">
<rect width="100" height="100"/>
</g></g><g transform="translate(672,896) scale(0.28,0.28)"><g transform="" style="fill: rgb(0, 0, 0);">
<polygon points="0,100 100,50 100,50 0,0 "/>
</g></g><g transform="translate(756,896) scale(0.28,0.28)"><g transform="" style="fill: rgb(0, 0, 0);">
<g>
	<path d="M100,34.375V0H34.375C24.87,0,16.764,3.353,10.059,10.059S0,24.87,0,34.375V100h100V34.375z"/>
</g>
</g></g><g transform="translate(784,896) scale(0.28,0.28)"><g transform="" style="fill: rgb(0, 0, 0);">
<rect width="100" height="100"/>
</g></g><g transform="translate(812,896) scale(0.28,0.28)"><g transform="" style="fill: rgb(0, 0, 0);">
<rect width="100" height="100"/>
</g></g><g transform="translate(840,896) scale(0.28,0.28)"><g transform="" style="fill: rgb(0, 0, 0);">
<rect width="100" height="100"/>
</g></g><g transform="translate(868,896) scale(0.28,0.28)"><g transform="" style="fill: rgb(0, 0, 0);">
<rect width="100" height="100"/>
</g></g><g transform="translate(896,896) scale(0.28,0.28)"><g transform="" style="fill: rgb(0, 0, 0);">
<rect width="100" height="100"/>
</g></g><g transform="translate(980,896) scale(0.28,0.28)"><g transform="" style="fill: rgb(0, 0, 0);">
<g>
	<path d="M100,0H0v65.625c0,9.506,3.353,17.611,10.059,24.316S24.87,100,34.375,100H100V0z"/>
</g>
</g></g><g transform="translate(1008,896) scale(0.28,0.28)"><g transform="" style="fill: rgb(0, 0, 0);">
<g>
	<path d="M100,0H0v100h65.625c9.506,0,17.611-3.354,24.316-10.059S100,75.131,100,65.625V0z"/>
</g>
</g></g><g transform="translate(280,924) scale(0.28,0.28)"><g transform="" style="fill: rgb(0, 0, 0);">
<g>
	<path d="M100,0H0v65.625c0,9.506,3.353,17.611,10.059,24.316S24.87,100,34.375,100H100V0z"/>
</g>
</g></g><g transform="translate(308,924) scale(0.28,0.28)"><g transform="" style="fill: rgb(0, 0, 0);">
<rect width="100" height="100"/>
</g></g><g transform="translate(336,924) scale(0.28,0.28)"><g transform="" style="fill: rgb(0, 0, 0);">
<rect width="100" height="100"/>
</g></g><g transform="translate(364,924) scale(0.28,0.28)"><g transform="" style="fill: rgb(0, 0, 0);">
<rect width="100" height="100"/>
</g></g><g transform="translate(392,924) scale(0.28,0.28)"><g transform="" style="fill: rgb(0, 0, 0);">
<polygon points="0,100 100,50 100,50 0,0 "/>
</g></g><g transform="translate(560,924) scale(0.28,0.28)"><g transform="" style="fill: rgb(0, 0, 0);">
<rect width="100" height="100"/>
</g></g><g transform="translate(616,924) scale(0.28,0.28)"><g transform="" style="fill: rgb(0, 0, 0);">
<g>
	<path d="M100,0H0v65.625c0,9.506,3.353,17.611,10.059,24.316S24.87,100,34.375,100H100V0z"/>
</g>
</g></g><g transform="translate(644,924) scale(0.28,0.28)"><g transform="" style="fill: rgb(0, 0, 0);">
<rect width="100" height="100"/>
</g></g><g transform="translate(700,924) scale(0.28,0.28)"><g transform="" style="fill: rgb(0, 0, 0);">
<polygon points="100,100 0,50 0,50 100,0 "/>
</g></g><g transform="translate(728,924) scale(0.28,0.28)"><g transform="" style="fill: rgb(0, 0, 0);">
<rect width="100" height="100"/>
</g></g><g transform="translate(756,924) scale(0.28,0.28)"><g transform="" style="fill: rgb(0, 0, 0);">
<rect width="100" height="100"/>
</g></g><g transform="translate(812,924) scale(0.28,0.28)"><g transform="" style="fill: rgb(0, 0, 0);">
<polygon points="0,-0.001 50,99.999 50,99.999 100,-0.001 "/>
</g></g><g transform="translate(896,924) scale(0.28,0.28)"><g transform="" style="fill: rgb(0, 0, 0);">
<rect width="100" height="100"/>
</g></g><g transform="translate(924,924) scale(0.28,0.28)"><g transform="" style="fill: rgb(0, 0, 0);">
<polygon points="0,100 100,50 100,50 0,0 "/>
</g></g><g transform="translate(224,952) scale(0.28,0.28)"><g transform="" style="fill: rgb(0, 0, 0);">
<polygon points="100,100 0,50 0,50 100,0 "/>
</g></g><g transform="translate(252,952) scale(0.28,0.28)"><g transform="" style="fill: rgb(0, 0, 0);">
<polygon points="0,100 100,50 100,50 0,0 "/>
</g></g><g transform="translate(308,952) scale(0.28,0.28)"><g transform="" style="fill: rgb(0, 0, 0);">
<rect width="100" height="100"/>
</g></g><g transform="translate(420,952) scale(0.28,0.28)"><g transform="" style="fill: rgb(0, 0, 0);">
<polygon points="99.999,49.999 99.998,49.999 49.999,0 0,49.999 -0.001,49.999 -0.001,50 0,50 49.999,99.999 99.998,50 99.999,50 
	99.998,50 "/>
</g></g><g transform="translate(476,952) scale(0.28,0.28)"><g transform="" style="fill: rgb(0, 0, 0);">
<polygon points="99.999,49.999 99.998,49.999 49.999,0 0,49.999 -0.001,49.999 -0.001,50 0,50 49.999,99.999 99.998,50 99.999,50 
	99.998,50 "/>
</g></g><g transform="translate(560,952) scale(0.28,0.28)"><g transform="" style="fill: rgb(0, 0, 0);">
<rect width="100" height="100"/>
</g></g><g transform="translate(588,952) scale(0.28,0.28)"><g transform="" style="fill: rgb(0, 0, 0);">
<polygon points="0,100 100,50 100,50 0,0 "/>
</g></g><g transform="translate(644,952) scale(0.28,0.28)"><g transform="" style="fill: rgb(0, 0, 0);">
<g>
	<path d="M100,0H0v65.625c0,9.506,3.353,17.611,10.059,24.316S24.87,100,34.375,100H100V0z"/>
</g>
</g></g><g transform="translate(672,952) scale(0.28,0.28)"><g transform="" style="fill: rgb(0, 0, 0);">
<g>
	<path d="M100,34.375c0-9.505-3.354-17.611-10.059-24.316S75.131,0,65.625,0H0v100h100V34.375z"/>
</g>
</g></g><g transform="translate(756,952) scale(0.28,0.28)"><g transform="" style="fill: rgb(0, 0, 0);">
<rect width="100" height="100"/>
</g></g><g transform="translate(868,952) scale(0.28,0.28)"><g transform="" style="fill: rgb(0, 0, 0);">
<polygon points="100,100 0,50 0,50 100,0 "/>
</g></g><g transform="translate(896,952) scale(0.28,0.28)"><g transform="" style="fill: rgb(0, 0, 0);">
<rect width="100" height="100"/>
</g></g><g transform="translate(952,952) scale(0.28,0.28)"><g transform="" style="fill: rgb(0, 0, 0);">
<polygon points="99.999,49.999 99.998,49.999 49.999,0 0,49.999 -0.001,49.999 -0.001,50 0,50 49.999,99.999 99.998,50 99.999,50 
	99.998,50 "/>
</g></g><g transform="translate(1008,952) scale(0.28,0.28)"><g transform="" style="fill: rgb(0, 0, 0);">
<polygon points="99.999,49.999 99.998,49.999 49.999,0 0,49.999 -0.001,49.999 -0.001,50 0,50 49.999,99.999 99.998,50 99.999,50 
	99.998,50 "/>
</g></g><g transform="translate(280,980) scale(0.28,0.28)"><g transform="" style="fill: rgb(0, 0, 0);">
<polygon points="100,100 0,50 0,50 100,0 "/>
</g></g><g transform="translate(308,980) scale(0.28,0.28)"><g transform="" style="fill: rgb(0, 0, 0);">
<g>
	<path d="M100,0H0v100h65.625c9.506,0,17.611-3.354,24.316-10.059S100,75.131,100,65.625V0z"/>
</g>
</g></g><g transform="translate(532,980) scale(0.28,0.28)"><g transform="" style="fill: rgb(0, 0, 0);">
<polygon points="100,100 0,50 0,50 100,0 "/>
</g></g><g transform="translate(560,980) scale(0.28,0.28)"><g transform="" style="fill: rgb(0, 0, 0);">
<rect width="100" height="100"/>
</g></g><g transform="translate(616,980) scale(0.28,0.28)"><g transform="" style="fill: rgb(0, 0, 0);">
<polygon points="100,100 50,0 50,0 0,100 "/>
</g></g><g transform="translate(672,980) scale(0.28,0.28)"><g transform="" style="fill: rgb(0, 0, 0);">
<rect width="100" height="100"/>
</g></g><g transform="translate(756,980) scale(0.28,0.28)"><g transform="" style="fill: rgb(0, 0, 0);">
<g>
	<path d="M100,0H0v65.625c0,9.506,3.353,17.611,10.059,24.316S24.87,100,34.375,100H100V0z"/>
</g>
</g></g><g transform="translate(784,980) scale(0.28,0.28)"><g transform="" style="fill: rgb(0, 0, 0);">
<g>
	<path d="M100,34.375c0-9.505-3.354-17.611-10.059-24.316S75.131,0,65.625,0H0v100h100V34.375z"/>
</g>
</g></g><g transform="translate(840,980) scale(0.28,0.28)"><g transform="" style="fill: rgb(0, 0, 0);">
<polygon points="100,100 50,0 50,0 0,100 "/>
</g></g><g transform="translate(896,980) scale(0.28,0.28)"><g transform="" style="fill: rgb(0, 0, 0);">
<g>
	<path d="M100,0H0v65.625c0,9.506,3.353,17.611,10.059,24.316S24.87,100,34.375,100H100V0z"/>
</g>
</g></g><g transform="translate(924,980) scale(0.28,0.28)"><g transform="" style="fill: rgb(0, 0, 0);">
<polygon points="0,100 100,50 100,50 0,0 "/>
</g></g><g transform="translate(224,1008) scale(0.28,0.28)"><g transform="" style="fill: rgb(0, 0, 0);">
<polygon points="100,100 0,50 0,50 100,0 "/>
</g></g><g transform="translate(252,1008) scale(0.28,0.28)"><g transform="" style="fill: rgb(0, 0, 0);">
<polygon points="0,100 100,50 100,50 0,0 "/>
</g></g><g transform="translate(364,1008) scale(0.28,0.28)"><g transform="" style="fill: rgb(0, 0, 0);">
<polygon points="100,100 0,50 0,50 100,0 "/>
</g></g><g transform="translate(392,1008) scale(0.28,0.28)"><g transform="" style="fill: rgb(0, 0, 0);">
<rect width="100" height="100"/>
</g></g><g transform="translate(420,1008) scale(0.28,0.28)"><g transform="" style="fill: rgb(0, 0, 0);">
<rect width="100" height="100"/>
</g></g><g transform="translate(448,1008) scale(0.28,0.28)"><g transform="" style="fill: rgb(0, 0, 0);">
<polygon points="0,100 100,50 100,50 0,0 "/>
</g></g><g transform="translate(560,1008) scale(0.28,0.28)"><g transform="" style="fill: rgb(0, 0, 0);">
<polygon points="0,-0.001 50,99.999 50,99.999 100,-0.001 "/>
</g></g><g transform="translate(616,1008) scale(0.28,0.28)"><g transform="" style="fill: rgb(0, 0, 0);">
<g>
	<path d="M100,0H0v65.625c0,9.506,3.353,17.611,10.059,24.316S24.87,100,34.375,100H100V0z"/>
</g>
</g></g><g transform="translate(644,1008) scale(0.28,0.28)"><g transform="" style="fill: rgb(0, 0, 0);">
<rect width="100" height="100"/>
</g></g><g transform="translate(672,1008) scale(0.28,0.28)"><g transform="" style="fill: rgb(0, 0, 0);">
<g>
	<path d="M100,0H0v100h65.625c9.506,0,17.611-3.354,24.316-10.059S100,75.131,100,65.625V0z"/>
</g>
</g></g><g transform="translate(784,1008) scale(0.28,0.28)"><g transform="" style="fill: rgb(0, 0, 0);">
<polygon points="0,-0.001 50,99.999 50,99.999 100,-0.001 "/>
</g></g><g transform="translate(840,1008) scale(0.28,0.28)"><g transform="" style="fill: rgb(0, 0, 0);">
<g>
	<path d="M100,0H0v65.625c0,9.506,3.353,17.611,10.059,24.316S24.87,100,34.375,100H100V0z"/>
</g>
</g></g><g transform="translate(868,1008) scale(0.28,0.28)"><g transform="" style="fill: rgb(0, 0, 0);">
<polygon points="0,100 100,50 100,50 0,0 "/>
</g></g><g transform="translate(1008,1008) scale(0.28,0.28)"><g transform="" style="fill: rgb(0, 0, 0);">
<polygon points="99.999,49.999 99.998,49.999 49.999,0 0,49.999 -0.001,49.999 -0.001,50 0,50 49.999,99.999 99.998,50 99.999,50 
	99.998,50 "/>
</g></g><g transform="translate(0,0) scale(1.96, 1.96)"><g transform="" style="fill: rgb(0, 0, 0);">
<g>
	<rect x="15" y="15" style="fill:none;" width="70" height="70"/>
	<path d="M85,0H15H0v15v70v15h15h70h15V85V15V0H85z M85,85H15V15h70V85z"/>
</g>
</g></g><g transform="translate(840,0) scale(1.96, 1.96)"><g transform="" style="fill: rgb(0, 0, 0);">
<g>
	<rect x="15" y="15" style="fill:none;" width="70" height="70"/>
	<path d="M85,0H15H0v15v70v15h15h70h15V85V15V0H85z M85,85H15V15h70V85z"/>
</g>
</g></g><g transform="translate(0,840) scale(1.96, 1.96)"><g transform="" style="fill: rgb(0, 0, 0);">
<g>
	<rect x="15" y="15" style="fill:none;" width="70" height="70"/>
	<path d="M85,0H15H0v15v70v15h15h70h15V85V15V0H85z M85,85H15V15h70V85z"/>
</g>
</g></g><g transform="translate(56,56) scale(0.84, 0.84)"><g transform="" style="fill: rgb(0, 0, 0);">
<rect width="100" height="100"/>
</g></g><g transform="translate(896,56) scale(0.84, 0.84)"><g transform="" style="fill: rgb(0, 0, 0);">
<rect width="100" height="100"/>
</g></g><g transform="translate(56,896) scale(0.84, 0.84)"><g transform="" style="fill: rgb(0, 0, 0);">
<rect width="100" height="100"/>
</g></g></g></svg>