<svg width="16" height="17" viewBox="0 0 16 17" fill="none" xmlns="http://www.w3.org/2000/svg">
<path d="M14.6667 11.9849V14.1099C14.6675 14.3072 14.6294 14.5024 14.555 14.6832C14.4807 14.8639 14.3716 15.0262 14.2348 15.1596C14.0979 15.2929 13.9364 15.3945 13.7605 15.4577C13.5847 15.5209 13.3983 15.5443 13.2134 15.5266C11.1619 15.2897 9.19137 14.5449 7.46004 13.352C5.84926 12.2645 4.48359 10.8134 3.46004 9.10199C2.33336 7.25409 1.6322 5.15019 1.41337 2.96074C1.39671 2.76486 1.41862 2.56744 1.4777 2.38106C1.53679 2.19467 1.63175 2.02339 1.75655 1.87814C1.88134 1.73288 2.03324 1.61683 2.20256 1.53736C2.37189 1.45789 2.55493 1.41676 2.74004 1.41657H4.74004C5.06357 1.41319 5.37723 1.53492 5.62254 1.75907C5.86786 1.98323 6.02809 2.29451 6.07337 2.63491C6.15779 3.31495 6.31434 3.98267 6.54004 4.62532C6.62973 4.87885 6.64915 5.15439 6.59597 5.41928C6.5428 5.68417 6.41928 5.92732 6.24004 6.11991L5.39337 7.01949C6.34241 8.79283 7.72434 10.2611 9.39337 11.2695L10.24 10.3699C10.4213 10.1795 10.6501 10.0482 10.8994 9.99172C11.1488 9.93523 11.4081 9.95585 11.6467 10.0512C12.2516 10.291 12.88 10.4573 13.52 10.547C13.8439 10.5955 14.1396 10.7688 14.3511 11.034C14.5625 11.2991 14.6748 11.6375 14.6667 11.9849Z" stroke="white" stroke-linecap="round" stroke-linejoin="round"/>
</svg>
