<svg width="16" height="17" viewBox="0 0 16 17" fill="none" xmlns="http://www.w3.org/2000/svg">
<path d="M15.2916 0.708252L11.0416 4.95825M11.0416 0.708252L15.2916 4.95825M14.5833 11.9849V14.1099C14.5841 14.3072 14.5437 14.5025 14.4646 14.6832C14.3856 14.864 14.2697 15.0262 14.1243 15.1596C13.979 15.2929 13.8073 15.3945 13.6205 15.4577C13.4336 15.5209 13.2356 15.5443 13.0391 15.5266C10.8594 15.2897 8.76572 14.5449 6.92618 13.352C5.21473 12.2645 3.76371 10.8135 2.67618 9.102C1.47908 7.2541 0.734104 5.15021 0.501599 2.96075C0.483898 2.76487 0.507177 2.56746 0.569953 2.38107C0.63273 2.19468 0.733628 2.02341 0.866225 1.87815C0.998821 1.73289 1.16021 1.61684 1.34012 1.53737C1.52002 1.45791 1.71451 1.41677 1.91118 1.41659H4.03618C4.37994 1.4132 4.7132 1.53493 4.97385 1.75909C5.23449 1.98324 5.40474 2.29453 5.45285 2.63492C5.54254 3.31497 5.70888 3.98268 5.94868 4.62534C6.04398 4.87886 6.06461 5.1544 6.00812 5.41929C5.95162 5.68418 5.82038 5.92733 5.62993 6.11992L4.73035 7.0195C5.7387 8.79285 7.207 10.2611 8.98035 11.2695L9.87993 10.3699C10.0725 10.1795 10.3157 10.0482 10.5806 9.99173C10.8455 9.93524 11.121 9.95587 11.3745 10.0512C12.0172 10.291 12.6849 10.4573 13.3649 10.547C13.709 10.5955 14.0233 10.7689 14.2479 11.034C14.4725 11.2991 14.5919 11.6375 14.5833 11.9849Z" stroke="#C2C2C2" stroke-linecap="round" stroke-linejoin="round"/>
</svg>
