<svg width="112" height="44" viewBox="0 0 112 44" fill="none" xmlns="http://www.w3.org/2000/svg">
<path d="M5.07732 22.8491H1.29414C0.951625 22.8491 0.657165 22.9715 0.415388 23.2132C0.137964 23.4488 0 23.7543 0 24.1309V28.4797C0 28.8222 0.137964 29.1167 0.415388 29.3585C0.657165 29.6359 0.951625 29.7738 1.29414 29.7738H10.1422V31.5454H1.29414C0.951625 31.5454 0.657165 31.6415 0.415388 31.8352C0.137964 32.0351 0 32.3667 0 32.827C0 33.2796 0.137964 33.6066 0.415388 33.8081C0.657165 34.0173 0.951625 34.1213 1.29414 34.1213H5.07732V37.2131C5.06027 38.0686 5.48804 38.4949 6.35906 38.4949C7.23937 38.4949 7.67025 38.0686 7.6532 37.2131V34.1213H11.4364C11.813 34.1213 12.1183 33.9832 12.3539 33.7073C12.5972 33.464 12.7181 33.1711 12.7181 32.827V28.4797C12.7181 28.1016 12.5972 27.7963 12.3539 27.5622C12.1183 27.3189 11.813 27.1979 11.4364 27.1979H2.57588V25.425H11.4364C12.2408 25.442 12.667 25.0112 12.7181 24.1309C12.7011 23.6706 12.5709 23.3358 12.3291 23.1265C12.0935 22.9421 11.7959 22.8491 11.4364 22.8491H7.6532V19.7571C7.67025 18.9202 7.23937 18.4925 6.35906 18.4754C5.48804 18.4925 5.06027 18.9202 5.07732 19.7571V22.8491Z" fill="#C2C2C2"/>
<path d="M20.0241 34.2482C20.0241 35.3951 20.3511 36.3763 21.0052 37.1884C21.6499 38.0424 22.5674 38.4778 23.7562 38.4949C24.6783 38.4778 25.4827 38.1353 26.1693 37.4642C26.5134 37.8083 26.907 38.0547 27.3503 38.2066C27.8028 38.3988 28.2508 38.4949 28.6956 38.4949C29.2566 38.4949 29.7882 38.357 30.2919 38.0811C30.7863 37.8037 31.2048 37.4611 31.5473 37.0504C31.9425 36.573 32.1843 36.0941 32.2773 35.6168C32.3098 35.1642 32.3269 34.6497 32.3269 34.0716V23.2644C32.3269 21.1365 31.3303 19.6579 29.3356 18.8272C28.9265 18.6598 28.5576 18.5514 28.2306 18.5018C27.9206 18.4847 27.544 18.4754 27.0992 18.4754H24.8628C24.2258 18.4754 23.6431 18.5343 23.1161 18.6521C22.8387 18.7187 22.5705 18.8242 22.3117 18.9667C22.0343 19.1171 21.763 19.3061 21.4949 19.5323C21.1679 19.7989 20.8502 20.1524 20.5402 20.5879C20.2132 21.0311 20.0412 21.4837 20.0241 21.944C20.0241 22.2881 20.1543 22.564 20.4131 22.7748C20.6317 22.9918 20.9122 23.1002 21.2563 23.1002C21.667 23.1002 21.9676 22.9576 22.1614 22.674C22.3613 22.4307 22.5333 22.1454 22.6759 21.8184C22.91 21.3922 23.2168 21.1365 23.5934 21.0528C23.97 20.9769 24.3684 20.9396 24.7868 20.9396H27.3503C27.8028 20.9396 28.2182 20.994 28.5948 21.1025C28.9544 21.2203 29.2613 21.4667 29.5124 21.8449C29.7216 22.1378 29.8347 22.4383 29.8518 22.7483V33.7321C29.8518 33.9755 29.8595 34.2141 29.8765 34.4482C29.8765 34.7085 29.8425 34.9596 29.7758 35.203C29.6596 35.7299 29.2814 36.0028 28.6444 36.0198C28.0927 36.0028 27.7486 35.7641 27.6153 35.3038C27.4557 34.8931 27.389 34.4652 27.4138 34.022V27.914C27.4138 27.1933 27.2914 26.716 27.0496 26.482C26.7722 26.2557 26.2824 26.1425 25.5788 26.1425H23.8321C22.5922 26.158 21.6499 26.561 21.0052 27.3484C20.3511 28.1186 20.0241 29.1074 20.0241 30.3147V34.2482ZM24.9387 34.0468C24.9542 34.2808 24.9387 34.6497 24.8876 35.1518C24.838 35.3874 24.7248 35.5843 24.5482 35.7424C24.3808 35.9268 24.1173 36.0198 23.7562 36.0198C23.1874 36.0028 22.8355 35.747 22.7007 35.2526C22.5426 34.8094 22.4714 34.3615 22.4869 33.9089V30.4139C22.4869 29.6777 22.617 29.1865 22.8774 28.9447C23.1207 28.7262 23.4137 28.6176 23.7562 28.6176H24.9387V34.0468Z" fill="#C2C2C2"/>
<path d="M41.2168 35.919C40.7906 35.919 40.4295 36.0074 40.1366 36.1825C39.7925 36.384 39.6205 36.728 39.6205 37.2131C39.6205 37.6579 39.7755 37.9803 40.0854 38.1817C40.3799 38.391 40.7395 38.4949 41.1672 38.4949H50.5159C51.2211 38.4949 51.7062 38.3817 51.9744 38.1554C52.2177 37.9384 52.3386 37.4766 52.3386 36.773V20.298C52.3386 19.6115 52.2471 19.1294 52.0627 18.8535C51.8194 18.6025 51.3374 18.4754 50.6167 18.4754H41.2168C40.7906 18.4754 40.4295 18.5591 40.1366 18.7281C39.7925 18.9373 39.6205 19.2797 39.6205 19.7571C39.6205 20.2019 39.7755 20.5289 40.0854 20.7382C40.3799 20.9474 40.7395 21.0528 41.1672 21.0528H45.854V35.919H41.2168ZM48.4298 35.919V21.0528H49.7627V35.919H48.4298Z" fill="#C2C2C2"/>
<path d="M67.0842 18.263H64.508V44H67.0842V18.263Z" fill="#C2C2C2"/>
<path d="M84.3198 22.8491H80.5366C80.1925 22.8491 79.8996 22.9715 79.6563 23.2132C79.3804 23.4488 79.2425 23.7543 79.2425 24.1309V28.4797C79.2425 28.8222 79.3804 29.1167 79.6563 29.3585C79.8996 29.6359 80.1925 29.7738 80.5366 29.7738H89.3831V31.5454H80.5366C80.1925 31.5454 79.8996 31.6415 79.6563 31.8352C79.3804 32.0351 79.2425 32.3667 79.2425 32.827C79.2425 33.2796 79.3804 33.6066 79.6563 33.8081C79.8996 34.0173 80.1925 34.1213 80.5366 34.1213H84.3198V37.2131C84.3027 38.0686 84.729 38.4949 85.6015 38.4949C86.4803 38.4949 86.9127 38.0686 86.8957 37.2131V34.1213H90.6773C91.0555 34.1213 91.3608 33.9832 91.5948 33.7073C91.8381 33.464 91.959 33.1711 91.959 32.827V28.4797C91.959 28.1016 91.8381 27.7963 91.5948 27.5622C91.3608 27.3189 91.0555 27.1979 90.6773 27.1979H81.8183V25.425H90.6773C91.4817 25.442 91.9094 25.0112 91.959 24.1309C91.9435 23.6706 91.8133 23.3358 91.57 23.1265C91.336 22.9421 91.0384 22.8491 90.6773 22.8491H86.8957V19.7571C86.9127 18.9202 86.4803 18.4925 85.6015 18.4754C84.729 18.4925 84.3027 18.9202 84.3198 19.7571V22.8491Z" fill="#C2C2C2"/>
<path d="M104.13 22.8491H100.347C100.003 22.8491 99.7098 22.9715 99.4665 23.2132C99.1906 23.4488 99.0527 23.7543 99.0527 24.1309V28.4797C99.0527 28.8222 99.1906 29.1167 99.4665 29.3585C99.7098 29.6359 100.003 29.7738 100.347 29.7738H109.193V31.5454H100.347C100.003 31.5454 99.7098 31.6415 99.4665 31.8352C99.1906 32.0351 99.0527 32.3667 99.0527 32.827C99.0527 33.2796 99.1906 33.6066 99.4665 33.8081C99.7098 34.0173 100.003 34.1213 100.347 34.1213H104.13V37.2131C104.113 38.0686 104.539 38.4949 105.412 38.4949C106.291 38.4949 106.723 38.0686 106.706 37.2131V34.1213H110.489C110.866 34.1213 111.171 33.9832 111.405 33.7073C111.648 33.464 111.771 33.1711 111.771 32.827V28.4797C111.771 28.1016 111.648 27.7963 111.405 27.5622C111.171 27.3189 110.866 27.1979 110.489 27.1979H101.629V25.425H110.489C111.292 25.442 111.72 25.0112 111.771 24.1309C111.754 23.6706 111.624 23.3358 111.38 23.1265C111.146 22.9421 110.849 22.8491 110.489 22.8491H106.706V19.7571C106.723 18.9202 106.291 18.4925 105.412 18.4754C104.539 18.4925 104.113 18.9202 104.13 19.7571V22.8491Z" fill="#C2C2C2"/>
<path d="M44.8212 0.0125603C44.009 -0.055117 43.3323 0.147915 42.7908 0.689334C42.2833 1.23075 42.0126 1.87356 42.0126 2.58417V5.18981C42.0126 6.13729 42.3172 6.84784 42.9263 7.32158C43.4339 7.76149 44.0767 7.99836 44.8212 7.99836C45.5656 7.99836 46.2085 7.72771 46.6823 7.22013C47.1222 6.74639 47.4608 6.34026 47.63 5.96804L66.9855 7.99836C67.8315 8.06603 68.5082 7.8291 69.0158 7.25384C69.5234 6.71242 69.7603 6.10332 69.7603 5.39271V2.8211C69.7265 1.80594 69.4558 1.06149 68.9144 0.62159C68.4068 0.215526 67.7638 0.0125603 66.9855 0.0125603C66.2072 0.046399 65.6321 0.283138 65.1584 0.72304C64.6847 1.23062 64.3463 1.63662 64.1432 2.00884L44.8212 0.0125603Z" fill="#DEDEDE"/>
</svg>
