<svg width="23" height="12" viewBox="0 0 23 12" fill="none" xmlns="http://www.w3.org/2000/svg">
<path d="M14.1999 1.62671H17.0399C17.6615 1.62671 18.277 1.74914 18.8512 1.98701C19.4255 2.22488 19.9473 2.57354 20.3868 3.01307C20.8264 3.4526 21.175 3.9744 21.4129 4.54867C21.6508 5.12295 21.7732 5.73845 21.7732 6.36004C21.7732 6.98163 21.6508 7.59713 21.4129 8.17141C21.175 8.74568 20.8264 9.26748 20.3868 9.70701C19.9473 10.1465 19.4255 10.4952 18.8512 10.7331C18.277 10.9709 17.6615 11.0934 17.0399 11.0934H14.1999M8.51987 11.0934H5.67987C5.05828 11.0934 4.44277 10.9709 3.8685 10.7331C3.29422 10.4952 2.77242 10.1465 2.33289 9.70701C1.44522 8.81934 0.946533 7.6154 0.946533 6.36004C0.946533 5.10468 1.44522 3.90074 2.33289 3.01307C3.22057 2.1254 4.42451 1.62671 5.67987 1.62671H8.51987M7.5732 6.36004H15.1465" stroke="#1E1E1E" stroke-width="1.42" stroke-linecap="round" stroke-linejoin="round"/>
</svg>
